%TF.GenerationSoftware,KiCad,Pcbnew,7.0.9*%
%TF.CreationDate,2024-01-23T15:09:08+05:30*%
%TF.ProjectId,3 Keypad,33204b65-7970-4616-942e-6b696361645f,rev?*%
%TF.SameCoordinates,Original*%
%TF.FileFunction,Legend,Top*%
%TF.FilePolarity,Positive*%
%FSLAX46Y46*%
G04 Gerber Fmt 4.6, Leading zero omitted, Abs format (unit mm)*
G04 Created by KiCad (PCBNEW 7.0.9) date 2024-01-23 15:09:08*
%MOMM*%
%LPD*%
G01*
G04 APERTURE LIST*
%ADD10C,0.150000*%
%ADD11C,0.120000*%
%ADD12R,2.000000X2.000000*%
%ADD13C,2.000000*%
%ADD14R,3.200000X2.000000*%
%ADD15R,1.600000X1.600000*%
%ADD16O,1.600000X1.600000*%
%ADD17C,1.750000*%
%ADD18C,4.000000*%
%ADD19C,2.500000*%
%ADD20O,1.700000X1.700000*%
%ADD21R,1.700000X3.500000*%
%ADD22R,1.700000X1.700000*%
%ADD23R,3.500000X1.700000*%
G04 APERTURE END LIST*
D10*
X194954540Y-62693468D02*
X195097397Y-62741087D01*
X195097397Y-62741087D02*
X195335492Y-62741087D01*
X195335492Y-62741087D02*
X195430730Y-62693468D01*
X195430730Y-62693468D02*
X195478349Y-62645848D01*
X195478349Y-62645848D02*
X195525968Y-62550610D01*
X195525968Y-62550610D02*
X195525968Y-62455372D01*
X195525968Y-62455372D02*
X195478349Y-62360134D01*
X195478349Y-62360134D02*
X195430730Y-62312515D01*
X195430730Y-62312515D02*
X195335492Y-62264896D01*
X195335492Y-62264896D02*
X195145016Y-62217277D01*
X195145016Y-62217277D02*
X195049778Y-62169658D01*
X195049778Y-62169658D02*
X195002159Y-62122039D01*
X195002159Y-62122039D02*
X194954540Y-62026801D01*
X194954540Y-62026801D02*
X194954540Y-61931563D01*
X194954540Y-61931563D02*
X195002159Y-61836325D01*
X195002159Y-61836325D02*
X195049778Y-61788706D01*
X195049778Y-61788706D02*
X195145016Y-61741087D01*
X195145016Y-61741087D02*
X195383111Y-61741087D01*
X195383111Y-61741087D02*
X195525968Y-61788706D01*
X195859302Y-61741087D02*
X196097397Y-62741087D01*
X196097397Y-62741087D02*
X196287873Y-62026801D01*
X196287873Y-62026801D02*
X196478349Y-62741087D01*
X196478349Y-62741087D02*
X196716445Y-61741087D01*
X197621206Y-62741087D02*
X197049778Y-62741087D01*
X197335492Y-62741087D02*
X197335492Y-61741087D01*
X197335492Y-61741087D02*
X197240254Y-61883944D01*
X197240254Y-61883944D02*
X197145016Y-61979182D01*
X197145016Y-61979182D02*
X197049778Y-62026801D01*
X154649794Y-91633607D02*
X154649794Y-90633607D01*
X154649794Y-90633607D02*
X154887889Y-90633607D01*
X154887889Y-90633607D02*
X155030746Y-90681226D01*
X155030746Y-90681226D02*
X155125984Y-90776464D01*
X155125984Y-90776464D02*
X155173603Y-90871702D01*
X155173603Y-90871702D02*
X155221222Y-91062178D01*
X155221222Y-91062178D02*
X155221222Y-91205035D01*
X155221222Y-91205035D02*
X155173603Y-91395511D01*
X155173603Y-91395511D02*
X155125984Y-91490749D01*
X155125984Y-91490749D02*
X155030746Y-91585988D01*
X155030746Y-91585988D02*
X154887889Y-91633607D01*
X154887889Y-91633607D02*
X154649794Y-91633607D01*
X155602175Y-90728845D02*
X155649794Y-90681226D01*
X155649794Y-90681226D02*
X155745032Y-90633607D01*
X155745032Y-90633607D02*
X155983127Y-90633607D01*
X155983127Y-90633607D02*
X156078365Y-90681226D01*
X156078365Y-90681226D02*
X156125984Y-90728845D01*
X156125984Y-90728845D02*
X156173603Y-90824083D01*
X156173603Y-90824083D02*
X156173603Y-90919321D01*
X156173603Y-90919321D02*
X156125984Y-91062178D01*
X156125984Y-91062178D02*
X155554556Y-91633607D01*
X155554556Y-91633607D02*
X156173603Y-91633607D01*
X151315984Y-91953607D02*
X151315984Y-90953607D01*
X151887412Y-91953607D02*
X151458841Y-91382178D01*
X151887412Y-90953607D02*
X151315984Y-91525035D01*
X135599778Y-91633607D02*
X135599778Y-90633607D01*
X135599778Y-90633607D02*
X135837873Y-90633607D01*
X135837873Y-90633607D02*
X135980730Y-90681226D01*
X135980730Y-90681226D02*
X136075968Y-90776464D01*
X136075968Y-90776464D02*
X136123587Y-90871702D01*
X136123587Y-90871702D02*
X136171206Y-91062178D01*
X136171206Y-91062178D02*
X136171206Y-91205035D01*
X136171206Y-91205035D02*
X136123587Y-91395511D01*
X136123587Y-91395511D02*
X136075968Y-91490749D01*
X136075968Y-91490749D02*
X135980730Y-91585988D01*
X135980730Y-91585988D02*
X135837873Y-91633607D01*
X135837873Y-91633607D02*
X135599778Y-91633607D01*
X137123587Y-91633607D02*
X136552159Y-91633607D01*
X136837873Y-91633607D02*
X136837873Y-90633607D01*
X136837873Y-90633607D02*
X136742635Y-90776464D01*
X136742635Y-90776464D02*
X136647397Y-90871702D01*
X136647397Y-90871702D02*
X136552159Y-90919321D01*
X132265968Y-91953607D02*
X132265968Y-90953607D01*
X132837396Y-91953607D02*
X132408825Y-91382178D01*
X132837396Y-90953607D02*
X132265968Y-91525035D01*
X199893582Y-82108599D02*
X199893582Y-81108599D01*
X199893582Y-81108599D02*
X200131677Y-81108599D01*
X200131677Y-81108599D02*
X200274534Y-81156218D01*
X200274534Y-81156218D02*
X200369772Y-81251456D01*
X200369772Y-81251456D02*
X200417391Y-81346694D01*
X200417391Y-81346694D02*
X200465010Y-81537170D01*
X200465010Y-81537170D02*
X200465010Y-81680027D01*
X200465010Y-81680027D02*
X200417391Y-81870503D01*
X200417391Y-81870503D02*
X200369772Y-81965741D01*
X200369772Y-81965741D02*
X200274534Y-82060980D01*
X200274534Y-82060980D02*
X200131677Y-82108599D01*
X200131677Y-82108599D02*
X199893582Y-82108599D01*
X201322153Y-81441932D02*
X201322153Y-82108599D01*
X201084058Y-81060980D02*
X200845963Y-81775265D01*
X200845963Y-81775265D02*
X201465010Y-81775265D01*
X196559772Y-82428599D02*
X196559772Y-81428599D01*
X197131200Y-82428599D02*
X196702629Y-81857170D01*
X197131200Y-81428599D02*
X196559772Y-82000027D01*
X154625968Y-99993468D02*
X154768825Y-100041087D01*
X154768825Y-100041087D02*
X155006920Y-100041087D01*
X155006920Y-100041087D02*
X155102158Y-99993468D01*
X155102158Y-99993468D02*
X155149777Y-99945848D01*
X155149777Y-99945848D02*
X155197396Y-99850610D01*
X155197396Y-99850610D02*
X155197396Y-99755372D01*
X155197396Y-99755372D02*
X155149777Y-99660134D01*
X155149777Y-99660134D02*
X155102158Y-99612515D01*
X155102158Y-99612515D02*
X155006920Y-99564896D01*
X155006920Y-99564896D02*
X154816444Y-99517277D01*
X154816444Y-99517277D02*
X154721206Y-99469658D01*
X154721206Y-99469658D02*
X154673587Y-99422039D01*
X154673587Y-99422039D02*
X154625968Y-99326801D01*
X154625968Y-99326801D02*
X154625968Y-99231563D01*
X154625968Y-99231563D02*
X154673587Y-99136325D01*
X154673587Y-99136325D02*
X154721206Y-99088706D01*
X154721206Y-99088706D02*
X154816444Y-99041087D01*
X154816444Y-99041087D02*
X155054539Y-99041087D01*
X155054539Y-99041087D02*
X155197396Y-99088706D01*
X155578349Y-99136325D02*
X155625968Y-99088706D01*
X155625968Y-99088706D02*
X155721206Y-99041087D01*
X155721206Y-99041087D02*
X155959301Y-99041087D01*
X155959301Y-99041087D02*
X156054539Y-99088706D01*
X156054539Y-99088706D02*
X156102158Y-99136325D01*
X156102158Y-99136325D02*
X156149777Y-99231563D01*
X156149777Y-99231563D02*
X156149777Y-99326801D01*
X156149777Y-99326801D02*
X156102158Y-99469658D01*
X156102158Y-99469658D02*
X155530730Y-100041087D01*
X155530730Y-100041087D02*
X156149777Y-100041087D01*
X173675968Y-99993468D02*
X173818825Y-100041087D01*
X173818825Y-100041087D02*
X174056920Y-100041087D01*
X174056920Y-100041087D02*
X174152158Y-99993468D01*
X174152158Y-99993468D02*
X174199777Y-99945848D01*
X174199777Y-99945848D02*
X174247396Y-99850610D01*
X174247396Y-99850610D02*
X174247396Y-99755372D01*
X174247396Y-99755372D02*
X174199777Y-99660134D01*
X174199777Y-99660134D02*
X174152158Y-99612515D01*
X174152158Y-99612515D02*
X174056920Y-99564896D01*
X174056920Y-99564896D02*
X173866444Y-99517277D01*
X173866444Y-99517277D02*
X173771206Y-99469658D01*
X173771206Y-99469658D02*
X173723587Y-99422039D01*
X173723587Y-99422039D02*
X173675968Y-99326801D01*
X173675968Y-99326801D02*
X173675968Y-99231563D01*
X173675968Y-99231563D02*
X173723587Y-99136325D01*
X173723587Y-99136325D02*
X173771206Y-99088706D01*
X173771206Y-99088706D02*
X173866444Y-99041087D01*
X173866444Y-99041087D02*
X174104539Y-99041087D01*
X174104539Y-99041087D02*
X174247396Y-99088706D01*
X174580730Y-99041087D02*
X175199777Y-99041087D01*
X175199777Y-99041087D02*
X174866444Y-99422039D01*
X174866444Y-99422039D02*
X175009301Y-99422039D01*
X175009301Y-99422039D02*
X175104539Y-99469658D01*
X175104539Y-99469658D02*
X175152158Y-99517277D01*
X175152158Y-99517277D02*
X175199777Y-99612515D01*
X175199777Y-99612515D02*
X175199777Y-99850610D01*
X175199777Y-99850610D02*
X175152158Y-99945848D01*
X175152158Y-99945848D02*
X175104539Y-99993468D01*
X175104539Y-99993468D02*
X175009301Y-100041087D01*
X175009301Y-100041087D02*
X174723587Y-100041087D01*
X174723587Y-100041087D02*
X174628349Y-99993468D01*
X174628349Y-99993468D02*
X174580730Y-99945848D01*
X144409096Y-65355791D02*
X144409096Y-64974838D01*
X144637668Y-65431981D02*
X143837668Y-65165314D01*
X143837668Y-65165314D02*
X144637668Y-64898648D01*
X143875763Y-64212934D02*
X143837668Y-64289124D01*
X143837668Y-64289124D02*
X143837668Y-64403410D01*
X143837668Y-64403410D02*
X143875763Y-64517696D01*
X143875763Y-64517696D02*
X143951953Y-64593886D01*
X143951953Y-64593886D02*
X144028144Y-64631981D01*
X144028144Y-64631981D02*
X144180525Y-64670077D01*
X144180525Y-64670077D02*
X144294811Y-64670077D01*
X144294811Y-64670077D02*
X144447192Y-64631981D01*
X144447192Y-64631981D02*
X144523382Y-64593886D01*
X144523382Y-64593886D02*
X144599573Y-64517696D01*
X144599573Y-64517696D02*
X144637668Y-64403410D01*
X144637668Y-64403410D02*
X144637668Y-64327219D01*
X144637668Y-64327219D02*
X144599573Y-64212934D01*
X144599573Y-64212934D02*
X144561477Y-64174838D01*
X144561477Y-64174838D02*
X144294811Y-64174838D01*
X144294811Y-64174838D02*
X144294811Y-64327219D01*
X144637668Y-63831981D02*
X143837668Y-63831981D01*
X143837668Y-63831981D02*
X144637668Y-63374838D01*
X144637668Y-63374838D02*
X143837668Y-63374838D01*
X144637668Y-62993886D02*
X143837668Y-62993886D01*
X143837668Y-62993886D02*
X143837668Y-62803410D01*
X143837668Y-62803410D02*
X143875763Y-62689124D01*
X143875763Y-62689124D02*
X143951953Y-62612934D01*
X143951953Y-62612934D02*
X144028144Y-62574839D01*
X144028144Y-62574839D02*
X144180525Y-62536743D01*
X144180525Y-62536743D02*
X144294811Y-62536743D01*
X144294811Y-62536743D02*
X144447192Y-62574839D01*
X144447192Y-62574839D02*
X144523382Y-62612934D01*
X144523382Y-62612934D02*
X144599573Y-62689124D01*
X144599573Y-62689124D02*
X144637668Y-62803410D01*
X144637668Y-62803410D02*
X144637668Y-62993886D01*
X131175763Y-64055791D02*
X131137668Y-64131981D01*
X131137668Y-64131981D02*
X131137668Y-64246267D01*
X131137668Y-64246267D02*
X131175763Y-64360553D01*
X131175763Y-64360553D02*
X131251953Y-64436743D01*
X131251953Y-64436743D02*
X131328144Y-64474838D01*
X131328144Y-64474838D02*
X131480525Y-64512934D01*
X131480525Y-64512934D02*
X131594811Y-64512934D01*
X131594811Y-64512934D02*
X131747192Y-64474838D01*
X131747192Y-64474838D02*
X131823382Y-64436743D01*
X131823382Y-64436743D02*
X131899573Y-64360553D01*
X131899573Y-64360553D02*
X131937668Y-64246267D01*
X131937668Y-64246267D02*
X131937668Y-64170076D01*
X131937668Y-64170076D02*
X131899573Y-64055791D01*
X131899573Y-64055791D02*
X131861477Y-64017695D01*
X131861477Y-64017695D02*
X131594811Y-64017695D01*
X131594811Y-64017695D02*
X131594811Y-64170076D01*
X131937668Y-63674838D02*
X131137668Y-63674838D01*
X131137668Y-63674838D02*
X131937668Y-63217695D01*
X131937668Y-63217695D02*
X131137668Y-63217695D01*
X131937668Y-62836743D02*
X131137668Y-62836743D01*
X131137668Y-62836743D02*
X131137668Y-62646267D01*
X131137668Y-62646267D02*
X131175763Y-62531981D01*
X131175763Y-62531981D02*
X131251953Y-62455791D01*
X131251953Y-62455791D02*
X131328144Y-62417696D01*
X131328144Y-62417696D02*
X131480525Y-62379600D01*
X131480525Y-62379600D02*
X131594811Y-62379600D01*
X131594811Y-62379600D02*
X131747192Y-62417696D01*
X131747192Y-62417696D02*
X131823382Y-62455791D01*
X131823382Y-62455791D02*
X131899573Y-62531981D01*
X131899573Y-62531981D02*
X131937668Y-62646267D01*
X131937668Y-62646267D02*
X131937668Y-62836743D01*
X166735763Y-64898649D02*
X166697668Y-64974839D01*
X166697668Y-64974839D02*
X166697668Y-65089125D01*
X166697668Y-65089125D02*
X166735763Y-65203411D01*
X166735763Y-65203411D02*
X166811953Y-65279601D01*
X166811953Y-65279601D02*
X166888144Y-65317696D01*
X166888144Y-65317696D02*
X167040525Y-65355792D01*
X167040525Y-65355792D02*
X167154811Y-65355792D01*
X167154811Y-65355792D02*
X167307192Y-65317696D01*
X167307192Y-65317696D02*
X167383382Y-65279601D01*
X167383382Y-65279601D02*
X167459573Y-65203411D01*
X167459573Y-65203411D02*
X167497668Y-65089125D01*
X167497668Y-65089125D02*
X167497668Y-65012934D01*
X167497668Y-65012934D02*
X167459573Y-64898649D01*
X167459573Y-64898649D02*
X167421477Y-64860553D01*
X167421477Y-64860553D02*
X167154811Y-64860553D01*
X167154811Y-64860553D02*
X167154811Y-65012934D01*
X167497668Y-64517696D02*
X166697668Y-64517696D01*
X166697668Y-64517696D02*
X166697668Y-64212934D01*
X166697668Y-64212934D02*
X166735763Y-64136744D01*
X166735763Y-64136744D02*
X166773858Y-64098649D01*
X166773858Y-64098649D02*
X166850049Y-64060553D01*
X166850049Y-64060553D02*
X166964334Y-64060553D01*
X166964334Y-64060553D02*
X167040525Y-64098649D01*
X167040525Y-64098649D02*
X167078620Y-64136744D01*
X167078620Y-64136744D02*
X167116715Y-64212934D01*
X167116715Y-64212934D02*
X167116715Y-64517696D01*
X167497668Y-63298649D02*
X167497668Y-63755792D01*
X167497668Y-63527220D02*
X166697668Y-63527220D01*
X166697668Y-63527220D02*
X166811953Y-63603411D01*
X166811953Y-63603411D02*
X166888144Y-63679601D01*
X166888144Y-63679601D02*
X166926239Y-63755792D01*
X167040525Y-62841506D02*
X167002430Y-62917696D01*
X167002430Y-62917696D02*
X166964334Y-62955791D01*
X166964334Y-62955791D02*
X166888144Y-62993887D01*
X166888144Y-62993887D02*
X166850049Y-62993887D01*
X166850049Y-62993887D02*
X166773858Y-62955791D01*
X166773858Y-62955791D02*
X166735763Y-62917696D01*
X166735763Y-62917696D02*
X166697668Y-62841506D01*
X166697668Y-62841506D02*
X166697668Y-62689125D01*
X166697668Y-62689125D02*
X166735763Y-62612934D01*
X166735763Y-62612934D02*
X166773858Y-62574839D01*
X166773858Y-62574839D02*
X166850049Y-62536744D01*
X166850049Y-62536744D02*
X166888144Y-62536744D01*
X166888144Y-62536744D02*
X166964334Y-62574839D01*
X166964334Y-62574839D02*
X167002430Y-62612934D01*
X167002430Y-62612934D02*
X167040525Y-62689125D01*
X167040525Y-62689125D02*
X167040525Y-62841506D01*
X167040525Y-62841506D02*
X167078620Y-62917696D01*
X167078620Y-62917696D02*
X167116715Y-62955791D01*
X167116715Y-62955791D02*
X167192906Y-62993887D01*
X167192906Y-62993887D02*
X167345287Y-62993887D01*
X167345287Y-62993887D02*
X167421477Y-62955791D01*
X167421477Y-62955791D02*
X167459573Y-62917696D01*
X167459573Y-62917696D02*
X167497668Y-62841506D01*
X167497668Y-62841506D02*
X167497668Y-62689125D01*
X167497668Y-62689125D02*
X167459573Y-62612934D01*
X167459573Y-62612934D02*
X167421477Y-62574839D01*
X167421477Y-62574839D02*
X167345287Y-62536744D01*
X167345287Y-62536744D02*
X167192906Y-62536744D01*
X167192906Y-62536744D02*
X167116715Y-62574839D01*
X167116715Y-62574839D02*
X167078620Y-62612934D01*
X167078620Y-62612934D02*
X167040525Y-62689125D01*
X154035763Y-76097696D02*
X153997668Y-76173886D01*
X153997668Y-76173886D02*
X153997668Y-76288172D01*
X153997668Y-76288172D02*
X154035763Y-76402458D01*
X154035763Y-76402458D02*
X154111953Y-76478648D01*
X154111953Y-76478648D02*
X154188144Y-76516743D01*
X154188144Y-76516743D02*
X154340525Y-76554839D01*
X154340525Y-76554839D02*
X154454811Y-76554839D01*
X154454811Y-76554839D02*
X154607192Y-76516743D01*
X154607192Y-76516743D02*
X154683382Y-76478648D01*
X154683382Y-76478648D02*
X154759573Y-76402458D01*
X154759573Y-76402458D02*
X154797668Y-76288172D01*
X154797668Y-76288172D02*
X154797668Y-76211981D01*
X154797668Y-76211981D02*
X154759573Y-76097696D01*
X154759573Y-76097696D02*
X154721477Y-76059600D01*
X154721477Y-76059600D02*
X154454811Y-76059600D01*
X154454811Y-76059600D02*
X154454811Y-76211981D01*
X154797668Y-75716743D02*
X153997668Y-75716743D01*
X153997668Y-75716743D02*
X153997668Y-75411981D01*
X153997668Y-75411981D02*
X154035763Y-75335791D01*
X154035763Y-75335791D02*
X154073858Y-75297696D01*
X154073858Y-75297696D02*
X154150049Y-75259600D01*
X154150049Y-75259600D02*
X154264334Y-75259600D01*
X154264334Y-75259600D02*
X154340525Y-75297696D01*
X154340525Y-75297696D02*
X154378620Y-75335791D01*
X154378620Y-75335791D02*
X154416715Y-75411981D01*
X154416715Y-75411981D02*
X154416715Y-75716743D01*
X154797668Y-74878648D02*
X154797668Y-74726267D01*
X154797668Y-74726267D02*
X154759573Y-74650077D01*
X154759573Y-74650077D02*
X154721477Y-74611981D01*
X154721477Y-74611981D02*
X154607192Y-74535791D01*
X154607192Y-74535791D02*
X154454811Y-74497696D01*
X154454811Y-74497696D02*
X154150049Y-74497696D01*
X154150049Y-74497696D02*
X154073858Y-74535791D01*
X154073858Y-74535791D02*
X154035763Y-74573886D01*
X154035763Y-74573886D02*
X153997668Y-74650077D01*
X153997668Y-74650077D02*
X153997668Y-74802458D01*
X153997668Y-74802458D02*
X154035763Y-74878648D01*
X154035763Y-74878648D02*
X154073858Y-74916743D01*
X154073858Y-74916743D02*
X154150049Y-74954839D01*
X154150049Y-74954839D02*
X154340525Y-74954839D01*
X154340525Y-74954839D02*
X154416715Y-74916743D01*
X154416715Y-74916743D02*
X154454811Y-74878648D01*
X154454811Y-74878648D02*
X154492906Y-74802458D01*
X154492906Y-74802458D02*
X154492906Y-74650077D01*
X154492906Y-74650077D02*
X154454811Y-74573886D01*
X154454811Y-74573886D02*
X154416715Y-74535791D01*
X154416715Y-74535791D02*
X154340525Y-74497696D01*
X139329096Y-67939125D02*
X139329096Y-67558172D01*
X139557668Y-68015315D02*
X138757668Y-67748648D01*
X138757668Y-67748648D02*
X139557668Y-67481982D01*
X139557668Y-67215315D02*
X138757668Y-67215315D01*
X138757668Y-67215315D02*
X138757668Y-67024839D01*
X138757668Y-67024839D02*
X138795763Y-66910553D01*
X138795763Y-66910553D02*
X138871953Y-66834363D01*
X138871953Y-66834363D02*
X138948144Y-66796268D01*
X138948144Y-66796268D02*
X139100525Y-66758172D01*
X139100525Y-66758172D02*
X139214811Y-66758172D01*
X139214811Y-66758172D02*
X139367192Y-66796268D01*
X139367192Y-66796268D02*
X139443382Y-66834363D01*
X139443382Y-66834363D02*
X139519573Y-66910553D01*
X139519573Y-66910553D02*
X139557668Y-67024839D01*
X139557668Y-67024839D02*
X139557668Y-67215315D01*
X139481477Y-65958172D02*
X139519573Y-65996268D01*
X139519573Y-65996268D02*
X139557668Y-66110553D01*
X139557668Y-66110553D02*
X139557668Y-66186744D01*
X139557668Y-66186744D02*
X139519573Y-66301030D01*
X139519573Y-66301030D02*
X139443382Y-66377220D01*
X139443382Y-66377220D02*
X139367192Y-66415315D01*
X139367192Y-66415315D02*
X139214811Y-66453411D01*
X139214811Y-66453411D02*
X139100525Y-66453411D01*
X139100525Y-66453411D02*
X138948144Y-66415315D01*
X138948144Y-66415315D02*
X138871953Y-66377220D01*
X138871953Y-66377220D02*
X138795763Y-66301030D01*
X138795763Y-66301030D02*
X138757668Y-66186744D01*
X138757668Y-66186744D02*
X138757668Y-66110553D01*
X138757668Y-66110553D02*
X138795763Y-65996268D01*
X138795763Y-65996268D02*
X138833858Y-65958172D01*
X139633858Y-65805792D02*
X139633858Y-65196268D01*
X138757668Y-65120077D02*
X139557668Y-64853410D01*
X139557668Y-64853410D02*
X138757668Y-64586744D01*
X139557668Y-63862934D02*
X139176715Y-64129601D01*
X139557668Y-64320077D02*
X138757668Y-64320077D01*
X138757668Y-64320077D02*
X138757668Y-64015315D01*
X138757668Y-64015315D02*
X138795763Y-63939125D01*
X138795763Y-63939125D02*
X138833858Y-63901030D01*
X138833858Y-63901030D02*
X138910049Y-63862934D01*
X138910049Y-63862934D02*
X139024334Y-63862934D01*
X139024334Y-63862934D02*
X139100525Y-63901030D01*
X139100525Y-63901030D02*
X139138620Y-63939125D01*
X139138620Y-63939125D02*
X139176715Y-64015315D01*
X139176715Y-64015315D02*
X139176715Y-64320077D01*
X139138620Y-63520077D02*
X139138620Y-63253411D01*
X139557668Y-63139125D02*
X139557668Y-63520077D01*
X139557668Y-63520077D02*
X138757668Y-63520077D01*
X138757668Y-63520077D02*
X138757668Y-63139125D01*
X139138620Y-62529601D02*
X139138620Y-62796267D01*
X139557668Y-62796267D02*
X138757668Y-62796267D01*
X138757668Y-62796267D02*
X138757668Y-62415315D01*
X164195763Y-64898649D02*
X164157668Y-64974839D01*
X164157668Y-64974839D02*
X164157668Y-65089125D01*
X164157668Y-65089125D02*
X164195763Y-65203411D01*
X164195763Y-65203411D02*
X164271953Y-65279601D01*
X164271953Y-65279601D02*
X164348144Y-65317696D01*
X164348144Y-65317696D02*
X164500525Y-65355792D01*
X164500525Y-65355792D02*
X164614811Y-65355792D01*
X164614811Y-65355792D02*
X164767192Y-65317696D01*
X164767192Y-65317696D02*
X164843382Y-65279601D01*
X164843382Y-65279601D02*
X164919573Y-65203411D01*
X164919573Y-65203411D02*
X164957668Y-65089125D01*
X164957668Y-65089125D02*
X164957668Y-65012934D01*
X164957668Y-65012934D02*
X164919573Y-64898649D01*
X164919573Y-64898649D02*
X164881477Y-64860553D01*
X164881477Y-64860553D02*
X164614811Y-64860553D01*
X164614811Y-64860553D02*
X164614811Y-65012934D01*
X164957668Y-64517696D02*
X164157668Y-64517696D01*
X164157668Y-64517696D02*
X164157668Y-64212934D01*
X164157668Y-64212934D02*
X164195763Y-64136744D01*
X164195763Y-64136744D02*
X164233858Y-64098649D01*
X164233858Y-64098649D02*
X164310049Y-64060553D01*
X164310049Y-64060553D02*
X164424334Y-64060553D01*
X164424334Y-64060553D02*
X164500525Y-64098649D01*
X164500525Y-64098649D02*
X164538620Y-64136744D01*
X164538620Y-64136744D02*
X164576715Y-64212934D01*
X164576715Y-64212934D02*
X164576715Y-64517696D01*
X164957668Y-63298649D02*
X164957668Y-63755792D01*
X164957668Y-63527220D02*
X164157668Y-63527220D01*
X164157668Y-63527220D02*
X164271953Y-63603411D01*
X164271953Y-63603411D02*
X164348144Y-63679601D01*
X164348144Y-63679601D02*
X164386239Y-63755792D01*
X164957668Y-62917696D02*
X164957668Y-62765315D01*
X164957668Y-62765315D02*
X164919573Y-62689125D01*
X164919573Y-62689125D02*
X164881477Y-62651029D01*
X164881477Y-62651029D02*
X164767192Y-62574839D01*
X164767192Y-62574839D02*
X164614811Y-62536744D01*
X164614811Y-62536744D02*
X164310049Y-62536744D01*
X164310049Y-62536744D02*
X164233858Y-62574839D01*
X164233858Y-62574839D02*
X164195763Y-62612934D01*
X164195763Y-62612934D02*
X164157668Y-62689125D01*
X164157668Y-62689125D02*
X164157668Y-62841506D01*
X164157668Y-62841506D02*
X164195763Y-62917696D01*
X164195763Y-62917696D02*
X164233858Y-62955791D01*
X164233858Y-62955791D02*
X164310049Y-62993887D01*
X164310049Y-62993887D02*
X164500525Y-62993887D01*
X164500525Y-62993887D02*
X164576715Y-62955791D01*
X164576715Y-62955791D02*
X164614811Y-62917696D01*
X164614811Y-62917696D02*
X164652906Y-62841506D01*
X164652906Y-62841506D02*
X164652906Y-62689125D01*
X164652906Y-62689125D02*
X164614811Y-62612934D01*
X164614811Y-62612934D02*
X164576715Y-62574839D01*
X164576715Y-62574839D02*
X164500525Y-62536744D01*
X128625763Y-76097696D02*
X128587668Y-76173886D01*
X128587668Y-76173886D02*
X128587668Y-76288172D01*
X128587668Y-76288172D02*
X128625763Y-76402458D01*
X128625763Y-76402458D02*
X128701953Y-76478648D01*
X128701953Y-76478648D02*
X128778144Y-76516743D01*
X128778144Y-76516743D02*
X128930525Y-76554839D01*
X128930525Y-76554839D02*
X129044811Y-76554839D01*
X129044811Y-76554839D02*
X129197192Y-76516743D01*
X129197192Y-76516743D02*
X129273382Y-76478648D01*
X129273382Y-76478648D02*
X129349573Y-76402458D01*
X129349573Y-76402458D02*
X129387668Y-76288172D01*
X129387668Y-76288172D02*
X129387668Y-76211981D01*
X129387668Y-76211981D02*
X129349573Y-76097696D01*
X129349573Y-76097696D02*
X129311477Y-76059600D01*
X129311477Y-76059600D02*
X129044811Y-76059600D01*
X129044811Y-76059600D02*
X129044811Y-76211981D01*
X129387668Y-75716743D02*
X128587668Y-75716743D01*
X128587668Y-75716743D02*
X128587668Y-75411981D01*
X128587668Y-75411981D02*
X128625763Y-75335791D01*
X128625763Y-75335791D02*
X128663858Y-75297696D01*
X128663858Y-75297696D02*
X128740049Y-75259600D01*
X128740049Y-75259600D02*
X128854334Y-75259600D01*
X128854334Y-75259600D02*
X128930525Y-75297696D01*
X128930525Y-75297696D02*
X128968620Y-75335791D01*
X128968620Y-75335791D02*
X129006715Y-75411981D01*
X129006715Y-75411981D02*
X129006715Y-75716743D01*
X129387668Y-74497696D02*
X129387668Y-74954839D01*
X129387668Y-74726267D02*
X128587668Y-74726267D01*
X128587668Y-74726267D02*
X128701953Y-74802458D01*
X128701953Y-74802458D02*
X128778144Y-74878648D01*
X128778144Y-74878648D02*
X128816239Y-74954839D01*
X169065848Y-72350468D02*
X169180134Y-72388563D01*
X169180134Y-72388563D02*
X169370610Y-72388563D01*
X169370610Y-72388563D02*
X169446801Y-72350468D01*
X169446801Y-72350468D02*
X169484896Y-72312372D01*
X169484896Y-72312372D02*
X169522991Y-72236182D01*
X169522991Y-72236182D02*
X169522991Y-72159991D01*
X169522991Y-72159991D02*
X169484896Y-72083801D01*
X169484896Y-72083801D02*
X169446801Y-72045706D01*
X169446801Y-72045706D02*
X169370610Y-72007610D01*
X169370610Y-72007610D02*
X169218229Y-71969515D01*
X169218229Y-71969515D02*
X169142039Y-71931420D01*
X169142039Y-71931420D02*
X169103944Y-71893325D01*
X169103944Y-71893325D02*
X169065848Y-71817134D01*
X169065848Y-71817134D02*
X169065848Y-71740944D01*
X169065848Y-71740944D02*
X169103944Y-71664753D01*
X169103944Y-71664753D02*
X169142039Y-71626658D01*
X169142039Y-71626658D02*
X169218229Y-71588563D01*
X169218229Y-71588563D02*
X169408706Y-71588563D01*
X169408706Y-71588563D02*
X169522991Y-71626658D01*
X169789658Y-71588563D02*
X169980134Y-72388563D01*
X169980134Y-72388563D02*
X170132515Y-71817134D01*
X170132515Y-71817134D02*
X170284896Y-72388563D01*
X170284896Y-72388563D02*
X170475373Y-71588563D01*
X171237278Y-72312372D02*
X171199182Y-72350468D01*
X171199182Y-72350468D02*
X171084897Y-72388563D01*
X171084897Y-72388563D02*
X171008706Y-72388563D01*
X171008706Y-72388563D02*
X170894420Y-72350468D01*
X170894420Y-72350468D02*
X170818230Y-72274277D01*
X170818230Y-72274277D02*
X170780135Y-72198087D01*
X170780135Y-72198087D02*
X170742039Y-72045706D01*
X170742039Y-72045706D02*
X170742039Y-71931420D01*
X170742039Y-71931420D02*
X170780135Y-71779039D01*
X170780135Y-71779039D02*
X170818230Y-71702848D01*
X170818230Y-71702848D02*
X170894420Y-71626658D01*
X170894420Y-71626658D02*
X171008706Y-71588563D01*
X171008706Y-71588563D02*
X171084897Y-71588563D01*
X171084897Y-71588563D02*
X171199182Y-71626658D01*
X171199182Y-71626658D02*
X171237278Y-71664753D01*
X171961087Y-72388563D02*
X171580135Y-72388563D01*
X171580135Y-72388563D02*
X171580135Y-71588563D01*
X172227754Y-72388563D02*
X172227754Y-71588563D01*
X172684897Y-72388563D02*
X172342039Y-71931420D01*
X172684897Y-71588563D02*
X172227754Y-72045706D01*
X152257668Y-64186743D02*
X151876715Y-64453410D01*
X152257668Y-64643886D02*
X151457668Y-64643886D01*
X151457668Y-64643886D02*
X151457668Y-64339124D01*
X151457668Y-64339124D02*
X151495763Y-64262934D01*
X151495763Y-64262934D02*
X151533858Y-64224839D01*
X151533858Y-64224839D02*
X151610049Y-64186743D01*
X151610049Y-64186743D02*
X151724334Y-64186743D01*
X151724334Y-64186743D02*
X151800525Y-64224839D01*
X151800525Y-64224839D02*
X151838620Y-64262934D01*
X151838620Y-64262934D02*
X151876715Y-64339124D01*
X151876715Y-64339124D02*
X151876715Y-64643886D01*
X151457668Y-63843886D02*
X152105287Y-63843886D01*
X152105287Y-63843886D02*
X152181477Y-63805791D01*
X152181477Y-63805791D02*
X152219573Y-63767696D01*
X152219573Y-63767696D02*
X152257668Y-63691505D01*
X152257668Y-63691505D02*
X152257668Y-63539124D01*
X152257668Y-63539124D02*
X152219573Y-63462934D01*
X152219573Y-63462934D02*
X152181477Y-63424839D01*
X152181477Y-63424839D02*
X152105287Y-63386743D01*
X152105287Y-63386743D02*
X151457668Y-63386743D01*
X152257668Y-63005791D02*
X151457668Y-63005791D01*
X151457668Y-63005791D02*
X152257668Y-62548648D01*
X152257668Y-62548648D02*
X151457668Y-62548648D01*
X133715763Y-76097696D02*
X133677668Y-76173886D01*
X133677668Y-76173886D02*
X133677668Y-76288172D01*
X133677668Y-76288172D02*
X133715763Y-76402458D01*
X133715763Y-76402458D02*
X133791953Y-76478648D01*
X133791953Y-76478648D02*
X133868144Y-76516743D01*
X133868144Y-76516743D02*
X134020525Y-76554839D01*
X134020525Y-76554839D02*
X134134811Y-76554839D01*
X134134811Y-76554839D02*
X134287192Y-76516743D01*
X134287192Y-76516743D02*
X134363382Y-76478648D01*
X134363382Y-76478648D02*
X134439573Y-76402458D01*
X134439573Y-76402458D02*
X134477668Y-76288172D01*
X134477668Y-76288172D02*
X134477668Y-76211981D01*
X134477668Y-76211981D02*
X134439573Y-76097696D01*
X134439573Y-76097696D02*
X134401477Y-76059600D01*
X134401477Y-76059600D02*
X134134811Y-76059600D01*
X134134811Y-76059600D02*
X134134811Y-76211981D01*
X134477668Y-75716743D02*
X133677668Y-75716743D01*
X133677668Y-75716743D02*
X133677668Y-75411981D01*
X133677668Y-75411981D02*
X133715763Y-75335791D01*
X133715763Y-75335791D02*
X133753858Y-75297696D01*
X133753858Y-75297696D02*
X133830049Y-75259600D01*
X133830049Y-75259600D02*
X133944334Y-75259600D01*
X133944334Y-75259600D02*
X134020525Y-75297696D01*
X134020525Y-75297696D02*
X134058620Y-75335791D01*
X134058620Y-75335791D02*
X134096715Y-75411981D01*
X134096715Y-75411981D02*
X134096715Y-75716743D01*
X133753858Y-74954839D02*
X133715763Y-74916743D01*
X133715763Y-74916743D02*
X133677668Y-74840553D01*
X133677668Y-74840553D02*
X133677668Y-74650077D01*
X133677668Y-74650077D02*
X133715763Y-74573886D01*
X133715763Y-74573886D02*
X133753858Y-74535791D01*
X133753858Y-74535791D02*
X133830049Y-74497696D01*
X133830049Y-74497696D02*
X133906239Y-74497696D01*
X133906239Y-74497696D02*
X134020525Y-74535791D01*
X134020525Y-74535791D02*
X134477668Y-74992934D01*
X134477668Y-74992934D02*
X134477668Y-74497696D01*
X126095763Y-76097696D02*
X126057668Y-76173886D01*
X126057668Y-76173886D02*
X126057668Y-76288172D01*
X126057668Y-76288172D02*
X126095763Y-76402458D01*
X126095763Y-76402458D02*
X126171953Y-76478648D01*
X126171953Y-76478648D02*
X126248144Y-76516743D01*
X126248144Y-76516743D02*
X126400525Y-76554839D01*
X126400525Y-76554839D02*
X126514811Y-76554839D01*
X126514811Y-76554839D02*
X126667192Y-76516743D01*
X126667192Y-76516743D02*
X126743382Y-76478648D01*
X126743382Y-76478648D02*
X126819573Y-76402458D01*
X126819573Y-76402458D02*
X126857668Y-76288172D01*
X126857668Y-76288172D02*
X126857668Y-76211981D01*
X126857668Y-76211981D02*
X126819573Y-76097696D01*
X126819573Y-76097696D02*
X126781477Y-76059600D01*
X126781477Y-76059600D02*
X126514811Y-76059600D01*
X126514811Y-76059600D02*
X126514811Y-76211981D01*
X126857668Y-75716743D02*
X126057668Y-75716743D01*
X126057668Y-75716743D02*
X126057668Y-75411981D01*
X126057668Y-75411981D02*
X126095763Y-75335791D01*
X126095763Y-75335791D02*
X126133858Y-75297696D01*
X126133858Y-75297696D02*
X126210049Y-75259600D01*
X126210049Y-75259600D02*
X126324334Y-75259600D01*
X126324334Y-75259600D02*
X126400525Y-75297696D01*
X126400525Y-75297696D02*
X126438620Y-75335791D01*
X126438620Y-75335791D02*
X126476715Y-75411981D01*
X126476715Y-75411981D02*
X126476715Y-75716743D01*
X126057668Y-74764362D02*
X126057668Y-74688172D01*
X126057668Y-74688172D02*
X126095763Y-74611981D01*
X126095763Y-74611981D02*
X126133858Y-74573886D01*
X126133858Y-74573886D02*
X126210049Y-74535791D01*
X126210049Y-74535791D02*
X126362430Y-74497696D01*
X126362430Y-74497696D02*
X126552906Y-74497696D01*
X126552906Y-74497696D02*
X126705287Y-74535791D01*
X126705287Y-74535791D02*
X126781477Y-74573886D01*
X126781477Y-74573886D02*
X126819573Y-74611981D01*
X126819573Y-74611981D02*
X126857668Y-74688172D01*
X126857668Y-74688172D02*
X126857668Y-74764362D01*
X126857668Y-74764362D02*
X126819573Y-74840553D01*
X126819573Y-74840553D02*
X126781477Y-74878648D01*
X126781477Y-74878648D02*
X126705287Y-74916743D01*
X126705287Y-74916743D02*
X126552906Y-74954839D01*
X126552906Y-74954839D02*
X126362430Y-74954839D01*
X126362430Y-74954839D02*
X126210049Y-74916743D01*
X126210049Y-74916743D02*
X126133858Y-74878648D01*
X126133858Y-74878648D02*
X126095763Y-74840553D01*
X126095763Y-74840553D02*
X126057668Y-74764362D01*
X154035763Y-64898649D02*
X153997668Y-64974839D01*
X153997668Y-64974839D02*
X153997668Y-65089125D01*
X153997668Y-65089125D02*
X154035763Y-65203411D01*
X154035763Y-65203411D02*
X154111953Y-65279601D01*
X154111953Y-65279601D02*
X154188144Y-65317696D01*
X154188144Y-65317696D02*
X154340525Y-65355792D01*
X154340525Y-65355792D02*
X154454811Y-65355792D01*
X154454811Y-65355792D02*
X154607192Y-65317696D01*
X154607192Y-65317696D02*
X154683382Y-65279601D01*
X154683382Y-65279601D02*
X154759573Y-65203411D01*
X154759573Y-65203411D02*
X154797668Y-65089125D01*
X154797668Y-65089125D02*
X154797668Y-65012934D01*
X154797668Y-65012934D02*
X154759573Y-64898649D01*
X154759573Y-64898649D02*
X154721477Y-64860553D01*
X154721477Y-64860553D02*
X154454811Y-64860553D01*
X154454811Y-64860553D02*
X154454811Y-65012934D01*
X154797668Y-64517696D02*
X153997668Y-64517696D01*
X153997668Y-64517696D02*
X153997668Y-64212934D01*
X153997668Y-64212934D02*
X154035763Y-64136744D01*
X154035763Y-64136744D02*
X154073858Y-64098649D01*
X154073858Y-64098649D02*
X154150049Y-64060553D01*
X154150049Y-64060553D02*
X154264334Y-64060553D01*
X154264334Y-64060553D02*
X154340525Y-64098649D01*
X154340525Y-64098649D02*
X154378620Y-64136744D01*
X154378620Y-64136744D02*
X154416715Y-64212934D01*
X154416715Y-64212934D02*
X154416715Y-64517696D01*
X154073858Y-63755792D02*
X154035763Y-63717696D01*
X154035763Y-63717696D02*
X153997668Y-63641506D01*
X153997668Y-63641506D02*
X153997668Y-63451030D01*
X153997668Y-63451030D02*
X154035763Y-63374839D01*
X154035763Y-63374839D02*
X154073858Y-63336744D01*
X154073858Y-63336744D02*
X154150049Y-63298649D01*
X154150049Y-63298649D02*
X154226239Y-63298649D01*
X154226239Y-63298649D02*
X154340525Y-63336744D01*
X154340525Y-63336744D02*
X154797668Y-63793887D01*
X154797668Y-63793887D02*
X154797668Y-63298649D01*
X154073858Y-62993887D02*
X154035763Y-62955791D01*
X154035763Y-62955791D02*
X153997668Y-62879601D01*
X153997668Y-62879601D02*
X153997668Y-62689125D01*
X153997668Y-62689125D02*
X154035763Y-62612934D01*
X154035763Y-62612934D02*
X154073858Y-62574839D01*
X154073858Y-62574839D02*
X154150049Y-62536744D01*
X154150049Y-62536744D02*
X154226239Y-62536744D01*
X154226239Y-62536744D02*
X154340525Y-62574839D01*
X154340525Y-62574839D02*
X154797668Y-63031982D01*
X154797668Y-63031982D02*
X154797668Y-62536744D01*
X164195763Y-76128649D02*
X164157668Y-76204839D01*
X164157668Y-76204839D02*
X164157668Y-76319125D01*
X164157668Y-76319125D02*
X164195763Y-76433411D01*
X164195763Y-76433411D02*
X164271953Y-76509601D01*
X164271953Y-76509601D02*
X164348144Y-76547696D01*
X164348144Y-76547696D02*
X164500525Y-76585792D01*
X164500525Y-76585792D02*
X164614811Y-76585792D01*
X164614811Y-76585792D02*
X164767192Y-76547696D01*
X164767192Y-76547696D02*
X164843382Y-76509601D01*
X164843382Y-76509601D02*
X164919573Y-76433411D01*
X164919573Y-76433411D02*
X164957668Y-76319125D01*
X164957668Y-76319125D02*
X164957668Y-76242934D01*
X164957668Y-76242934D02*
X164919573Y-76128649D01*
X164919573Y-76128649D02*
X164881477Y-76090553D01*
X164881477Y-76090553D02*
X164614811Y-76090553D01*
X164614811Y-76090553D02*
X164614811Y-76242934D01*
X164957668Y-75747696D02*
X164157668Y-75747696D01*
X164157668Y-75747696D02*
X164157668Y-75442934D01*
X164157668Y-75442934D02*
X164195763Y-75366744D01*
X164195763Y-75366744D02*
X164233858Y-75328649D01*
X164233858Y-75328649D02*
X164310049Y-75290553D01*
X164310049Y-75290553D02*
X164424334Y-75290553D01*
X164424334Y-75290553D02*
X164500525Y-75328649D01*
X164500525Y-75328649D02*
X164538620Y-75366744D01*
X164538620Y-75366744D02*
X164576715Y-75442934D01*
X164576715Y-75442934D02*
X164576715Y-75747696D01*
X164957668Y-74528649D02*
X164957668Y-74985792D01*
X164957668Y-74757220D02*
X164157668Y-74757220D01*
X164157668Y-74757220D02*
X164271953Y-74833411D01*
X164271953Y-74833411D02*
X164348144Y-74909601D01*
X164348144Y-74909601D02*
X164386239Y-74985792D01*
X164233858Y-74223887D02*
X164195763Y-74185791D01*
X164195763Y-74185791D02*
X164157668Y-74109601D01*
X164157668Y-74109601D02*
X164157668Y-73919125D01*
X164157668Y-73919125D02*
X164195763Y-73842934D01*
X164195763Y-73842934D02*
X164233858Y-73804839D01*
X164233858Y-73804839D02*
X164310049Y-73766744D01*
X164310049Y-73766744D02*
X164386239Y-73766744D01*
X164386239Y-73766744D02*
X164500525Y-73804839D01*
X164500525Y-73804839D02*
X164957668Y-74261982D01*
X164957668Y-74261982D02*
X164957668Y-73766744D01*
X141335763Y-76097696D02*
X141297668Y-76173886D01*
X141297668Y-76173886D02*
X141297668Y-76288172D01*
X141297668Y-76288172D02*
X141335763Y-76402458D01*
X141335763Y-76402458D02*
X141411953Y-76478648D01*
X141411953Y-76478648D02*
X141488144Y-76516743D01*
X141488144Y-76516743D02*
X141640525Y-76554839D01*
X141640525Y-76554839D02*
X141754811Y-76554839D01*
X141754811Y-76554839D02*
X141907192Y-76516743D01*
X141907192Y-76516743D02*
X141983382Y-76478648D01*
X141983382Y-76478648D02*
X142059573Y-76402458D01*
X142059573Y-76402458D02*
X142097668Y-76288172D01*
X142097668Y-76288172D02*
X142097668Y-76211981D01*
X142097668Y-76211981D02*
X142059573Y-76097696D01*
X142059573Y-76097696D02*
X142021477Y-76059600D01*
X142021477Y-76059600D02*
X141754811Y-76059600D01*
X141754811Y-76059600D02*
X141754811Y-76211981D01*
X142097668Y-75716743D02*
X141297668Y-75716743D01*
X141297668Y-75716743D02*
X141297668Y-75411981D01*
X141297668Y-75411981D02*
X141335763Y-75335791D01*
X141335763Y-75335791D02*
X141373858Y-75297696D01*
X141373858Y-75297696D02*
X141450049Y-75259600D01*
X141450049Y-75259600D02*
X141564334Y-75259600D01*
X141564334Y-75259600D02*
X141640525Y-75297696D01*
X141640525Y-75297696D02*
X141678620Y-75335791D01*
X141678620Y-75335791D02*
X141716715Y-75411981D01*
X141716715Y-75411981D02*
X141716715Y-75716743D01*
X141297668Y-74535791D02*
X141297668Y-74916743D01*
X141297668Y-74916743D02*
X141678620Y-74954839D01*
X141678620Y-74954839D02*
X141640525Y-74916743D01*
X141640525Y-74916743D02*
X141602430Y-74840553D01*
X141602430Y-74840553D02*
X141602430Y-74650077D01*
X141602430Y-74650077D02*
X141640525Y-74573886D01*
X141640525Y-74573886D02*
X141678620Y-74535791D01*
X141678620Y-74535791D02*
X141754811Y-74497696D01*
X141754811Y-74497696D02*
X141945287Y-74497696D01*
X141945287Y-74497696D02*
X142021477Y-74535791D01*
X142021477Y-74535791D02*
X142059573Y-74573886D01*
X142059573Y-74573886D02*
X142097668Y-74650077D01*
X142097668Y-74650077D02*
X142097668Y-74840553D01*
X142097668Y-74840553D02*
X142059573Y-74916743D01*
X142059573Y-74916743D02*
X142021477Y-74954839D01*
X133677668Y-66522458D02*
X133677668Y-66027220D01*
X133677668Y-66027220D02*
X133982430Y-66293886D01*
X133982430Y-66293886D02*
X133982430Y-66179601D01*
X133982430Y-66179601D02*
X134020525Y-66103410D01*
X134020525Y-66103410D02*
X134058620Y-66065315D01*
X134058620Y-66065315D02*
X134134811Y-66027220D01*
X134134811Y-66027220D02*
X134325287Y-66027220D01*
X134325287Y-66027220D02*
X134401477Y-66065315D01*
X134401477Y-66065315D02*
X134439573Y-66103410D01*
X134439573Y-66103410D02*
X134477668Y-66179601D01*
X134477668Y-66179601D02*
X134477668Y-66408172D01*
X134477668Y-66408172D02*
X134439573Y-66484363D01*
X134439573Y-66484363D02*
X134401477Y-66522458D01*
X133677668Y-65798648D02*
X134477668Y-65531981D01*
X134477668Y-65531981D02*
X133677668Y-65265315D01*
X133677668Y-65074839D02*
X133677668Y-64579601D01*
X133677668Y-64579601D02*
X133982430Y-64846267D01*
X133982430Y-64846267D02*
X133982430Y-64731982D01*
X133982430Y-64731982D02*
X134020525Y-64655791D01*
X134020525Y-64655791D02*
X134058620Y-64617696D01*
X134058620Y-64617696D02*
X134134811Y-64579601D01*
X134134811Y-64579601D02*
X134325287Y-64579601D01*
X134325287Y-64579601D02*
X134401477Y-64617696D01*
X134401477Y-64617696D02*
X134439573Y-64655791D01*
X134439573Y-64655791D02*
X134477668Y-64731982D01*
X134477668Y-64731982D02*
X134477668Y-64960553D01*
X134477668Y-64960553D02*
X134439573Y-65036744D01*
X134439573Y-65036744D02*
X134401477Y-65074839D01*
X134553858Y-64427220D02*
X134553858Y-63817696D01*
X134058620Y-63627219D02*
X134058620Y-63360553D01*
X134477668Y-63246267D02*
X134477668Y-63627219D01*
X134477668Y-63627219D02*
X133677668Y-63627219D01*
X133677668Y-63627219D02*
X133677668Y-63246267D01*
X134477668Y-62903409D02*
X133677668Y-62903409D01*
X133677668Y-62903409D02*
X134477668Y-62446266D01*
X134477668Y-62446266D02*
X133677668Y-62446266D01*
X174355763Y-64898649D02*
X174317668Y-64974839D01*
X174317668Y-64974839D02*
X174317668Y-65089125D01*
X174317668Y-65089125D02*
X174355763Y-65203411D01*
X174355763Y-65203411D02*
X174431953Y-65279601D01*
X174431953Y-65279601D02*
X174508144Y-65317696D01*
X174508144Y-65317696D02*
X174660525Y-65355792D01*
X174660525Y-65355792D02*
X174774811Y-65355792D01*
X174774811Y-65355792D02*
X174927192Y-65317696D01*
X174927192Y-65317696D02*
X175003382Y-65279601D01*
X175003382Y-65279601D02*
X175079573Y-65203411D01*
X175079573Y-65203411D02*
X175117668Y-65089125D01*
X175117668Y-65089125D02*
X175117668Y-65012934D01*
X175117668Y-65012934D02*
X175079573Y-64898649D01*
X175079573Y-64898649D02*
X175041477Y-64860553D01*
X175041477Y-64860553D02*
X174774811Y-64860553D01*
X174774811Y-64860553D02*
X174774811Y-65012934D01*
X175117668Y-64517696D02*
X174317668Y-64517696D01*
X174317668Y-64517696D02*
X174317668Y-64212934D01*
X174317668Y-64212934D02*
X174355763Y-64136744D01*
X174355763Y-64136744D02*
X174393858Y-64098649D01*
X174393858Y-64098649D02*
X174470049Y-64060553D01*
X174470049Y-64060553D02*
X174584334Y-64060553D01*
X174584334Y-64060553D02*
X174660525Y-64098649D01*
X174660525Y-64098649D02*
X174698620Y-64136744D01*
X174698620Y-64136744D02*
X174736715Y-64212934D01*
X174736715Y-64212934D02*
X174736715Y-64517696D01*
X175117668Y-63298649D02*
X175117668Y-63755792D01*
X175117668Y-63527220D02*
X174317668Y-63527220D01*
X174317668Y-63527220D02*
X174431953Y-63603411D01*
X174431953Y-63603411D02*
X174508144Y-63679601D01*
X174508144Y-63679601D02*
X174546239Y-63755792D01*
X174317668Y-62612934D02*
X174317668Y-62765315D01*
X174317668Y-62765315D02*
X174355763Y-62841506D01*
X174355763Y-62841506D02*
X174393858Y-62879601D01*
X174393858Y-62879601D02*
X174508144Y-62955791D01*
X174508144Y-62955791D02*
X174660525Y-62993887D01*
X174660525Y-62993887D02*
X174965287Y-62993887D01*
X174965287Y-62993887D02*
X175041477Y-62955791D01*
X175041477Y-62955791D02*
X175079573Y-62917696D01*
X175079573Y-62917696D02*
X175117668Y-62841506D01*
X175117668Y-62841506D02*
X175117668Y-62689125D01*
X175117668Y-62689125D02*
X175079573Y-62612934D01*
X175079573Y-62612934D02*
X175041477Y-62574839D01*
X175041477Y-62574839D02*
X174965287Y-62536744D01*
X174965287Y-62536744D02*
X174774811Y-62536744D01*
X174774811Y-62536744D02*
X174698620Y-62574839D01*
X174698620Y-62574839D02*
X174660525Y-62612934D01*
X174660525Y-62612934D02*
X174622430Y-62689125D01*
X174622430Y-62689125D02*
X174622430Y-62841506D01*
X174622430Y-62841506D02*
X174660525Y-62917696D01*
X174660525Y-62917696D02*
X174698620Y-62955791D01*
X174698620Y-62955791D02*
X174774811Y-62993887D01*
X161655763Y-64898649D02*
X161617668Y-64974839D01*
X161617668Y-64974839D02*
X161617668Y-65089125D01*
X161617668Y-65089125D02*
X161655763Y-65203411D01*
X161655763Y-65203411D02*
X161731953Y-65279601D01*
X161731953Y-65279601D02*
X161808144Y-65317696D01*
X161808144Y-65317696D02*
X161960525Y-65355792D01*
X161960525Y-65355792D02*
X162074811Y-65355792D01*
X162074811Y-65355792D02*
X162227192Y-65317696D01*
X162227192Y-65317696D02*
X162303382Y-65279601D01*
X162303382Y-65279601D02*
X162379573Y-65203411D01*
X162379573Y-65203411D02*
X162417668Y-65089125D01*
X162417668Y-65089125D02*
X162417668Y-65012934D01*
X162417668Y-65012934D02*
X162379573Y-64898649D01*
X162379573Y-64898649D02*
X162341477Y-64860553D01*
X162341477Y-64860553D02*
X162074811Y-64860553D01*
X162074811Y-64860553D02*
X162074811Y-65012934D01*
X162417668Y-64517696D02*
X161617668Y-64517696D01*
X161617668Y-64517696D02*
X161617668Y-64212934D01*
X161617668Y-64212934D02*
X161655763Y-64136744D01*
X161655763Y-64136744D02*
X161693858Y-64098649D01*
X161693858Y-64098649D02*
X161770049Y-64060553D01*
X161770049Y-64060553D02*
X161884334Y-64060553D01*
X161884334Y-64060553D02*
X161960525Y-64098649D01*
X161960525Y-64098649D02*
X161998620Y-64136744D01*
X161998620Y-64136744D02*
X162036715Y-64212934D01*
X162036715Y-64212934D02*
X162036715Y-64517696D01*
X161693858Y-63755792D02*
X161655763Y-63717696D01*
X161655763Y-63717696D02*
X161617668Y-63641506D01*
X161617668Y-63641506D02*
X161617668Y-63451030D01*
X161617668Y-63451030D02*
X161655763Y-63374839D01*
X161655763Y-63374839D02*
X161693858Y-63336744D01*
X161693858Y-63336744D02*
X161770049Y-63298649D01*
X161770049Y-63298649D02*
X161846239Y-63298649D01*
X161846239Y-63298649D02*
X161960525Y-63336744D01*
X161960525Y-63336744D02*
X162417668Y-63793887D01*
X162417668Y-63793887D02*
X162417668Y-63298649D01*
X161617668Y-62803410D02*
X161617668Y-62727220D01*
X161617668Y-62727220D02*
X161655763Y-62651029D01*
X161655763Y-62651029D02*
X161693858Y-62612934D01*
X161693858Y-62612934D02*
X161770049Y-62574839D01*
X161770049Y-62574839D02*
X161922430Y-62536744D01*
X161922430Y-62536744D02*
X162112906Y-62536744D01*
X162112906Y-62536744D02*
X162265287Y-62574839D01*
X162265287Y-62574839D02*
X162341477Y-62612934D01*
X162341477Y-62612934D02*
X162379573Y-62651029D01*
X162379573Y-62651029D02*
X162417668Y-62727220D01*
X162417668Y-62727220D02*
X162417668Y-62803410D01*
X162417668Y-62803410D02*
X162379573Y-62879601D01*
X162379573Y-62879601D02*
X162341477Y-62917696D01*
X162341477Y-62917696D02*
X162265287Y-62955791D01*
X162265287Y-62955791D02*
X162112906Y-62993887D01*
X162112906Y-62993887D02*
X161922430Y-62993887D01*
X161922430Y-62993887D02*
X161770049Y-62955791D01*
X161770049Y-62955791D02*
X161693858Y-62917696D01*
X161693858Y-62917696D02*
X161655763Y-62879601D01*
X161655763Y-62879601D02*
X161617668Y-62803410D01*
X143875763Y-76135791D02*
X143837668Y-76211981D01*
X143837668Y-76211981D02*
X143837668Y-76326267D01*
X143837668Y-76326267D02*
X143875763Y-76440553D01*
X143875763Y-76440553D02*
X143951953Y-76516743D01*
X143951953Y-76516743D02*
X144028144Y-76554838D01*
X144028144Y-76554838D02*
X144180525Y-76592934D01*
X144180525Y-76592934D02*
X144294811Y-76592934D01*
X144294811Y-76592934D02*
X144447192Y-76554838D01*
X144447192Y-76554838D02*
X144523382Y-76516743D01*
X144523382Y-76516743D02*
X144599573Y-76440553D01*
X144599573Y-76440553D02*
X144637668Y-76326267D01*
X144637668Y-76326267D02*
X144637668Y-76250076D01*
X144637668Y-76250076D02*
X144599573Y-76135791D01*
X144599573Y-76135791D02*
X144561477Y-76097695D01*
X144561477Y-76097695D02*
X144294811Y-76097695D01*
X144294811Y-76097695D02*
X144294811Y-76250076D01*
X144637668Y-75754838D02*
X143837668Y-75754838D01*
X143837668Y-75754838D02*
X144637668Y-75297695D01*
X144637668Y-75297695D02*
X143837668Y-75297695D01*
X144637668Y-74916743D02*
X143837668Y-74916743D01*
X143837668Y-74916743D02*
X143837668Y-74726267D01*
X143837668Y-74726267D02*
X143875763Y-74611981D01*
X143875763Y-74611981D02*
X143951953Y-74535791D01*
X143951953Y-74535791D02*
X144028144Y-74497696D01*
X144028144Y-74497696D02*
X144180525Y-74459600D01*
X144180525Y-74459600D02*
X144294811Y-74459600D01*
X144294811Y-74459600D02*
X144447192Y-74497696D01*
X144447192Y-74497696D02*
X144523382Y-74535791D01*
X144523382Y-74535791D02*
X144599573Y-74611981D01*
X144599573Y-74611981D02*
X144637668Y-74726267D01*
X144637668Y-74726267D02*
X144637668Y-74916743D01*
X159115763Y-76128649D02*
X159077668Y-76204839D01*
X159077668Y-76204839D02*
X159077668Y-76319125D01*
X159077668Y-76319125D02*
X159115763Y-76433411D01*
X159115763Y-76433411D02*
X159191953Y-76509601D01*
X159191953Y-76509601D02*
X159268144Y-76547696D01*
X159268144Y-76547696D02*
X159420525Y-76585792D01*
X159420525Y-76585792D02*
X159534811Y-76585792D01*
X159534811Y-76585792D02*
X159687192Y-76547696D01*
X159687192Y-76547696D02*
X159763382Y-76509601D01*
X159763382Y-76509601D02*
X159839573Y-76433411D01*
X159839573Y-76433411D02*
X159877668Y-76319125D01*
X159877668Y-76319125D02*
X159877668Y-76242934D01*
X159877668Y-76242934D02*
X159839573Y-76128649D01*
X159839573Y-76128649D02*
X159801477Y-76090553D01*
X159801477Y-76090553D02*
X159534811Y-76090553D01*
X159534811Y-76090553D02*
X159534811Y-76242934D01*
X159877668Y-75747696D02*
X159077668Y-75747696D01*
X159077668Y-75747696D02*
X159077668Y-75442934D01*
X159077668Y-75442934D02*
X159115763Y-75366744D01*
X159115763Y-75366744D02*
X159153858Y-75328649D01*
X159153858Y-75328649D02*
X159230049Y-75290553D01*
X159230049Y-75290553D02*
X159344334Y-75290553D01*
X159344334Y-75290553D02*
X159420525Y-75328649D01*
X159420525Y-75328649D02*
X159458620Y-75366744D01*
X159458620Y-75366744D02*
X159496715Y-75442934D01*
X159496715Y-75442934D02*
X159496715Y-75747696D01*
X159877668Y-74528649D02*
X159877668Y-74985792D01*
X159877668Y-74757220D02*
X159077668Y-74757220D01*
X159077668Y-74757220D02*
X159191953Y-74833411D01*
X159191953Y-74833411D02*
X159268144Y-74909601D01*
X159268144Y-74909601D02*
X159306239Y-74985792D01*
X159077668Y-74033410D02*
X159077668Y-73957220D01*
X159077668Y-73957220D02*
X159115763Y-73881029D01*
X159115763Y-73881029D02*
X159153858Y-73842934D01*
X159153858Y-73842934D02*
X159230049Y-73804839D01*
X159230049Y-73804839D02*
X159382430Y-73766744D01*
X159382430Y-73766744D02*
X159572906Y-73766744D01*
X159572906Y-73766744D02*
X159725287Y-73804839D01*
X159725287Y-73804839D02*
X159801477Y-73842934D01*
X159801477Y-73842934D02*
X159839573Y-73881029D01*
X159839573Y-73881029D02*
X159877668Y-73957220D01*
X159877668Y-73957220D02*
X159877668Y-74033410D01*
X159877668Y-74033410D02*
X159839573Y-74109601D01*
X159839573Y-74109601D02*
X159801477Y-74147696D01*
X159801477Y-74147696D02*
X159725287Y-74185791D01*
X159725287Y-74185791D02*
X159572906Y-74223887D01*
X159572906Y-74223887D02*
X159382430Y-74223887D01*
X159382430Y-74223887D02*
X159230049Y-74185791D01*
X159230049Y-74185791D02*
X159153858Y-74147696D01*
X159153858Y-74147696D02*
X159115763Y-74109601D01*
X159115763Y-74109601D02*
X159077668Y-74033410D01*
X171015849Y-69086658D02*
X170939659Y-69048563D01*
X170939659Y-69048563D02*
X170825373Y-69048563D01*
X170825373Y-69048563D02*
X170711087Y-69086658D01*
X170711087Y-69086658D02*
X170634897Y-69162848D01*
X170634897Y-69162848D02*
X170596802Y-69239039D01*
X170596802Y-69239039D02*
X170558706Y-69391420D01*
X170558706Y-69391420D02*
X170558706Y-69505706D01*
X170558706Y-69505706D02*
X170596802Y-69658087D01*
X170596802Y-69658087D02*
X170634897Y-69734277D01*
X170634897Y-69734277D02*
X170711087Y-69810468D01*
X170711087Y-69810468D02*
X170825373Y-69848563D01*
X170825373Y-69848563D02*
X170901564Y-69848563D01*
X170901564Y-69848563D02*
X171015849Y-69810468D01*
X171015849Y-69810468D02*
X171053945Y-69772372D01*
X171053945Y-69772372D02*
X171053945Y-69505706D01*
X171053945Y-69505706D02*
X170901564Y-69505706D01*
X171396802Y-69848563D02*
X171396802Y-69048563D01*
X171396802Y-69048563D02*
X171853945Y-69848563D01*
X171853945Y-69848563D02*
X171853945Y-69048563D01*
X172234897Y-69848563D02*
X172234897Y-69048563D01*
X172234897Y-69048563D02*
X172425373Y-69048563D01*
X172425373Y-69048563D02*
X172539659Y-69086658D01*
X172539659Y-69086658D02*
X172615849Y-69162848D01*
X172615849Y-69162848D02*
X172653944Y-69239039D01*
X172653944Y-69239039D02*
X172692040Y-69391420D01*
X172692040Y-69391420D02*
X172692040Y-69505706D01*
X172692040Y-69505706D02*
X172653944Y-69658087D01*
X172653944Y-69658087D02*
X172615849Y-69734277D01*
X172615849Y-69734277D02*
X172539659Y-69810468D01*
X172539659Y-69810468D02*
X172425373Y-69848563D01*
X172425373Y-69848563D02*
X172234897Y-69848563D01*
X159125763Y-64898649D02*
X159087668Y-64974839D01*
X159087668Y-64974839D02*
X159087668Y-65089125D01*
X159087668Y-65089125D02*
X159125763Y-65203411D01*
X159125763Y-65203411D02*
X159201953Y-65279601D01*
X159201953Y-65279601D02*
X159278144Y-65317696D01*
X159278144Y-65317696D02*
X159430525Y-65355792D01*
X159430525Y-65355792D02*
X159544811Y-65355792D01*
X159544811Y-65355792D02*
X159697192Y-65317696D01*
X159697192Y-65317696D02*
X159773382Y-65279601D01*
X159773382Y-65279601D02*
X159849573Y-65203411D01*
X159849573Y-65203411D02*
X159887668Y-65089125D01*
X159887668Y-65089125D02*
X159887668Y-65012934D01*
X159887668Y-65012934D02*
X159849573Y-64898649D01*
X159849573Y-64898649D02*
X159811477Y-64860553D01*
X159811477Y-64860553D02*
X159544811Y-64860553D01*
X159544811Y-64860553D02*
X159544811Y-65012934D01*
X159887668Y-64517696D02*
X159087668Y-64517696D01*
X159087668Y-64517696D02*
X159087668Y-64212934D01*
X159087668Y-64212934D02*
X159125763Y-64136744D01*
X159125763Y-64136744D02*
X159163858Y-64098649D01*
X159163858Y-64098649D02*
X159240049Y-64060553D01*
X159240049Y-64060553D02*
X159354334Y-64060553D01*
X159354334Y-64060553D02*
X159430525Y-64098649D01*
X159430525Y-64098649D02*
X159468620Y-64136744D01*
X159468620Y-64136744D02*
X159506715Y-64212934D01*
X159506715Y-64212934D02*
X159506715Y-64517696D01*
X159163858Y-63755792D02*
X159125763Y-63717696D01*
X159125763Y-63717696D02*
X159087668Y-63641506D01*
X159087668Y-63641506D02*
X159087668Y-63451030D01*
X159087668Y-63451030D02*
X159125763Y-63374839D01*
X159125763Y-63374839D02*
X159163858Y-63336744D01*
X159163858Y-63336744D02*
X159240049Y-63298649D01*
X159240049Y-63298649D02*
X159316239Y-63298649D01*
X159316239Y-63298649D02*
X159430525Y-63336744D01*
X159430525Y-63336744D02*
X159887668Y-63793887D01*
X159887668Y-63793887D02*
X159887668Y-63298649D01*
X159887668Y-62536744D02*
X159887668Y-62993887D01*
X159887668Y-62765315D02*
X159087668Y-62765315D01*
X159087668Y-62765315D02*
X159201953Y-62841506D01*
X159201953Y-62841506D02*
X159278144Y-62917696D01*
X159278144Y-62917696D02*
X159316239Y-62993887D01*
X146415763Y-76097696D02*
X146377668Y-76173886D01*
X146377668Y-76173886D02*
X146377668Y-76288172D01*
X146377668Y-76288172D02*
X146415763Y-76402458D01*
X146415763Y-76402458D02*
X146491953Y-76478648D01*
X146491953Y-76478648D02*
X146568144Y-76516743D01*
X146568144Y-76516743D02*
X146720525Y-76554839D01*
X146720525Y-76554839D02*
X146834811Y-76554839D01*
X146834811Y-76554839D02*
X146987192Y-76516743D01*
X146987192Y-76516743D02*
X147063382Y-76478648D01*
X147063382Y-76478648D02*
X147139573Y-76402458D01*
X147139573Y-76402458D02*
X147177668Y-76288172D01*
X147177668Y-76288172D02*
X147177668Y-76211981D01*
X147177668Y-76211981D02*
X147139573Y-76097696D01*
X147139573Y-76097696D02*
X147101477Y-76059600D01*
X147101477Y-76059600D02*
X146834811Y-76059600D01*
X146834811Y-76059600D02*
X146834811Y-76211981D01*
X147177668Y-75716743D02*
X146377668Y-75716743D01*
X146377668Y-75716743D02*
X146377668Y-75411981D01*
X146377668Y-75411981D02*
X146415763Y-75335791D01*
X146415763Y-75335791D02*
X146453858Y-75297696D01*
X146453858Y-75297696D02*
X146530049Y-75259600D01*
X146530049Y-75259600D02*
X146644334Y-75259600D01*
X146644334Y-75259600D02*
X146720525Y-75297696D01*
X146720525Y-75297696D02*
X146758620Y-75335791D01*
X146758620Y-75335791D02*
X146796715Y-75411981D01*
X146796715Y-75411981D02*
X146796715Y-75716743D01*
X146377668Y-74573886D02*
X146377668Y-74726267D01*
X146377668Y-74726267D02*
X146415763Y-74802458D01*
X146415763Y-74802458D02*
X146453858Y-74840553D01*
X146453858Y-74840553D02*
X146568144Y-74916743D01*
X146568144Y-74916743D02*
X146720525Y-74954839D01*
X146720525Y-74954839D02*
X147025287Y-74954839D01*
X147025287Y-74954839D02*
X147101477Y-74916743D01*
X147101477Y-74916743D02*
X147139573Y-74878648D01*
X147139573Y-74878648D02*
X147177668Y-74802458D01*
X147177668Y-74802458D02*
X147177668Y-74650077D01*
X147177668Y-74650077D02*
X147139573Y-74573886D01*
X147139573Y-74573886D02*
X147101477Y-74535791D01*
X147101477Y-74535791D02*
X147025287Y-74497696D01*
X147025287Y-74497696D02*
X146834811Y-74497696D01*
X146834811Y-74497696D02*
X146758620Y-74535791D01*
X146758620Y-74535791D02*
X146720525Y-74573886D01*
X146720525Y-74573886D02*
X146682430Y-74650077D01*
X146682430Y-74650077D02*
X146682430Y-74802458D01*
X146682430Y-74802458D02*
X146720525Y-74878648D01*
X146720525Y-74878648D02*
X146758620Y-74916743D01*
X146758620Y-74916743D02*
X146834811Y-74954839D01*
X146425763Y-64898649D02*
X146387668Y-64974839D01*
X146387668Y-64974839D02*
X146387668Y-65089125D01*
X146387668Y-65089125D02*
X146425763Y-65203411D01*
X146425763Y-65203411D02*
X146501953Y-65279601D01*
X146501953Y-65279601D02*
X146578144Y-65317696D01*
X146578144Y-65317696D02*
X146730525Y-65355792D01*
X146730525Y-65355792D02*
X146844811Y-65355792D01*
X146844811Y-65355792D02*
X146997192Y-65317696D01*
X146997192Y-65317696D02*
X147073382Y-65279601D01*
X147073382Y-65279601D02*
X147149573Y-65203411D01*
X147149573Y-65203411D02*
X147187668Y-65089125D01*
X147187668Y-65089125D02*
X147187668Y-65012934D01*
X147187668Y-65012934D02*
X147149573Y-64898649D01*
X147149573Y-64898649D02*
X147111477Y-64860553D01*
X147111477Y-64860553D02*
X146844811Y-64860553D01*
X146844811Y-64860553D02*
X146844811Y-65012934D01*
X147187668Y-64517696D02*
X146387668Y-64517696D01*
X146387668Y-64517696D02*
X146387668Y-64212934D01*
X146387668Y-64212934D02*
X146425763Y-64136744D01*
X146425763Y-64136744D02*
X146463858Y-64098649D01*
X146463858Y-64098649D02*
X146540049Y-64060553D01*
X146540049Y-64060553D02*
X146654334Y-64060553D01*
X146654334Y-64060553D02*
X146730525Y-64098649D01*
X146730525Y-64098649D02*
X146768620Y-64136744D01*
X146768620Y-64136744D02*
X146806715Y-64212934D01*
X146806715Y-64212934D02*
X146806715Y-64517696D01*
X146463858Y-63755792D02*
X146425763Y-63717696D01*
X146425763Y-63717696D02*
X146387668Y-63641506D01*
X146387668Y-63641506D02*
X146387668Y-63451030D01*
X146387668Y-63451030D02*
X146425763Y-63374839D01*
X146425763Y-63374839D02*
X146463858Y-63336744D01*
X146463858Y-63336744D02*
X146540049Y-63298649D01*
X146540049Y-63298649D02*
X146616239Y-63298649D01*
X146616239Y-63298649D02*
X146730525Y-63336744D01*
X146730525Y-63336744D02*
X147187668Y-63793887D01*
X147187668Y-63793887D02*
X147187668Y-63298649D01*
X146387668Y-63031982D02*
X146387668Y-62498648D01*
X146387668Y-62498648D02*
X147187668Y-62841506D01*
X171815763Y-76128649D02*
X171777668Y-76204839D01*
X171777668Y-76204839D02*
X171777668Y-76319125D01*
X171777668Y-76319125D02*
X171815763Y-76433411D01*
X171815763Y-76433411D02*
X171891953Y-76509601D01*
X171891953Y-76509601D02*
X171968144Y-76547696D01*
X171968144Y-76547696D02*
X172120525Y-76585792D01*
X172120525Y-76585792D02*
X172234811Y-76585792D01*
X172234811Y-76585792D02*
X172387192Y-76547696D01*
X172387192Y-76547696D02*
X172463382Y-76509601D01*
X172463382Y-76509601D02*
X172539573Y-76433411D01*
X172539573Y-76433411D02*
X172577668Y-76319125D01*
X172577668Y-76319125D02*
X172577668Y-76242934D01*
X172577668Y-76242934D02*
X172539573Y-76128649D01*
X172539573Y-76128649D02*
X172501477Y-76090553D01*
X172501477Y-76090553D02*
X172234811Y-76090553D01*
X172234811Y-76090553D02*
X172234811Y-76242934D01*
X172577668Y-75747696D02*
X171777668Y-75747696D01*
X171777668Y-75747696D02*
X171777668Y-75442934D01*
X171777668Y-75442934D02*
X171815763Y-75366744D01*
X171815763Y-75366744D02*
X171853858Y-75328649D01*
X171853858Y-75328649D02*
X171930049Y-75290553D01*
X171930049Y-75290553D02*
X172044334Y-75290553D01*
X172044334Y-75290553D02*
X172120525Y-75328649D01*
X172120525Y-75328649D02*
X172158620Y-75366744D01*
X172158620Y-75366744D02*
X172196715Y-75442934D01*
X172196715Y-75442934D02*
X172196715Y-75747696D01*
X172577668Y-74528649D02*
X172577668Y-74985792D01*
X172577668Y-74757220D02*
X171777668Y-74757220D01*
X171777668Y-74757220D02*
X171891953Y-74833411D01*
X171891953Y-74833411D02*
X171968144Y-74909601D01*
X171968144Y-74909601D02*
X172006239Y-74985792D01*
X172044334Y-73842934D02*
X172577668Y-73842934D01*
X171739573Y-74033410D02*
X172311001Y-74223887D01*
X172311001Y-74223887D02*
X172311001Y-73728648D01*
X128597668Y-65067696D02*
X129397668Y-64801029D01*
X129397668Y-64801029D02*
X128597668Y-64534363D01*
X129359573Y-64305792D02*
X129397668Y-64191506D01*
X129397668Y-64191506D02*
X129397668Y-64001030D01*
X129397668Y-64001030D02*
X129359573Y-63924839D01*
X129359573Y-63924839D02*
X129321477Y-63886744D01*
X129321477Y-63886744D02*
X129245287Y-63848649D01*
X129245287Y-63848649D02*
X129169096Y-63848649D01*
X129169096Y-63848649D02*
X129092906Y-63886744D01*
X129092906Y-63886744D02*
X129054811Y-63924839D01*
X129054811Y-63924839D02*
X129016715Y-64001030D01*
X129016715Y-64001030D02*
X128978620Y-64153411D01*
X128978620Y-64153411D02*
X128940525Y-64229601D01*
X128940525Y-64229601D02*
X128902430Y-64267696D01*
X128902430Y-64267696D02*
X128826239Y-64305792D01*
X128826239Y-64305792D02*
X128750049Y-64305792D01*
X128750049Y-64305792D02*
X128673858Y-64267696D01*
X128673858Y-64267696D02*
X128635763Y-64229601D01*
X128635763Y-64229601D02*
X128597668Y-64153411D01*
X128597668Y-64153411D02*
X128597668Y-63962934D01*
X128597668Y-63962934D02*
X128635763Y-63848649D01*
X129016715Y-63353410D02*
X129397668Y-63353410D01*
X128597668Y-63620077D02*
X129016715Y-63353410D01*
X129016715Y-63353410D02*
X128597668Y-63086744D01*
X129359573Y-62858173D02*
X129397668Y-62743887D01*
X129397668Y-62743887D02*
X129397668Y-62553411D01*
X129397668Y-62553411D02*
X129359573Y-62477220D01*
X129359573Y-62477220D02*
X129321477Y-62439125D01*
X129321477Y-62439125D02*
X129245287Y-62401030D01*
X129245287Y-62401030D02*
X129169096Y-62401030D01*
X129169096Y-62401030D02*
X129092906Y-62439125D01*
X129092906Y-62439125D02*
X129054811Y-62477220D01*
X129054811Y-62477220D02*
X129016715Y-62553411D01*
X129016715Y-62553411D02*
X128978620Y-62705792D01*
X128978620Y-62705792D02*
X128940525Y-62781982D01*
X128940525Y-62781982D02*
X128902430Y-62820077D01*
X128902430Y-62820077D02*
X128826239Y-62858173D01*
X128826239Y-62858173D02*
X128750049Y-62858173D01*
X128750049Y-62858173D02*
X128673858Y-62820077D01*
X128673858Y-62820077D02*
X128635763Y-62781982D01*
X128635763Y-62781982D02*
X128597668Y-62705792D01*
X128597668Y-62705792D02*
X128597668Y-62515315D01*
X128597668Y-62515315D02*
X128635763Y-62401030D01*
X151495763Y-76097696D02*
X151457668Y-76173886D01*
X151457668Y-76173886D02*
X151457668Y-76288172D01*
X151457668Y-76288172D02*
X151495763Y-76402458D01*
X151495763Y-76402458D02*
X151571953Y-76478648D01*
X151571953Y-76478648D02*
X151648144Y-76516743D01*
X151648144Y-76516743D02*
X151800525Y-76554839D01*
X151800525Y-76554839D02*
X151914811Y-76554839D01*
X151914811Y-76554839D02*
X152067192Y-76516743D01*
X152067192Y-76516743D02*
X152143382Y-76478648D01*
X152143382Y-76478648D02*
X152219573Y-76402458D01*
X152219573Y-76402458D02*
X152257668Y-76288172D01*
X152257668Y-76288172D02*
X152257668Y-76211981D01*
X152257668Y-76211981D02*
X152219573Y-76097696D01*
X152219573Y-76097696D02*
X152181477Y-76059600D01*
X152181477Y-76059600D02*
X151914811Y-76059600D01*
X151914811Y-76059600D02*
X151914811Y-76211981D01*
X152257668Y-75716743D02*
X151457668Y-75716743D01*
X151457668Y-75716743D02*
X151457668Y-75411981D01*
X151457668Y-75411981D02*
X151495763Y-75335791D01*
X151495763Y-75335791D02*
X151533858Y-75297696D01*
X151533858Y-75297696D02*
X151610049Y-75259600D01*
X151610049Y-75259600D02*
X151724334Y-75259600D01*
X151724334Y-75259600D02*
X151800525Y-75297696D01*
X151800525Y-75297696D02*
X151838620Y-75335791D01*
X151838620Y-75335791D02*
X151876715Y-75411981D01*
X151876715Y-75411981D02*
X151876715Y-75716743D01*
X151800525Y-74802458D02*
X151762430Y-74878648D01*
X151762430Y-74878648D02*
X151724334Y-74916743D01*
X151724334Y-74916743D02*
X151648144Y-74954839D01*
X151648144Y-74954839D02*
X151610049Y-74954839D01*
X151610049Y-74954839D02*
X151533858Y-74916743D01*
X151533858Y-74916743D02*
X151495763Y-74878648D01*
X151495763Y-74878648D02*
X151457668Y-74802458D01*
X151457668Y-74802458D02*
X151457668Y-74650077D01*
X151457668Y-74650077D02*
X151495763Y-74573886D01*
X151495763Y-74573886D02*
X151533858Y-74535791D01*
X151533858Y-74535791D02*
X151610049Y-74497696D01*
X151610049Y-74497696D02*
X151648144Y-74497696D01*
X151648144Y-74497696D02*
X151724334Y-74535791D01*
X151724334Y-74535791D02*
X151762430Y-74573886D01*
X151762430Y-74573886D02*
X151800525Y-74650077D01*
X151800525Y-74650077D02*
X151800525Y-74802458D01*
X151800525Y-74802458D02*
X151838620Y-74878648D01*
X151838620Y-74878648D02*
X151876715Y-74916743D01*
X151876715Y-74916743D02*
X151952906Y-74954839D01*
X151952906Y-74954839D02*
X152105287Y-74954839D01*
X152105287Y-74954839D02*
X152181477Y-74916743D01*
X152181477Y-74916743D02*
X152219573Y-74878648D01*
X152219573Y-74878648D02*
X152257668Y-74802458D01*
X152257668Y-74802458D02*
X152257668Y-74650077D01*
X152257668Y-74650077D02*
X152219573Y-74573886D01*
X152219573Y-74573886D02*
X152181477Y-74535791D01*
X152181477Y-74535791D02*
X152105287Y-74497696D01*
X152105287Y-74497696D02*
X151952906Y-74497696D01*
X151952906Y-74497696D02*
X151876715Y-74535791D01*
X151876715Y-74535791D02*
X151838620Y-74573886D01*
X151838620Y-74573886D02*
X151800525Y-74650077D01*
X138795763Y-76097696D02*
X138757668Y-76173886D01*
X138757668Y-76173886D02*
X138757668Y-76288172D01*
X138757668Y-76288172D02*
X138795763Y-76402458D01*
X138795763Y-76402458D02*
X138871953Y-76478648D01*
X138871953Y-76478648D02*
X138948144Y-76516743D01*
X138948144Y-76516743D02*
X139100525Y-76554839D01*
X139100525Y-76554839D02*
X139214811Y-76554839D01*
X139214811Y-76554839D02*
X139367192Y-76516743D01*
X139367192Y-76516743D02*
X139443382Y-76478648D01*
X139443382Y-76478648D02*
X139519573Y-76402458D01*
X139519573Y-76402458D02*
X139557668Y-76288172D01*
X139557668Y-76288172D02*
X139557668Y-76211981D01*
X139557668Y-76211981D02*
X139519573Y-76097696D01*
X139519573Y-76097696D02*
X139481477Y-76059600D01*
X139481477Y-76059600D02*
X139214811Y-76059600D01*
X139214811Y-76059600D02*
X139214811Y-76211981D01*
X139557668Y-75716743D02*
X138757668Y-75716743D01*
X138757668Y-75716743D02*
X138757668Y-75411981D01*
X138757668Y-75411981D02*
X138795763Y-75335791D01*
X138795763Y-75335791D02*
X138833858Y-75297696D01*
X138833858Y-75297696D02*
X138910049Y-75259600D01*
X138910049Y-75259600D02*
X139024334Y-75259600D01*
X139024334Y-75259600D02*
X139100525Y-75297696D01*
X139100525Y-75297696D02*
X139138620Y-75335791D01*
X139138620Y-75335791D02*
X139176715Y-75411981D01*
X139176715Y-75411981D02*
X139176715Y-75716743D01*
X139024334Y-74573886D02*
X139557668Y-74573886D01*
X138719573Y-74764362D02*
X139291001Y-74954839D01*
X139291001Y-74954839D02*
X139291001Y-74459600D01*
X169180134Y-67270468D02*
X169294420Y-67308563D01*
X169294420Y-67308563D02*
X169484896Y-67308563D01*
X169484896Y-67308563D02*
X169561087Y-67270468D01*
X169561087Y-67270468D02*
X169599182Y-67232372D01*
X169599182Y-67232372D02*
X169637277Y-67156182D01*
X169637277Y-67156182D02*
X169637277Y-67079991D01*
X169637277Y-67079991D02*
X169599182Y-67003801D01*
X169599182Y-67003801D02*
X169561087Y-66965706D01*
X169561087Y-66965706D02*
X169484896Y-66927610D01*
X169484896Y-66927610D02*
X169332515Y-66889515D01*
X169332515Y-66889515D02*
X169256325Y-66851420D01*
X169256325Y-66851420D02*
X169218230Y-66813325D01*
X169218230Y-66813325D02*
X169180134Y-66737134D01*
X169180134Y-66737134D02*
X169180134Y-66660944D01*
X169180134Y-66660944D02*
X169218230Y-66584753D01*
X169218230Y-66584753D02*
X169256325Y-66546658D01*
X169256325Y-66546658D02*
X169332515Y-66508563D01*
X169332515Y-66508563D02*
X169522992Y-66508563D01*
X169522992Y-66508563D02*
X169637277Y-66546658D01*
X169903944Y-66508563D02*
X170094420Y-67308563D01*
X170094420Y-67308563D02*
X170246801Y-66737134D01*
X170246801Y-66737134D02*
X170399182Y-67308563D01*
X170399182Y-67308563D02*
X170589659Y-66508563D01*
X170894421Y-67308563D02*
X170894421Y-66508563D01*
X170894421Y-66508563D02*
X171084897Y-66508563D01*
X171084897Y-66508563D02*
X171199183Y-66546658D01*
X171199183Y-66546658D02*
X171275373Y-66622848D01*
X171275373Y-66622848D02*
X171313468Y-66699039D01*
X171313468Y-66699039D02*
X171351564Y-66851420D01*
X171351564Y-66851420D02*
X171351564Y-66965706D01*
X171351564Y-66965706D02*
X171313468Y-67118087D01*
X171313468Y-67118087D02*
X171275373Y-67194277D01*
X171275373Y-67194277D02*
X171199183Y-67270468D01*
X171199183Y-67270468D02*
X171084897Y-67308563D01*
X171084897Y-67308563D02*
X170894421Y-67308563D01*
X171694421Y-67308563D02*
X171694421Y-66508563D01*
X172227754Y-66508563D02*
X172380135Y-66508563D01*
X172380135Y-66508563D02*
X172456325Y-66546658D01*
X172456325Y-66546658D02*
X172532516Y-66622848D01*
X172532516Y-66622848D02*
X172570611Y-66775229D01*
X172570611Y-66775229D02*
X172570611Y-67041896D01*
X172570611Y-67041896D02*
X172532516Y-67194277D01*
X172532516Y-67194277D02*
X172456325Y-67270468D01*
X172456325Y-67270468D02*
X172380135Y-67308563D01*
X172380135Y-67308563D02*
X172227754Y-67308563D01*
X172227754Y-67308563D02*
X172151563Y-67270468D01*
X172151563Y-67270468D02*
X172075373Y-67194277D01*
X172075373Y-67194277D02*
X172037277Y-67041896D01*
X172037277Y-67041896D02*
X172037277Y-66775229D01*
X172037277Y-66775229D02*
X172075373Y-66622848D01*
X172075373Y-66622848D02*
X172151563Y-66546658D01*
X172151563Y-66546658D02*
X172227754Y-66508563D01*
X148925763Y-76097696D02*
X148887668Y-76173886D01*
X148887668Y-76173886D02*
X148887668Y-76288172D01*
X148887668Y-76288172D02*
X148925763Y-76402458D01*
X148925763Y-76402458D02*
X149001953Y-76478648D01*
X149001953Y-76478648D02*
X149078144Y-76516743D01*
X149078144Y-76516743D02*
X149230525Y-76554839D01*
X149230525Y-76554839D02*
X149344811Y-76554839D01*
X149344811Y-76554839D02*
X149497192Y-76516743D01*
X149497192Y-76516743D02*
X149573382Y-76478648D01*
X149573382Y-76478648D02*
X149649573Y-76402458D01*
X149649573Y-76402458D02*
X149687668Y-76288172D01*
X149687668Y-76288172D02*
X149687668Y-76211981D01*
X149687668Y-76211981D02*
X149649573Y-76097696D01*
X149649573Y-76097696D02*
X149611477Y-76059600D01*
X149611477Y-76059600D02*
X149344811Y-76059600D01*
X149344811Y-76059600D02*
X149344811Y-76211981D01*
X149687668Y-75716743D02*
X148887668Y-75716743D01*
X148887668Y-75716743D02*
X148887668Y-75411981D01*
X148887668Y-75411981D02*
X148925763Y-75335791D01*
X148925763Y-75335791D02*
X148963858Y-75297696D01*
X148963858Y-75297696D02*
X149040049Y-75259600D01*
X149040049Y-75259600D02*
X149154334Y-75259600D01*
X149154334Y-75259600D02*
X149230525Y-75297696D01*
X149230525Y-75297696D02*
X149268620Y-75335791D01*
X149268620Y-75335791D02*
X149306715Y-75411981D01*
X149306715Y-75411981D02*
X149306715Y-75716743D01*
X148887668Y-74992934D02*
X148887668Y-74459600D01*
X148887668Y-74459600D02*
X149687668Y-74802458D01*
X156575763Y-76135791D02*
X156537668Y-76211981D01*
X156537668Y-76211981D02*
X156537668Y-76326267D01*
X156537668Y-76326267D02*
X156575763Y-76440553D01*
X156575763Y-76440553D02*
X156651953Y-76516743D01*
X156651953Y-76516743D02*
X156728144Y-76554838D01*
X156728144Y-76554838D02*
X156880525Y-76592934D01*
X156880525Y-76592934D02*
X156994811Y-76592934D01*
X156994811Y-76592934D02*
X157147192Y-76554838D01*
X157147192Y-76554838D02*
X157223382Y-76516743D01*
X157223382Y-76516743D02*
X157299573Y-76440553D01*
X157299573Y-76440553D02*
X157337668Y-76326267D01*
X157337668Y-76326267D02*
X157337668Y-76250076D01*
X157337668Y-76250076D02*
X157299573Y-76135791D01*
X157299573Y-76135791D02*
X157261477Y-76097695D01*
X157261477Y-76097695D02*
X156994811Y-76097695D01*
X156994811Y-76097695D02*
X156994811Y-76250076D01*
X157337668Y-75754838D02*
X156537668Y-75754838D01*
X156537668Y-75754838D02*
X157337668Y-75297695D01*
X157337668Y-75297695D02*
X156537668Y-75297695D01*
X157337668Y-74916743D02*
X156537668Y-74916743D01*
X156537668Y-74916743D02*
X156537668Y-74726267D01*
X156537668Y-74726267D02*
X156575763Y-74611981D01*
X156575763Y-74611981D02*
X156651953Y-74535791D01*
X156651953Y-74535791D02*
X156728144Y-74497696D01*
X156728144Y-74497696D02*
X156880525Y-74459600D01*
X156880525Y-74459600D02*
X156994811Y-74459600D01*
X156994811Y-74459600D02*
X157147192Y-74497696D01*
X157147192Y-74497696D02*
X157223382Y-74535791D01*
X157223382Y-74535791D02*
X157299573Y-74611981D01*
X157299573Y-74611981D02*
X157337668Y-74726267D01*
X157337668Y-74726267D02*
X157337668Y-74916743D01*
X174355763Y-76128649D02*
X174317668Y-76204839D01*
X174317668Y-76204839D02*
X174317668Y-76319125D01*
X174317668Y-76319125D02*
X174355763Y-76433411D01*
X174355763Y-76433411D02*
X174431953Y-76509601D01*
X174431953Y-76509601D02*
X174508144Y-76547696D01*
X174508144Y-76547696D02*
X174660525Y-76585792D01*
X174660525Y-76585792D02*
X174774811Y-76585792D01*
X174774811Y-76585792D02*
X174927192Y-76547696D01*
X174927192Y-76547696D02*
X175003382Y-76509601D01*
X175003382Y-76509601D02*
X175079573Y-76433411D01*
X175079573Y-76433411D02*
X175117668Y-76319125D01*
X175117668Y-76319125D02*
X175117668Y-76242934D01*
X175117668Y-76242934D02*
X175079573Y-76128649D01*
X175079573Y-76128649D02*
X175041477Y-76090553D01*
X175041477Y-76090553D02*
X174774811Y-76090553D01*
X174774811Y-76090553D02*
X174774811Y-76242934D01*
X175117668Y-75747696D02*
X174317668Y-75747696D01*
X174317668Y-75747696D02*
X174317668Y-75442934D01*
X174317668Y-75442934D02*
X174355763Y-75366744D01*
X174355763Y-75366744D02*
X174393858Y-75328649D01*
X174393858Y-75328649D02*
X174470049Y-75290553D01*
X174470049Y-75290553D02*
X174584334Y-75290553D01*
X174584334Y-75290553D02*
X174660525Y-75328649D01*
X174660525Y-75328649D02*
X174698620Y-75366744D01*
X174698620Y-75366744D02*
X174736715Y-75442934D01*
X174736715Y-75442934D02*
X174736715Y-75747696D01*
X175117668Y-74528649D02*
X175117668Y-74985792D01*
X175117668Y-74757220D02*
X174317668Y-74757220D01*
X174317668Y-74757220D02*
X174431953Y-74833411D01*
X174431953Y-74833411D02*
X174508144Y-74909601D01*
X174508144Y-74909601D02*
X174546239Y-74985792D01*
X174317668Y-73804839D02*
X174317668Y-74185791D01*
X174317668Y-74185791D02*
X174698620Y-74223887D01*
X174698620Y-74223887D02*
X174660525Y-74185791D01*
X174660525Y-74185791D02*
X174622430Y-74109601D01*
X174622430Y-74109601D02*
X174622430Y-73919125D01*
X174622430Y-73919125D02*
X174660525Y-73842934D01*
X174660525Y-73842934D02*
X174698620Y-73804839D01*
X174698620Y-73804839D02*
X174774811Y-73766744D01*
X174774811Y-73766744D02*
X174965287Y-73766744D01*
X174965287Y-73766744D02*
X175041477Y-73804839D01*
X175041477Y-73804839D02*
X175079573Y-73842934D01*
X175079573Y-73842934D02*
X175117668Y-73919125D01*
X175117668Y-73919125D02*
X175117668Y-74109601D01*
X175117668Y-74109601D02*
X175079573Y-74185791D01*
X175079573Y-74185791D02*
X175041477Y-74223887D01*
X136217668Y-64436744D02*
X136217668Y-63941506D01*
X136217668Y-63941506D02*
X136522430Y-64208172D01*
X136522430Y-64208172D02*
X136522430Y-64093887D01*
X136522430Y-64093887D02*
X136560525Y-64017696D01*
X136560525Y-64017696D02*
X136598620Y-63979601D01*
X136598620Y-63979601D02*
X136674811Y-63941506D01*
X136674811Y-63941506D02*
X136865287Y-63941506D01*
X136865287Y-63941506D02*
X136941477Y-63979601D01*
X136941477Y-63979601D02*
X136979573Y-64017696D01*
X136979573Y-64017696D02*
X137017668Y-64093887D01*
X137017668Y-64093887D02*
X137017668Y-64322458D01*
X137017668Y-64322458D02*
X136979573Y-64398649D01*
X136979573Y-64398649D02*
X136941477Y-64436744D01*
X136217668Y-63712934D02*
X137017668Y-63446267D01*
X137017668Y-63446267D02*
X136217668Y-63179601D01*
X136217668Y-62989125D02*
X136217668Y-62493887D01*
X136217668Y-62493887D02*
X136522430Y-62760553D01*
X136522430Y-62760553D02*
X136522430Y-62646268D01*
X136522430Y-62646268D02*
X136560525Y-62570077D01*
X136560525Y-62570077D02*
X136598620Y-62531982D01*
X136598620Y-62531982D02*
X136674811Y-62493887D01*
X136674811Y-62493887D02*
X136865287Y-62493887D01*
X136865287Y-62493887D02*
X136941477Y-62531982D01*
X136941477Y-62531982D02*
X136979573Y-62570077D01*
X136979573Y-62570077D02*
X137017668Y-62646268D01*
X137017668Y-62646268D02*
X137017668Y-62874839D01*
X137017668Y-62874839D02*
X136979573Y-62951030D01*
X136979573Y-62951030D02*
X136941477Y-62989125D01*
X169275763Y-76135791D02*
X169237668Y-76211981D01*
X169237668Y-76211981D02*
X169237668Y-76326267D01*
X169237668Y-76326267D02*
X169275763Y-76440553D01*
X169275763Y-76440553D02*
X169351953Y-76516743D01*
X169351953Y-76516743D02*
X169428144Y-76554838D01*
X169428144Y-76554838D02*
X169580525Y-76592934D01*
X169580525Y-76592934D02*
X169694811Y-76592934D01*
X169694811Y-76592934D02*
X169847192Y-76554838D01*
X169847192Y-76554838D02*
X169923382Y-76516743D01*
X169923382Y-76516743D02*
X169999573Y-76440553D01*
X169999573Y-76440553D02*
X170037668Y-76326267D01*
X170037668Y-76326267D02*
X170037668Y-76250076D01*
X170037668Y-76250076D02*
X169999573Y-76135791D01*
X169999573Y-76135791D02*
X169961477Y-76097695D01*
X169961477Y-76097695D02*
X169694811Y-76097695D01*
X169694811Y-76097695D02*
X169694811Y-76250076D01*
X170037668Y-75754838D02*
X169237668Y-75754838D01*
X169237668Y-75754838D02*
X170037668Y-75297695D01*
X170037668Y-75297695D02*
X169237668Y-75297695D01*
X170037668Y-74916743D02*
X169237668Y-74916743D01*
X169237668Y-74916743D02*
X169237668Y-74726267D01*
X169237668Y-74726267D02*
X169275763Y-74611981D01*
X169275763Y-74611981D02*
X169351953Y-74535791D01*
X169351953Y-74535791D02*
X169428144Y-74497696D01*
X169428144Y-74497696D02*
X169580525Y-74459600D01*
X169580525Y-74459600D02*
X169694811Y-74459600D01*
X169694811Y-74459600D02*
X169847192Y-74497696D01*
X169847192Y-74497696D02*
X169923382Y-74535791D01*
X169923382Y-74535791D02*
X169999573Y-74611981D01*
X169999573Y-74611981D02*
X170037668Y-74726267D01*
X170037668Y-74726267D02*
X170037668Y-74916743D01*
X136255763Y-76097696D02*
X136217668Y-76173886D01*
X136217668Y-76173886D02*
X136217668Y-76288172D01*
X136217668Y-76288172D02*
X136255763Y-76402458D01*
X136255763Y-76402458D02*
X136331953Y-76478648D01*
X136331953Y-76478648D02*
X136408144Y-76516743D01*
X136408144Y-76516743D02*
X136560525Y-76554839D01*
X136560525Y-76554839D02*
X136674811Y-76554839D01*
X136674811Y-76554839D02*
X136827192Y-76516743D01*
X136827192Y-76516743D02*
X136903382Y-76478648D01*
X136903382Y-76478648D02*
X136979573Y-76402458D01*
X136979573Y-76402458D02*
X137017668Y-76288172D01*
X137017668Y-76288172D02*
X137017668Y-76211981D01*
X137017668Y-76211981D02*
X136979573Y-76097696D01*
X136979573Y-76097696D02*
X136941477Y-76059600D01*
X136941477Y-76059600D02*
X136674811Y-76059600D01*
X136674811Y-76059600D02*
X136674811Y-76211981D01*
X137017668Y-75716743D02*
X136217668Y-75716743D01*
X136217668Y-75716743D02*
X136217668Y-75411981D01*
X136217668Y-75411981D02*
X136255763Y-75335791D01*
X136255763Y-75335791D02*
X136293858Y-75297696D01*
X136293858Y-75297696D02*
X136370049Y-75259600D01*
X136370049Y-75259600D02*
X136484334Y-75259600D01*
X136484334Y-75259600D02*
X136560525Y-75297696D01*
X136560525Y-75297696D02*
X136598620Y-75335791D01*
X136598620Y-75335791D02*
X136636715Y-75411981D01*
X136636715Y-75411981D02*
X136636715Y-75716743D01*
X136217668Y-74992934D02*
X136217668Y-74497696D01*
X136217668Y-74497696D02*
X136522430Y-74764362D01*
X136522430Y-74764362D02*
X136522430Y-74650077D01*
X136522430Y-74650077D02*
X136560525Y-74573886D01*
X136560525Y-74573886D02*
X136598620Y-74535791D01*
X136598620Y-74535791D02*
X136674811Y-74497696D01*
X136674811Y-74497696D02*
X136865287Y-74497696D01*
X136865287Y-74497696D02*
X136941477Y-74535791D01*
X136941477Y-74535791D02*
X136979573Y-74573886D01*
X136979573Y-74573886D02*
X137017668Y-74650077D01*
X137017668Y-74650077D02*
X137017668Y-74878648D01*
X137017668Y-74878648D02*
X136979573Y-74954839D01*
X136979573Y-74954839D02*
X136941477Y-74992934D01*
X166735763Y-76128649D02*
X166697668Y-76204839D01*
X166697668Y-76204839D02*
X166697668Y-76319125D01*
X166697668Y-76319125D02*
X166735763Y-76433411D01*
X166735763Y-76433411D02*
X166811953Y-76509601D01*
X166811953Y-76509601D02*
X166888144Y-76547696D01*
X166888144Y-76547696D02*
X167040525Y-76585792D01*
X167040525Y-76585792D02*
X167154811Y-76585792D01*
X167154811Y-76585792D02*
X167307192Y-76547696D01*
X167307192Y-76547696D02*
X167383382Y-76509601D01*
X167383382Y-76509601D02*
X167459573Y-76433411D01*
X167459573Y-76433411D02*
X167497668Y-76319125D01*
X167497668Y-76319125D02*
X167497668Y-76242934D01*
X167497668Y-76242934D02*
X167459573Y-76128649D01*
X167459573Y-76128649D02*
X167421477Y-76090553D01*
X167421477Y-76090553D02*
X167154811Y-76090553D01*
X167154811Y-76090553D02*
X167154811Y-76242934D01*
X167497668Y-75747696D02*
X166697668Y-75747696D01*
X166697668Y-75747696D02*
X166697668Y-75442934D01*
X166697668Y-75442934D02*
X166735763Y-75366744D01*
X166735763Y-75366744D02*
X166773858Y-75328649D01*
X166773858Y-75328649D02*
X166850049Y-75290553D01*
X166850049Y-75290553D02*
X166964334Y-75290553D01*
X166964334Y-75290553D02*
X167040525Y-75328649D01*
X167040525Y-75328649D02*
X167078620Y-75366744D01*
X167078620Y-75366744D02*
X167116715Y-75442934D01*
X167116715Y-75442934D02*
X167116715Y-75747696D01*
X167497668Y-74528649D02*
X167497668Y-74985792D01*
X167497668Y-74757220D02*
X166697668Y-74757220D01*
X166697668Y-74757220D02*
X166811953Y-74833411D01*
X166811953Y-74833411D02*
X166888144Y-74909601D01*
X166888144Y-74909601D02*
X166926239Y-74985792D01*
X166697668Y-74261982D02*
X166697668Y-73766744D01*
X166697668Y-73766744D02*
X167002430Y-74033410D01*
X167002430Y-74033410D02*
X167002430Y-73919125D01*
X167002430Y-73919125D02*
X167040525Y-73842934D01*
X167040525Y-73842934D02*
X167078620Y-73804839D01*
X167078620Y-73804839D02*
X167154811Y-73766744D01*
X167154811Y-73766744D02*
X167345287Y-73766744D01*
X167345287Y-73766744D02*
X167421477Y-73804839D01*
X167421477Y-73804839D02*
X167459573Y-73842934D01*
X167459573Y-73842934D02*
X167497668Y-73919125D01*
X167497668Y-73919125D02*
X167497668Y-74147696D01*
X167497668Y-74147696D02*
X167459573Y-74223887D01*
X167459573Y-74223887D02*
X167421477Y-74261982D01*
X148955763Y-64898649D02*
X148917668Y-64974839D01*
X148917668Y-64974839D02*
X148917668Y-65089125D01*
X148917668Y-65089125D02*
X148955763Y-65203411D01*
X148955763Y-65203411D02*
X149031953Y-65279601D01*
X149031953Y-65279601D02*
X149108144Y-65317696D01*
X149108144Y-65317696D02*
X149260525Y-65355792D01*
X149260525Y-65355792D02*
X149374811Y-65355792D01*
X149374811Y-65355792D02*
X149527192Y-65317696D01*
X149527192Y-65317696D02*
X149603382Y-65279601D01*
X149603382Y-65279601D02*
X149679573Y-65203411D01*
X149679573Y-65203411D02*
X149717668Y-65089125D01*
X149717668Y-65089125D02*
X149717668Y-65012934D01*
X149717668Y-65012934D02*
X149679573Y-64898649D01*
X149679573Y-64898649D02*
X149641477Y-64860553D01*
X149641477Y-64860553D02*
X149374811Y-64860553D01*
X149374811Y-64860553D02*
X149374811Y-65012934D01*
X149717668Y-64517696D02*
X148917668Y-64517696D01*
X148917668Y-64517696D02*
X148917668Y-64212934D01*
X148917668Y-64212934D02*
X148955763Y-64136744D01*
X148955763Y-64136744D02*
X148993858Y-64098649D01*
X148993858Y-64098649D02*
X149070049Y-64060553D01*
X149070049Y-64060553D02*
X149184334Y-64060553D01*
X149184334Y-64060553D02*
X149260525Y-64098649D01*
X149260525Y-64098649D02*
X149298620Y-64136744D01*
X149298620Y-64136744D02*
X149336715Y-64212934D01*
X149336715Y-64212934D02*
X149336715Y-64517696D01*
X148993858Y-63755792D02*
X148955763Y-63717696D01*
X148955763Y-63717696D02*
X148917668Y-63641506D01*
X148917668Y-63641506D02*
X148917668Y-63451030D01*
X148917668Y-63451030D02*
X148955763Y-63374839D01*
X148955763Y-63374839D02*
X148993858Y-63336744D01*
X148993858Y-63336744D02*
X149070049Y-63298649D01*
X149070049Y-63298649D02*
X149146239Y-63298649D01*
X149146239Y-63298649D02*
X149260525Y-63336744D01*
X149260525Y-63336744D02*
X149717668Y-63793887D01*
X149717668Y-63793887D02*
X149717668Y-63298649D01*
X148917668Y-62612934D02*
X148917668Y-62765315D01*
X148917668Y-62765315D02*
X148955763Y-62841506D01*
X148955763Y-62841506D02*
X148993858Y-62879601D01*
X148993858Y-62879601D02*
X149108144Y-62955791D01*
X149108144Y-62955791D02*
X149260525Y-62993887D01*
X149260525Y-62993887D02*
X149565287Y-62993887D01*
X149565287Y-62993887D02*
X149641477Y-62955791D01*
X149641477Y-62955791D02*
X149679573Y-62917696D01*
X149679573Y-62917696D02*
X149717668Y-62841506D01*
X149717668Y-62841506D02*
X149717668Y-62689125D01*
X149717668Y-62689125D02*
X149679573Y-62612934D01*
X149679573Y-62612934D02*
X149641477Y-62574839D01*
X149641477Y-62574839D02*
X149565287Y-62536744D01*
X149565287Y-62536744D02*
X149374811Y-62536744D01*
X149374811Y-62536744D02*
X149298620Y-62574839D01*
X149298620Y-62574839D02*
X149260525Y-62612934D01*
X149260525Y-62612934D02*
X149222430Y-62689125D01*
X149222430Y-62689125D02*
X149222430Y-62841506D01*
X149222430Y-62841506D02*
X149260525Y-62917696D01*
X149260525Y-62917696D02*
X149298620Y-62955791D01*
X149298620Y-62955791D02*
X149374811Y-62993887D01*
X131175763Y-76135791D02*
X131137668Y-76211981D01*
X131137668Y-76211981D02*
X131137668Y-76326267D01*
X131137668Y-76326267D02*
X131175763Y-76440553D01*
X131175763Y-76440553D02*
X131251953Y-76516743D01*
X131251953Y-76516743D02*
X131328144Y-76554838D01*
X131328144Y-76554838D02*
X131480525Y-76592934D01*
X131480525Y-76592934D02*
X131594811Y-76592934D01*
X131594811Y-76592934D02*
X131747192Y-76554838D01*
X131747192Y-76554838D02*
X131823382Y-76516743D01*
X131823382Y-76516743D02*
X131899573Y-76440553D01*
X131899573Y-76440553D02*
X131937668Y-76326267D01*
X131937668Y-76326267D02*
X131937668Y-76250076D01*
X131937668Y-76250076D02*
X131899573Y-76135791D01*
X131899573Y-76135791D02*
X131861477Y-76097695D01*
X131861477Y-76097695D02*
X131594811Y-76097695D01*
X131594811Y-76097695D02*
X131594811Y-76250076D01*
X131937668Y-75754838D02*
X131137668Y-75754838D01*
X131137668Y-75754838D02*
X131937668Y-75297695D01*
X131937668Y-75297695D02*
X131137668Y-75297695D01*
X131937668Y-74916743D02*
X131137668Y-74916743D01*
X131137668Y-74916743D02*
X131137668Y-74726267D01*
X131137668Y-74726267D02*
X131175763Y-74611981D01*
X131175763Y-74611981D02*
X131251953Y-74535791D01*
X131251953Y-74535791D02*
X131328144Y-74497696D01*
X131328144Y-74497696D02*
X131480525Y-74459600D01*
X131480525Y-74459600D02*
X131594811Y-74459600D01*
X131594811Y-74459600D02*
X131747192Y-74497696D01*
X131747192Y-74497696D02*
X131823382Y-74535791D01*
X131823382Y-74535791D02*
X131899573Y-74611981D01*
X131899573Y-74611981D02*
X131937668Y-74726267D01*
X131937668Y-74726267D02*
X131937668Y-74916743D01*
X156575763Y-64205791D02*
X156537668Y-64281981D01*
X156537668Y-64281981D02*
X156537668Y-64396267D01*
X156537668Y-64396267D02*
X156575763Y-64510553D01*
X156575763Y-64510553D02*
X156651953Y-64586743D01*
X156651953Y-64586743D02*
X156728144Y-64624838D01*
X156728144Y-64624838D02*
X156880525Y-64662934D01*
X156880525Y-64662934D02*
X156994811Y-64662934D01*
X156994811Y-64662934D02*
X157147192Y-64624838D01*
X157147192Y-64624838D02*
X157223382Y-64586743D01*
X157223382Y-64586743D02*
X157299573Y-64510553D01*
X157299573Y-64510553D02*
X157337668Y-64396267D01*
X157337668Y-64396267D02*
X157337668Y-64320076D01*
X157337668Y-64320076D02*
X157299573Y-64205791D01*
X157299573Y-64205791D02*
X157261477Y-64167695D01*
X157261477Y-64167695D02*
X156994811Y-64167695D01*
X156994811Y-64167695D02*
X156994811Y-64320076D01*
X157337668Y-63824838D02*
X156537668Y-63824838D01*
X156537668Y-63824838D02*
X157337668Y-63367695D01*
X157337668Y-63367695D02*
X156537668Y-63367695D01*
X157337668Y-62986743D02*
X156537668Y-62986743D01*
X156537668Y-62986743D02*
X156537668Y-62796267D01*
X156537668Y-62796267D02*
X156575763Y-62681981D01*
X156575763Y-62681981D02*
X156651953Y-62605791D01*
X156651953Y-62605791D02*
X156728144Y-62567696D01*
X156728144Y-62567696D02*
X156880525Y-62529600D01*
X156880525Y-62529600D02*
X156994811Y-62529600D01*
X156994811Y-62529600D02*
X157147192Y-62567696D01*
X157147192Y-62567696D02*
X157223382Y-62605791D01*
X157223382Y-62605791D02*
X157299573Y-62681981D01*
X157299573Y-62681981D02*
X157337668Y-62796267D01*
X157337668Y-62796267D02*
X157337668Y-62986743D01*
X169275763Y-64205791D02*
X169237668Y-64281981D01*
X169237668Y-64281981D02*
X169237668Y-64396267D01*
X169237668Y-64396267D02*
X169275763Y-64510553D01*
X169275763Y-64510553D02*
X169351953Y-64586743D01*
X169351953Y-64586743D02*
X169428144Y-64624838D01*
X169428144Y-64624838D02*
X169580525Y-64662934D01*
X169580525Y-64662934D02*
X169694811Y-64662934D01*
X169694811Y-64662934D02*
X169847192Y-64624838D01*
X169847192Y-64624838D02*
X169923382Y-64586743D01*
X169923382Y-64586743D02*
X169999573Y-64510553D01*
X169999573Y-64510553D02*
X170037668Y-64396267D01*
X170037668Y-64396267D02*
X170037668Y-64320076D01*
X170037668Y-64320076D02*
X169999573Y-64205791D01*
X169999573Y-64205791D02*
X169961477Y-64167695D01*
X169961477Y-64167695D02*
X169694811Y-64167695D01*
X169694811Y-64167695D02*
X169694811Y-64320076D01*
X170037668Y-63824838D02*
X169237668Y-63824838D01*
X169237668Y-63824838D02*
X170037668Y-63367695D01*
X170037668Y-63367695D02*
X169237668Y-63367695D01*
X170037668Y-62986743D02*
X169237668Y-62986743D01*
X169237668Y-62986743D02*
X169237668Y-62796267D01*
X169237668Y-62796267D02*
X169275763Y-62681981D01*
X169275763Y-62681981D02*
X169351953Y-62605791D01*
X169351953Y-62605791D02*
X169428144Y-62567696D01*
X169428144Y-62567696D02*
X169580525Y-62529600D01*
X169580525Y-62529600D02*
X169694811Y-62529600D01*
X169694811Y-62529600D02*
X169847192Y-62567696D01*
X169847192Y-62567696D02*
X169923382Y-62605791D01*
X169923382Y-62605791D02*
X169999573Y-62681981D01*
X169999573Y-62681981D02*
X170037668Y-62796267D01*
X170037668Y-62796267D02*
X170037668Y-62986743D01*
X161655763Y-76128649D02*
X161617668Y-76204839D01*
X161617668Y-76204839D02*
X161617668Y-76319125D01*
X161617668Y-76319125D02*
X161655763Y-76433411D01*
X161655763Y-76433411D02*
X161731953Y-76509601D01*
X161731953Y-76509601D02*
X161808144Y-76547696D01*
X161808144Y-76547696D02*
X161960525Y-76585792D01*
X161960525Y-76585792D02*
X162074811Y-76585792D01*
X162074811Y-76585792D02*
X162227192Y-76547696D01*
X162227192Y-76547696D02*
X162303382Y-76509601D01*
X162303382Y-76509601D02*
X162379573Y-76433411D01*
X162379573Y-76433411D02*
X162417668Y-76319125D01*
X162417668Y-76319125D02*
X162417668Y-76242934D01*
X162417668Y-76242934D02*
X162379573Y-76128649D01*
X162379573Y-76128649D02*
X162341477Y-76090553D01*
X162341477Y-76090553D02*
X162074811Y-76090553D01*
X162074811Y-76090553D02*
X162074811Y-76242934D01*
X162417668Y-75747696D02*
X161617668Y-75747696D01*
X161617668Y-75747696D02*
X161617668Y-75442934D01*
X161617668Y-75442934D02*
X161655763Y-75366744D01*
X161655763Y-75366744D02*
X161693858Y-75328649D01*
X161693858Y-75328649D02*
X161770049Y-75290553D01*
X161770049Y-75290553D02*
X161884334Y-75290553D01*
X161884334Y-75290553D02*
X161960525Y-75328649D01*
X161960525Y-75328649D02*
X161998620Y-75366744D01*
X161998620Y-75366744D02*
X162036715Y-75442934D01*
X162036715Y-75442934D02*
X162036715Y-75747696D01*
X162417668Y-74528649D02*
X162417668Y-74985792D01*
X162417668Y-74757220D02*
X161617668Y-74757220D01*
X161617668Y-74757220D02*
X161731953Y-74833411D01*
X161731953Y-74833411D02*
X161808144Y-74909601D01*
X161808144Y-74909601D02*
X161846239Y-74985792D01*
X162417668Y-73766744D02*
X162417668Y-74223887D01*
X162417668Y-73995315D02*
X161617668Y-73995315D01*
X161617668Y-73995315D02*
X161731953Y-74071506D01*
X161731953Y-74071506D02*
X161808144Y-74147696D01*
X161808144Y-74147696D02*
X161846239Y-74223887D01*
X141335763Y-64898649D02*
X141297668Y-64974839D01*
X141297668Y-64974839D02*
X141297668Y-65089125D01*
X141297668Y-65089125D02*
X141335763Y-65203411D01*
X141335763Y-65203411D02*
X141411953Y-65279601D01*
X141411953Y-65279601D02*
X141488144Y-65317696D01*
X141488144Y-65317696D02*
X141640525Y-65355792D01*
X141640525Y-65355792D02*
X141754811Y-65355792D01*
X141754811Y-65355792D02*
X141907192Y-65317696D01*
X141907192Y-65317696D02*
X141983382Y-65279601D01*
X141983382Y-65279601D02*
X142059573Y-65203411D01*
X142059573Y-65203411D02*
X142097668Y-65089125D01*
X142097668Y-65089125D02*
X142097668Y-65012934D01*
X142097668Y-65012934D02*
X142059573Y-64898649D01*
X142059573Y-64898649D02*
X142021477Y-64860553D01*
X142021477Y-64860553D02*
X141754811Y-64860553D01*
X141754811Y-64860553D02*
X141754811Y-65012934D01*
X142097668Y-64517696D02*
X141297668Y-64517696D01*
X141297668Y-64517696D02*
X141297668Y-64212934D01*
X141297668Y-64212934D02*
X141335763Y-64136744D01*
X141335763Y-64136744D02*
X141373858Y-64098649D01*
X141373858Y-64098649D02*
X141450049Y-64060553D01*
X141450049Y-64060553D02*
X141564334Y-64060553D01*
X141564334Y-64060553D02*
X141640525Y-64098649D01*
X141640525Y-64098649D02*
X141678620Y-64136744D01*
X141678620Y-64136744D02*
X141716715Y-64212934D01*
X141716715Y-64212934D02*
X141716715Y-64517696D01*
X141373858Y-63755792D02*
X141335763Y-63717696D01*
X141335763Y-63717696D02*
X141297668Y-63641506D01*
X141297668Y-63641506D02*
X141297668Y-63451030D01*
X141297668Y-63451030D02*
X141335763Y-63374839D01*
X141335763Y-63374839D02*
X141373858Y-63336744D01*
X141373858Y-63336744D02*
X141450049Y-63298649D01*
X141450049Y-63298649D02*
X141526239Y-63298649D01*
X141526239Y-63298649D02*
X141640525Y-63336744D01*
X141640525Y-63336744D02*
X142097668Y-63793887D01*
X142097668Y-63793887D02*
X142097668Y-63298649D01*
X141640525Y-62841506D02*
X141602430Y-62917696D01*
X141602430Y-62917696D02*
X141564334Y-62955791D01*
X141564334Y-62955791D02*
X141488144Y-62993887D01*
X141488144Y-62993887D02*
X141450049Y-62993887D01*
X141450049Y-62993887D02*
X141373858Y-62955791D01*
X141373858Y-62955791D02*
X141335763Y-62917696D01*
X141335763Y-62917696D02*
X141297668Y-62841506D01*
X141297668Y-62841506D02*
X141297668Y-62689125D01*
X141297668Y-62689125D02*
X141335763Y-62612934D01*
X141335763Y-62612934D02*
X141373858Y-62574839D01*
X141373858Y-62574839D02*
X141450049Y-62536744D01*
X141450049Y-62536744D02*
X141488144Y-62536744D01*
X141488144Y-62536744D02*
X141564334Y-62574839D01*
X141564334Y-62574839D02*
X141602430Y-62612934D01*
X141602430Y-62612934D02*
X141640525Y-62689125D01*
X141640525Y-62689125D02*
X141640525Y-62841506D01*
X141640525Y-62841506D02*
X141678620Y-62917696D01*
X141678620Y-62917696D02*
X141716715Y-62955791D01*
X141716715Y-62955791D02*
X141792906Y-62993887D01*
X141792906Y-62993887D02*
X141945287Y-62993887D01*
X141945287Y-62993887D02*
X142021477Y-62955791D01*
X142021477Y-62955791D02*
X142059573Y-62917696D01*
X142059573Y-62917696D02*
X142097668Y-62841506D01*
X142097668Y-62841506D02*
X142097668Y-62689125D01*
X142097668Y-62689125D02*
X142059573Y-62612934D01*
X142059573Y-62612934D02*
X142021477Y-62574839D01*
X142021477Y-62574839D02*
X141945287Y-62536744D01*
X141945287Y-62536744D02*
X141792906Y-62536744D01*
X141792906Y-62536744D02*
X141716715Y-62574839D01*
X141716715Y-62574839D02*
X141678620Y-62612934D01*
X141678620Y-62612934D02*
X141640525Y-62689125D01*
X171815763Y-64898649D02*
X171777668Y-64974839D01*
X171777668Y-64974839D02*
X171777668Y-65089125D01*
X171777668Y-65089125D02*
X171815763Y-65203411D01*
X171815763Y-65203411D02*
X171891953Y-65279601D01*
X171891953Y-65279601D02*
X171968144Y-65317696D01*
X171968144Y-65317696D02*
X172120525Y-65355792D01*
X172120525Y-65355792D02*
X172234811Y-65355792D01*
X172234811Y-65355792D02*
X172387192Y-65317696D01*
X172387192Y-65317696D02*
X172463382Y-65279601D01*
X172463382Y-65279601D02*
X172539573Y-65203411D01*
X172539573Y-65203411D02*
X172577668Y-65089125D01*
X172577668Y-65089125D02*
X172577668Y-65012934D01*
X172577668Y-65012934D02*
X172539573Y-64898649D01*
X172539573Y-64898649D02*
X172501477Y-64860553D01*
X172501477Y-64860553D02*
X172234811Y-64860553D01*
X172234811Y-64860553D02*
X172234811Y-65012934D01*
X172577668Y-64517696D02*
X171777668Y-64517696D01*
X171777668Y-64517696D02*
X171777668Y-64212934D01*
X171777668Y-64212934D02*
X171815763Y-64136744D01*
X171815763Y-64136744D02*
X171853858Y-64098649D01*
X171853858Y-64098649D02*
X171930049Y-64060553D01*
X171930049Y-64060553D02*
X172044334Y-64060553D01*
X172044334Y-64060553D02*
X172120525Y-64098649D01*
X172120525Y-64098649D02*
X172158620Y-64136744D01*
X172158620Y-64136744D02*
X172196715Y-64212934D01*
X172196715Y-64212934D02*
X172196715Y-64517696D01*
X172577668Y-63298649D02*
X172577668Y-63755792D01*
X172577668Y-63527220D02*
X171777668Y-63527220D01*
X171777668Y-63527220D02*
X171891953Y-63603411D01*
X171891953Y-63603411D02*
X171968144Y-63679601D01*
X171968144Y-63679601D02*
X172006239Y-63755792D01*
X171777668Y-63031982D02*
X171777668Y-62498648D01*
X171777668Y-62498648D02*
X172577668Y-62841506D01*
X126057668Y-65162934D02*
X126857668Y-64896267D01*
X126857668Y-64896267D02*
X126057668Y-64629601D01*
X126438620Y-64096268D02*
X126476715Y-63981982D01*
X126476715Y-63981982D02*
X126514811Y-63943887D01*
X126514811Y-63943887D02*
X126591001Y-63905791D01*
X126591001Y-63905791D02*
X126705287Y-63905791D01*
X126705287Y-63905791D02*
X126781477Y-63943887D01*
X126781477Y-63943887D02*
X126819573Y-63981982D01*
X126819573Y-63981982D02*
X126857668Y-64058172D01*
X126857668Y-64058172D02*
X126857668Y-64362934D01*
X126857668Y-64362934D02*
X126057668Y-64362934D01*
X126057668Y-64362934D02*
X126057668Y-64096268D01*
X126057668Y-64096268D02*
X126095763Y-64020077D01*
X126095763Y-64020077D02*
X126133858Y-63981982D01*
X126133858Y-63981982D02*
X126210049Y-63943887D01*
X126210049Y-63943887D02*
X126286239Y-63943887D01*
X126286239Y-63943887D02*
X126362430Y-63981982D01*
X126362430Y-63981982D02*
X126400525Y-64020077D01*
X126400525Y-64020077D02*
X126438620Y-64096268D01*
X126438620Y-64096268D02*
X126438620Y-64362934D01*
X126057668Y-63562934D02*
X126705287Y-63562934D01*
X126705287Y-63562934D02*
X126781477Y-63524839D01*
X126781477Y-63524839D02*
X126819573Y-63486744D01*
X126819573Y-63486744D02*
X126857668Y-63410553D01*
X126857668Y-63410553D02*
X126857668Y-63258172D01*
X126857668Y-63258172D02*
X126819573Y-63181982D01*
X126819573Y-63181982D02*
X126781477Y-63143887D01*
X126781477Y-63143887D02*
X126705287Y-63105791D01*
X126705287Y-63105791D02*
X126057668Y-63105791D01*
X126819573Y-62762935D02*
X126857668Y-62648649D01*
X126857668Y-62648649D02*
X126857668Y-62458173D01*
X126857668Y-62458173D02*
X126819573Y-62381982D01*
X126819573Y-62381982D02*
X126781477Y-62343887D01*
X126781477Y-62343887D02*
X126705287Y-62305792D01*
X126705287Y-62305792D02*
X126629096Y-62305792D01*
X126629096Y-62305792D02*
X126552906Y-62343887D01*
X126552906Y-62343887D02*
X126514811Y-62381982D01*
X126514811Y-62381982D02*
X126476715Y-62458173D01*
X126476715Y-62458173D02*
X126438620Y-62610554D01*
X126438620Y-62610554D02*
X126400525Y-62686744D01*
X126400525Y-62686744D02*
X126362430Y-62724839D01*
X126362430Y-62724839D02*
X126286239Y-62762935D01*
X126286239Y-62762935D02*
X126210049Y-62762935D01*
X126210049Y-62762935D02*
X126133858Y-62724839D01*
X126133858Y-62724839D02*
X126095763Y-62686744D01*
X126095763Y-62686744D02*
X126057668Y-62610554D01*
X126057668Y-62610554D02*
X126057668Y-62420077D01*
X126057668Y-62420077D02*
X126095763Y-62305792D01*
X135575968Y-99993468D02*
X135718825Y-100041087D01*
X135718825Y-100041087D02*
X135956920Y-100041087D01*
X135956920Y-100041087D02*
X136052158Y-99993468D01*
X136052158Y-99993468D02*
X136099777Y-99945848D01*
X136099777Y-99945848D02*
X136147396Y-99850610D01*
X136147396Y-99850610D02*
X136147396Y-99755372D01*
X136147396Y-99755372D02*
X136099777Y-99660134D01*
X136099777Y-99660134D02*
X136052158Y-99612515D01*
X136052158Y-99612515D02*
X135956920Y-99564896D01*
X135956920Y-99564896D02*
X135766444Y-99517277D01*
X135766444Y-99517277D02*
X135671206Y-99469658D01*
X135671206Y-99469658D02*
X135623587Y-99422039D01*
X135623587Y-99422039D02*
X135575968Y-99326801D01*
X135575968Y-99326801D02*
X135575968Y-99231563D01*
X135575968Y-99231563D02*
X135623587Y-99136325D01*
X135623587Y-99136325D02*
X135671206Y-99088706D01*
X135671206Y-99088706D02*
X135766444Y-99041087D01*
X135766444Y-99041087D02*
X136004539Y-99041087D01*
X136004539Y-99041087D02*
X136147396Y-99088706D01*
X137099777Y-100041087D02*
X136528349Y-100041087D01*
X136814063Y-100041087D02*
X136814063Y-99041087D01*
X136814063Y-99041087D02*
X136718825Y-99183944D01*
X136718825Y-99183944D02*
X136623587Y-99279182D01*
X136623587Y-99279182D02*
X136528349Y-99326801D01*
X173699810Y-91633607D02*
X173699810Y-90633607D01*
X173699810Y-90633607D02*
X173937905Y-90633607D01*
X173937905Y-90633607D02*
X174080762Y-90681226D01*
X174080762Y-90681226D02*
X174176000Y-90776464D01*
X174176000Y-90776464D02*
X174223619Y-90871702D01*
X174223619Y-90871702D02*
X174271238Y-91062178D01*
X174271238Y-91062178D02*
X174271238Y-91205035D01*
X174271238Y-91205035D02*
X174223619Y-91395511D01*
X174223619Y-91395511D02*
X174176000Y-91490749D01*
X174176000Y-91490749D02*
X174080762Y-91585988D01*
X174080762Y-91585988D02*
X173937905Y-91633607D01*
X173937905Y-91633607D02*
X173699810Y-91633607D01*
X174604572Y-90633607D02*
X175223619Y-90633607D01*
X175223619Y-90633607D02*
X174890286Y-91014559D01*
X174890286Y-91014559D02*
X175033143Y-91014559D01*
X175033143Y-91014559D02*
X175128381Y-91062178D01*
X175128381Y-91062178D02*
X175176000Y-91109797D01*
X175176000Y-91109797D02*
X175223619Y-91205035D01*
X175223619Y-91205035D02*
X175223619Y-91443130D01*
X175223619Y-91443130D02*
X175176000Y-91538368D01*
X175176000Y-91538368D02*
X175128381Y-91585988D01*
X175128381Y-91585988D02*
X175033143Y-91633607D01*
X175033143Y-91633607D02*
X174747429Y-91633607D01*
X174747429Y-91633607D02*
X174652191Y-91585988D01*
X174652191Y-91585988D02*
X174604572Y-91538368D01*
X170366000Y-91953607D02*
X170366000Y-90953607D01*
X170937428Y-91953607D02*
X170508857Y-91382178D01*
X170937428Y-90953607D02*
X170366000Y-91525035D01*
D11*
%TO.C,SW1*%
X193187873Y-65386268D02*
X193787873Y-65386268D01*
X193487873Y-65686268D02*
X193187873Y-65386268D01*
X193787873Y-65386268D02*
X193487873Y-65686268D01*
X194887873Y-63586268D02*
X194887873Y-75386268D01*
X198987873Y-63586268D02*
X194887873Y-63586268D01*
X198987873Y-75386268D02*
X194887873Y-75386268D01*
X200487873Y-69486268D02*
X201487873Y-69486268D01*
X200987873Y-68986268D02*
X200987873Y-69986268D01*
X202987873Y-63586268D02*
X207087873Y-63586268D01*
X207087873Y-63586268D02*
X207087873Y-65986268D01*
X207087873Y-68186268D02*
X207087873Y-70786268D01*
X207087873Y-72986268D02*
X207087873Y-75386268D01*
X207087873Y-75386268D02*
X202987873Y-75386268D01*
X203987873Y-69486268D02*
G75*
G03*
X203987873Y-69486268I-3000000J0D01*
G01*
%TO.C,D2*%
X152617889Y-93298788D02*
X153267889Y-93298788D01*
X153267889Y-92178788D02*
X153267889Y-94418788D01*
X153267889Y-94418788D02*
X157507889Y-94418788D01*
X153867889Y-92178788D02*
X153867889Y-94418788D01*
X153987889Y-92178788D02*
X153987889Y-94418788D01*
X154107889Y-92178788D02*
X154107889Y-94418788D01*
X157507889Y-92178788D02*
X153267889Y-92178788D01*
X157507889Y-94418788D02*
X157507889Y-92178788D01*
X158157889Y-93298788D02*
X157507889Y-93298788D01*
%TO.C,D1*%
X133567873Y-93298788D02*
X134217873Y-93298788D01*
X134217873Y-92178788D02*
X134217873Y-94418788D01*
X134217873Y-94418788D02*
X138457873Y-94418788D01*
X134817873Y-92178788D02*
X134817873Y-94418788D01*
X134937873Y-92178788D02*
X134937873Y-94418788D01*
X135057873Y-92178788D02*
X135057873Y-94418788D01*
X138457873Y-92178788D02*
X134217873Y-92178788D01*
X138457873Y-94418788D02*
X138457873Y-92178788D01*
X139107873Y-93298788D02*
X138457873Y-93298788D01*
%TO.C,D4*%
X197861677Y-83773780D02*
X198511677Y-83773780D01*
X198511677Y-82653780D02*
X198511677Y-84893780D01*
X198511677Y-84893780D02*
X202751677Y-84893780D01*
X199111677Y-82653780D02*
X199111677Y-84893780D01*
X199231677Y-82653780D02*
X199231677Y-84893780D01*
X199351677Y-82653780D02*
X199351677Y-84893780D01*
X202751677Y-82653780D02*
X198511677Y-82653780D01*
X202751677Y-84893780D02*
X202751677Y-82653780D01*
X203401677Y-83773780D02*
X202751677Y-83773780D01*
%TO.C,S2*%
X148287873Y-100486268D02*
X148287873Y-114686268D01*
X148287873Y-114686268D02*
X162487873Y-114686268D01*
X162487873Y-100486268D02*
X148287873Y-100486268D01*
X162487873Y-114686268D02*
X162487873Y-100486268D01*
%TO.C,S3*%
X167337873Y-100486268D02*
X167337873Y-114686268D01*
X167337873Y-114686268D02*
X181537873Y-114686268D01*
X181537873Y-100486268D02*
X167337873Y-100486268D01*
X181537873Y-114686268D02*
X181537873Y-100486268D01*
D10*
%TO.C,U1*%
X125125373Y-79986268D02*
X176125373Y-79986268D01*
X125125373Y-79986268D02*
X125125373Y-58986268D01*
X127792373Y-79986268D02*
X127792373Y-76979268D01*
X127792373Y-76979268D02*
X125125373Y-76979268D01*
X125125373Y-58986268D02*
X176125373Y-58986268D01*
X176125373Y-58986268D02*
X176125373Y-79986268D01*
D11*
%TO.C,S1*%
X129237873Y-100486268D02*
X129237873Y-114686268D01*
X129237873Y-114686268D02*
X143437873Y-114686268D01*
X143437873Y-100486268D02*
X129237873Y-100486268D01*
X143437873Y-114686268D02*
X143437873Y-100486268D01*
%TO.C,D3*%
X171667905Y-93298788D02*
X172317905Y-93298788D01*
X172317905Y-92178788D02*
X172317905Y-94418788D01*
X172317905Y-94418788D02*
X176557905Y-94418788D01*
X172917905Y-92178788D02*
X172917905Y-94418788D01*
X173037905Y-92178788D02*
X173037905Y-94418788D01*
X173157905Y-92178788D02*
X173157905Y-94418788D01*
X176557905Y-92178788D02*
X172317905Y-92178788D01*
X176557905Y-94418788D02*
X176557905Y-92178788D01*
X177207905Y-93298788D02*
X176557905Y-93298788D01*
%TD*%
%LPC*%
D12*
%TO.C,SW1*%
X193487873Y-66986268D03*
D13*
X193487873Y-71986268D03*
X193487873Y-69486268D03*
D14*
X200987873Y-63886268D03*
X200987873Y-75086268D03*
D13*
X207987873Y-71986268D03*
X207987873Y-66986268D03*
%TD*%
D15*
%TO.C,D2*%
X151577889Y-93298788D03*
D16*
X159197889Y-93298788D03*
%TD*%
D15*
%TO.C,D1*%
X132527873Y-93298788D03*
D16*
X140147873Y-93298788D03*
%TD*%
D15*
%TO.C,D4*%
X196821677Y-83773780D03*
D16*
X204441677Y-83773780D03*
%TD*%
D17*
%TO.C,S2*%
X150307873Y-107586268D03*
D18*
X155387873Y-107586268D03*
D17*
X160467873Y-107586268D03*
D19*
X151577873Y-105046268D03*
X157927873Y-102506268D03*
%TD*%
D17*
%TO.C,S3*%
X169357873Y-107586268D03*
D18*
X174437873Y-107586268D03*
D17*
X179517873Y-107586268D03*
D19*
X170627873Y-105046268D03*
X176977873Y-102506268D03*
%TD*%
D20*
%TO.C,U1*%
X126495373Y-78376268D03*
D21*
X126495373Y-79276268D03*
D20*
X129035373Y-78376268D03*
D21*
X129035373Y-79276268D03*
D22*
X131575373Y-78376268D03*
D21*
X131575373Y-79276268D03*
D20*
X134115373Y-78376268D03*
D21*
X134115373Y-79276268D03*
D20*
X136655373Y-78376268D03*
D21*
X136655373Y-79276268D03*
D20*
X139195373Y-78376268D03*
D21*
X139195373Y-79276268D03*
D20*
X141735373Y-78376268D03*
D21*
X141735373Y-79276268D03*
D22*
X144275373Y-78376268D03*
D21*
X144275373Y-79276268D03*
D20*
X146815373Y-78376268D03*
D21*
X146815373Y-79276268D03*
D20*
X149355373Y-78376268D03*
D21*
X149355373Y-79276268D03*
D20*
X151895373Y-78376268D03*
D21*
X151895373Y-79276268D03*
D20*
X154435373Y-78376268D03*
D21*
X154435373Y-79276268D03*
D22*
X156975373Y-78376268D03*
D21*
X156975373Y-79276268D03*
D20*
X159515373Y-78376268D03*
D21*
X159515373Y-79276268D03*
D20*
X162055373Y-78376268D03*
D21*
X162055373Y-79276268D03*
D20*
X164595373Y-78376268D03*
D21*
X164595373Y-79276268D03*
D20*
X167135373Y-78376268D03*
D21*
X167135373Y-79276268D03*
D22*
X169675373Y-78376268D03*
D21*
X169675373Y-79276268D03*
D20*
X172215373Y-78376268D03*
D21*
X172215373Y-79276268D03*
D20*
X174755373Y-78376268D03*
D21*
X174755373Y-79276268D03*
D20*
X174755373Y-60596268D03*
D21*
X174755373Y-59696268D03*
D20*
X172215373Y-60596268D03*
D21*
X172215373Y-59696268D03*
D22*
X169675373Y-60596268D03*
D21*
X169675373Y-59696268D03*
D20*
X167135373Y-60596268D03*
D21*
X167135373Y-59696268D03*
D20*
X164595373Y-60596268D03*
D21*
X164595373Y-59696268D03*
D20*
X162055373Y-60596268D03*
D21*
X162055373Y-59696268D03*
D20*
X159515373Y-60596268D03*
D21*
X159515373Y-59696268D03*
D22*
X156975373Y-60596268D03*
D21*
X156975373Y-59696268D03*
D20*
X154435373Y-60596268D03*
D21*
X154435373Y-59696268D03*
D20*
X151895373Y-60596268D03*
D21*
X151895373Y-59696268D03*
D20*
X149355373Y-60596268D03*
D21*
X149355373Y-59696268D03*
D20*
X146815373Y-60596268D03*
D21*
X146815373Y-59696268D03*
D22*
X144275373Y-60596268D03*
D21*
X144275373Y-59696268D03*
D20*
X141735373Y-60596268D03*
D21*
X141735373Y-59696268D03*
D20*
X139195373Y-60596268D03*
D21*
X139195373Y-59696268D03*
D20*
X136655373Y-60596268D03*
D21*
X136655373Y-59696268D03*
D20*
X134115373Y-60596268D03*
D21*
X134115373Y-59696268D03*
D22*
X131575373Y-60596268D03*
D21*
X131575373Y-59696268D03*
D20*
X129035373Y-60596268D03*
D21*
X129035373Y-59696268D03*
D20*
X126495373Y-60596268D03*
D21*
X126495373Y-59696268D03*
D20*
X174525373Y-72026268D03*
D23*
X175425373Y-72026268D03*
D22*
X174525373Y-69486268D03*
D23*
X175425373Y-69486268D03*
D20*
X174525373Y-66946268D03*
D23*
X175425373Y-66946268D03*
%TD*%
D17*
%TO.C,S1*%
X131257873Y-107586268D03*
D18*
X136337873Y-107586268D03*
D17*
X141417873Y-107586268D03*
D19*
X132527873Y-105046268D03*
X138877873Y-102506268D03*
%TD*%
D15*
%TO.C,D3*%
X170627905Y-93298788D03*
D16*
X178247905Y-93298788D03*
%TD*%
%LPD*%
M02*
