%TF.GenerationSoftware,KiCad,Pcbnew,7.0.9*%
%TF.CreationDate,2024-01-23T15:09:08+05:30*%
%TF.ProjectId,3 Keypad,33204b65-7970-4616-942e-6b696361645f,rev?*%
%TF.SameCoordinates,Original*%
%TF.FileFunction,Copper,L2,Bot*%
%TF.FilePolarity,Positive*%
%FSLAX46Y46*%
G04 Gerber Fmt 4.6, Leading zero omitted, Abs format (unit mm)*
G04 Created by KiCad (PCBNEW 7.0.9) date 2024-01-23 15:09:08*
%MOMM*%
%LPD*%
G01*
G04 APERTURE LIST*
%TA.AperFunction,ComponentPad*%
%ADD10R,2.000000X2.000000*%
%TD*%
%TA.AperFunction,ComponentPad*%
%ADD11C,2.000000*%
%TD*%
%TA.AperFunction,ComponentPad*%
%ADD12R,3.200000X2.000000*%
%TD*%
%TA.AperFunction,ComponentPad*%
%ADD13R,1.600000X1.600000*%
%TD*%
%TA.AperFunction,ComponentPad*%
%ADD14O,1.600000X1.600000*%
%TD*%
%TA.AperFunction,ComponentPad*%
%ADD15C,2.500000*%
%TD*%
%TA.AperFunction,ComponentPad*%
%ADD16O,1.700000X1.700000*%
%TD*%
%TA.AperFunction,ComponentPad*%
%ADD17R,1.700000X1.700000*%
%TD*%
%TA.AperFunction,Conductor*%
%ADD18C,0.250000*%
%TD*%
G04 APERTURE END LIST*
D10*
%TO.P,SW1,A,A*%
%TO.N,A(GP4)*%
X193487873Y-66986268D03*
D11*
%TO.P,SW1,B,B*%
%TO.N,B(GP5)*%
X193487873Y-71986268D03*
%TO.P,SW1,C,C*%
%TO.N,C(GND)*%
X193487873Y-69486268D03*
D12*
%TO.P,SW1,MP*%
%TO.N,N/C*%
X200987873Y-63886268D03*
X200987873Y-75086268D03*
D11*
%TO.P,SW1,S1,S1*%
%TO.N,Net-(D4-A)*%
X207987873Y-71986268D03*
%TO.P,SW1,S2,S2*%
%TO.N,Col 3*%
X207987873Y-66986268D03*
%TD*%
D13*
%TO.P,D2,1,K*%
%TO.N,Row 0*%
X151577889Y-93298788D03*
D14*
%TO.P,D2,2,A*%
%TO.N,Net-(D2-A)*%
X159197889Y-93298788D03*
%TD*%
D13*
%TO.P,D1,1,K*%
%TO.N,Row 0*%
X132527873Y-93298788D03*
D14*
%TO.P,D1,2,A*%
%TO.N,Net-(D1-A)*%
X140147873Y-93298788D03*
%TD*%
D13*
%TO.P,D4,1,K*%
%TO.N,Row 0*%
X196821677Y-83773780D03*
D14*
%TO.P,D4,2,A*%
%TO.N,Net-(D4-A)*%
X204441677Y-83773780D03*
%TD*%
D15*
%TO.P,S2,1,1*%
%TO.N,Col 1*%
X151577873Y-105046268D03*
%TO.P,S2,2,2*%
%TO.N,Net-(D2-A)*%
X157927873Y-102506268D03*
%TD*%
%TO.P,S3,1,1*%
%TO.N,Col 2*%
X170627873Y-105046268D03*
%TO.P,S3,2,2*%
%TO.N,Net-(D3-A)*%
X176977873Y-102506268D03*
%TD*%
D16*
%TO.P,U1,1,GPIO0*%
%TO.N,unconnected-(U1-GPIO0-Pad1)*%
X126495373Y-78376268D03*
%TO.P,U1,2,GPIO1*%
%TO.N,unconnected-(U1-GPIO1-Pad2)*%
X129035373Y-78376268D03*
D17*
%TO.P,U1,3,GND*%
%TO.N,unconnected-(U1-GND-Pad3)*%
X131575373Y-78376268D03*
D16*
%TO.P,U1,4,GPIO2*%
%TO.N,unconnected-(U1-GPIO2-Pad4)*%
X134115373Y-78376268D03*
%TO.P,U1,5,GPIO3*%
%TO.N,unconnected-(U1-GPIO3-Pad5)*%
X136655373Y-78376268D03*
%TO.P,U1,6,GPIO4*%
%TO.N,A(GP4)*%
X139195373Y-78376268D03*
%TO.P,U1,7,GPIO5*%
%TO.N,B(GP5)*%
X141735373Y-78376268D03*
D17*
%TO.P,U1,8,GND*%
%TO.N,C(GND)*%
X144275373Y-78376268D03*
D16*
%TO.P,U1,9,GPIO6*%
%TO.N,unconnected-(U1-GPIO6-Pad9)*%
X146815373Y-78376268D03*
%TO.P,U1,10,GPIO7*%
%TO.N,unconnected-(U1-GPIO7-Pad10)*%
X149355373Y-78376268D03*
%TO.P,U1,11,GPIO8*%
%TO.N,unconnected-(U1-GPIO8-Pad11)*%
X151895373Y-78376268D03*
%TO.P,U1,12,GPIO9*%
%TO.N,unconnected-(U1-GPIO9-Pad12)*%
X154435373Y-78376268D03*
D17*
%TO.P,U1,13,GND*%
%TO.N,unconnected-(U1-GND-Pad13)*%
X156975373Y-78376268D03*
D16*
%TO.P,U1,14,GPIO10*%
%TO.N,unconnected-(U1-GPIO10-Pad14)*%
X159515373Y-78376268D03*
%TO.P,U1,15,GPIO11*%
%TO.N,unconnected-(U1-GPIO11-Pad15)*%
X162055373Y-78376268D03*
%TO.P,U1,16,GPIO12*%
%TO.N,unconnected-(U1-GPIO12-Pad16)*%
X164595373Y-78376268D03*
%TO.P,U1,17,GPIO13*%
%TO.N,unconnected-(U1-GPIO13-Pad17)*%
X167135373Y-78376268D03*
D17*
%TO.P,U1,18,GND*%
%TO.N,unconnected-(U1-GND-Pad18)*%
X169675373Y-78376268D03*
D16*
%TO.P,U1,19,GPIO14*%
%TO.N,unconnected-(U1-GPIO14-Pad19)*%
X172215373Y-78376268D03*
%TO.P,U1,20,GPIO15*%
%TO.N,unconnected-(U1-GPIO15-Pad20)*%
X174755373Y-78376268D03*
%TO.P,U1,21,GPIO16*%
%TO.N,Row 0*%
X174755373Y-60596268D03*
%TO.P,U1,22,GPIO17*%
%TO.N,unconnected-(U1-GPIO17-Pad22)*%
X172215373Y-60596268D03*
D17*
%TO.P,U1,23,GND*%
%TO.N,unconnected-(U1-GND-Pad23)*%
X169675373Y-60596268D03*
D16*
%TO.P,U1,24,GPIO18*%
%TO.N,Col 0*%
X167135373Y-60596268D03*
%TO.P,U1,25,GPIO19*%
%TO.N,Col 1*%
X164595373Y-60596268D03*
%TO.P,U1,26,GPIO20*%
%TO.N,Col 2*%
X162055373Y-60596268D03*
%TO.P,U1,27,GPIO21*%
%TO.N,Col 3*%
X159515373Y-60596268D03*
D17*
%TO.P,U1,28,GND*%
%TO.N,unconnected-(U1-GND-Pad28)*%
X156975373Y-60596268D03*
D16*
%TO.P,U1,29,GPIO22*%
%TO.N,unconnected-(U1-GPIO22-Pad29)*%
X154435373Y-60596268D03*
%TO.P,U1,30,RUN*%
%TO.N,unconnected-(U1-RUN-Pad30)*%
X151895373Y-60596268D03*
%TO.P,U1,31,GPIO26_ADC0*%
%TO.N,unconnected-(U1-GPIO26_ADC0-Pad31)*%
X149355373Y-60596268D03*
%TO.P,U1,32,GPIO27_ADC1*%
%TO.N,unconnected-(U1-GPIO27_ADC1-Pad32)*%
X146815373Y-60596268D03*
D17*
%TO.P,U1,33,AGND*%
%TO.N,unconnected-(U1-AGND-Pad33)*%
X144275373Y-60596268D03*
D16*
%TO.P,U1,34,GPIO28_ADC2*%
%TO.N,unconnected-(U1-GPIO28_ADC2-Pad34)*%
X141735373Y-60596268D03*
%TO.P,U1,35,ADC_VREF*%
%TO.N,unconnected-(U1-ADC_VREF-Pad35)*%
X139195373Y-60596268D03*
%TO.P,U1,36,3V3*%
%TO.N,unconnected-(U1-3V3-Pad36)*%
X136655373Y-60596268D03*
%TO.P,U1,37,3V3_EN*%
%TO.N,unconnected-(U1-3V3_EN-Pad37)*%
X134115373Y-60596268D03*
D17*
%TO.P,U1,38,GND*%
%TO.N,unconnected-(U1-GND-Pad38)*%
X131575373Y-60596268D03*
D16*
%TO.P,U1,39,VSYS*%
%TO.N,unconnected-(U1-VSYS-Pad39)*%
X129035373Y-60596268D03*
%TO.P,U1,40,VBUS*%
%TO.N,unconnected-(U1-VBUS-Pad40)*%
X126495373Y-60596268D03*
%TO.P,U1,41,SWCLK*%
%TO.N,unconnected-(U1-SWCLK-Pad41)*%
X174525373Y-72026268D03*
D17*
%TO.P,U1,42,GND*%
%TO.N,unconnected-(U1-GND-Pad42)*%
X174525373Y-69486268D03*
D16*
%TO.P,U1,43,SWDIO*%
%TO.N,unconnected-(U1-SWDIO-Pad43)*%
X174525373Y-66946268D03*
%TD*%
D15*
%TO.P,S1,1,1*%
%TO.N,Col 0*%
X132527873Y-105046268D03*
%TO.P,S1,2,2*%
%TO.N,Net-(D1-A)*%
X138877873Y-102506268D03*
%TD*%
D13*
%TO.P,D3,1,K*%
%TO.N,Row 0*%
X170627905Y-93298788D03*
D14*
%TO.P,D3,2,A*%
%TO.N,Net-(D3-A)*%
X178247905Y-93298788D03*
%TD*%
D18*
%TO.N,Row 0*%
X148244133Y-89131597D02*
X166103523Y-89131597D01*
X148244133Y-92108162D02*
X148244133Y-89131597D01*
X166103523Y-89131597D02*
X196464486Y-89131597D01*
X213133250Y-55198756D02*
X174755373Y-55198756D01*
X132527873Y-89369719D02*
X132765995Y-89131597D01*
X167889462Y-93298788D02*
X166103523Y-91512849D01*
X132527873Y-93298788D02*
X132527873Y-89369719D01*
X174755373Y-55198756D02*
X174755373Y-60596268D01*
X149434759Y-93298788D02*
X148244133Y-92108162D01*
X151577889Y-93298788D02*
X149434759Y-93298788D01*
X196821677Y-88774406D02*
X196464486Y-89131597D01*
X132765995Y-89131597D02*
X148244133Y-89131597D01*
X166103523Y-91512849D02*
X166103523Y-89131597D01*
X196821677Y-83773780D02*
X196821677Y-88774406D01*
X213133250Y-89131597D02*
X213133250Y-55198756D01*
X196464486Y-89131597D02*
X213133250Y-89131597D01*
X170627905Y-93298788D02*
X167889462Y-93298788D01*
%TO.N,C(GND)*%
X193487873Y-69486268D02*
X192312873Y-70661268D01*
X149842074Y-79551268D02*
X145450373Y-79551268D01*
X157853660Y-70661268D02*
X150530373Y-77984555D01*
X192312873Y-70661268D02*
X157853660Y-70661268D01*
X150530373Y-78862969D02*
X149842074Y-79551268D01*
X150530373Y-77984555D02*
X150530373Y-78862969D01*
X145450373Y-79551268D02*
X144275373Y-78376268D01*
%TO.N,Col 3*%
X207775433Y-61747199D02*
X207751364Y-61771268D01*
X207751364Y-61771268D02*
X160690373Y-61771268D01*
X207987873Y-61959639D02*
X207775433Y-61747199D01*
X160690373Y-61771268D02*
X159515373Y-60596268D01*
X207987873Y-66986268D02*
X207987873Y-61959639D01*
%TD*%
%TA.AperFunction,NonConductor*%
G36*
X219028919Y-48075185D02*
G01*
X219074674Y-48127989D01*
X219085880Y-48179500D01*
X219085880Y-122939937D01*
X219066195Y-123006976D01*
X219013391Y-123052731D01*
X218961880Y-123063937D01*
X118007670Y-123063937D01*
X117940631Y-123044252D01*
X117894876Y-122991448D01*
X117883670Y-122939937D01*
X117883670Y-107532470D01*
X130128533Y-107532470D01*
X130138760Y-107747169D01*
X130164392Y-107852825D01*
X130189436Y-107956058D01*
X130278727Y-108151578D01*
X130403407Y-108326667D01*
X130403408Y-108326668D01*
X130403413Y-108326674D01*
X130558967Y-108474993D01*
X130558969Y-108474994D01*
X130558970Y-108474995D01*
X130739793Y-108591203D01*
X130939341Y-108671090D01*
X131044871Y-108691429D01*
X131150400Y-108711768D01*
X131150401Y-108711768D01*
X131311485Y-108711768D01*
X131311491Y-108711768D01*
X131471844Y-108696456D01*
X131678082Y-108635899D01*
X131869132Y-108537406D01*
X132038090Y-108404536D01*
X132178849Y-108242092D01*
X132286321Y-108055945D01*
X132356623Y-107852822D01*
X132384110Y-107661641D01*
X134083596Y-107661641D01*
X134113754Y-107961428D01*
X134113755Y-107961430D01*
X134183601Y-108254520D01*
X134183606Y-108254534D01*
X134291893Y-108535695D01*
X134291897Y-108535704D01*
X134436698Y-108799933D01*
X134436702Y-108799939D01*
X134615424Y-109042502D01*
X134615427Y-109042506D01*
X134615434Y-109042513D01*
X134824892Y-109259091D01*
X135061351Y-109445821D01*
X135061353Y-109445822D01*
X135061358Y-109445826D01*
X135320603Y-109599377D01*
X135598001Y-109717004D01*
X135888602Y-109796608D01*
X136187220Y-109836768D01*
X136187224Y-109836768D01*
X136413125Y-109836768D01*
X136577037Y-109825794D01*
X136638507Y-109821680D01*
X136933776Y-109761664D01*
X137218410Y-109662828D01*
X137487332Y-109526936D01*
X137735742Y-109356412D01*
X137959206Y-109154300D01*
X138153738Y-108924207D01*
X138315866Y-108670238D01*
X138442696Y-108396926D01*
X138531966Y-108109147D01*
X138582082Y-107812038D01*
X138591429Y-107532470D01*
X140288533Y-107532470D01*
X140298760Y-107747169D01*
X140324392Y-107852825D01*
X140349436Y-107956058D01*
X140438727Y-108151578D01*
X140563407Y-108326667D01*
X140563408Y-108326668D01*
X140563413Y-108326674D01*
X140718967Y-108474993D01*
X140718969Y-108474994D01*
X140718970Y-108474995D01*
X140899793Y-108591203D01*
X141099341Y-108671090D01*
X141204871Y-108691429D01*
X141310400Y-108711768D01*
X141310401Y-108711768D01*
X141471485Y-108711768D01*
X141471491Y-108711768D01*
X141631844Y-108696456D01*
X141838082Y-108635899D01*
X142029132Y-108537406D01*
X142198090Y-108404536D01*
X142338849Y-108242092D01*
X142446321Y-108055945D01*
X142516623Y-107852822D01*
X142547212Y-107640065D01*
X142542087Y-107532470D01*
X149178533Y-107532470D01*
X149188760Y-107747169D01*
X149214392Y-107852825D01*
X149239436Y-107956058D01*
X149328727Y-108151578D01*
X149453407Y-108326667D01*
X149453408Y-108326668D01*
X149453413Y-108326674D01*
X149608967Y-108474993D01*
X149608969Y-108474994D01*
X149608970Y-108474995D01*
X149789793Y-108591203D01*
X149989341Y-108671090D01*
X150094871Y-108691429D01*
X150200400Y-108711768D01*
X150200401Y-108711768D01*
X150361485Y-108711768D01*
X150361491Y-108711768D01*
X150521844Y-108696456D01*
X150728082Y-108635899D01*
X150919132Y-108537406D01*
X151088090Y-108404536D01*
X151228849Y-108242092D01*
X151336321Y-108055945D01*
X151406623Y-107852822D01*
X151434110Y-107661641D01*
X153133596Y-107661641D01*
X153163754Y-107961428D01*
X153163755Y-107961430D01*
X153233601Y-108254520D01*
X153233606Y-108254534D01*
X153341893Y-108535695D01*
X153341897Y-108535704D01*
X153486698Y-108799933D01*
X153486702Y-108799939D01*
X153665424Y-109042502D01*
X153665427Y-109042506D01*
X153665434Y-109042513D01*
X153874892Y-109259091D01*
X154111351Y-109445821D01*
X154111353Y-109445822D01*
X154111358Y-109445826D01*
X154370603Y-109599377D01*
X154648001Y-109717004D01*
X154938602Y-109796608D01*
X155237220Y-109836768D01*
X155237224Y-109836768D01*
X155463125Y-109836768D01*
X155627037Y-109825794D01*
X155688507Y-109821680D01*
X155983776Y-109761664D01*
X156268410Y-109662828D01*
X156537332Y-109526936D01*
X156785742Y-109356412D01*
X157009206Y-109154300D01*
X157203738Y-108924207D01*
X157365866Y-108670238D01*
X157492696Y-108396926D01*
X157581966Y-108109147D01*
X157632082Y-107812038D01*
X157641429Y-107532470D01*
X159338533Y-107532470D01*
X159348760Y-107747169D01*
X159374392Y-107852825D01*
X159399436Y-107956058D01*
X159488727Y-108151578D01*
X159613407Y-108326667D01*
X159613408Y-108326668D01*
X159613413Y-108326674D01*
X159768967Y-108474993D01*
X159768969Y-108474994D01*
X159768970Y-108474995D01*
X159949793Y-108591203D01*
X160149341Y-108671090D01*
X160254871Y-108691429D01*
X160360400Y-108711768D01*
X160360401Y-108711768D01*
X160521485Y-108711768D01*
X160521491Y-108711768D01*
X160681844Y-108696456D01*
X160888082Y-108635899D01*
X161079132Y-108537406D01*
X161248090Y-108404536D01*
X161388849Y-108242092D01*
X161496321Y-108055945D01*
X161566623Y-107852822D01*
X161597212Y-107640065D01*
X161592087Y-107532470D01*
X168228533Y-107532470D01*
X168238760Y-107747169D01*
X168264392Y-107852825D01*
X168289436Y-107956058D01*
X168378727Y-108151578D01*
X168503407Y-108326667D01*
X168503408Y-108326668D01*
X168503413Y-108326674D01*
X168658967Y-108474993D01*
X168658969Y-108474994D01*
X168658970Y-108474995D01*
X168839793Y-108591203D01*
X169039341Y-108671090D01*
X169144871Y-108691429D01*
X169250400Y-108711768D01*
X169250401Y-108711768D01*
X169411485Y-108711768D01*
X169411491Y-108711768D01*
X169571844Y-108696456D01*
X169778082Y-108635899D01*
X169969132Y-108537406D01*
X170138090Y-108404536D01*
X170278849Y-108242092D01*
X170386321Y-108055945D01*
X170456623Y-107852822D01*
X170484110Y-107661641D01*
X172183596Y-107661641D01*
X172213754Y-107961428D01*
X172213755Y-107961430D01*
X172283601Y-108254520D01*
X172283606Y-108254534D01*
X172391893Y-108535695D01*
X172391897Y-108535704D01*
X172536698Y-108799933D01*
X172536702Y-108799939D01*
X172715424Y-109042502D01*
X172715427Y-109042506D01*
X172715434Y-109042513D01*
X172924892Y-109259091D01*
X173161351Y-109445821D01*
X173161353Y-109445822D01*
X173161358Y-109445826D01*
X173420603Y-109599377D01*
X173698001Y-109717004D01*
X173988602Y-109796608D01*
X174287220Y-109836768D01*
X174287224Y-109836768D01*
X174513125Y-109836768D01*
X174677037Y-109825794D01*
X174738507Y-109821680D01*
X175033776Y-109761664D01*
X175318410Y-109662828D01*
X175587332Y-109526936D01*
X175835742Y-109356412D01*
X176059206Y-109154300D01*
X176253738Y-108924207D01*
X176415866Y-108670238D01*
X176542696Y-108396926D01*
X176631966Y-108109147D01*
X176682082Y-107812038D01*
X176691429Y-107532470D01*
X178388533Y-107532470D01*
X178398760Y-107747169D01*
X178424392Y-107852825D01*
X178449436Y-107956058D01*
X178538727Y-108151578D01*
X178663407Y-108326667D01*
X178663408Y-108326668D01*
X178663413Y-108326674D01*
X178818967Y-108474993D01*
X178818969Y-108474994D01*
X178818970Y-108474995D01*
X178999793Y-108591203D01*
X179199341Y-108671090D01*
X179304871Y-108691429D01*
X179410400Y-108711768D01*
X179410401Y-108711768D01*
X179571485Y-108711768D01*
X179571491Y-108711768D01*
X179731844Y-108696456D01*
X179938082Y-108635899D01*
X180129132Y-108537406D01*
X180298090Y-108404536D01*
X180438849Y-108242092D01*
X180546321Y-108055945D01*
X180616623Y-107852822D01*
X180647212Y-107640065D01*
X180636985Y-107425364D01*
X180586310Y-107216478D01*
X180497019Y-107020958D01*
X180372339Y-106845869D01*
X180372337Y-106845867D01*
X180372332Y-106845861D01*
X180216778Y-106697542D01*
X180035953Y-106581333D01*
X179836403Y-106501445D01*
X179625346Y-106460768D01*
X179625345Y-106460768D01*
X179464255Y-106460768D01*
X179303923Y-106476078D01*
X179303902Y-106476080D01*
X179303898Y-106476081D01*
X179097666Y-106536636D01*
X178906609Y-106635132D01*
X178737658Y-106767997D01*
X178737655Y-106768001D01*
X178596894Y-106930446D01*
X178489426Y-107116587D01*
X178419124Y-107319710D01*
X178419123Y-107319712D01*
X178388534Y-107532468D01*
X178388533Y-107532470D01*
X176691429Y-107532470D01*
X176692150Y-107510899D01*
X176661991Y-107211106D01*
X176592142Y-106918007D01*
X176483850Y-106636834D01*
X176339048Y-106372603D01*
X176160319Y-106130030D01*
X175950853Y-105913444D01*
X175827615Y-105816124D01*
X175714394Y-105726714D01*
X175714390Y-105726711D01*
X175714388Y-105726710D01*
X175455143Y-105573159D01*
X175177745Y-105455532D01*
X175177736Y-105455529D01*
X174887145Y-105375928D01*
X174812489Y-105365888D01*
X174588526Y-105335768D01*
X174362629Y-105335768D01*
X174362621Y-105335768D01*
X174137241Y-105350855D01*
X174137232Y-105350857D01*
X173841967Y-105410872D01*
X173557337Y-105509707D01*
X173557332Y-105509709D01*
X173288419Y-105645596D01*
X173039998Y-105816128D01*
X172816538Y-106018237D01*
X172622005Y-106248332D01*
X172459879Y-106502298D01*
X172459878Y-106502300D01*
X172369277Y-106697542D01*
X172333050Y-106775610D01*
X172326487Y-106796767D01*
X172243780Y-107063386D01*
X172234806Y-107116591D01*
X172193664Y-107360498D01*
X172187915Y-107532470D01*
X172183596Y-107661641D01*
X170484110Y-107661641D01*
X170487212Y-107640065D01*
X170476985Y-107425364D01*
X170426310Y-107216478D01*
X170337019Y-107020958D01*
X170308537Y-106980960D01*
X170285684Y-106914933D01*
X170302157Y-106847033D01*
X170352724Y-106798817D01*
X170421331Y-106785594D01*
X170428013Y-106786416D01*
X170496691Y-106796768D01*
X170759055Y-106796768D01*
X171018488Y-106757664D01*
X171269196Y-106680331D01*
X171505577Y-106566496D01*
X171722352Y-106418701D01*
X171914678Y-106240249D01*
X172078259Y-106035125D01*
X172209441Y-105807911D01*
X172305293Y-105563684D01*
X172363675Y-105307898D01*
X172383281Y-105046268D01*
X172363675Y-104784638D01*
X172305293Y-104528852D01*
X172209441Y-104284625D01*
X172078259Y-104057411D01*
X171914678Y-103852287D01*
X171914677Y-103852286D01*
X171914674Y-103852282D01*
X171722352Y-103673835D01*
X171505577Y-103526040D01*
X171505573Y-103526038D01*
X171505570Y-103526036D01*
X171505569Y-103526035D01*
X171269198Y-103412206D01*
X171269200Y-103412206D01*
X171018496Y-103334874D01*
X171018492Y-103334873D01*
X171018488Y-103334872D01*
X170893696Y-103316062D01*
X170759060Y-103295768D01*
X170759055Y-103295768D01*
X170496691Y-103295768D01*
X170496685Y-103295768D01*
X170335120Y-103320121D01*
X170237258Y-103334872D01*
X170237255Y-103334873D01*
X170237249Y-103334874D01*
X169986546Y-103412206D01*
X169750176Y-103526035D01*
X169750175Y-103526036D01*
X169533393Y-103673835D01*
X169341071Y-103852282D01*
X169177487Y-104057411D01*
X169046305Y-104284624D01*
X168950455Y-104528846D01*
X168950449Y-104528865D01*
X168892070Y-104784642D01*
X168892069Y-104784647D01*
X168872465Y-105046263D01*
X168872465Y-105046272D01*
X168892069Y-105307888D01*
X168892070Y-105307893D01*
X168950449Y-105563670D01*
X168950451Y-105563679D01*
X168950453Y-105563684D01*
X169046305Y-105807911D01*
X169177487Y-106035125D01*
X169341068Y-106240249D01*
X169341070Y-106240251D01*
X169341071Y-106240252D01*
X169350442Y-106248947D01*
X169386197Y-106308975D01*
X169383823Y-106378804D01*
X169344073Y-106436265D01*
X169279568Y-106463114D01*
X169277889Y-106463285D01*
X169143912Y-106476078D01*
X169143903Y-106476079D01*
X169143902Y-106476080D01*
X169143900Y-106476080D01*
X169143898Y-106476081D01*
X168937666Y-106536636D01*
X168746609Y-106635132D01*
X168577658Y-106767997D01*
X168577655Y-106768001D01*
X168436894Y-106930446D01*
X168329426Y-107116587D01*
X168259124Y-107319710D01*
X168259123Y-107319712D01*
X168228534Y-107532468D01*
X168228533Y-107532470D01*
X161592087Y-107532470D01*
X161586985Y-107425364D01*
X161536310Y-107216478D01*
X161447019Y-107020958D01*
X161322339Y-106845869D01*
X161322337Y-106845867D01*
X161322332Y-106845861D01*
X161166778Y-106697542D01*
X160985953Y-106581333D01*
X160786403Y-106501445D01*
X160575346Y-106460768D01*
X160575345Y-106460768D01*
X160414255Y-106460768D01*
X160253923Y-106476078D01*
X160253902Y-106476080D01*
X160253898Y-106476081D01*
X160047666Y-106536636D01*
X159856609Y-106635132D01*
X159687658Y-106767997D01*
X159687655Y-106768001D01*
X159546894Y-106930446D01*
X159439426Y-107116587D01*
X159369124Y-107319710D01*
X159369123Y-107319712D01*
X159338534Y-107532468D01*
X159338533Y-107532470D01*
X157641429Y-107532470D01*
X157642150Y-107510899D01*
X157611991Y-107211106D01*
X157542142Y-106918007D01*
X157433850Y-106636834D01*
X157289048Y-106372603D01*
X157110319Y-106130030D01*
X156900853Y-105913444D01*
X156777615Y-105816124D01*
X156664394Y-105726714D01*
X156664390Y-105726711D01*
X156664388Y-105726710D01*
X156405143Y-105573159D01*
X156127745Y-105455532D01*
X156127736Y-105455529D01*
X155837145Y-105375928D01*
X155762489Y-105365888D01*
X155538526Y-105335768D01*
X155312629Y-105335768D01*
X155312621Y-105335768D01*
X155087241Y-105350855D01*
X155087232Y-105350857D01*
X154791967Y-105410872D01*
X154507337Y-105509707D01*
X154507332Y-105509709D01*
X154238419Y-105645596D01*
X153989998Y-105816128D01*
X153766538Y-106018237D01*
X153572005Y-106248332D01*
X153409879Y-106502298D01*
X153409878Y-106502300D01*
X153319277Y-106697542D01*
X153283050Y-106775610D01*
X153276487Y-106796767D01*
X153193780Y-107063386D01*
X153184806Y-107116591D01*
X153143664Y-107360498D01*
X153137915Y-107532470D01*
X153133596Y-107661641D01*
X151434110Y-107661641D01*
X151437212Y-107640065D01*
X151426985Y-107425364D01*
X151376310Y-107216478D01*
X151287019Y-107020958D01*
X151258537Y-106980960D01*
X151235684Y-106914933D01*
X151252157Y-106847033D01*
X151302724Y-106798817D01*
X151371331Y-106785594D01*
X151378013Y-106786416D01*
X151446691Y-106796768D01*
X151709055Y-106796768D01*
X151968488Y-106757664D01*
X152219196Y-106680331D01*
X152455577Y-106566496D01*
X152672352Y-106418701D01*
X152864678Y-106240249D01*
X153028259Y-106035125D01*
X153159441Y-105807911D01*
X153255293Y-105563684D01*
X153313675Y-105307898D01*
X153333281Y-105046268D01*
X153313675Y-104784638D01*
X153255293Y-104528852D01*
X153159441Y-104284625D01*
X153028259Y-104057411D01*
X152864678Y-103852287D01*
X152864677Y-103852286D01*
X152864674Y-103852282D01*
X152672352Y-103673835D01*
X152455577Y-103526040D01*
X152455573Y-103526038D01*
X152455570Y-103526036D01*
X152455569Y-103526035D01*
X152219198Y-103412206D01*
X152219200Y-103412206D01*
X151968496Y-103334874D01*
X151968492Y-103334873D01*
X151968488Y-103334872D01*
X151843696Y-103316062D01*
X151709060Y-103295768D01*
X151709055Y-103295768D01*
X151446691Y-103295768D01*
X151446685Y-103295768D01*
X151285120Y-103320121D01*
X151187258Y-103334872D01*
X151187255Y-103334873D01*
X151187249Y-103334874D01*
X150936546Y-103412206D01*
X150700176Y-103526035D01*
X150700175Y-103526036D01*
X150483393Y-103673835D01*
X150291071Y-103852282D01*
X150127487Y-104057411D01*
X149996305Y-104284624D01*
X149900455Y-104528846D01*
X149900449Y-104528865D01*
X149842070Y-104784642D01*
X149842069Y-104784647D01*
X149822465Y-105046263D01*
X149822465Y-105046272D01*
X149842069Y-105307888D01*
X149842070Y-105307893D01*
X149900449Y-105563670D01*
X149900451Y-105563679D01*
X149900453Y-105563684D01*
X149996305Y-105807911D01*
X150127487Y-106035125D01*
X150291068Y-106240249D01*
X150291070Y-106240251D01*
X150291071Y-106240252D01*
X150300442Y-106248947D01*
X150336197Y-106308975D01*
X150333823Y-106378804D01*
X150294073Y-106436265D01*
X150229568Y-106463114D01*
X150227889Y-106463285D01*
X150093912Y-106476078D01*
X150093903Y-106476079D01*
X150093902Y-106476080D01*
X150093900Y-106476080D01*
X150093898Y-106476081D01*
X149887666Y-106536636D01*
X149696609Y-106635132D01*
X149527658Y-106767997D01*
X149527655Y-106768001D01*
X149386894Y-106930446D01*
X149279426Y-107116587D01*
X149209124Y-107319710D01*
X149209123Y-107319712D01*
X149178534Y-107532468D01*
X149178533Y-107532470D01*
X142542087Y-107532470D01*
X142536985Y-107425364D01*
X142486310Y-107216478D01*
X142397019Y-107020958D01*
X142272339Y-106845869D01*
X142272337Y-106845867D01*
X142272332Y-106845861D01*
X142116778Y-106697542D01*
X141935953Y-106581333D01*
X141736403Y-106501445D01*
X141525346Y-106460768D01*
X141525345Y-106460768D01*
X141364255Y-106460768D01*
X141203923Y-106476078D01*
X141203902Y-106476080D01*
X141203898Y-106476081D01*
X140997666Y-106536636D01*
X140806609Y-106635132D01*
X140637658Y-106767997D01*
X140637655Y-106768001D01*
X140496894Y-106930446D01*
X140389426Y-107116587D01*
X140319124Y-107319710D01*
X140319123Y-107319712D01*
X140288534Y-107532468D01*
X140288533Y-107532470D01*
X138591429Y-107532470D01*
X138592150Y-107510899D01*
X138561991Y-107211106D01*
X138492142Y-106918007D01*
X138383850Y-106636834D01*
X138239048Y-106372603D01*
X138060319Y-106130030D01*
X137850853Y-105913444D01*
X137727615Y-105816124D01*
X137614394Y-105726714D01*
X137614390Y-105726711D01*
X137614388Y-105726710D01*
X137355143Y-105573159D01*
X137077745Y-105455532D01*
X137077736Y-105455529D01*
X136787145Y-105375928D01*
X136712489Y-105365888D01*
X136488526Y-105335768D01*
X136262629Y-105335768D01*
X136262621Y-105335768D01*
X136037241Y-105350855D01*
X136037232Y-105350857D01*
X135741967Y-105410872D01*
X135457337Y-105509707D01*
X135457332Y-105509709D01*
X135188419Y-105645596D01*
X134939998Y-105816128D01*
X134716538Y-106018237D01*
X134522005Y-106248332D01*
X134359879Y-106502298D01*
X134359878Y-106502300D01*
X134269277Y-106697542D01*
X134233050Y-106775610D01*
X134226487Y-106796767D01*
X134143780Y-107063386D01*
X134134806Y-107116591D01*
X134093664Y-107360498D01*
X134087915Y-107532470D01*
X134083596Y-107661641D01*
X132384110Y-107661641D01*
X132387212Y-107640065D01*
X132376985Y-107425364D01*
X132326310Y-107216478D01*
X132237019Y-107020958D01*
X132208537Y-106980960D01*
X132185684Y-106914933D01*
X132202157Y-106847033D01*
X132252724Y-106798817D01*
X132321331Y-106785594D01*
X132328013Y-106786416D01*
X132396691Y-106796768D01*
X132659055Y-106796768D01*
X132918488Y-106757664D01*
X133169196Y-106680331D01*
X133405577Y-106566496D01*
X133622352Y-106418701D01*
X133814678Y-106240249D01*
X133978259Y-106035125D01*
X134109441Y-105807911D01*
X134205293Y-105563684D01*
X134263675Y-105307898D01*
X134283281Y-105046268D01*
X134263675Y-104784638D01*
X134205293Y-104528852D01*
X134109441Y-104284625D01*
X133978259Y-104057411D01*
X133814678Y-103852287D01*
X133814677Y-103852286D01*
X133814674Y-103852282D01*
X133622352Y-103673835D01*
X133405577Y-103526040D01*
X133405573Y-103526038D01*
X133405570Y-103526036D01*
X133405569Y-103526035D01*
X133169198Y-103412206D01*
X133169200Y-103412206D01*
X132918496Y-103334874D01*
X132918492Y-103334873D01*
X132918488Y-103334872D01*
X132793696Y-103316062D01*
X132659060Y-103295768D01*
X132659055Y-103295768D01*
X132396691Y-103295768D01*
X132396685Y-103295768D01*
X132235120Y-103320121D01*
X132137258Y-103334872D01*
X132137255Y-103334873D01*
X132137249Y-103334874D01*
X131886546Y-103412206D01*
X131650176Y-103526035D01*
X131650175Y-103526036D01*
X131433393Y-103673835D01*
X131241071Y-103852282D01*
X131077487Y-104057411D01*
X130946305Y-104284624D01*
X130850455Y-104528846D01*
X130850449Y-104528865D01*
X130792070Y-104784642D01*
X130792069Y-104784647D01*
X130772465Y-105046263D01*
X130772465Y-105046272D01*
X130792069Y-105307888D01*
X130792070Y-105307893D01*
X130850449Y-105563670D01*
X130850451Y-105563679D01*
X130850453Y-105563684D01*
X130946305Y-105807911D01*
X131077487Y-106035125D01*
X131241068Y-106240249D01*
X131241070Y-106240251D01*
X131241071Y-106240252D01*
X131250442Y-106248947D01*
X131286197Y-106308975D01*
X131283823Y-106378804D01*
X131244073Y-106436265D01*
X131179568Y-106463114D01*
X131177889Y-106463285D01*
X131043912Y-106476078D01*
X131043903Y-106476079D01*
X131043902Y-106476080D01*
X131043900Y-106476080D01*
X131043898Y-106476081D01*
X130837666Y-106536636D01*
X130646609Y-106635132D01*
X130477658Y-106767997D01*
X130477655Y-106768001D01*
X130336894Y-106930446D01*
X130229426Y-107116587D01*
X130159124Y-107319710D01*
X130159123Y-107319712D01*
X130128534Y-107532468D01*
X130128533Y-107532470D01*
X117883670Y-107532470D01*
X117883670Y-102506272D01*
X137122465Y-102506272D01*
X137142069Y-102767888D01*
X137142070Y-102767893D01*
X137200449Y-103023670D01*
X137200451Y-103023679D01*
X137200453Y-103023684D01*
X137296305Y-103267911D01*
X137427487Y-103495125D01*
X137559609Y-103660801D01*
X137591071Y-103700253D01*
X137754921Y-103852282D01*
X137783394Y-103878701D01*
X138000169Y-104026496D01*
X138000174Y-104026498D01*
X138000175Y-104026499D01*
X138000176Y-104026500D01*
X138125716Y-104086956D01*
X138236546Y-104140329D01*
X138236547Y-104140329D01*
X138236550Y-104140331D01*
X138487258Y-104217664D01*
X138746691Y-104256768D01*
X139009055Y-104256768D01*
X139268488Y-104217664D01*
X139519196Y-104140331D01*
X139755577Y-104026496D01*
X139972352Y-103878701D01*
X140164678Y-103700249D01*
X140328259Y-103495125D01*
X140459441Y-103267911D01*
X140555293Y-103023684D01*
X140613675Y-102767898D01*
X140633281Y-102506272D01*
X156172465Y-102506272D01*
X156192069Y-102767888D01*
X156192070Y-102767893D01*
X156250449Y-103023670D01*
X156250451Y-103023679D01*
X156250453Y-103023684D01*
X156346305Y-103267911D01*
X156477487Y-103495125D01*
X156609609Y-103660801D01*
X156641071Y-103700253D01*
X156804921Y-103852282D01*
X156833394Y-103878701D01*
X157050169Y-104026496D01*
X157050174Y-104026498D01*
X157050175Y-104026499D01*
X157050176Y-104026500D01*
X157175716Y-104086956D01*
X157286546Y-104140329D01*
X157286547Y-104140329D01*
X157286550Y-104140331D01*
X157537258Y-104217664D01*
X157796691Y-104256768D01*
X158059055Y-104256768D01*
X158318488Y-104217664D01*
X158569196Y-104140331D01*
X158805577Y-104026496D01*
X159022352Y-103878701D01*
X159214678Y-103700249D01*
X159378259Y-103495125D01*
X159509441Y-103267911D01*
X159605293Y-103023684D01*
X159663675Y-102767898D01*
X159683281Y-102506272D01*
X175222465Y-102506272D01*
X175242069Y-102767888D01*
X175242070Y-102767893D01*
X175300449Y-103023670D01*
X175300451Y-103023679D01*
X175300453Y-103023684D01*
X175396305Y-103267911D01*
X175527487Y-103495125D01*
X175659609Y-103660801D01*
X175691071Y-103700253D01*
X175854921Y-103852282D01*
X175883394Y-103878701D01*
X176100169Y-104026496D01*
X176100174Y-104026498D01*
X176100175Y-104026499D01*
X176100176Y-104026500D01*
X176225716Y-104086956D01*
X176336546Y-104140329D01*
X176336547Y-104140329D01*
X176336550Y-104140331D01*
X176587258Y-104217664D01*
X176846691Y-104256768D01*
X177109055Y-104256768D01*
X177368488Y-104217664D01*
X177619196Y-104140331D01*
X177855577Y-104026496D01*
X178072352Y-103878701D01*
X178264678Y-103700249D01*
X178428259Y-103495125D01*
X178559441Y-103267911D01*
X178655293Y-103023684D01*
X178713675Y-102767898D01*
X178733281Y-102506268D01*
X178713675Y-102244638D01*
X178655293Y-101988852D01*
X178559441Y-101744625D01*
X178428259Y-101517411D01*
X178264678Y-101312287D01*
X178264677Y-101312286D01*
X178264674Y-101312282D01*
X178072352Y-101133835D01*
X177855577Y-100986040D01*
X177855573Y-100986038D01*
X177855570Y-100986036D01*
X177855569Y-100986035D01*
X177619198Y-100872206D01*
X177619200Y-100872206D01*
X177368496Y-100794874D01*
X177368492Y-100794873D01*
X177368488Y-100794872D01*
X177243696Y-100776062D01*
X177109060Y-100755768D01*
X177109055Y-100755768D01*
X176846691Y-100755768D01*
X176846685Y-100755768D01*
X176685120Y-100780121D01*
X176587258Y-100794872D01*
X176587255Y-100794873D01*
X176587249Y-100794874D01*
X176336546Y-100872206D01*
X176100176Y-100986035D01*
X176100175Y-100986036D01*
X175883393Y-101133835D01*
X175691071Y-101312282D01*
X175527487Y-101517411D01*
X175396305Y-101744624D01*
X175300455Y-101988846D01*
X175300449Y-101988865D01*
X175242070Y-102244642D01*
X175242069Y-102244647D01*
X175222465Y-102506263D01*
X175222465Y-102506272D01*
X159683281Y-102506272D01*
X159683281Y-102506268D01*
X159663675Y-102244638D01*
X159605293Y-101988852D01*
X159509441Y-101744625D01*
X159378259Y-101517411D01*
X159214678Y-101312287D01*
X159214677Y-101312286D01*
X159214674Y-101312282D01*
X159022352Y-101133835D01*
X158805577Y-100986040D01*
X158805573Y-100986038D01*
X158805570Y-100986036D01*
X158805569Y-100986035D01*
X158569198Y-100872206D01*
X158569200Y-100872206D01*
X158318496Y-100794874D01*
X158318492Y-100794873D01*
X158318488Y-100794872D01*
X158193696Y-100776062D01*
X158059060Y-100755768D01*
X158059055Y-100755768D01*
X157796691Y-100755768D01*
X157796685Y-100755768D01*
X157635120Y-100780121D01*
X157537258Y-100794872D01*
X157537255Y-100794873D01*
X157537249Y-100794874D01*
X157286546Y-100872206D01*
X157050176Y-100986035D01*
X157050175Y-100986036D01*
X156833393Y-101133835D01*
X156641071Y-101312282D01*
X156477487Y-101517411D01*
X156346305Y-101744624D01*
X156250455Y-101988846D01*
X156250449Y-101988865D01*
X156192070Y-102244642D01*
X156192069Y-102244647D01*
X156172465Y-102506263D01*
X156172465Y-102506272D01*
X140633281Y-102506272D01*
X140633281Y-102506268D01*
X140613675Y-102244638D01*
X140555293Y-101988852D01*
X140459441Y-101744625D01*
X140328259Y-101517411D01*
X140164678Y-101312287D01*
X140164677Y-101312286D01*
X140164674Y-101312282D01*
X139972352Y-101133835D01*
X139755577Y-100986040D01*
X139755573Y-100986038D01*
X139755570Y-100986036D01*
X139755569Y-100986035D01*
X139519198Y-100872206D01*
X139519200Y-100872206D01*
X139268496Y-100794874D01*
X139268492Y-100794873D01*
X139268488Y-100794872D01*
X139143696Y-100776062D01*
X139009060Y-100755768D01*
X139009055Y-100755768D01*
X138746691Y-100755768D01*
X138746685Y-100755768D01*
X138585120Y-100780121D01*
X138487258Y-100794872D01*
X138487255Y-100794873D01*
X138487249Y-100794874D01*
X138236546Y-100872206D01*
X138000176Y-100986035D01*
X138000175Y-100986036D01*
X137783393Y-101133835D01*
X137591071Y-101312282D01*
X137427487Y-101517411D01*
X137296305Y-101744624D01*
X137200455Y-101988846D01*
X137200449Y-101988865D01*
X137142070Y-102244642D01*
X137142069Y-102244647D01*
X137122465Y-102506263D01*
X137122465Y-102506272D01*
X117883670Y-102506272D01*
X117883670Y-78376268D01*
X125139714Y-78376268D01*
X125160309Y-78611671D01*
X125160311Y-78611681D01*
X125221467Y-78839923D01*
X125221469Y-78839927D01*
X125221470Y-78839931D01*
X125225373Y-78848300D01*
X125321338Y-79054098D01*
X125321340Y-79054102D01*
X125429654Y-79208789D01*
X125456878Y-79247669D01*
X125623972Y-79414763D01*
X125720757Y-79482533D01*
X125817538Y-79550300D01*
X125817540Y-79550301D01*
X125817543Y-79550303D01*
X126031710Y-79650171D01*
X126259965Y-79711331D01*
X126436407Y-79726768D01*
X126495372Y-79731927D01*
X126495373Y-79731927D01*
X126495374Y-79731927D01*
X126554339Y-79726768D01*
X126730781Y-79711331D01*
X126959036Y-79650171D01*
X127173203Y-79550303D01*
X127366774Y-79414763D01*
X127533868Y-79247669D01*
X127663798Y-79062110D01*
X127718375Y-79018485D01*
X127787873Y-79011291D01*
X127850228Y-79042814D01*
X127866948Y-79062110D01*
X127996873Y-79247663D01*
X127996878Y-79247669D01*
X128163972Y-79414763D01*
X128260757Y-79482533D01*
X128357538Y-79550300D01*
X128357540Y-79550301D01*
X128357543Y-79550303D01*
X128571710Y-79650171D01*
X128799965Y-79711331D01*
X128976407Y-79726768D01*
X129035372Y-79731927D01*
X129035373Y-79731927D01*
X129035374Y-79731927D01*
X129094339Y-79726768D01*
X129270781Y-79711331D01*
X129499036Y-79650171D01*
X129713203Y-79550303D01*
X129906774Y-79414763D01*
X130028702Y-79292834D01*
X130090021Y-79259352D01*
X130159713Y-79264336D01*
X130215647Y-79306207D01*
X130232562Y-79337185D01*
X130281575Y-79468596D01*
X130281579Y-79468603D01*
X130367825Y-79583812D01*
X130367828Y-79583815D01*
X130483037Y-79670061D01*
X130483044Y-79670065D01*
X130617890Y-79720359D01*
X130617889Y-79720359D01*
X130624817Y-79721103D01*
X130677500Y-79726768D01*
X132473245Y-79726767D01*
X132532856Y-79720359D01*
X132667704Y-79670064D01*
X132782919Y-79583814D01*
X132869169Y-79468599D01*
X132918183Y-79337184D01*
X132960054Y-79281252D01*
X133025518Y-79256834D01*
X133093791Y-79271685D01*
X133122046Y-79292837D01*
X133243972Y-79414763D01*
X133340757Y-79482533D01*
X133437538Y-79550300D01*
X133437540Y-79550301D01*
X133437543Y-79550303D01*
X133651710Y-79650171D01*
X133879965Y-79711331D01*
X134056407Y-79726768D01*
X134115372Y-79731927D01*
X134115373Y-79731927D01*
X134115374Y-79731927D01*
X134174339Y-79726768D01*
X134350781Y-79711331D01*
X134579036Y-79650171D01*
X134793203Y-79550303D01*
X134986774Y-79414763D01*
X135153868Y-79247669D01*
X135283798Y-79062110D01*
X135338375Y-79018485D01*
X135407873Y-79011291D01*
X135470228Y-79042814D01*
X135486948Y-79062110D01*
X135616873Y-79247663D01*
X135616878Y-79247669D01*
X135783972Y-79414763D01*
X135880757Y-79482533D01*
X135977538Y-79550300D01*
X135977540Y-79550301D01*
X135977543Y-79550303D01*
X136191710Y-79650171D01*
X136419965Y-79711331D01*
X136596407Y-79726768D01*
X136655372Y-79731927D01*
X136655373Y-79731927D01*
X136655374Y-79731927D01*
X136714339Y-79726768D01*
X136890781Y-79711331D01*
X137119036Y-79650171D01*
X137333203Y-79550303D01*
X137526774Y-79414763D01*
X137693868Y-79247669D01*
X137823798Y-79062110D01*
X137878375Y-79018485D01*
X137947873Y-79011291D01*
X138010228Y-79042814D01*
X138026948Y-79062110D01*
X138156873Y-79247663D01*
X138156878Y-79247669D01*
X138323972Y-79414763D01*
X138420757Y-79482533D01*
X138517538Y-79550300D01*
X138517540Y-79550301D01*
X138517543Y-79550303D01*
X138731710Y-79650171D01*
X138959965Y-79711331D01*
X139136407Y-79726768D01*
X139195372Y-79731927D01*
X139195373Y-79731927D01*
X139195374Y-79731927D01*
X139254339Y-79726768D01*
X139430781Y-79711331D01*
X139659036Y-79650171D01*
X139873203Y-79550303D01*
X140066774Y-79414763D01*
X140233868Y-79247669D01*
X140363798Y-79062110D01*
X140418375Y-79018485D01*
X140487873Y-79011291D01*
X140550228Y-79042814D01*
X140566948Y-79062110D01*
X140696873Y-79247663D01*
X140696878Y-79247669D01*
X140863972Y-79414763D01*
X140960757Y-79482533D01*
X141057538Y-79550300D01*
X141057540Y-79550301D01*
X141057543Y-79550303D01*
X141271710Y-79650171D01*
X141499965Y-79711331D01*
X141676407Y-79726768D01*
X141735372Y-79731927D01*
X141735373Y-79731927D01*
X141735374Y-79731927D01*
X141794339Y-79726768D01*
X141970781Y-79711331D01*
X142199036Y-79650171D01*
X142413203Y-79550303D01*
X142606774Y-79414763D01*
X142728702Y-79292834D01*
X142790021Y-79259352D01*
X142859713Y-79264336D01*
X142915647Y-79306207D01*
X142932562Y-79337185D01*
X142981575Y-79468596D01*
X142981579Y-79468603D01*
X143067825Y-79583812D01*
X143067828Y-79583815D01*
X143183037Y-79670061D01*
X143183044Y-79670065D01*
X143317890Y-79720359D01*
X143317889Y-79720359D01*
X143324817Y-79721103D01*
X143377500Y-79726768D01*
X144689919Y-79726767D01*
X144756958Y-79746452D01*
X144777600Y-79763086D01*
X144949570Y-79935056D01*
X144959395Y-79947319D01*
X144959616Y-79947137D01*
X144964587Y-79953146D01*
X144985416Y-79972705D01*
X145015008Y-80000494D01*
X145035902Y-80021388D01*
X145041384Y-80025641D01*
X145045816Y-80029425D01*
X145079791Y-80061330D01*
X145097349Y-80070982D01*
X145113606Y-80081661D01*
X145129437Y-80093941D01*
X145149110Y-80102454D01*
X145172206Y-80112450D01*
X145177450Y-80115018D01*
X145218281Y-80137465D01*
X145230896Y-80140703D01*
X145237678Y-80142445D01*
X145256092Y-80148749D01*
X145274477Y-80156706D01*
X145320530Y-80164000D01*
X145326199Y-80165174D01*
X145371354Y-80176768D01*
X145391389Y-80176768D01*
X145410786Y-80178294D01*
X145430569Y-80181428D01*
X145476957Y-80177043D01*
X145482795Y-80176768D01*
X149759331Y-80176768D01*
X149774951Y-80178492D01*
X149774978Y-80178207D01*
X149782734Y-80178939D01*
X149782741Y-80178941D01*
X149851888Y-80176768D01*
X149881424Y-80176768D01*
X149888302Y-80175898D01*
X149894115Y-80175440D01*
X149940701Y-80173977D01*
X149959943Y-80168385D01*
X149978986Y-80164442D01*
X149998866Y-80161932D01*
X150042196Y-80144775D01*
X150047720Y-80142885D01*
X150051470Y-80141795D01*
X150092464Y-80129886D01*
X150109703Y-80119690D01*
X150127177Y-80111130D01*
X150145801Y-80103756D01*
X150145801Y-80103755D01*
X150145806Y-80103754D01*
X150183523Y-80076350D01*
X150188379Y-80073160D01*
X150228494Y-80049438D01*
X150242663Y-80035267D01*
X150257453Y-80022636D01*
X150273661Y-80010862D01*
X150303373Y-79974944D01*
X150307286Y-79970644D01*
X150856192Y-79421738D01*
X150917513Y-79388255D01*
X150987205Y-79393239D01*
X151019328Y-79411956D01*
X151019537Y-79411658D01*
X151023106Y-79414157D01*
X151023576Y-79414431D01*
X151023973Y-79414764D01*
X151217538Y-79550300D01*
X151217540Y-79550301D01*
X151217543Y-79550303D01*
X151431710Y-79650171D01*
X151659965Y-79711331D01*
X151836407Y-79726768D01*
X151895372Y-79731927D01*
X151895373Y-79731927D01*
X151895374Y-79731927D01*
X151954339Y-79726768D01*
X152130781Y-79711331D01*
X152359036Y-79650171D01*
X152573203Y-79550303D01*
X152766774Y-79414763D01*
X152933868Y-79247669D01*
X153063798Y-79062110D01*
X153118375Y-79018485D01*
X153187873Y-79011291D01*
X153250228Y-79042814D01*
X153266948Y-79062110D01*
X153396873Y-79247663D01*
X153396878Y-79247669D01*
X153563972Y-79414763D01*
X153660757Y-79482533D01*
X153757538Y-79550300D01*
X153757540Y-79550301D01*
X153757543Y-79550303D01*
X153971710Y-79650171D01*
X154199965Y-79711331D01*
X154376407Y-79726768D01*
X154435372Y-79731927D01*
X154435373Y-79731927D01*
X154435374Y-79731927D01*
X154494339Y-79726768D01*
X154670781Y-79711331D01*
X154899036Y-79650171D01*
X155113203Y-79550303D01*
X155306774Y-79414763D01*
X155428702Y-79292834D01*
X155490021Y-79259352D01*
X155559713Y-79264336D01*
X155615647Y-79306207D01*
X155632562Y-79337185D01*
X155681575Y-79468596D01*
X155681579Y-79468603D01*
X155767825Y-79583812D01*
X155767828Y-79583815D01*
X155883037Y-79670061D01*
X155883044Y-79670065D01*
X156017890Y-79720359D01*
X156017889Y-79720359D01*
X156024817Y-79721103D01*
X156077500Y-79726768D01*
X157873245Y-79726767D01*
X157932856Y-79720359D01*
X158067704Y-79670064D01*
X158182919Y-79583814D01*
X158269169Y-79468599D01*
X158318183Y-79337184D01*
X158360054Y-79281252D01*
X158425518Y-79256834D01*
X158493791Y-79271685D01*
X158522046Y-79292837D01*
X158643972Y-79414763D01*
X158740757Y-79482533D01*
X158837538Y-79550300D01*
X158837540Y-79550301D01*
X158837543Y-79550303D01*
X159051710Y-79650171D01*
X159279965Y-79711331D01*
X159456407Y-79726768D01*
X159515372Y-79731927D01*
X159515373Y-79731927D01*
X159515374Y-79731927D01*
X159574339Y-79726768D01*
X159750781Y-79711331D01*
X159979036Y-79650171D01*
X160193203Y-79550303D01*
X160386774Y-79414763D01*
X160553868Y-79247669D01*
X160683798Y-79062110D01*
X160738375Y-79018485D01*
X160807873Y-79011291D01*
X160870228Y-79042814D01*
X160886948Y-79062110D01*
X161016873Y-79247663D01*
X161016878Y-79247669D01*
X161183972Y-79414763D01*
X161280757Y-79482533D01*
X161377538Y-79550300D01*
X161377540Y-79550301D01*
X161377543Y-79550303D01*
X161591710Y-79650171D01*
X161819965Y-79711331D01*
X161996407Y-79726768D01*
X162055372Y-79731927D01*
X162055373Y-79731927D01*
X162055374Y-79731927D01*
X162114339Y-79726768D01*
X162290781Y-79711331D01*
X162519036Y-79650171D01*
X162733203Y-79550303D01*
X162926774Y-79414763D01*
X163093868Y-79247669D01*
X163223798Y-79062110D01*
X163278375Y-79018485D01*
X163347873Y-79011291D01*
X163410228Y-79042814D01*
X163426948Y-79062110D01*
X163556873Y-79247663D01*
X163556878Y-79247669D01*
X163723972Y-79414763D01*
X163820757Y-79482533D01*
X163917538Y-79550300D01*
X163917540Y-79550301D01*
X163917543Y-79550303D01*
X164131710Y-79650171D01*
X164359965Y-79711331D01*
X164536407Y-79726768D01*
X164595372Y-79731927D01*
X164595373Y-79731927D01*
X164595374Y-79731927D01*
X164654339Y-79726768D01*
X164830781Y-79711331D01*
X165059036Y-79650171D01*
X165273203Y-79550303D01*
X165466774Y-79414763D01*
X165633868Y-79247669D01*
X165763798Y-79062110D01*
X165818375Y-79018485D01*
X165887873Y-79011291D01*
X165950228Y-79042814D01*
X165966948Y-79062110D01*
X166096873Y-79247663D01*
X166096878Y-79247669D01*
X166263972Y-79414763D01*
X166360757Y-79482533D01*
X166457538Y-79550300D01*
X166457540Y-79550301D01*
X166457543Y-79550303D01*
X166671710Y-79650171D01*
X166899965Y-79711331D01*
X167076407Y-79726768D01*
X167135372Y-79731927D01*
X167135373Y-79731927D01*
X167135374Y-79731927D01*
X167194339Y-79726768D01*
X167370781Y-79711331D01*
X167599036Y-79650171D01*
X167813203Y-79550303D01*
X168006774Y-79414763D01*
X168128702Y-79292834D01*
X168190021Y-79259352D01*
X168259713Y-79264336D01*
X168315647Y-79306207D01*
X168332562Y-79337185D01*
X168381575Y-79468596D01*
X168381579Y-79468603D01*
X168467825Y-79583812D01*
X168467828Y-79583815D01*
X168583037Y-79670061D01*
X168583044Y-79670065D01*
X168717890Y-79720359D01*
X168717889Y-79720359D01*
X168724817Y-79721103D01*
X168777500Y-79726768D01*
X170573245Y-79726767D01*
X170632856Y-79720359D01*
X170767704Y-79670064D01*
X170882919Y-79583814D01*
X170969169Y-79468599D01*
X171018183Y-79337184D01*
X171060054Y-79281252D01*
X171125518Y-79256834D01*
X171193791Y-79271685D01*
X171222046Y-79292837D01*
X171343972Y-79414763D01*
X171440757Y-79482533D01*
X171537538Y-79550300D01*
X171537540Y-79550301D01*
X171537543Y-79550303D01*
X171751710Y-79650171D01*
X171979965Y-79711331D01*
X172156407Y-79726768D01*
X172215372Y-79731927D01*
X172215373Y-79731927D01*
X172215374Y-79731927D01*
X172274339Y-79726768D01*
X172450781Y-79711331D01*
X172679036Y-79650171D01*
X172893203Y-79550303D01*
X173086774Y-79414763D01*
X173253868Y-79247669D01*
X173383798Y-79062110D01*
X173438375Y-79018485D01*
X173507873Y-79011291D01*
X173570228Y-79042814D01*
X173586948Y-79062110D01*
X173716873Y-79247663D01*
X173716878Y-79247669D01*
X173883972Y-79414763D01*
X173980757Y-79482533D01*
X174077538Y-79550300D01*
X174077540Y-79550301D01*
X174077543Y-79550303D01*
X174291710Y-79650171D01*
X174519965Y-79711331D01*
X174696407Y-79726768D01*
X174755372Y-79731927D01*
X174755373Y-79731927D01*
X174755374Y-79731927D01*
X174814339Y-79726768D01*
X174990781Y-79711331D01*
X175219036Y-79650171D01*
X175433203Y-79550303D01*
X175626774Y-79414763D01*
X175793868Y-79247669D01*
X175929408Y-79054098D01*
X176029276Y-78839931D01*
X176090436Y-78611676D01*
X176111032Y-78376268D01*
X176090436Y-78140860D01*
X176029276Y-77912605D01*
X175929408Y-77698439D01*
X175923798Y-77690426D01*
X175793867Y-77504865D01*
X175626775Y-77337774D01*
X175626768Y-77337769D01*
X175433207Y-77202235D01*
X175433203Y-77202233D01*
X175433201Y-77202232D01*
X175219036Y-77102365D01*
X175219032Y-77102364D01*
X175219028Y-77102362D01*
X174990786Y-77041206D01*
X174990776Y-77041204D01*
X174755374Y-77020609D01*
X174755372Y-77020609D01*
X174519969Y-77041204D01*
X174519959Y-77041206D01*
X174291717Y-77102362D01*
X174291708Y-77102366D01*
X174077544Y-77202232D01*
X174077542Y-77202233D01*
X173883970Y-77337773D01*
X173716878Y-77504865D01*
X173586948Y-77690426D01*
X173532371Y-77734051D01*
X173462873Y-77741245D01*
X173400518Y-77709722D01*
X173383798Y-77690426D01*
X173253867Y-77504865D01*
X173086775Y-77337774D01*
X173086768Y-77337769D01*
X172893207Y-77202235D01*
X172893203Y-77202233D01*
X172893201Y-77202232D01*
X172679036Y-77102365D01*
X172679032Y-77102364D01*
X172679028Y-77102362D01*
X172450786Y-77041206D01*
X172450776Y-77041204D01*
X172215374Y-77020609D01*
X172215372Y-77020609D01*
X171979969Y-77041204D01*
X171979959Y-77041206D01*
X171751717Y-77102362D01*
X171751708Y-77102366D01*
X171537544Y-77202232D01*
X171537542Y-77202233D01*
X171343973Y-77337771D01*
X171222046Y-77459698D01*
X171160723Y-77493182D01*
X171091031Y-77488198D01*
X171035098Y-77446326D01*
X171018183Y-77415349D01*
X170969170Y-77283939D01*
X170969166Y-77283932D01*
X170882920Y-77168723D01*
X170882917Y-77168720D01*
X170767708Y-77082474D01*
X170767701Y-77082470D01*
X170632855Y-77032176D01*
X170632856Y-77032176D01*
X170573256Y-77025769D01*
X170573254Y-77025768D01*
X170573246Y-77025768D01*
X170573237Y-77025768D01*
X168777502Y-77025768D01*
X168777496Y-77025769D01*
X168717889Y-77032176D01*
X168583044Y-77082470D01*
X168583037Y-77082474D01*
X168467828Y-77168720D01*
X168467825Y-77168723D01*
X168381579Y-77283932D01*
X168381576Y-77283937D01*
X168332562Y-77415351D01*
X168290690Y-77471284D01*
X168225226Y-77495701D01*
X168156953Y-77480849D01*
X168128699Y-77459698D01*
X168006775Y-77337774D01*
X168006768Y-77337769D01*
X167813207Y-77202235D01*
X167813203Y-77202233D01*
X167813201Y-77202232D01*
X167599036Y-77102365D01*
X167599032Y-77102364D01*
X167599028Y-77102362D01*
X167370786Y-77041206D01*
X167370776Y-77041204D01*
X167135374Y-77020609D01*
X167135372Y-77020609D01*
X166899969Y-77041204D01*
X166899959Y-77041206D01*
X166671717Y-77102362D01*
X166671708Y-77102366D01*
X166457544Y-77202232D01*
X166457542Y-77202233D01*
X166263970Y-77337773D01*
X166096878Y-77504865D01*
X165966948Y-77690426D01*
X165912371Y-77734051D01*
X165842873Y-77741245D01*
X165780518Y-77709722D01*
X165763798Y-77690426D01*
X165633867Y-77504865D01*
X165466775Y-77337774D01*
X165466768Y-77337769D01*
X165273207Y-77202235D01*
X165273203Y-77202233D01*
X165273201Y-77202232D01*
X165059036Y-77102365D01*
X165059032Y-77102364D01*
X165059028Y-77102362D01*
X164830786Y-77041206D01*
X164830776Y-77041204D01*
X164595374Y-77020609D01*
X164595372Y-77020609D01*
X164359969Y-77041204D01*
X164359959Y-77041206D01*
X164131717Y-77102362D01*
X164131708Y-77102366D01*
X163917544Y-77202232D01*
X163917542Y-77202233D01*
X163723970Y-77337773D01*
X163556878Y-77504865D01*
X163426948Y-77690426D01*
X163372371Y-77734051D01*
X163302873Y-77741245D01*
X163240518Y-77709722D01*
X163223798Y-77690426D01*
X163093867Y-77504865D01*
X162926775Y-77337774D01*
X162926768Y-77337769D01*
X162733207Y-77202235D01*
X162733203Y-77202233D01*
X162733201Y-77202232D01*
X162519036Y-77102365D01*
X162519032Y-77102364D01*
X162519028Y-77102362D01*
X162290786Y-77041206D01*
X162290776Y-77041204D01*
X162055374Y-77020609D01*
X162055372Y-77020609D01*
X161819969Y-77041204D01*
X161819959Y-77041206D01*
X161591717Y-77102362D01*
X161591708Y-77102366D01*
X161377544Y-77202232D01*
X161377542Y-77202233D01*
X161183970Y-77337773D01*
X161016878Y-77504865D01*
X160886948Y-77690426D01*
X160832371Y-77734051D01*
X160762873Y-77741245D01*
X160700518Y-77709722D01*
X160683798Y-77690426D01*
X160553867Y-77504865D01*
X160386775Y-77337774D01*
X160386768Y-77337769D01*
X160193207Y-77202235D01*
X160193203Y-77202233D01*
X160193201Y-77202232D01*
X159979036Y-77102365D01*
X159979032Y-77102364D01*
X159979028Y-77102362D01*
X159750786Y-77041206D01*
X159750776Y-77041204D01*
X159515374Y-77020609D01*
X159515372Y-77020609D01*
X159279969Y-77041204D01*
X159279959Y-77041206D01*
X159051717Y-77102362D01*
X159051708Y-77102366D01*
X158837544Y-77202232D01*
X158837542Y-77202233D01*
X158643973Y-77337771D01*
X158522046Y-77459698D01*
X158460723Y-77493182D01*
X158391031Y-77488198D01*
X158335098Y-77446326D01*
X158318183Y-77415349D01*
X158269170Y-77283939D01*
X158269166Y-77283932D01*
X158182920Y-77168723D01*
X158182917Y-77168720D01*
X158067708Y-77082474D01*
X158067701Y-77082470D01*
X157932855Y-77032176D01*
X157932856Y-77032176D01*
X157873256Y-77025769D01*
X157873254Y-77025768D01*
X157873246Y-77025768D01*
X157873237Y-77025768D01*
X156077502Y-77025768D01*
X156077496Y-77025769D01*
X156017889Y-77032176D01*
X155883044Y-77082470D01*
X155883037Y-77082474D01*
X155767828Y-77168720D01*
X155767825Y-77168723D01*
X155681579Y-77283932D01*
X155681576Y-77283937D01*
X155632562Y-77415351D01*
X155590690Y-77471284D01*
X155525226Y-77495701D01*
X155456953Y-77480849D01*
X155428699Y-77459698D01*
X155306775Y-77337774D01*
X155306768Y-77337769D01*
X155113207Y-77202235D01*
X155113203Y-77202233D01*
X155113201Y-77202232D01*
X154899036Y-77102365D01*
X154899032Y-77102364D01*
X154899028Y-77102362D01*
X154670786Y-77041206D01*
X154670776Y-77041204D01*
X154435374Y-77020609D01*
X154435372Y-77020609D01*
X154199969Y-77041204D01*
X154199959Y-77041206D01*
X153971717Y-77102362D01*
X153971708Y-77102366D01*
X153757544Y-77202232D01*
X153757542Y-77202233D01*
X153563970Y-77337773D01*
X153396878Y-77504865D01*
X153266948Y-77690426D01*
X153212371Y-77734051D01*
X153142873Y-77741245D01*
X153080518Y-77709722D01*
X153063798Y-77690426D01*
X152933867Y-77504865D01*
X152766775Y-77337774D01*
X152766768Y-77337769D01*
X152573207Y-77202235D01*
X152573203Y-77202233D01*
X152477329Y-77157526D01*
X152424890Y-77111353D01*
X152405738Y-77044160D01*
X152425954Y-76977279D01*
X152442048Y-76957468D01*
X153265378Y-76134138D01*
X198887373Y-76134138D01*
X198887374Y-76134144D01*
X198893781Y-76193751D01*
X198944075Y-76328596D01*
X198944079Y-76328603D01*
X199030325Y-76443812D01*
X199030328Y-76443815D01*
X199145537Y-76530061D01*
X199145544Y-76530065D01*
X199280390Y-76580359D01*
X199280389Y-76580359D01*
X199287317Y-76581103D01*
X199340000Y-76586768D01*
X202635745Y-76586767D01*
X202695356Y-76580359D01*
X202830204Y-76530064D01*
X202945419Y-76443814D01*
X203031669Y-76328599D01*
X203081964Y-76193751D01*
X203088373Y-76134141D01*
X203088372Y-74038396D01*
X203081964Y-73978785D01*
X203031669Y-73843937D01*
X203031668Y-73843936D01*
X203031666Y-73843932D01*
X202945420Y-73728723D01*
X202945417Y-73728720D01*
X202830208Y-73642474D01*
X202830201Y-73642470D01*
X202695355Y-73592176D01*
X202695356Y-73592176D01*
X202635756Y-73585769D01*
X202635754Y-73585768D01*
X202635746Y-73585768D01*
X202635737Y-73585768D01*
X199340002Y-73585768D01*
X199339996Y-73585769D01*
X199280389Y-73592176D01*
X199145544Y-73642470D01*
X199145537Y-73642474D01*
X199030328Y-73728720D01*
X199030325Y-73728723D01*
X198944079Y-73843932D01*
X198944075Y-73843939D01*
X198893781Y-73978785D01*
X198887374Y-74038384D01*
X198887374Y-74038391D01*
X198887373Y-74038403D01*
X198887373Y-76134138D01*
X153265378Y-76134138D01*
X158076431Y-71323087D01*
X158137754Y-71289602D01*
X158164112Y-71286768D01*
X173185454Y-71286768D01*
X173252493Y-71306453D01*
X173298248Y-71359257D01*
X173308192Y-71428415D01*
X173297836Y-71463173D01*
X173251471Y-71562603D01*
X173251467Y-71562612D01*
X173190311Y-71790854D01*
X173190309Y-71790864D01*
X173169714Y-72026267D01*
X173169714Y-72026268D01*
X173190309Y-72261671D01*
X173190311Y-72261681D01*
X173251467Y-72489923D01*
X173251469Y-72489927D01*
X173251470Y-72489931D01*
X173350767Y-72702874D01*
X173351338Y-72704098D01*
X173351340Y-72704102D01*
X173459654Y-72858789D01*
X173486878Y-72897669D01*
X173653972Y-73064763D01*
X173750757Y-73132533D01*
X173847538Y-73200300D01*
X173847540Y-73200301D01*
X173847543Y-73200303D01*
X174061710Y-73300171D01*
X174289965Y-73361331D01*
X174478291Y-73377807D01*
X174525372Y-73381927D01*
X174525373Y-73381927D01*
X174525374Y-73381927D01*
X174564607Y-73378494D01*
X174760781Y-73361331D01*
X174989036Y-73300171D01*
X175203203Y-73200303D01*
X175396774Y-73064763D01*
X175563868Y-72897669D01*
X175699408Y-72704098D01*
X175799276Y-72489931D01*
X175860436Y-72261676D01*
X175881032Y-72026268D01*
X175860436Y-71790860D01*
X175799276Y-71562605D01*
X175752910Y-71463173D01*
X175742418Y-71394095D01*
X175770938Y-71330311D01*
X175829414Y-71292072D01*
X175865292Y-71286768D01*
X191966400Y-71286768D01*
X192033439Y-71306453D01*
X192079194Y-71359257D01*
X192089138Y-71428415D01*
X192079956Y-71460575D01*
X192078818Y-71463173D01*
X192063809Y-71497389D01*
X192002765Y-71738443D01*
X192002763Y-71738455D01*
X191982230Y-71986262D01*
X191982230Y-71986273D01*
X192002763Y-72234080D01*
X192002765Y-72234092D01*
X192063809Y-72475149D01*
X192163699Y-72702874D01*
X192299706Y-72911050D01*
X192299709Y-72911053D01*
X192468129Y-73094006D01*
X192664364Y-73246742D01*
X192883063Y-73365096D01*
X193118259Y-73445839D01*
X193363538Y-73486768D01*
X193612208Y-73486768D01*
X193857487Y-73445839D01*
X194092683Y-73365096D01*
X194311382Y-73246742D01*
X194507617Y-73094006D01*
X194676037Y-72911053D01*
X194812046Y-72702875D01*
X194911936Y-72475149D01*
X194972981Y-72234089D01*
X194993516Y-71986273D01*
X206482230Y-71986273D01*
X206502763Y-72234080D01*
X206502765Y-72234092D01*
X206563809Y-72475149D01*
X206663699Y-72702874D01*
X206799706Y-72911050D01*
X206799709Y-72911053D01*
X206968129Y-73094006D01*
X207164364Y-73246742D01*
X207383063Y-73365096D01*
X207618259Y-73445839D01*
X207863538Y-73486768D01*
X208112208Y-73486768D01*
X208357487Y-73445839D01*
X208592683Y-73365096D01*
X208811382Y-73246742D01*
X209007617Y-73094006D01*
X209176037Y-72911053D01*
X209312046Y-72702875D01*
X209411936Y-72475149D01*
X209472981Y-72234089D01*
X209493516Y-71986268D01*
X209477324Y-71790864D01*
X209472982Y-71738455D01*
X209472980Y-71738443D01*
X209411936Y-71497386D01*
X209312046Y-71269661D01*
X209176039Y-71061485D01*
X209154430Y-71038012D01*
X209007617Y-70878530D01*
X208811382Y-70725794D01*
X208811380Y-70725793D01*
X208811379Y-70725792D01*
X208592684Y-70607440D01*
X208592675Y-70607437D01*
X208357489Y-70526697D01*
X208112208Y-70485768D01*
X207863538Y-70485768D01*
X207618256Y-70526697D01*
X207383070Y-70607437D01*
X207383061Y-70607440D01*
X207164366Y-70725792D01*
X206968130Y-70878529D01*
X206799706Y-71061485D01*
X206663699Y-71269661D01*
X206563809Y-71497386D01*
X206502765Y-71738443D01*
X206502763Y-71738455D01*
X206482230Y-71986262D01*
X206482230Y-71986273D01*
X194993516Y-71986273D01*
X194993516Y-71986268D01*
X194977324Y-71790864D01*
X194972982Y-71738455D01*
X194972980Y-71738443D01*
X194911936Y-71497386D01*
X194812046Y-71269661D01*
X194676039Y-71061485D01*
X194646973Y-71029911D01*
X194507617Y-70878530D01*
X194450558Y-70834119D01*
X194409747Y-70777411D01*
X194406072Y-70707638D01*
X194440703Y-70646955D01*
X194450548Y-70638424D01*
X194507617Y-70594006D01*
X194676037Y-70411053D01*
X194812046Y-70202875D01*
X194911936Y-69975149D01*
X194972981Y-69734089D01*
X194993516Y-69486268D01*
X194972981Y-69238447D01*
X194911936Y-68997387D01*
X194812046Y-68769661D01*
X194699789Y-68597838D01*
X194679602Y-68530949D01*
X194698782Y-68463763D01*
X194729287Y-68430750D01*
X194730202Y-68430064D01*
X194730204Y-68430064D01*
X194845419Y-68343814D01*
X194931669Y-68228599D01*
X194981964Y-68093751D01*
X194988373Y-68034141D01*
X194988372Y-65938396D01*
X194981964Y-65878785D01*
X194942223Y-65772235D01*
X194931670Y-65743939D01*
X194931666Y-65743932D01*
X194845420Y-65628723D01*
X194845417Y-65628720D01*
X194730208Y-65542474D01*
X194730201Y-65542470D01*
X194595355Y-65492176D01*
X194595356Y-65492176D01*
X194535756Y-65485769D01*
X194535754Y-65485768D01*
X194535746Y-65485768D01*
X194535737Y-65485768D01*
X192440002Y-65485768D01*
X192439996Y-65485769D01*
X192380389Y-65492176D01*
X192245544Y-65542470D01*
X192245537Y-65542474D01*
X192130328Y-65628720D01*
X192130325Y-65628723D01*
X192044079Y-65743932D01*
X192044075Y-65743939D01*
X191993781Y-65878785D01*
X191990665Y-65907773D01*
X191987374Y-65938391D01*
X191987373Y-65938403D01*
X191987373Y-68034138D01*
X191987374Y-68034144D01*
X191993781Y-68093751D01*
X192044075Y-68228596D01*
X192044079Y-68228603D01*
X192130325Y-68343812D01*
X192130326Y-68343812D01*
X192130327Y-68343814D01*
X192158755Y-68365095D01*
X192246459Y-68430751D01*
X192288329Y-68486685D01*
X192293313Y-68556376D01*
X192275956Y-68597838D01*
X192163699Y-68769661D01*
X192063809Y-68997386D01*
X192002765Y-69238443D01*
X192002763Y-69238455D01*
X191982230Y-69486262D01*
X191982230Y-69486273D01*
X192002763Y-69734080D01*
X192002765Y-69734092D01*
X192040051Y-69881328D01*
X192037426Y-69951148D01*
X191997470Y-70008465D01*
X191932868Y-70035082D01*
X191919845Y-70035768D01*
X175999873Y-70035768D01*
X175932834Y-70016083D01*
X175887079Y-69963279D01*
X175875873Y-69911768D01*
X175875872Y-68588397D01*
X175875871Y-68588391D01*
X175875870Y-68588384D01*
X175869464Y-68528785D01*
X175845212Y-68463763D01*
X175819170Y-68393939D01*
X175819166Y-68393932D01*
X175732920Y-68278723D01*
X175732917Y-68278720D01*
X175617708Y-68192474D01*
X175617701Y-68192470D01*
X175486290Y-68143457D01*
X175430356Y-68101586D01*
X175405939Y-68036121D01*
X175420791Y-67967848D01*
X175441936Y-67939600D01*
X175563868Y-67817669D01*
X175699408Y-67624098D01*
X175799276Y-67409931D01*
X175860436Y-67181676D01*
X175881032Y-66946268D01*
X175860436Y-66710860D01*
X175799276Y-66482605D01*
X175699408Y-66268439D01*
X175563868Y-66074867D01*
X175563867Y-66074865D01*
X175396775Y-65907774D01*
X175396768Y-65907769D01*
X175203207Y-65772235D01*
X175203203Y-65772233D01*
X175142511Y-65743932D01*
X174989036Y-65672365D01*
X174989032Y-65672364D01*
X174989028Y-65672362D01*
X174760786Y-65611206D01*
X174760776Y-65611204D01*
X174525374Y-65590609D01*
X174525372Y-65590609D01*
X174289969Y-65611204D01*
X174289959Y-65611206D01*
X174061717Y-65672362D01*
X174061708Y-65672366D01*
X173847544Y-65772232D01*
X173847542Y-65772233D01*
X173653970Y-65907773D01*
X173486878Y-66074865D01*
X173351338Y-66268437D01*
X173351337Y-66268439D01*
X173251471Y-66482603D01*
X173251467Y-66482612D01*
X173190311Y-66710854D01*
X173190309Y-66710864D01*
X173169714Y-66946267D01*
X173169714Y-66946268D01*
X173190309Y-67181671D01*
X173190311Y-67181681D01*
X173251467Y-67409923D01*
X173251469Y-67409927D01*
X173251470Y-67409931D01*
X173281882Y-67475149D01*
X173351338Y-67624098D01*
X173351340Y-67624102D01*
X173406498Y-67702875D01*
X173486874Y-67817664D01*
X173486879Y-67817670D01*
X173608803Y-67939594D01*
X173642288Y-68000917D01*
X173637304Y-68070609D01*
X173595432Y-68126542D01*
X173564456Y-68143457D01*
X173433042Y-68192471D01*
X173433037Y-68192474D01*
X173317828Y-68278720D01*
X173317825Y-68278723D01*
X173231579Y-68393932D01*
X173231575Y-68393939D01*
X173181281Y-68528785D01*
X173177766Y-68561483D01*
X173174874Y-68588391D01*
X173174873Y-68588403D01*
X173174874Y-69911768D01*
X173155189Y-69978807D01*
X173102386Y-70024562D01*
X173050874Y-70035768D01*
X157936403Y-70035768D01*
X157920782Y-70034043D01*
X157920756Y-70034329D01*
X157912994Y-70033595D01*
X157912993Y-70033595D01*
X157843846Y-70035768D01*
X157814309Y-70035768D01*
X157807426Y-70036637D01*
X157801609Y-70037094D01*
X157755033Y-70038558D01*
X157735789Y-70044149D01*
X157716739Y-70048093D01*
X157696871Y-70050602D01*
X157653544Y-70067756D01*
X157648018Y-70069647D01*
X157603274Y-70082647D01*
X157603270Y-70082649D01*
X157586026Y-70092847D01*
X157568565Y-70101401D01*
X157549934Y-70108778D01*
X157549922Y-70108785D01*
X157512230Y-70136170D01*
X157507347Y-70139377D01*
X157467240Y-70163097D01*
X157453074Y-70177263D01*
X157438284Y-70189895D01*
X157422074Y-70201672D01*
X157422071Y-70201675D01*
X157392370Y-70237577D01*
X157388437Y-70241899D01*
X150339042Y-77291294D01*
X150277719Y-77324779D01*
X150208027Y-77319795D01*
X150180240Y-77305189D01*
X150033203Y-77202233D01*
X149819036Y-77102365D01*
X149819032Y-77102364D01*
X149819028Y-77102362D01*
X149590786Y-77041206D01*
X149590776Y-77041204D01*
X149355374Y-77020609D01*
X149355372Y-77020609D01*
X149119969Y-77041204D01*
X149119959Y-77041206D01*
X148891717Y-77102362D01*
X148891708Y-77102366D01*
X148677544Y-77202232D01*
X148677542Y-77202233D01*
X148483970Y-77337773D01*
X148316878Y-77504865D01*
X148186948Y-77690426D01*
X148132371Y-77734051D01*
X148062873Y-77741245D01*
X148000518Y-77709722D01*
X147983798Y-77690426D01*
X147853867Y-77504865D01*
X147686775Y-77337774D01*
X147686768Y-77337769D01*
X147493207Y-77202235D01*
X147493203Y-77202233D01*
X147493201Y-77202232D01*
X147279036Y-77102365D01*
X147279032Y-77102364D01*
X147279028Y-77102362D01*
X147050786Y-77041206D01*
X147050776Y-77041204D01*
X146815374Y-77020609D01*
X146815372Y-77020609D01*
X146579969Y-77041204D01*
X146579959Y-77041206D01*
X146351717Y-77102362D01*
X146351708Y-77102366D01*
X146137544Y-77202232D01*
X146137542Y-77202233D01*
X145943973Y-77337771D01*
X145822046Y-77459698D01*
X145760723Y-77493182D01*
X145691031Y-77488198D01*
X145635098Y-77446326D01*
X145618183Y-77415349D01*
X145569170Y-77283939D01*
X145569166Y-77283932D01*
X145482920Y-77168723D01*
X145482917Y-77168720D01*
X145367708Y-77082474D01*
X145367701Y-77082470D01*
X145232855Y-77032176D01*
X145232856Y-77032176D01*
X145173256Y-77025769D01*
X145173254Y-77025768D01*
X145173246Y-77025768D01*
X145173237Y-77025768D01*
X143377502Y-77025768D01*
X143377496Y-77025769D01*
X143317889Y-77032176D01*
X143183044Y-77082470D01*
X143183037Y-77082474D01*
X143067828Y-77168720D01*
X143067825Y-77168723D01*
X142981579Y-77283932D01*
X142981576Y-77283937D01*
X142932562Y-77415351D01*
X142890690Y-77471284D01*
X142825226Y-77495701D01*
X142756953Y-77480849D01*
X142728699Y-77459698D01*
X142606775Y-77337774D01*
X142606768Y-77337769D01*
X142413207Y-77202235D01*
X142413203Y-77202233D01*
X142413201Y-77202232D01*
X142199036Y-77102365D01*
X142199032Y-77102364D01*
X142199028Y-77102362D01*
X141970786Y-77041206D01*
X141970776Y-77041204D01*
X141735374Y-77020609D01*
X141735372Y-77020609D01*
X141499969Y-77041204D01*
X141499959Y-77041206D01*
X141271717Y-77102362D01*
X141271708Y-77102366D01*
X141057544Y-77202232D01*
X141057542Y-77202233D01*
X140863970Y-77337773D01*
X140696878Y-77504865D01*
X140566948Y-77690426D01*
X140512371Y-77734051D01*
X140442873Y-77741245D01*
X140380518Y-77709722D01*
X140363798Y-77690426D01*
X140233867Y-77504865D01*
X140066775Y-77337774D01*
X140066768Y-77337769D01*
X139873207Y-77202235D01*
X139873203Y-77202233D01*
X139873201Y-77202232D01*
X139659036Y-77102365D01*
X139659032Y-77102364D01*
X139659028Y-77102362D01*
X139430786Y-77041206D01*
X139430776Y-77041204D01*
X139195374Y-77020609D01*
X139195372Y-77020609D01*
X138959969Y-77041204D01*
X138959959Y-77041206D01*
X138731717Y-77102362D01*
X138731708Y-77102366D01*
X138517544Y-77202232D01*
X138517542Y-77202233D01*
X138323970Y-77337773D01*
X138156878Y-77504865D01*
X138026948Y-77690426D01*
X137972371Y-77734051D01*
X137902873Y-77741245D01*
X137840518Y-77709722D01*
X137823798Y-77690426D01*
X137693867Y-77504865D01*
X137526775Y-77337774D01*
X137526768Y-77337769D01*
X137333207Y-77202235D01*
X137333203Y-77202233D01*
X137333201Y-77202232D01*
X137119036Y-77102365D01*
X137119032Y-77102364D01*
X137119028Y-77102362D01*
X136890786Y-77041206D01*
X136890776Y-77041204D01*
X136655374Y-77020609D01*
X136655372Y-77020609D01*
X136419969Y-77041204D01*
X136419959Y-77041206D01*
X136191717Y-77102362D01*
X136191708Y-77102366D01*
X135977544Y-77202232D01*
X135977542Y-77202233D01*
X135783970Y-77337773D01*
X135616878Y-77504865D01*
X135486948Y-77690426D01*
X135432371Y-77734051D01*
X135362873Y-77741245D01*
X135300518Y-77709722D01*
X135283798Y-77690426D01*
X135153867Y-77504865D01*
X134986775Y-77337774D01*
X134986768Y-77337769D01*
X134793207Y-77202235D01*
X134793203Y-77202233D01*
X134793201Y-77202232D01*
X134579036Y-77102365D01*
X134579032Y-77102364D01*
X134579028Y-77102362D01*
X134350786Y-77041206D01*
X134350776Y-77041204D01*
X134115374Y-77020609D01*
X134115372Y-77020609D01*
X133879969Y-77041204D01*
X133879959Y-77041206D01*
X133651717Y-77102362D01*
X133651708Y-77102366D01*
X133437544Y-77202232D01*
X133437542Y-77202233D01*
X133243973Y-77337771D01*
X133122046Y-77459698D01*
X133060723Y-77493182D01*
X132991031Y-77488198D01*
X132935098Y-77446326D01*
X132918183Y-77415349D01*
X132869170Y-77283939D01*
X132869166Y-77283932D01*
X132782920Y-77168723D01*
X132782917Y-77168720D01*
X132667708Y-77082474D01*
X132667701Y-77082470D01*
X132532855Y-77032176D01*
X132532856Y-77032176D01*
X132473256Y-77025769D01*
X132473254Y-77025768D01*
X132473246Y-77025768D01*
X132473237Y-77025768D01*
X130677502Y-77025768D01*
X130677496Y-77025769D01*
X130617889Y-77032176D01*
X130483044Y-77082470D01*
X130483037Y-77082474D01*
X130367828Y-77168720D01*
X130367825Y-77168723D01*
X130281579Y-77283932D01*
X130281576Y-77283937D01*
X130232562Y-77415351D01*
X130190690Y-77471284D01*
X130125226Y-77495701D01*
X130056953Y-77480849D01*
X130028699Y-77459698D01*
X129906775Y-77337774D01*
X129906768Y-77337769D01*
X129713207Y-77202235D01*
X129713203Y-77202233D01*
X129713201Y-77202232D01*
X129499036Y-77102365D01*
X129499032Y-77102364D01*
X129499028Y-77102362D01*
X129270786Y-77041206D01*
X129270776Y-77041204D01*
X129035374Y-77020609D01*
X129035372Y-77020609D01*
X128799969Y-77041204D01*
X128799959Y-77041206D01*
X128571717Y-77102362D01*
X128571708Y-77102366D01*
X128357544Y-77202232D01*
X128357542Y-77202233D01*
X128163970Y-77337773D01*
X127996878Y-77504865D01*
X127866948Y-77690426D01*
X127812371Y-77734051D01*
X127742873Y-77741245D01*
X127680518Y-77709722D01*
X127663798Y-77690426D01*
X127533867Y-77504865D01*
X127366775Y-77337774D01*
X127366768Y-77337769D01*
X127173207Y-77202235D01*
X127173203Y-77202233D01*
X127173201Y-77202232D01*
X126959036Y-77102365D01*
X126959032Y-77102364D01*
X126959028Y-77102362D01*
X126730786Y-77041206D01*
X126730776Y-77041204D01*
X126495374Y-77020609D01*
X126495372Y-77020609D01*
X126259969Y-77041204D01*
X126259959Y-77041206D01*
X126031717Y-77102362D01*
X126031708Y-77102366D01*
X125817544Y-77202232D01*
X125817542Y-77202233D01*
X125623970Y-77337773D01*
X125456878Y-77504865D01*
X125321338Y-77698437D01*
X125321337Y-77698439D01*
X125221471Y-77912603D01*
X125221467Y-77912612D01*
X125160311Y-78140854D01*
X125160309Y-78140864D01*
X125139714Y-78376267D01*
X125139714Y-78376268D01*
X117883670Y-78376268D01*
X117883670Y-60596268D01*
X125139714Y-60596268D01*
X125160309Y-60831671D01*
X125160311Y-60831681D01*
X125221467Y-61059923D01*
X125221469Y-61059927D01*
X125221470Y-61059931D01*
X125301377Y-61231291D01*
X125321338Y-61274098D01*
X125321340Y-61274102D01*
X125377988Y-61355003D01*
X125456878Y-61467669D01*
X125623972Y-61634763D01*
X125705729Y-61692010D01*
X125817538Y-61770300D01*
X125817540Y-61770301D01*
X125817543Y-61770303D01*
X126031710Y-61870171D01*
X126259965Y-61931331D01*
X126436407Y-61946768D01*
X126495372Y-61951927D01*
X126495373Y-61951927D01*
X126495374Y-61951927D01*
X126554339Y-61946768D01*
X126730781Y-61931331D01*
X126959036Y-61870171D01*
X127173203Y-61770303D01*
X127366774Y-61634763D01*
X127533868Y-61467669D01*
X127663798Y-61282110D01*
X127718375Y-61238485D01*
X127787873Y-61231291D01*
X127850228Y-61262814D01*
X127866948Y-61282110D01*
X127996873Y-61467663D01*
X127996878Y-61467669D01*
X128163972Y-61634763D01*
X128245729Y-61692010D01*
X128357538Y-61770300D01*
X128357540Y-61770301D01*
X128357543Y-61770303D01*
X128571710Y-61870171D01*
X128799965Y-61931331D01*
X128976407Y-61946768D01*
X129035372Y-61951927D01*
X129035373Y-61951927D01*
X129035374Y-61951927D01*
X129094339Y-61946768D01*
X129270781Y-61931331D01*
X129499036Y-61870171D01*
X129713203Y-61770303D01*
X129906774Y-61634763D01*
X130028702Y-61512834D01*
X130090021Y-61479352D01*
X130159713Y-61484336D01*
X130215647Y-61526207D01*
X130232562Y-61557185D01*
X130281575Y-61688596D01*
X130281579Y-61688603D01*
X130367825Y-61803812D01*
X130367828Y-61803815D01*
X130483037Y-61890061D01*
X130483044Y-61890065D01*
X130617890Y-61940359D01*
X130617889Y-61940359D01*
X130624817Y-61941103D01*
X130677500Y-61946768D01*
X132473245Y-61946767D01*
X132532856Y-61940359D01*
X132667704Y-61890064D01*
X132782919Y-61803814D01*
X132869169Y-61688599D01*
X132918183Y-61557184D01*
X132960054Y-61501252D01*
X133025518Y-61476834D01*
X133093791Y-61491685D01*
X133122046Y-61512837D01*
X133243972Y-61634763D01*
X133325729Y-61692010D01*
X133437538Y-61770300D01*
X133437540Y-61770301D01*
X133437543Y-61770303D01*
X133651710Y-61870171D01*
X133879965Y-61931331D01*
X134056407Y-61946768D01*
X134115372Y-61951927D01*
X134115373Y-61951927D01*
X134115374Y-61951927D01*
X134174339Y-61946768D01*
X134350781Y-61931331D01*
X134579036Y-61870171D01*
X134793203Y-61770303D01*
X134986774Y-61634763D01*
X135153868Y-61467669D01*
X135283798Y-61282110D01*
X135338375Y-61238485D01*
X135407873Y-61231291D01*
X135470228Y-61262814D01*
X135486948Y-61282110D01*
X135616873Y-61467663D01*
X135616878Y-61467669D01*
X135783972Y-61634763D01*
X135865729Y-61692010D01*
X135977538Y-61770300D01*
X135977540Y-61770301D01*
X135977543Y-61770303D01*
X136191710Y-61870171D01*
X136419965Y-61931331D01*
X136596407Y-61946768D01*
X136655372Y-61951927D01*
X136655373Y-61951927D01*
X136655374Y-61951927D01*
X136714339Y-61946768D01*
X136890781Y-61931331D01*
X137119036Y-61870171D01*
X137333203Y-61770303D01*
X137526774Y-61634763D01*
X137693868Y-61467669D01*
X137823798Y-61282110D01*
X137878375Y-61238485D01*
X137947873Y-61231291D01*
X138010228Y-61262814D01*
X138026948Y-61282110D01*
X138156873Y-61467663D01*
X138156878Y-61467669D01*
X138323972Y-61634763D01*
X138405729Y-61692010D01*
X138517538Y-61770300D01*
X138517540Y-61770301D01*
X138517543Y-61770303D01*
X138731710Y-61870171D01*
X138959965Y-61931331D01*
X139136407Y-61946768D01*
X139195372Y-61951927D01*
X139195373Y-61951927D01*
X139195374Y-61951927D01*
X139254339Y-61946768D01*
X139430781Y-61931331D01*
X139659036Y-61870171D01*
X139873203Y-61770303D01*
X140066774Y-61634763D01*
X140233868Y-61467669D01*
X140363798Y-61282110D01*
X140418375Y-61238485D01*
X140487873Y-61231291D01*
X140550228Y-61262814D01*
X140566948Y-61282110D01*
X140696873Y-61467663D01*
X140696878Y-61467669D01*
X140863972Y-61634763D01*
X140945729Y-61692010D01*
X141057538Y-61770300D01*
X141057540Y-61770301D01*
X141057543Y-61770303D01*
X141271710Y-61870171D01*
X141499965Y-61931331D01*
X141676407Y-61946768D01*
X141735372Y-61951927D01*
X141735373Y-61951927D01*
X141735374Y-61951927D01*
X141794339Y-61946768D01*
X141970781Y-61931331D01*
X142199036Y-61870171D01*
X142413203Y-61770303D01*
X142606774Y-61634763D01*
X142728702Y-61512834D01*
X142790021Y-61479352D01*
X142859713Y-61484336D01*
X142915647Y-61526207D01*
X142932562Y-61557185D01*
X142981575Y-61688596D01*
X142981579Y-61688603D01*
X143067825Y-61803812D01*
X143067828Y-61803815D01*
X143183037Y-61890061D01*
X143183044Y-61890065D01*
X143317890Y-61940359D01*
X143317889Y-61940359D01*
X143324817Y-61941103D01*
X143377500Y-61946768D01*
X145173245Y-61946767D01*
X145232856Y-61940359D01*
X145367704Y-61890064D01*
X145482919Y-61803814D01*
X145569169Y-61688599D01*
X145618183Y-61557184D01*
X145660054Y-61501252D01*
X145725518Y-61476834D01*
X145793791Y-61491685D01*
X145822046Y-61512837D01*
X145943972Y-61634763D01*
X146025729Y-61692010D01*
X146137538Y-61770300D01*
X146137540Y-61770301D01*
X146137543Y-61770303D01*
X146351710Y-61870171D01*
X146579965Y-61931331D01*
X146756407Y-61946768D01*
X146815372Y-61951927D01*
X146815373Y-61951927D01*
X146815374Y-61951927D01*
X146874339Y-61946768D01*
X147050781Y-61931331D01*
X147279036Y-61870171D01*
X147493203Y-61770303D01*
X147686774Y-61634763D01*
X147853868Y-61467669D01*
X147983798Y-61282110D01*
X148038375Y-61238485D01*
X148107873Y-61231291D01*
X148170228Y-61262814D01*
X148186948Y-61282110D01*
X148316873Y-61467663D01*
X148316878Y-61467669D01*
X148483972Y-61634763D01*
X148565729Y-61692010D01*
X148677538Y-61770300D01*
X148677540Y-61770301D01*
X148677543Y-61770303D01*
X148891710Y-61870171D01*
X149119965Y-61931331D01*
X149296407Y-61946768D01*
X149355372Y-61951927D01*
X149355373Y-61951927D01*
X149355374Y-61951927D01*
X149414339Y-61946768D01*
X149590781Y-61931331D01*
X149819036Y-61870171D01*
X150033203Y-61770303D01*
X150226774Y-61634763D01*
X150393868Y-61467669D01*
X150523798Y-61282110D01*
X150578375Y-61238485D01*
X150647873Y-61231291D01*
X150710228Y-61262814D01*
X150726948Y-61282110D01*
X150856873Y-61467663D01*
X150856878Y-61467669D01*
X151023972Y-61634763D01*
X151105729Y-61692010D01*
X151217538Y-61770300D01*
X151217540Y-61770301D01*
X151217543Y-61770303D01*
X151431710Y-61870171D01*
X151659965Y-61931331D01*
X151836407Y-61946768D01*
X151895372Y-61951927D01*
X151895373Y-61951927D01*
X151895374Y-61951927D01*
X151954339Y-61946768D01*
X152130781Y-61931331D01*
X152359036Y-61870171D01*
X152573203Y-61770303D01*
X152766774Y-61634763D01*
X152933868Y-61467669D01*
X153063798Y-61282110D01*
X153118375Y-61238485D01*
X153187873Y-61231291D01*
X153250228Y-61262814D01*
X153266948Y-61282110D01*
X153396873Y-61467663D01*
X153396878Y-61467669D01*
X153563972Y-61634763D01*
X153645729Y-61692010D01*
X153757538Y-61770300D01*
X153757540Y-61770301D01*
X153757543Y-61770303D01*
X153971710Y-61870171D01*
X154199965Y-61931331D01*
X154376407Y-61946768D01*
X154435372Y-61951927D01*
X154435373Y-61951927D01*
X154435374Y-61951927D01*
X154494339Y-61946768D01*
X154670781Y-61931331D01*
X154899036Y-61870171D01*
X155113203Y-61770303D01*
X155306774Y-61634763D01*
X155428702Y-61512834D01*
X155490021Y-61479352D01*
X155559713Y-61484336D01*
X155615647Y-61526207D01*
X155632562Y-61557185D01*
X155681575Y-61688596D01*
X155681579Y-61688603D01*
X155767825Y-61803812D01*
X155767828Y-61803815D01*
X155883037Y-61890061D01*
X155883044Y-61890065D01*
X156017890Y-61940359D01*
X156017889Y-61940359D01*
X156024817Y-61941103D01*
X156077500Y-61946768D01*
X157873245Y-61946767D01*
X157932856Y-61940359D01*
X158067704Y-61890064D01*
X158182919Y-61803814D01*
X158269169Y-61688599D01*
X158318183Y-61557184D01*
X158360054Y-61501252D01*
X158425518Y-61476834D01*
X158493791Y-61491685D01*
X158522046Y-61512837D01*
X158643972Y-61634763D01*
X158725729Y-61692010D01*
X158837538Y-61770300D01*
X158837540Y-61770301D01*
X158837543Y-61770303D01*
X159051710Y-61870171D01*
X159279965Y-61931331D01*
X159456407Y-61946768D01*
X159515372Y-61951927D01*
X159515373Y-61951927D01*
X159515374Y-61951927D01*
X159574339Y-61946768D01*
X159750781Y-61931331D01*
X159851248Y-61904411D01*
X159921094Y-61906074D01*
X159971019Y-61936505D01*
X160189570Y-62155056D01*
X160199395Y-62167319D01*
X160199616Y-62167137D01*
X160204587Y-62173146D01*
X160230590Y-62197563D01*
X160255008Y-62220494D01*
X160275902Y-62241388D01*
X160281384Y-62245641D01*
X160285816Y-62249425D01*
X160319791Y-62281330D01*
X160337349Y-62290982D01*
X160353606Y-62301661D01*
X160369437Y-62313941D01*
X160389110Y-62322454D01*
X160412206Y-62332450D01*
X160417450Y-62335018D01*
X160458281Y-62357465D01*
X160470896Y-62360703D01*
X160477678Y-62362445D01*
X160496092Y-62368749D01*
X160514477Y-62376706D01*
X160560530Y-62384000D01*
X160566199Y-62385174D01*
X160611354Y-62396768D01*
X160631389Y-62396768D01*
X160650786Y-62398294D01*
X160670569Y-62401428D01*
X160716957Y-62397043D01*
X160722795Y-62396768D01*
X198881385Y-62396768D01*
X198948424Y-62416453D01*
X198994179Y-62469257D01*
X199004123Y-62538415D01*
X198980652Y-62595079D01*
X198944077Y-62643936D01*
X198944075Y-62643939D01*
X198893781Y-62778785D01*
X198887374Y-62838384D01*
X198887374Y-62838391D01*
X198887373Y-62838403D01*
X198887373Y-64934138D01*
X198887374Y-64934144D01*
X198893781Y-64993751D01*
X198944075Y-65128596D01*
X198944079Y-65128603D01*
X199030325Y-65243812D01*
X199030328Y-65243815D01*
X199145537Y-65330061D01*
X199145544Y-65330065D01*
X199280390Y-65380359D01*
X199280389Y-65380359D01*
X199287317Y-65381103D01*
X199340000Y-65386768D01*
X202635745Y-65386767D01*
X202695356Y-65380359D01*
X202830204Y-65330064D01*
X202945419Y-65243814D01*
X203031669Y-65128599D01*
X203081964Y-64993751D01*
X203088373Y-64934141D01*
X203088372Y-62838396D01*
X203081964Y-62778785D01*
X203031669Y-62643937D01*
X202995094Y-62595079D01*
X202970677Y-62529615D01*
X202985529Y-62461342D01*
X203034934Y-62411936D01*
X203094361Y-62396768D01*
X207238373Y-62396768D01*
X207305412Y-62416453D01*
X207351167Y-62469257D01*
X207362373Y-62520768D01*
X207362373Y-65544747D01*
X207342688Y-65611786D01*
X207297392Y-65653801D01*
X207164369Y-65725790D01*
X207164367Y-65725791D01*
X206968130Y-65878529D01*
X206799706Y-66061485D01*
X206663699Y-66269661D01*
X206563809Y-66497386D01*
X206502765Y-66738443D01*
X206502763Y-66738455D01*
X206482230Y-66986262D01*
X206482230Y-66986273D01*
X206502763Y-67234080D01*
X206502765Y-67234092D01*
X206563809Y-67475149D01*
X206663699Y-67702874D01*
X206799706Y-67911050D01*
X206799709Y-67911053D01*
X206968129Y-68094006D01*
X207164364Y-68246742D01*
X207383063Y-68365096D01*
X207618259Y-68445839D01*
X207863538Y-68486768D01*
X208112208Y-68486768D01*
X208357487Y-68445839D01*
X208592683Y-68365096D01*
X208811382Y-68246742D01*
X209007617Y-68094006D01*
X209176037Y-67911053D01*
X209312046Y-67702875D01*
X209411936Y-67475149D01*
X209472981Y-67234089D01*
X209477324Y-67181676D01*
X209493516Y-66986273D01*
X209493516Y-66986262D01*
X209472982Y-66738455D01*
X209472980Y-66738443D01*
X209411936Y-66497386D01*
X209312046Y-66269661D01*
X209176039Y-66061485D01*
X209154430Y-66038012D01*
X209007617Y-65878530D01*
X208811382Y-65725794D01*
X208811381Y-65725793D01*
X208811378Y-65725791D01*
X208811376Y-65725790D01*
X208678354Y-65653801D01*
X208628764Y-65604581D01*
X208613373Y-65544747D01*
X208613373Y-62042381D01*
X208615097Y-62026761D01*
X208614812Y-62026734D01*
X208615546Y-62018972D01*
X208613373Y-61949810D01*
X208613373Y-61920289D01*
X208612504Y-61913418D01*
X208612046Y-61907591D01*
X208611946Y-61904411D01*
X208610583Y-61861012D01*
X208604992Y-61841769D01*
X208601046Y-61822717D01*
X208598537Y-61802847D01*
X208581377Y-61759506D01*
X208579497Y-61754018D01*
X208566491Y-61709249D01*
X208556295Y-61692009D01*
X208547734Y-61674533D01*
X208540360Y-61655909D01*
X208540359Y-61655907D01*
X208512952Y-61618184D01*
X208509761Y-61613325D01*
X208486045Y-61573222D01*
X208486038Y-61573213D01*
X208471879Y-61559054D01*
X208459241Y-61544258D01*
X208447467Y-61528052D01*
X208411563Y-61498350D01*
X208407251Y-61494427D01*
X208267827Y-61355003D01*
X208252947Y-61337016D01*
X208248357Y-61330261D01*
X208238598Y-61321657D01*
X208205285Y-61292287D01*
X208202445Y-61289620D01*
X208189905Y-61277080D01*
X208175875Y-61266196D01*
X208172877Y-61263716D01*
X208170100Y-61261268D01*
X208129811Y-61225749D01*
X208129807Y-61225747D01*
X208129806Y-61225746D01*
X208122529Y-61222038D01*
X208102830Y-61209537D01*
X208096372Y-61204528D01*
X208096367Y-61204525D01*
X208076968Y-61196130D01*
X208043674Y-61181723D01*
X208040156Y-61180067D01*
X207988998Y-61154001D01*
X207988993Y-61153999D01*
X207981020Y-61152217D01*
X207958829Y-61145006D01*
X207951329Y-61141761D01*
X207951327Y-61141760D01*
X207951326Y-61141760D01*
X207894629Y-61132781D01*
X207890803Y-61132051D01*
X207834764Y-61119525D01*
X207826591Y-61119782D01*
X207803310Y-61118317D01*
X207795239Y-61117039D01*
X207795235Y-61117039D01*
X207738088Y-61122440D01*
X207734201Y-61122685D01*
X207676805Y-61124488D01*
X207676802Y-61124489D01*
X207668944Y-61126772D01*
X207646029Y-61131143D01*
X207637901Y-61131911D01*
X207626745Y-61135927D01*
X207619774Y-61138437D01*
X207577772Y-61145768D01*
X176167876Y-61145768D01*
X176100837Y-61126083D01*
X176055082Y-61073279D01*
X176045138Y-61004121D01*
X176048101Y-60989675D01*
X176057568Y-60954340D01*
X176090436Y-60831676D01*
X176111032Y-60596268D01*
X176090436Y-60360860D01*
X176029276Y-60132605D01*
X175929408Y-59918439D01*
X175923798Y-59910426D01*
X175793867Y-59724865D01*
X175626775Y-59557774D01*
X175626774Y-59557773D01*
X175433749Y-59422615D01*
X175390124Y-59368038D01*
X175380873Y-59321040D01*
X175380873Y-55948256D01*
X175400558Y-55881217D01*
X175453362Y-55835462D01*
X175504873Y-55824256D01*
X212383750Y-55824256D01*
X212450789Y-55843941D01*
X212496544Y-55896745D01*
X212507750Y-55948256D01*
X212507750Y-88382097D01*
X212488065Y-88449136D01*
X212435261Y-88494891D01*
X212383750Y-88506097D01*
X197571177Y-88506097D01*
X197504138Y-88486412D01*
X197458383Y-88433608D01*
X197447177Y-88382097D01*
X197447177Y-85198279D01*
X197466862Y-85131240D01*
X197519666Y-85085485D01*
X197571177Y-85074279D01*
X197669548Y-85074279D01*
X197669549Y-85074279D01*
X197729160Y-85067871D01*
X197864008Y-85017576D01*
X197979223Y-84931326D01*
X198065473Y-84816111D01*
X198115768Y-84681263D01*
X198122177Y-84621653D01*
X198122177Y-83773781D01*
X203136209Y-83773781D01*
X203156041Y-84000466D01*
X203156043Y-84000477D01*
X203214935Y-84220268D01*
X203214938Y-84220277D01*
X203311108Y-84426512D01*
X203311109Y-84426514D01*
X203441631Y-84612921D01*
X203602535Y-84773825D01*
X203602538Y-84773827D01*
X203788943Y-84904348D01*
X203995181Y-85000519D01*
X204214985Y-85059415D01*
X204376907Y-85073581D01*
X204441675Y-85079248D01*
X204441677Y-85079248D01*
X204441679Y-85079248D01*
X204498484Y-85074278D01*
X204668369Y-85059415D01*
X204888173Y-85000519D01*
X205094411Y-84904348D01*
X205280816Y-84773827D01*
X205441724Y-84612919D01*
X205572245Y-84426514D01*
X205668416Y-84220276D01*
X205727312Y-84000472D01*
X205747145Y-83773780D01*
X205727312Y-83547088D01*
X205668416Y-83327284D01*
X205572245Y-83121046D01*
X205441724Y-82934641D01*
X205441722Y-82934638D01*
X205280818Y-82773734D01*
X205094411Y-82643212D01*
X205094409Y-82643211D01*
X204888174Y-82547041D01*
X204888165Y-82547038D01*
X204668374Y-82488146D01*
X204668370Y-82488145D01*
X204668369Y-82488145D01*
X204668368Y-82488144D01*
X204668363Y-82488144D01*
X204441679Y-82468312D01*
X204441675Y-82468312D01*
X204214990Y-82488144D01*
X204214979Y-82488146D01*
X203995188Y-82547038D01*
X203995179Y-82547041D01*
X203788944Y-82643211D01*
X203788942Y-82643212D01*
X203602535Y-82773734D01*
X203441631Y-82934638D01*
X203311109Y-83121045D01*
X203311108Y-83121047D01*
X203214938Y-83327282D01*
X203214935Y-83327291D01*
X203156043Y-83547082D01*
X203156041Y-83547093D01*
X203136209Y-83773778D01*
X203136209Y-83773781D01*
X198122177Y-83773781D01*
X198122176Y-82925908D01*
X198115768Y-82866297D01*
X198081244Y-82773734D01*
X198065474Y-82731451D01*
X198065470Y-82731444D01*
X197979224Y-82616235D01*
X197979221Y-82616232D01*
X197864012Y-82529986D01*
X197864005Y-82529982D01*
X197729159Y-82479688D01*
X197729160Y-82479688D01*
X197669560Y-82473281D01*
X197669558Y-82473280D01*
X197669550Y-82473280D01*
X197669541Y-82473280D01*
X195973806Y-82473280D01*
X195973800Y-82473281D01*
X195914193Y-82479688D01*
X195779348Y-82529982D01*
X195779341Y-82529986D01*
X195664132Y-82616232D01*
X195664129Y-82616235D01*
X195577883Y-82731444D01*
X195577879Y-82731451D01*
X195527585Y-82866297D01*
X195521178Y-82925896D01*
X195521178Y-82925903D01*
X195521177Y-82925915D01*
X195521177Y-84621650D01*
X195521178Y-84621656D01*
X195527585Y-84681263D01*
X195577879Y-84816108D01*
X195577883Y-84816115D01*
X195664129Y-84931324D01*
X195664132Y-84931327D01*
X195779341Y-85017573D01*
X195779348Y-85017577D01*
X195824295Y-85034341D01*
X195914194Y-85067871D01*
X195973804Y-85074280D01*
X196072177Y-85074279D01*
X196139215Y-85093963D01*
X196184971Y-85146766D01*
X196196177Y-85198279D01*
X196196177Y-88382097D01*
X196176492Y-88449136D01*
X196123688Y-88494891D01*
X196072177Y-88506097D01*
X166174370Y-88506097D01*
X166151138Y-88503901D01*
X166143111Y-88502370D01*
X166143109Y-88502370D01*
X166134156Y-88502933D01*
X166085798Y-88505975D01*
X166081926Y-88506097D01*
X148314980Y-88506097D01*
X148291748Y-88503901D01*
X148283721Y-88502370D01*
X148283719Y-88502370D01*
X148274766Y-88502933D01*
X148226408Y-88505975D01*
X148222536Y-88506097D01*
X132848732Y-88506097D01*
X132833115Y-88504373D01*
X132833088Y-88504659D01*
X132825326Y-88503924D01*
X132756198Y-88506097D01*
X132726645Y-88506097D01*
X132725924Y-88506187D01*
X132719752Y-88506966D01*
X132713940Y-88507423D01*
X132667367Y-88508887D01*
X132667364Y-88508888D01*
X132648121Y-88514478D01*
X132629078Y-88518422D01*
X132609199Y-88520933D01*
X132609198Y-88520934D01*
X132565873Y-88538087D01*
X132560347Y-88539979D01*
X132515603Y-88552980D01*
X132515599Y-88552982D01*
X132498360Y-88563177D01*
X132480893Y-88571734D01*
X132462264Y-88579109D01*
X132462262Y-88579110D01*
X132424559Y-88606503D01*
X132419677Y-88609709D01*
X132379575Y-88633425D01*
X132365403Y-88647597D01*
X132350618Y-88660225D01*
X132334407Y-88672004D01*
X132304704Y-88707907D01*
X132300772Y-88712228D01*
X132144081Y-88868918D01*
X132131824Y-88878739D01*
X132132007Y-88878960D01*
X132125996Y-88883932D01*
X132078645Y-88934355D01*
X132057762Y-88955238D01*
X132057750Y-88955251D01*
X132053494Y-88960736D01*
X132049710Y-88965166D01*
X132017810Y-88999137D01*
X132017809Y-88999139D01*
X132008157Y-89016695D01*
X131997483Y-89032945D01*
X131985202Y-89048780D01*
X131985197Y-89048787D01*
X131966688Y-89091557D01*
X131964118Y-89096803D01*
X131941676Y-89137625D01*
X131936695Y-89157026D01*
X131930394Y-89175429D01*
X131922435Y-89193821D01*
X131922434Y-89193824D01*
X131915144Y-89239846D01*
X131913960Y-89245565D01*
X131902374Y-89290691D01*
X131902373Y-89290701D01*
X131902373Y-89310735D01*
X131900846Y-89330134D01*
X131897713Y-89349913D01*
X131897713Y-89349914D01*
X131902098Y-89396302D01*
X131902373Y-89402140D01*
X131902373Y-91874288D01*
X131882688Y-91941327D01*
X131829884Y-91987082D01*
X131778374Y-91998288D01*
X131680003Y-91998288D01*
X131679996Y-91998289D01*
X131620389Y-92004696D01*
X131485544Y-92054990D01*
X131485537Y-92054994D01*
X131370328Y-92141240D01*
X131370325Y-92141243D01*
X131284079Y-92256452D01*
X131284075Y-92256459D01*
X131233781Y-92391305D01*
X131231568Y-92411894D01*
X131227374Y-92450911D01*
X131227373Y-92450923D01*
X131227373Y-94146658D01*
X131227374Y-94146664D01*
X131233781Y-94206271D01*
X131284075Y-94341116D01*
X131284079Y-94341123D01*
X131370325Y-94456332D01*
X131370328Y-94456335D01*
X131485537Y-94542581D01*
X131485544Y-94542585D01*
X131620390Y-94592879D01*
X131620389Y-94592879D01*
X131627317Y-94593623D01*
X131680000Y-94599288D01*
X133375745Y-94599287D01*
X133435356Y-94592879D01*
X133570204Y-94542584D01*
X133685419Y-94456334D01*
X133771669Y-94341119D01*
X133821964Y-94206271D01*
X133828373Y-94146661D01*
X133828373Y-93298789D01*
X138842405Y-93298789D01*
X138862237Y-93525474D01*
X138862239Y-93525485D01*
X138921131Y-93745276D01*
X138921134Y-93745285D01*
X139017304Y-93951520D01*
X139017305Y-93951522D01*
X139147827Y-94137929D01*
X139308731Y-94298833D01*
X139308734Y-94298835D01*
X139495139Y-94429356D01*
X139701377Y-94525527D01*
X139921181Y-94584423D01*
X140083103Y-94598589D01*
X140147871Y-94604256D01*
X140147873Y-94604256D01*
X140147875Y-94604256D01*
X140204680Y-94599286D01*
X140374565Y-94584423D01*
X140594369Y-94525527D01*
X140800607Y-94429356D01*
X140987012Y-94298835D01*
X141147920Y-94137927D01*
X141278441Y-93951522D01*
X141374612Y-93745284D01*
X141433508Y-93525480D01*
X141453341Y-93298788D01*
X141433508Y-93072096D01*
X141374612Y-92852292D01*
X141278441Y-92646054D01*
X141147920Y-92459649D01*
X141147918Y-92459646D01*
X140987014Y-92298742D01*
X140800607Y-92168220D01*
X140800605Y-92168219D01*
X140594370Y-92072049D01*
X140594361Y-92072046D01*
X140374570Y-92013154D01*
X140374566Y-92013153D01*
X140374565Y-92013153D01*
X140374564Y-92013152D01*
X140374559Y-92013152D01*
X140147875Y-91993320D01*
X140147871Y-91993320D01*
X139921186Y-92013152D01*
X139921175Y-92013154D01*
X139701384Y-92072046D01*
X139701375Y-92072049D01*
X139495140Y-92168219D01*
X139495138Y-92168220D01*
X139308731Y-92298742D01*
X139147827Y-92459646D01*
X139017305Y-92646053D01*
X139017304Y-92646055D01*
X138921134Y-92852290D01*
X138921131Y-92852299D01*
X138862239Y-93072090D01*
X138862237Y-93072101D01*
X138842405Y-93298786D01*
X138842405Y-93298789D01*
X133828373Y-93298789D01*
X133828372Y-92450916D01*
X133821964Y-92391305D01*
X133809747Y-92358550D01*
X133771670Y-92256459D01*
X133771666Y-92256452D01*
X133685420Y-92141243D01*
X133685417Y-92141240D01*
X133570208Y-92054994D01*
X133570201Y-92054990D01*
X133435355Y-92004696D01*
X133435356Y-92004696D01*
X133375756Y-91998289D01*
X133375754Y-91998288D01*
X133375746Y-91998288D01*
X133375738Y-91998288D01*
X133277373Y-91998288D01*
X133210334Y-91978603D01*
X133164579Y-91925799D01*
X133153373Y-91874288D01*
X133153373Y-89881097D01*
X133173058Y-89814058D01*
X133225862Y-89768303D01*
X133277373Y-89757097D01*
X147494633Y-89757097D01*
X147561672Y-89776782D01*
X147607427Y-89829586D01*
X147618633Y-89881097D01*
X147618633Y-92025417D01*
X147616908Y-92041034D01*
X147617194Y-92041061D01*
X147616459Y-92048827D01*
X147618633Y-92117976D01*
X147618633Y-92147505D01*
X147618634Y-92147522D01*
X147619501Y-92154393D01*
X147619959Y-92160212D01*
X147621423Y-92206786D01*
X147621424Y-92206789D01*
X147627013Y-92226029D01*
X147630957Y-92245073D01*
X147632395Y-92256452D01*
X147633469Y-92264953D01*
X147650623Y-92308281D01*
X147652515Y-92313809D01*
X147665514Y-92358550D01*
X147675713Y-92375796D01*
X147684271Y-92393265D01*
X147691647Y-92411894D01*
X147719031Y-92449585D01*
X147722239Y-92454469D01*
X147745960Y-92494578D01*
X147745966Y-92494586D01*
X147760123Y-92508742D01*
X147772761Y-92523538D01*
X147784538Y-92539748D01*
X147784539Y-92539749D01*
X147820442Y-92569450D01*
X147824753Y-92573372D01*
X148776854Y-93525474D01*
X148933956Y-93682576D01*
X148943781Y-93694839D01*
X148944002Y-93694657D01*
X148948973Y-93700666D01*
X148974976Y-93725083D01*
X148999394Y-93748014D01*
X149020288Y-93768908D01*
X149025770Y-93773161D01*
X149030202Y-93776945D01*
X149064177Y-93808850D01*
X149081735Y-93818502D01*
X149097994Y-93829183D01*
X149113823Y-93841461D01*
X149156597Y-93859970D01*
X149161815Y-93862526D01*
X149202667Y-93884985D01*
X149222075Y-93889968D01*
X149240476Y-93896268D01*
X149258863Y-93904225D01*
X149302247Y-93911096D01*
X149304878Y-93911513D01*
X149310598Y-93912697D01*
X149355740Y-93924288D01*
X149375775Y-93924288D01*
X149395173Y-93925814D01*
X149414953Y-93928947D01*
X149414954Y-93928948D01*
X149414954Y-93928947D01*
X149414955Y-93928948D01*
X149461343Y-93924563D01*
X149467181Y-93924288D01*
X150153390Y-93924288D01*
X150220429Y-93943973D01*
X150266184Y-93996777D01*
X150277390Y-94048288D01*
X150277390Y-94146664D01*
X150283797Y-94206271D01*
X150334091Y-94341116D01*
X150334095Y-94341123D01*
X150420341Y-94456332D01*
X150420344Y-94456335D01*
X150535553Y-94542581D01*
X150535560Y-94542585D01*
X150670406Y-94592879D01*
X150670405Y-94592879D01*
X150677333Y-94593623D01*
X150730016Y-94599288D01*
X152425761Y-94599287D01*
X152485372Y-94592879D01*
X152620220Y-94542584D01*
X152735435Y-94456334D01*
X152821685Y-94341119D01*
X152871980Y-94206271D01*
X152878389Y-94146661D01*
X152878389Y-93298789D01*
X157892421Y-93298789D01*
X157912253Y-93525474D01*
X157912255Y-93525485D01*
X157971147Y-93745276D01*
X157971150Y-93745285D01*
X158067320Y-93951520D01*
X158067321Y-93951522D01*
X158197843Y-94137929D01*
X158358747Y-94298833D01*
X158358750Y-94298835D01*
X158545155Y-94429356D01*
X158751393Y-94525527D01*
X158971197Y-94584423D01*
X159133119Y-94598589D01*
X159197887Y-94604256D01*
X159197889Y-94604256D01*
X159197891Y-94604256D01*
X159254696Y-94599286D01*
X159424581Y-94584423D01*
X159644385Y-94525527D01*
X159850623Y-94429356D01*
X160037028Y-94298835D01*
X160197936Y-94137927D01*
X160328457Y-93951522D01*
X160424628Y-93745284D01*
X160483524Y-93525480D01*
X160503357Y-93298788D01*
X160483524Y-93072096D01*
X160424628Y-92852292D01*
X160328457Y-92646054D01*
X160197936Y-92459649D01*
X160197934Y-92459646D01*
X160037030Y-92298742D01*
X159850623Y-92168220D01*
X159850621Y-92168219D01*
X159644386Y-92072049D01*
X159644377Y-92072046D01*
X159424586Y-92013154D01*
X159424582Y-92013153D01*
X159424581Y-92013153D01*
X159424580Y-92013152D01*
X159424575Y-92013152D01*
X159197891Y-91993320D01*
X159197887Y-91993320D01*
X158971202Y-92013152D01*
X158971191Y-92013154D01*
X158751400Y-92072046D01*
X158751391Y-92072049D01*
X158545156Y-92168219D01*
X158545154Y-92168220D01*
X158358747Y-92298742D01*
X158197843Y-92459646D01*
X158067321Y-92646053D01*
X158067320Y-92646055D01*
X157971150Y-92852290D01*
X157971147Y-92852299D01*
X157912255Y-93072090D01*
X157912253Y-93072101D01*
X157892421Y-93298786D01*
X157892421Y-93298789D01*
X152878389Y-93298789D01*
X152878388Y-92450916D01*
X152871980Y-92391305D01*
X152859763Y-92358550D01*
X152821686Y-92256459D01*
X152821682Y-92256452D01*
X152735436Y-92141243D01*
X152735433Y-92141240D01*
X152620224Y-92054994D01*
X152620217Y-92054990D01*
X152485371Y-92004696D01*
X152485372Y-92004696D01*
X152425772Y-91998289D01*
X152425770Y-91998288D01*
X152425762Y-91998288D01*
X152425753Y-91998288D01*
X150730018Y-91998288D01*
X150730012Y-91998289D01*
X150670405Y-92004696D01*
X150535560Y-92054990D01*
X150535553Y-92054994D01*
X150420344Y-92141240D01*
X150420341Y-92141243D01*
X150334095Y-92256452D01*
X150334091Y-92256459D01*
X150283797Y-92391305D01*
X150281584Y-92411894D01*
X150277390Y-92450911D01*
X150277389Y-92450923D01*
X150277389Y-92549288D01*
X150257704Y-92616327D01*
X150204900Y-92662082D01*
X150153389Y-92673288D01*
X149745212Y-92673288D01*
X149678173Y-92653603D01*
X149657531Y-92636969D01*
X148905952Y-91885390D01*
X148872467Y-91824067D01*
X148869633Y-91797709D01*
X148869633Y-89881097D01*
X148889318Y-89814058D01*
X148942122Y-89768303D01*
X148993633Y-89757097D01*
X165354023Y-89757097D01*
X165421062Y-89776782D01*
X165466817Y-89829586D01*
X165478023Y-89881097D01*
X165478023Y-91430104D01*
X165476298Y-91445721D01*
X165476584Y-91445748D01*
X165475849Y-91453514D01*
X165478023Y-91522663D01*
X165478023Y-91552192D01*
X165478024Y-91552209D01*
X165478891Y-91559080D01*
X165479349Y-91564899D01*
X165480813Y-91611473D01*
X165480814Y-91611476D01*
X165486403Y-91630716D01*
X165490347Y-91649760D01*
X165492859Y-91669640D01*
X165510013Y-91712968D01*
X165511905Y-91718496D01*
X165524904Y-91763237D01*
X165535103Y-91780483D01*
X165543661Y-91797952D01*
X165551037Y-91816581D01*
X165578421Y-91854272D01*
X165581629Y-91859156D01*
X165605350Y-91899265D01*
X165605356Y-91899273D01*
X165619513Y-91913429D01*
X165632151Y-91928225D01*
X165643928Y-91944435D01*
X165643929Y-91944436D01*
X165679832Y-91974137D01*
X165684143Y-91978059D01*
X167004869Y-93298786D01*
X167388659Y-93682576D01*
X167398484Y-93694839D01*
X167398705Y-93694657D01*
X167403676Y-93700666D01*
X167429679Y-93725083D01*
X167454097Y-93748014D01*
X167474991Y-93768908D01*
X167480473Y-93773161D01*
X167484905Y-93776945D01*
X167518880Y-93808850D01*
X167536438Y-93818502D01*
X167552697Y-93829183D01*
X167568526Y-93841461D01*
X167611300Y-93859970D01*
X167616518Y-93862526D01*
X167657370Y-93884985D01*
X167676778Y-93889968D01*
X167695179Y-93896268D01*
X167713566Y-93904225D01*
X167756950Y-93911096D01*
X167759581Y-93911513D01*
X167765301Y-93912697D01*
X167810443Y-93924288D01*
X167830478Y-93924288D01*
X167849876Y-93925814D01*
X167869656Y-93928947D01*
X167869657Y-93928948D01*
X167869657Y-93928947D01*
X167869658Y-93928948D01*
X167916046Y-93924563D01*
X167921884Y-93924288D01*
X169203406Y-93924288D01*
X169270445Y-93943973D01*
X169316200Y-93996777D01*
X169327406Y-94048288D01*
X169327406Y-94146664D01*
X169333813Y-94206271D01*
X169384107Y-94341116D01*
X169384111Y-94341123D01*
X169470357Y-94456332D01*
X169470360Y-94456335D01*
X169585569Y-94542581D01*
X169585576Y-94542585D01*
X169720422Y-94592879D01*
X169720421Y-94592879D01*
X169727349Y-94593623D01*
X169780032Y-94599288D01*
X171475777Y-94599287D01*
X171535388Y-94592879D01*
X171670236Y-94542584D01*
X171785451Y-94456334D01*
X171871701Y-94341119D01*
X171921996Y-94206271D01*
X171928405Y-94146661D01*
X171928405Y-93298789D01*
X176942437Y-93298789D01*
X176962269Y-93525474D01*
X176962271Y-93525485D01*
X177021163Y-93745276D01*
X177021166Y-93745285D01*
X177117336Y-93951520D01*
X177117337Y-93951522D01*
X177247859Y-94137929D01*
X177408763Y-94298833D01*
X177408766Y-94298835D01*
X177595171Y-94429356D01*
X177801409Y-94525527D01*
X178021213Y-94584423D01*
X178183135Y-94598589D01*
X178247903Y-94604256D01*
X178247905Y-94604256D01*
X178247907Y-94604256D01*
X178304712Y-94599286D01*
X178474597Y-94584423D01*
X178694401Y-94525527D01*
X178900639Y-94429356D01*
X179087044Y-94298835D01*
X179247952Y-94137927D01*
X179378473Y-93951522D01*
X179474644Y-93745284D01*
X179533540Y-93525480D01*
X179553373Y-93298788D01*
X179533540Y-93072096D01*
X179474644Y-92852292D01*
X179378473Y-92646054D01*
X179247952Y-92459649D01*
X179247950Y-92459646D01*
X179087046Y-92298742D01*
X178900639Y-92168220D01*
X178900637Y-92168219D01*
X178694402Y-92072049D01*
X178694393Y-92072046D01*
X178474602Y-92013154D01*
X178474598Y-92013153D01*
X178474597Y-92013153D01*
X178474596Y-92013152D01*
X178474591Y-92013152D01*
X178247907Y-91993320D01*
X178247903Y-91993320D01*
X178021218Y-92013152D01*
X178021207Y-92013154D01*
X177801416Y-92072046D01*
X177801407Y-92072049D01*
X177595172Y-92168219D01*
X177595170Y-92168220D01*
X177408763Y-92298742D01*
X177247859Y-92459646D01*
X177117337Y-92646053D01*
X177117336Y-92646055D01*
X177021166Y-92852290D01*
X177021163Y-92852299D01*
X176962271Y-93072090D01*
X176962269Y-93072101D01*
X176942437Y-93298786D01*
X176942437Y-93298789D01*
X171928405Y-93298789D01*
X171928404Y-92450916D01*
X171921996Y-92391305D01*
X171909779Y-92358550D01*
X171871702Y-92256459D01*
X171871698Y-92256452D01*
X171785452Y-92141243D01*
X171785449Y-92141240D01*
X171670240Y-92054994D01*
X171670233Y-92054990D01*
X171535387Y-92004696D01*
X171535388Y-92004696D01*
X171475788Y-91998289D01*
X171475786Y-91998288D01*
X171475778Y-91998288D01*
X171475769Y-91998288D01*
X169780034Y-91998288D01*
X169780028Y-91998289D01*
X169720421Y-92004696D01*
X169585576Y-92054990D01*
X169585569Y-92054994D01*
X169470360Y-92141240D01*
X169470357Y-92141243D01*
X169384111Y-92256452D01*
X169384107Y-92256459D01*
X169333813Y-92391305D01*
X169331600Y-92411894D01*
X169327406Y-92450911D01*
X169327405Y-92450923D01*
X169327405Y-92549288D01*
X169307720Y-92616327D01*
X169254916Y-92662082D01*
X169203405Y-92673288D01*
X168199915Y-92673288D01*
X168132876Y-92653603D01*
X168112234Y-92636969D01*
X166765342Y-91290077D01*
X166731857Y-91228754D01*
X166729023Y-91202396D01*
X166729023Y-89881097D01*
X166748708Y-89814058D01*
X166801512Y-89768303D01*
X166853023Y-89757097D01*
X196381743Y-89757097D01*
X196397363Y-89758821D01*
X196397390Y-89758536D01*
X196405146Y-89759268D01*
X196405153Y-89759270D01*
X196474300Y-89757097D01*
X213062403Y-89757097D01*
X213085635Y-89759293D01*
X213087239Y-89759598D01*
X213093662Y-89760824D01*
X213150974Y-89757218D01*
X213154847Y-89757097D01*
X213172592Y-89757097D01*
X213172600Y-89757097D01*
X213190240Y-89754868D01*
X213194057Y-89754507D01*
X213251388Y-89750901D01*
X213259155Y-89748377D01*
X213281930Y-89743285D01*
X213290042Y-89742261D01*
X213343445Y-89721116D01*
X213347085Y-89719806D01*
X213401691Y-89702064D01*
X213408587Y-89697687D01*
X213429383Y-89687091D01*
X213436982Y-89684083D01*
X213483441Y-89650327D01*
X213486640Y-89648152D01*
X213535127Y-89617383D01*
X213540716Y-89611430D01*
X213558229Y-89595991D01*
X213564837Y-89591191D01*
X213601440Y-89546944D01*
X213603986Y-89544054D01*
X213643312Y-89502179D01*
X213647248Y-89495018D01*
X213660369Y-89475711D01*
X213665574Y-89469420D01*
X213690019Y-89417471D01*
X213691778Y-89414016D01*
X213719447Y-89363689D01*
X213721477Y-89355778D01*
X213729385Y-89333815D01*
X213732864Y-89326423D01*
X213743627Y-89269998D01*
X213744460Y-89266267D01*
X213758750Y-89210616D01*
X213758750Y-89202441D01*
X213760947Y-89179203D01*
X213761667Y-89175429D01*
X213762477Y-89171185D01*
X213758871Y-89113872D01*
X213758750Y-89110000D01*
X213758750Y-55269600D01*
X213760947Y-55246362D01*
X213762477Y-55238344D01*
X213758871Y-55181031D01*
X213758750Y-55177159D01*
X213758750Y-55159406D01*
X213756520Y-55141758D01*
X213756160Y-55137947D01*
X213752554Y-55080618D01*
X213750029Y-55072848D01*
X213744937Y-55050070D01*
X213743914Y-55041964D01*
X213722770Y-54988562D01*
X213721461Y-54984926D01*
X213703717Y-54930315D01*
X213699339Y-54923417D01*
X213688745Y-54902624D01*
X213685736Y-54895024D01*
X213651986Y-54848571D01*
X213649795Y-54845348D01*
X213643447Y-54835345D01*
X213619036Y-54796879D01*
X213613083Y-54791289D01*
X213597648Y-54773781D01*
X213592844Y-54767169D01*
X213592841Y-54767167D01*
X213592841Y-54767166D01*
X213548611Y-54730576D01*
X213545688Y-54727999D01*
X213503835Y-54688696D01*
X213503827Y-54688690D01*
X213496665Y-54684753D01*
X213477364Y-54671636D01*
X213471074Y-54666432D01*
X213419128Y-54641988D01*
X213415667Y-54640225D01*
X213365342Y-54612559D01*
X213365339Y-54612558D01*
X213365335Y-54612556D01*
X213357424Y-54610525D01*
X213335472Y-54602622D01*
X213328075Y-54599141D01*
X213328071Y-54599140D01*
X213271694Y-54588386D01*
X213267894Y-54587536D01*
X213212273Y-54573256D01*
X213212269Y-54573256D01*
X213204097Y-54573256D01*
X213180865Y-54571060D01*
X213172838Y-54569529D01*
X213172836Y-54569529D01*
X213163883Y-54570092D01*
X213115525Y-54573134D01*
X213111653Y-54573256D01*
X174826220Y-54573256D01*
X174802988Y-54571060D01*
X174794961Y-54569529D01*
X174794959Y-54569529D01*
X174786006Y-54570092D01*
X174737648Y-54573134D01*
X174733776Y-54573256D01*
X174716016Y-54573256D01*
X174698405Y-54575481D01*
X174694537Y-54575846D01*
X174662748Y-54577846D01*
X174637232Y-54579452D01*
X174629458Y-54581978D01*
X174606693Y-54587066D01*
X174598591Y-54588089D01*
X174598578Y-54588093D01*
X174545183Y-54609233D01*
X174541527Y-54610548D01*
X174486932Y-54628289D01*
X174486929Y-54628290D01*
X174480025Y-54632671D01*
X174459253Y-54643255D01*
X174451646Y-54646267D01*
X174451635Y-54646273D01*
X174405187Y-54680019D01*
X174401968Y-54682207D01*
X174353496Y-54712969D01*
X174353493Y-54712972D01*
X174347902Y-54718926D01*
X174330402Y-54734355D01*
X174323786Y-54739161D01*
X174323785Y-54739162D01*
X174287185Y-54783402D01*
X174284611Y-54786321D01*
X174245310Y-54828173D01*
X174245308Y-54828176D01*
X174241367Y-54835345D01*
X174228262Y-54854629D01*
X174223050Y-54860929D01*
X174223047Y-54860934D01*
X174198604Y-54912877D01*
X174196837Y-54916345D01*
X174169177Y-54966659D01*
X174169176Y-54966664D01*
X174167142Y-54974584D01*
X174159243Y-54996524D01*
X174155759Y-55003928D01*
X174155757Y-55003934D01*
X174145002Y-55060317D01*
X174144152Y-55064117D01*
X174129873Y-55119732D01*
X174129873Y-55127908D01*
X174127678Y-55151135D01*
X174126146Y-55159168D01*
X174129751Y-55216480D01*
X174129873Y-55220351D01*
X174129873Y-59321041D01*
X174110188Y-59388080D01*
X174076996Y-59422616D01*
X173883970Y-59557773D01*
X173716878Y-59724865D01*
X173586948Y-59910426D01*
X173532371Y-59954051D01*
X173462873Y-59961245D01*
X173400518Y-59929722D01*
X173383798Y-59910426D01*
X173253867Y-59724865D01*
X173086775Y-59557774D01*
X173086768Y-59557769D01*
X172893207Y-59422235D01*
X172893203Y-59422233D01*
X172840873Y-59397831D01*
X172679036Y-59322365D01*
X172679032Y-59322364D01*
X172679028Y-59322362D01*
X172450786Y-59261206D01*
X172450776Y-59261204D01*
X172215374Y-59240609D01*
X172215372Y-59240609D01*
X171979969Y-59261204D01*
X171979959Y-59261206D01*
X171751717Y-59322362D01*
X171751708Y-59322366D01*
X171537544Y-59422232D01*
X171537542Y-59422233D01*
X171343973Y-59557771D01*
X171222046Y-59679698D01*
X171160723Y-59713182D01*
X171091031Y-59708198D01*
X171035098Y-59666326D01*
X171018183Y-59635349D01*
X170969170Y-59503939D01*
X170969166Y-59503932D01*
X170882920Y-59388723D01*
X170882917Y-59388720D01*
X170767708Y-59302474D01*
X170767701Y-59302470D01*
X170632855Y-59252176D01*
X170632856Y-59252176D01*
X170573256Y-59245769D01*
X170573254Y-59245768D01*
X170573246Y-59245768D01*
X170573237Y-59245768D01*
X168777502Y-59245768D01*
X168777496Y-59245769D01*
X168717889Y-59252176D01*
X168583044Y-59302470D01*
X168583037Y-59302474D01*
X168467828Y-59388720D01*
X168467825Y-59388723D01*
X168381579Y-59503932D01*
X168381576Y-59503937D01*
X168332562Y-59635351D01*
X168290690Y-59691284D01*
X168225226Y-59715701D01*
X168156953Y-59700849D01*
X168128699Y-59679698D01*
X168006775Y-59557774D01*
X168006768Y-59557769D01*
X167813207Y-59422235D01*
X167813203Y-59422233D01*
X167760873Y-59397831D01*
X167599036Y-59322365D01*
X167599032Y-59322364D01*
X167599028Y-59322362D01*
X167370786Y-59261206D01*
X167370776Y-59261204D01*
X167135374Y-59240609D01*
X167135372Y-59240609D01*
X166899969Y-59261204D01*
X166899959Y-59261206D01*
X166671717Y-59322362D01*
X166671708Y-59322366D01*
X166457544Y-59422232D01*
X166457542Y-59422233D01*
X166263970Y-59557773D01*
X166096878Y-59724865D01*
X165966948Y-59910426D01*
X165912371Y-59954051D01*
X165842873Y-59961245D01*
X165780518Y-59929722D01*
X165763798Y-59910426D01*
X165633867Y-59724865D01*
X165466775Y-59557774D01*
X165466768Y-59557769D01*
X165273207Y-59422235D01*
X165273203Y-59422233D01*
X165220873Y-59397831D01*
X165059036Y-59322365D01*
X165059032Y-59322364D01*
X165059028Y-59322362D01*
X164830786Y-59261206D01*
X164830776Y-59261204D01*
X164595374Y-59240609D01*
X164595372Y-59240609D01*
X164359969Y-59261204D01*
X164359959Y-59261206D01*
X164131717Y-59322362D01*
X164131708Y-59322366D01*
X163917544Y-59422232D01*
X163917542Y-59422233D01*
X163723970Y-59557773D01*
X163556878Y-59724865D01*
X163426948Y-59910426D01*
X163372371Y-59954051D01*
X163302873Y-59961245D01*
X163240518Y-59929722D01*
X163223798Y-59910426D01*
X163093867Y-59724865D01*
X162926775Y-59557774D01*
X162926768Y-59557769D01*
X162733207Y-59422235D01*
X162733203Y-59422233D01*
X162680873Y-59397831D01*
X162519036Y-59322365D01*
X162519032Y-59322364D01*
X162519028Y-59322362D01*
X162290786Y-59261206D01*
X162290776Y-59261204D01*
X162055374Y-59240609D01*
X162055372Y-59240609D01*
X161819969Y-59261204D01*
X161819959Y-59261206D01*
X161591717Y-59322362D01*
X161591708Y-59322366D01*
X161377544Y-59422232D01*
X161377542Y-59422233D01*
X161183970Y-59557773D01*
X161016878Y-59724865D01*
X160886948Y-59910426D01*
X160832371Y-59954051D01*
X160762873Y-59961245D01*
X160700518Y-59929722D01*
X160683798Y-59910426D01*
X160553867Y-59724865D01*
X160386775Y-59557774D01*
X160386768Y-59557769D01*
X160193207Y-59422235D01*
X160193203Y-59422233D01*
X160140873Y-59397831D01*
X159979036Y-59322365D01*
X159979032Y-59322364D01*
X159979028Y-59322362D01*
X159750786Y-59261206D01*
X159750776Y-59261204D01*
X159515374Y-59240609D01*
X159515372Y-59240609D01*
X159279969Y-59261204D01*
X159279959Y-59261206D01*
X159051717Y-59322362D01*
X159051708Y-59322366D01*
X158837544Y-59422232D01*
X158837542Y-59422233D01*
X158643973Y-59557771D01*
X158522046Y-59679698D01*
X158460723Y-59713182D01*
X158391031Y-59708198D01*
X158335098Y-59666326D01*
X158318183Y-59635349D01*
X158269170Y-59503939D01*
X158269166Y-59503932D01*
X158182920Y-59388723D01*
X158182917Y-59388720D01*
X158067708Y-59302474D01*
X158067701Y-59302470D01*
X157932855Y-59252176D01*
X157932856Y-59252176D01*
X157873256Y-59245769D01*
X157873254Y-59245768D01*
X157873246Y-59245768D01*
X157873237Y-59245768D01*
X156077502Y-59245768D01*
X156077496Y-59245769D01*
X156017889Y-59252176D01*
X155883044Y-59302470D01*
X155883037Y-59302474D01*
X155767828Y-59388720D01*
X155767825Y-59388723D01*
X155681579Y-59503932D01*
X155681576Y-59503937D01*
X155632562Y-59635351D01*
X155590690Y-59691284D01*
X155525226Y-59715701D01*
X155456953Y-59700849D01*
X155428699Y-59679698D01*
X155306775Y-59557774D01*
X155306768Y-59557769D01*
X155113207Y-59422235D01*
X155113203Y-59422233D01*
X155060873Y-59397831D01*
X154899036Y-59322365D01*
X154899032Y-59322364D01*
X154899028Y-59322362D01*
X154670786Y-59261206D01*
X154670776Y-59261204D01*
X154435374Y-59240609D01*
X154435372Y-59240609D01*
X154199969Y-59261204D01*
X154199959Y-59261206D01*
X153971717Y-59322362D01*
X153971708Y-59322366D01*
X153757544Y-59422232D01*
X153757542Y-59422233D01*
X153563970Y-59557773D01*
X153396878Y-59724865D01*
X153266948Y-59910426D01*
X153212371Y-59954051D01*
X153142873Y-59961245D01*
X153080518Y-59929722D01*
X153063798Y-59910426D01*
X152933867Y-59724865D01*
X152766775Y-59557774D01*
X152766768Y-59557769D01*
X152573207Y-59422235D01*
X152573203Y-59422233D01*
X152520873Y-59397831D01*
X152359036Y-59322365D01*
X152359032Y-59322364D01*
X152359028Y-59322362D01*
X152130786Y-59261206D01*
X152130776Y-59261204D01*
X151895374Y-59240609D01*
X151895372Y-59240609D01*
X151659969Y-59261204D01*
X151659959Y-59261206D01*
X151431717Y-59322362D01*
X151431708Y-59322366D01*
X151217544Y-59422232D01*
X151217542Y-59422233D01*
X151023970Y-59557773D01*
X150856878Y-59724865D01*
X150726948Y-59910426D01*
X150672371Y-59954051D01*
X150602873Y-59961245D01*
X150540518Y-59929722D01*
X150523798Y-59910426D01*
X150393867Y-59724865D01*
X150226775Y-59557774D01*
X150226768Y-59557769D01*
X150033207Y-59422235D01*
X150033203Y-59422233D01*
X149980873Y-59397831D01*
X149819036Y-59322365D01*
X149819032Y-59322364D01*
X149819028Y-59322362D01*
X149590786Y-59261206D01*
X149590776Y-59261204D01*
X149355374Y-59240609D01*
X149355372Y-59240609D01*
X149119969Y-59261204D01*
X149119959Y-59261206D01*
X148891717Y-59322362D01*
X148891708Y-59322366D01*
X148677544Y-59422232D01*
X148677542Y-59422233D01*
X148483970Y-59557773D01*
X148316878Y-59724865D01*
X148186948Y-59910426D01*
X148132371Y-59954051D01*
X148062873Y-59961245D01*
X148000518Y-59929722D01*
X147983798Y-59910426D01*
X147853867Y-59724865D01*
X147686775Y-59557774D01*
X147686768Y-59557769D01*
X147493207Y-59422235D01*
X147493203Y-59422233D01*
X147440873Y-59397831D01*
X147279036Y-59322365D01*
X147279032Y-59322364D01*
X147279028Y-59322362D01*
X147050786Y-59261206D01*
X147050776Y-59261204D01*
X146815374Y-59240609D01*
X146815372Y-59240609D01*
X146579969Y-59261204D01*
X146579959Y-59261206D01*
X146351717Y-59322362D01*
X146351708Y-59322366D01*
X146137544Y-59422232D01*
X146137542Y-59422233D01*
X145943973Y-59557771D01*
X145822046Y-59679698D01*
X145760723Y-59713182D01*
X145691031Y-59708198D01*
X145635098Y-59666326D01*
X145618183Y-59635349D01*
X145569170Y-59503939D01*
X145569166Y-59503932D01*
X145482920Y-59388723D01*
X145482917Y-59388720D01*
X145367708Y-59302474D01*
X145367701Y-59302470D01*
X145232855Y-59252176D01*
X145232856Y-59252176D01*
X145173256Y-59245769D01*
X145173254Y-59245768D01*
X145173246Y-59245768D01*
X145173237Y-59245768D01*
X143377502Y-59245768D01*
X143377496Y-59245769D01*
X143317889Y-59252176D01*
X143183044Y-59302470D01*
X143183037Y-59302474D01*
X143067828Y-59388720D01*
X143067825Y-59388723D01*
X142981579Y-59503932D01*
X142981576Y-59503937D01*
X142932562Y-59635351D01*
X142890690Y-59691284D01*
X142825226Y-59715701D01*
X142756953Y-59700849D01*
X142728699Y-59679698D01*
X142606775Y-59557774D01*
X142606768Y-59557769D01*
X142413207Y-59422235D01*
X142413203Y-59422233D01*
X142360873Y-59397831D01*
X142199036Y-59322365D01*
X142199032Y-59322364D01*
X142199028Y-59322362D01*
X141970786Y-59261206D01*
X141970776Y-59261204D01*
X141735374Y-59240609D01*
X141735372Y-59240609D01*
X141499969Y-59261204D01*
X141499959Y-59261206D01*
X141271717Y-59322362D01*
X141271708Y-59322366D01*
X141057544Y-59422232D01*
X141057542Y-59422233D01*
X140863970Y-59557773D01*
X140696878Y-59724865D01*
X140566948Y-59910426D01*
X140512371Y-59954051D01*
X140442873Y-59961245D01*
X140380518Y-59929722D01*
X140363798Y-59910426D01*
X140233867Y-59724865D01*
X140066775Y-59557774D01*
X140066768Y-59557769D01*
X139873207Y-59422235D01*
X139873203Y-59422233D01*
X139820873Y-59397831D01*
X139659036Y-59322365D01*
X139659032Y-59322364D01*
X139659028Y-59322362D01*
X139430786Y-59261206D01*
X139430776Y-59261204D01*
X139195374Y-59240609D01*
X139195372Y-59240609D01*
X138959969Y-59261204D01*
X138959959Y-59261206D01*
X138731717Y-59322362D01*
X138731708Y-59322366D01*
X138517544Y-59422232D01*
X138517542Y-59422233D01*
X138323970Y-59557773D01*
X138156878Y-59724865D01*
X138026948Y-59910426D01*
X137972371Y-59954051D01*
X137902873Y-59961245D01*
X137840518Y-59929722D01*
X137823798Y-59910426D01*
X137693867Y-59724865D01*
X137526775Y-59557774D01*
X137526768Y-59557769D01*
X137333207Y-59422235D01*
X137333203Y-59422233D01*
X137280873Y-59397831D01*
X137119036Y-59322365D01*
X137119032Y-59322364D01*
X137119028Y-59322362D01*
X136890786Y-59261206D01*
X136890776Y-59261204D01*
X136655374Y-59240609D01*
X136655372Y-59240609D01*
X136419969Y-59261204D01*
X136419959Y-59261206D01*
X136191717Y-59322362D01*
X136191708Y-59322366D01*
X135977544Y-59422232D01*
X135977542Y-59422233D01*
X135783970Y-59557773D01*
X135616878Y-59724865D01*
X135486948Y-59910426D01*
X135432371Y-59954051D01*
X135362873Y-59961245D01*
X135300518Y-59929722D01*
X135283798Y-59910426D01*
X135153867Y-59724865D01*
X134986775Y-59557774D01*
X134986768Y-59557769D01*
X134793207Y-59422235D01*
X134793203Y-59422233D01*
X134740873Y-59397831D01*
X134579036Y-59322365D01*
X134579032Y-59322364D01*
X134579028Y-59322362D01*
X134350786Y-59261206D01*
X134350776Y-59261204D01*
X134115374Y-59240609D01*
X134115372Y-59240609D01*
X133879969Y-59261204D01*
X133879959Y-59261206D01*
X133651717Y-59322362D01*
X133651708Y-59322366D01*
X133437544Y-59422232D01*
X133437542Y-59422233D01*
X133243973Y-59557771D01*
X133122046Y-59679698D01*
X133060723Y-59713182D01*
X132991031Y-59708198D01*
X132935098Y-59666326D01*
X132918183Y-59635349D01*
X132869170Y-59503939D01*
X132869166Y-59503932D01*
X132782920Y-59388723D01*
X132782917Y-59388720D01*
X132667708Y-59302474D01*
X132667701Y-59302470D01*
X132532855Y-59252176D01*
X132532856Y-59252176D01*
X132473256Y-59245769D01*
X132473254Y-59245768D01*
X132473246Y-59245768D01*
X132473237Y-59245768D01*
X130677502Y-59245768D01*
X130677496Y-59245769D01*
X130617889Y-59252176D01*
X130483044Y-59302470D01*
X130483037Y-59302474D01*
X130367828Y-59388720D01*
X130367825Y-59388723D01*
X130281579Y-59503932D01*
X130281576Y-59503937D01*
X130232562Y-59635351D01*
X130190690Y-59691284D01*
X130125226Y-59715701D01*
X130056953Y-59700849D01*
X130028699Y-59679698D01*
X129906775Y-59557774D01*
X129906768Y-59557769D01*
X129713207Y-59422235D01*
X129713203Y-59422233D01*
X129660873Y-59397831D01*
X129499036Y-59322365D01*
X129499032Y-59322364D01*
X129499028Y-59322362D01*
X129270786Y-59261206D01*
X129270776Y-59261204D01*
X129035374Y-59240609D01*
X129035372Y-59240609D01*
X128799969Y-59261204D01*
X128799959Y-59261206D01*
X128571717Y-59322362D01*
X128571708Y-59322366D01*
X128357544Y-59422232D01*
X128357542Y-59422233D01*
X128163970Y-59557773D01*
X127996878Y-59724865D01*
X127866948Y-59910426D01*
X127812371Y-59954051D01*
X127742873Y-59961245D01*
X127680518Y-59929722D01*
X127663798Y-59910426D01*
X127533867Y-59724865D01*
X127366775Y-59557774D01*
X127366768Y-59557769D01*
X127173207Y-59422235D01*
X127173203Y-59422233D01*
X127120873Y-59397831D01*
X126959036Y-59322365D01*
X126959032Y-59322364D01*
X126959028Y-59322362D01*
X126730786Y-59261206D01*
X126730776Y-59261204D01*
X126495374Y-59240609D01*
X126495372Y-59240609D01*
X126259969Y-59261204D01*
X126259959Y-59261206D01*
X126031717Y-59322362D01*
X126031708Y-59322366D01*
X125817544Y-59422232D01*
X125817542Y-59422233D01*
X125623970Y-59557773D01*
X125456878Y-59724865D01*
X125321338Y-59918437D01*
X125321337Y-59918439D01*
X125221471Y-60132603D01*
X125221467Y-60132612D01*
X125160311Y-60360854D01*
X125160309Y-60360864D01*
X125139714Y-60596267D01*
X125139714Y-60596268D01*
X117883670Y-60596268D01*
X117883670Y-48179500D01*
X117903355Y-48112461D01*
X117956159Y-48066706D01*
X118007670Y-48055500D01*
X218961880Y-48055500D01*
X219028919Y-48075185D01*
G37*
%TD.AperFunction*%
M02*
