M48
INCH
T1C0.0315
T2C0.0394
T3C0.0402
T4C0.0591
%
G90
G05
T1
X5.2176Y-3.6732
X5.5176Y-3.6732
X5.9676Y-3.6732
X6.2676Y-3.6732
X6.7176Y-3.6732
X7.0176Y-3.6732
X7.7489Y-3.2982
X8.0489Y-3.2982
T2
X7.6176Y-2.6373
X7.6176Y-2.7357
X7.6176Y-2.8341
X8.1885Y-2.6373
X8.1885Y-2.8341
T3
X4.9801Y-2.3857
X4.9801Y-3.0857
X5.0801Y-2.3857
X5.0801Y-3.0857
X5.1801Y-2.3857
X5.1801Y-3.0857
X5.2801Y-2.3857
X5.2801Y-3.0857
X5.3801Y-2.3857
X5.3801Y-3.0857
X5.4801Y-2.3857
X5.4801Y-3.0857
X5.5801Y-2.3857
X5.5801Y-3.0857
X5.6801Y-2.3857
X5.6801Y-3.0857
X5.7801Y-2.3857
X5.7801Y-3.0857
X5.8801Y-2.3857
X5.8801Y-3.0857
X5.9801Y-2.3857
X5.9801Y-3.0857
X6.0801Y-2.3857
X6.0801Y-3.0857
X6.1801Y-2.3857
X6.1801Y-3.0857
X6.2801Y-2.3857
X6.2801Y-3.0857
X6.3801Y-2.3857
X6.3801Y-3.0857
X6.4801Y-2.3857
X6.4801Y-3.0857
X6.5801Y-2.3857
X6.5801Y-3.0857
X6.6801Y-2.3857
X6.6801Y-3.0857
X6.7801Y-2.3857
X6.7801Y-3.0857
X6.8711Y-2.6357
X6.8711Y-2.7357
X6.8711Y-2.8357
X6.8801Y-2.3857
X6.8801Y-3.0857
T4
X5.2176Y-4.1357
X5.4676Y-4.0357
X5.9676Y-4.1357
X6.2176Y-4.0357
X6.7176Y-4.1357
X6.9676Y-4.0357
T4
G00X7.8873Y-2.5152
M15
G01X7.9385Y-2.5152
M16
G05
G00X7.8873Y-2.9562
M15
G01X7.9385Y-2.9562
M16
G05
T0
M30
