%TF.GenerationSoftware,KiCad,Pcbnew,7.0.9*%
%TF.CreationDate,2024-01-23T15:09:08+05:30*%
%TF.ProjectId,3 Keypad,33204b65-7970-4616-942e-6b696361645f,rev?*%
%TF.SameCoordinates,Original*%
%TF.FileFunction,Legend,Bot*%
%TF.FilePolarity,Positive*%
%FSLAX46Y46*%
G04 Gerber Fmt 4.6, Leading zero omitted, Abs format (unit mm)*
G04 Created by KiCad (PCBNEW 7.0.9) date 2024-01-23 15:09:08*
%MOMM*%
%LPD*%
G01*
G04 APERTURE LIST*
%ADD10C,0.150000*%
%ADD11R,2.000000X2.000000*%
%ADD12C,2.000000*%
%ADD13R,3.200000X2.000000*%
%ADD14R,1.600000X1.600000*%
%ADD15O,1.600000X1.600000*%
%ADD16C,1.750000*%
%ADD17C,4.000000*%
%ADD18C,2.500000*%
%ADD19O,1.700000X1.700000*%
%ADD20R,1.700000X1.700000*%
G04 APERTURE END LIST*
D10*
X148955763Y-62993886D02*
X148917668Y-62917696D01*
X148917668Y-62917696D02*
X148917668Y-62803410D01*
X148917668Y-62803410D02*
X148955763Y-62689124D01*
X148955763Y-62689124D02*
X149031953Y-62612934D01*
X149031953Y-62612934D02*
X149108144Y-62574839D01*
X149108144Y-62574839D02*
X149260525Y-62536743D01*
X149260525Y-62536743D02*
X149374811Y-62536743D01*
X149374811Y-62536743D02*
X149527192Y-62574839D01*
X149527192Y-62574839D02*
X149603382Y-62612934D01*
X149603382Y-62612934D02*
X149679573Y-62689124D01*
X149679573Y-62689124D02*
X149717668Y-62803410D01*
X149717668Y-62803410D02*
X149717668Y-62879601D01*
X149717668Y-62879601D02*
X149679573Y-62993886D01*
X149679573Y-62993886D02*
X149641477Y-63031982D01*
X149641477Y-63031982D02*
X149374811Y-63031982D01*
X149374811Y-63031982D02*
X149374811Y-62879601D01*
X149717668Y-63374839D02*
X148917668Y-63374839D01*
X148917668Y-63374839D02*
X148917668Y-63679601D01*
X148917668Y-63679601D02*
X148955763Y-63755791D01*
X148955763Y-63755791D02*
X148993858Y-63793886D01*
X148993858Y-63793886D02*
X149070049Y-63831982D01*
X149070049Y-63831982D02*
X149184334Y-63831982D01*
X149184334Y-63831982D02*
X149260525Y-63793886D01*
X149260525Y-63793886D02*
X149298620Y-63755791D01*
X149298620Y-63755791D02*
X149336715Y-63679601D01*
X149336715Y-63679601D02*
X149336715Y-63374839D01*
X148993858Y-64136743D02*
X148955763Y-64174839D01*
X148955763Y-64174839D02*
X148917668Y-64251029D01*
X148917668Y-64251029D02*
X148917668Y-64441505D01*
X148917668Y-64441505D02*
X148955763Y-64517696D01*
X148955763Y-64517696D02*
X148993858Y-64555791D01*
X148993858Y-64555791D02*
X149070049Y-64593886D01*
X149070049Y-64593886D02*
X149146239Y-64593886D01*
X149146239Y-64593886D02*
X149260525Y-64555791D01*
X149260525Y-64555791D02*
X149717668Y-64098648D01*
X149717668Y-64098648D02*
X149717668Y-64593886D01*
X148917668Y-65279601D02*
X148917668Y-65127220D01*
X148917668Y-65127220D02*
X148955763Y-65051029D01*
X148955763Y-65051029D02*
X148993858Y-65012934D01*
X148993858Y-65012934D02*
X149108144Y-64936744D01*
X149108144Y-64936744D02*
X149260525Y-64898648D01*
X149260525Y-64898648D02*
X149565287Y-64898648D01*
X149565287Y-64898648D02*
X149641477Y-64936744D01*
X149641477Y-64936744D02*
X149679573Y-64974839D01*
X149679573Y-64974839D02*
X149717668Y-65051029D01*
X149717668Y-65051029D02*
X149717668Y-65203410D01*
X149717668Y-65203410D02*
X149679573Y-65279601D01*
X149679573Y-65279601D02*
X149641477Y-65317696D01*
X149641477Y-65317696D02*
X149565287Y-65355791D01*
X149565287Y-65355791D02*
X149374811Y-65355791D01*
X149374811Y-65355791D02*
X149298620Y-65317696D01*
X149298620Y-65317696D02*
X149260525Y-65279601D01*
X149260525Y-65279601D02*
X149222430Y-65203410D01*
X149222430Y-65203410D02*
X149222430Y-65051029D01*
X149222430Y-65051029D02*
X149260525Y-64974839D01*
X149260525Y-64974839D02*
X149298620Y-64936744D01*
X149298620Y-64936744D02*
X149374811Y-64898648D01*
X144409096Y-62536744D02*
X144409096Y-62917697D01*
X144637668Y-62460554D02*
X143837668Y-62727221D01*
X143837668Y-62727221D02*
X144637668Y-62993887D01*
X143875763Y-63679601D02*
X143837668Y-63603411D01*
X143837668Y-63603411D02*
X143837668Y-63489125D01*
X143837668Y-63489125D02*
X143875763Y-63374839D01*
X143875763Y-63374839D02*
X143951953Y-63298649D01*
X143951953Y-63298649D02*
X144028144Y-63260554D01*
X144028144Y-63260554D02*
X144180525Y-63222458D01*
X144180525Y-63222458D02*
X144294811Y-63222458D01*
X144294811Y-63222458D02*
X144447192Y-63260554D01*
X144447192Y-63260554D02*
X144523382Y-63298649D01*
X144523382Y-63298649D02*
X144599573Y-63374839D01*
X144599573Y-63374839D02*
X144637668Y-63489125D01*
X144637668Y-63489125D02*
X144637668Y-63565316D01*
X144637668Y-63565316D02*
X144599573Y-63679601D01*
X144599573Y-63679601D02*
X144561477Y-63717697D01*
X144561477Y-63717697D02*
X144294811Y-63717697D01*
X144294811Y-63717697D02*
X144294811Y-63565316D01*
X144637668Y-64060554D02*
X143837668Y-64060554D01*
X143837668Y-64060554D02*
X144637668Y-64517697D01*
X144637668Y-64517697D02*
X143837668Y-64517697D01*
X144637668Y-64898649D02*
X143837668Y-64898649D01*
X143837668Y-64898649D02*
X143837668Y-65089125D01*
X143837668Y-65089125D02*
X143875763Y-65203411D01*
X143875763Y-65203411D02*
X143951953Y-65279601D01*
X143951953Y-65279601D02*
X144028144Y-65317696D01*
X144028144Y-65317696D02*
X144180525Y-65355792D01*
X144180525Y-65355792D02*
X144294811Y-65355792D01*
X144294811Y-65355792D02*
X144447192Y-65317696D01*
X144447192Y-65317696D02*
X144523382Y-65279601D01*
X144523382Y-65279601D02*
X144599573Y-65203411D01*
X144599573Y-65203411D02*
X144637668Y-65089125D01*
X144637668Y-65089125D02*
X144637668Y-64898649D01*
X128625763Y-74954839D02*
X128587668Y-74878649D01*
X128587668Y-74878649D02*
X128587668Y-74764363D01*
X128587668Y-74764363D02*
X128625763Y-74650077D01*
X128625763Y-74650077D02*
X128701953Y-74573887D01*
X128701953Y-74573887D02*
X128778144Y-74535792D01*
X128778144Y-74535792D02*
X128930525Y-74497696D01*
X128930525Y-74497696D02*
X129044811Y-74497696D01*
X129044811Y-74497696D02*
X129197192Y-74535792D01*
X129197192Y-74535792D02*
X129273382Y-74573887D01*
X129273382Y-74573887D02*
X129349573Y-74650077D01*
X129349573Y-74650077D02*
X129387668Y-74764363D01*
X129387668Y-74764363D02*
X129387668Y-74840554D01*
X129387668Y-74840554D02*
X129349573Y-74954839D01*
X129349573Y-74954839D02*
X129311477Y-74992935D01*
X129311477Y-74992935D02*
X129044811Y-74992935D01*
X129044811Y-74992935D02*
X129044811Y-74840554D01*
X129387668Y-75335792D02*
X128587668Y-75335792D01*
X128587668Y-75335792D02*
X128587668Y-75640554D01*
X128587668Y-75640554D02*
X128625763Y-75716744D01*
X128625763Y-75716744D02*
X128663858Y-75754839D01*
X128663858Y-75754839D02*
X128740049Y-75792935D01*
X128740049Y-75792935D02*
X128854334Y-75792935D01*
X128854334Y-75792935D02*
X128930525Y-75754839D01*
X128930525Y-75754839D02*
X128968620Y-75716744D01*
X128968620Y-75716744D02*
X129006715Y-75640554D01*
X129006715Y-75640554D02*
X129006715Y-75335792D01*
X129387668Y-76554839D02*
X129387668Y-76097696D01*
X129387668Y-76326268D02*
X128587668Y-76326268D01*
X128587668Y-76326268D02*
X128701953Y-76250077D01*
X128701953Y-76250077D02*
X128778144Y-76173887D01*
X128778144Y-76173887D02*
X128816239Y-76097696D01*
X164195763Y-62993886D02*
X164157668Y-62917696D01*
X164157668Y-62917696D02*
X164157668Y-62803410D01*
X164157668Y-62803410D02*
X164195763Y-62689124D01*
X164195763Y-62689124D02*
X164271953Y-62612934D01*
X164271953Y-62612934D02*
X164348144Y-62574839D01*
X164348144Y-62574839D02*
X164500525Y-62536743D01*
X164500525Y-62536743D02*
X164614811Y-62536743D01*
X164614811Y-62536743D02*
X164767192Y-62574839D01*
X164767192Y-62574839D02*
X164843382Y-62612934D01*
X164843382Y-62612934D02*
X164919573Y-62689124D01*
X164919573Y-62689124D02*
X164957668Y-62803410D01*
X164957668Y-62803410D02*
X164957668Y-62879601D01*
X164957668Y-62879601D02*
X164919573Y-62993886D01*
X164919573Y-62993886D02*
X164881477Y-63031982D01*
X164881477Y-63031982D02*
X164614811Y-63031982D01*
X164614811Y-63031982D02*
X164614811Y-62879601D01*
X164957668Y-63374839D02*
X164157668Y-63374839D01*
X164157668Y-63374839D02*
X164157668Y-63679601D01*
X164157668Y-63679601D02*
X164195763Y-63755791D01*
X164195763Y-63755791D02*
X164233858Y-63793886D01*
X164233858Y-63793886D02*
X164310049Y-63831982D01*
X164310049Y-63831982D02*
X164424334Y-63831982D01*
X164424334Y-63831982D02*
X164500525Y-63793886D01*
X164500525Y-63793886D02*
X164538620Y-63755791D01*
X164538620Y-63755791D02*
X164576715Y-63679601D01*
X164576715Y-63679601D02*
X164576715Y-63374839D01*
X164957668Y-64593886D02*
X164957668Y-64136743D01*
X164957668Y-64365315D02*
X164157668Y-64365315D01*
X164157668Y-64365315D02*
X164271953Y-64289124D01*
X164271953Y-64289124D02*
X164348144Y-64212934D01*
X164348144Y-64212934D02*
X164386239Y-64136743D01*
X164957668Y-64974839D02*
X164957668Y-65127220D01*
X164957668Y-65127220D02*
X164919573Y-65203410D01*
X164919573Y-65203410D02*
X164881477Y-65241506D01*
X164881477Y-65241506D02*
X164767192Y-65317696D01*
X164767192Y-65317696D02*
X164614811Y-65355791D01*
X164614811Y-65355791D02*
X164310049Y-65355791D01*
X164310049Y-65355791D02*
X164233858Y-65317696D01*
X164233858Y-65317696D02*
X164195763Y-65279601D01*
X164195763Y-65279601D02*
X164157668Y-65203410D01*
X164157668Y-65203410D02*
X164157668Y-65051029D01*
X164157668Y-65051029D02*
X164195763Y-64974839D01*
X164195763Y-64974839D02*
X164233858Y-64936744D01*
X164233858Y-64936744D02*
X164310049Y-64898648D01*
X164310049Y-64898648D02*
X164500525Y-64898648D01*
X164500525Y-64898648D02*
X164576715Y-64936744D01*
X164576715Y-64936744D02*
X164614811Y-64974839D01*
X164614811Y-64974839D02*
X164652906Y-65051029D01*
X164652906Y-65051029D02*
X164652906Y-65203410D01*
X164652906Y-65203410D02*
X164614811Y-65279601D01*
X164614811Y-65279601D02*
X164576715Y-65317696D01*
X164576715Y-65317696D02*
X164500525Y-65355791D01*
X143875763Y-74916744D02*
X143837668Y-74840554D01*
X143837668Y-74840554D02*
X143837668Y-74726268D01*
X143837668Y-74726268D02*
X143875763Y-74611982D01*
X143875763Y-74611982D02*
X143951953Y-74535792D01*
X143951953Y-74535792D02*
X144028144Y-74497697D01*
X144028144Y-74497697D02*
X144180525Y-74459601D01*
X144180525Y-74459601D02*
X144294811Y-74459601D01*
X144294811Y-74459601D02*
X144447192Y-74497697D01*
X144447192Y-74497697D02*
X144523382Y-74535792D01*
X144523382Y-74535792D02*
X144599573Y-74611982D01*
X144599573Y-74611982D02*
X144637668Y-74726268D01*
X144637668Y-74726268D02*
X144637668Y-74802459D01*
X144637668Y-74802459D02*
X144599573Y-74916744D01*
X144599573Y-74916744D02*
X144561477Y-74954840D01*
X144561477Y-74954840D02*
X144294811Y-74954840D01*
X144294811Y-74954840D02*
X144294811Y-74802459D01*
X144637668Y-75297697D02*
X143837668Y-75297697D01*
X143837668Y-75297697D02*
X144637668Y-75754840D01*
X144637668Y-75754840D02*
X143837668Y-75754840D01*
X144637668Y-76135792D02*
X143837668Y-76135792D01*
X143837668Y-76135792D02*
X143837668Y-76326268D01*
X143837668Y-76326268D02*
X143875763Y-76440554D01*
X143875763Y-76440554D02*
X143951953Y-76516744D01*
X143951953Y-76516744D02*
X144028144Y-76554839D01*
X144028144Y-76554839D02*
X144180525Y-76592935D01*
X144180525Y-76592935D02*
X144294811Y-76592935D01*
X144294811Y-76592935D02*
X144447192Y-76554839D01*
X144447192Y-76554839D02*
X144523382Y-76516744D01*
X144523382Y-76516744D02*
X144599573Y-76440554D01*
X144599573Y-76440554D02*
X144637668Y-76326268D01*
X144637668Y-76326268D02*
X144637668Y-76135792D01*
X139329096Y-62453410D02*
X139329096Y-62834363D01*
X139557668Y-62377220D02*
X138757668Y-62643887D01*
X138757668Y-62643887D02*
X139557668Y-62910553D01*
X139557668Y-63177220D02*
X138757668Y-63177220D01*
X138757668Y-63177220D02*
X138757668Y-63367696D01*
X138757668Y-63367696D02*
X138795763Y-63481982D01*
X138795763Y-63481982D02*
X138871953Y-63558172D01*
X138871953Y-63558172D02*
X138948144Y-63596267D01*
X138948144Y-63596267D02*
X139100525Y-63634363D01*
X139100525Y-63634363D02*
X139214811Y-63634363D01*
X139214811Y-63634363D02*
X139367192Y-63596267D01*
X139367192Y-63596267D02*
X139443382Y-63558172D01*
X139443382Y-63558172D02*
X139519573Y-63481982D01*
X139519573Y-63481982D02*
X139557668Y-63367696D01*
X139557668Y-63367696D02*
X139557668Y-63177220D01*
X139481477Y-64434363D02*
X139519573Y-64396267D01*
X139519573Y-64396267D02*
X139557668Y-64281982D01*
X139557668Y-64281982D02*
X139557668Y-64205791D01*
X139557668Y-64205791D02*
X139519573Y-64091505D01*
X139519573Y-64091505D02*
X139443382Y-64015315D01*
X139443382Y-64015315D02*
X139367192Y-63977220D01*
X139367192Y-63977220D02*
X139214811Y-63939124D01*
X139214811Y-63939124D02*
X139100525Y-63939124D01*
X139100525Y-63939124D02*
X138948144Y-63977220D01*
X138948144Y-63977220D02*
X138871953Y-64015315D01*
X138871953Y-64015315D02*
X138795763Y-64091505D01*
X138795763Y-64091505D02*
X138757668Y-64205791D01*
X138757668Y-64205791D02*
X138757668Y-64281982D01*
X138757668Y-64281982D02*
X138795763Y-64396267D01*
X138795763Y-64396267D02*
X138833858Y-64434363D01*
X139633858Y-64586744D02*
X139633858Y-65196267D01*
X138757668Y-65272458D02*
X139557668Y-65539125D01*
X139557668Y-65539125D02*
X138757668Y-65805791D01*
X139557668Y-66529601D02*
X139176715Y-66262934D01*
X139557668Y-66072458D02*
X138757668Y-66072458D01*
X138757668Y-66072458D02*
X138757668Y-66377220D01*
X138757668Y-66377220D02*
X138795763Y-66453410D01*
X138795763Y-66453410D02*
X138833858Y-66491505D01*
X138833858Y-66491505D02*
X138910049Y-66529601D01*
X138910049Y-66529601D02*
X139024334Y-66529601D01*
X139024334Y-66529601D02*
X139100525Y-66491505D01*
X139100525Y-66491505D02*
X139138620Y-66453410D01*
X139138620Y-66453410D02*
X139176715Y-66377220D01*
X139176715Y-66377220D02*
X139176715Y-66072458D01*
X139138620Y-66872458D02*
X139138620Y-67139124D01*
X139557668Y-67253410D02*
X139557668Y-66872458D01*
X139557668Y-66872458D02*
X138757668Y-66872458D01*
X138757668Y-66872458D02*
X138757668Y-67253410D01*
X139138620Y-67862934D02*
X139138620Y-67596268D01*
X139557668Y-67596268D02*
X138757668Y-67596268D01*
X138757668Y-67596268D02*
X138757668Y-67977220D01*
X156575763Y-74916744D02*
X156537668Y-74840554D01*
X156537668Y-74840554D02*
X156537668Y-74726268D01*
X156537668Y-74726268D02*
X156575763Y-74611982D01*
X156575763Y-74611982D02*
X156651953Y-74535792D01*
X156651953Y-74535792D02*
X156728144Y-74497697D01*
X156728144Y-74497697D02*
X156880525Y-74459601D01*
X156880525Y-74459601D02*
X156994811Y-74459601D01*
X156994811Y-74459601D02*
X157147192Y-74497697D01*
X157147192Y-74497697D02*
X157223382Y-74535792D01*
X157223382Y-74535792D02*
X157299573Y-74611982D01*
X157299573Y-74611982D02*
X157337668Y-74726268D01*
X157337668Y-74726268D02*
X157337668Y-74802459D01*
X157337668Y-74802459D02*
X157299573Y-74916744D01*
X157299573Y-74916744D02*
X157261477Y-74954840D01*
X157261477Y-74954840D02*
X156994811Y-74954840D01*
X156994811Y-74954840D02*
X156994811Y-74802459D01*
X157337668Y-75297697D02*
X156537668Y-75297697D01*
X156537668Y-75297697D02*
X157337668Y-75754840D01*
X157337668Y-75754840D02*
X156537668Y-75754840D01*
X157337668Y-76135792D02*
X156537668Y-76135792D01*
X156537668Y-76135792D02*
X156537668Y-76326268D01*
X156537668Y-76326268D02*
X156575763Y-76440554D01*
X156575763Y-76440554D02*
X156651953Y-76516744D01*
X156651953Y-76516744D02*
X156728144Y-76554839D01*
X156728144Y-76554839D02*
X156880525Y-76592935D01*
X156880525Y-76592935D02*
X156994811Y-76592935D01*
X156994811Y-76592935D02*
X157147192Y-76554839D01*
X157147192Y-76554839D02*
X157223382Y-76516744D01*
X157223382Y-76516744D02*
X157299573Y-76440554D01*
X157299573Y-76440554D02*
X157337668Y-76326268D01*
X157337668Y-76326268D02*
X157337668Y-76135792D01*
X159125763Y-62993886D02*
X159087668Y-62917696D01*
X159087668Y-62917696D02*
X159087668Y-62803410D01*
X159087668Y-62803410D02*
X159125763Y-62689124D01*
X159125763Y-62689124D02*
X159201953Y-62612934D01*
X159201953Y-62612934D02*
X159278144Y-62574839D01*
X159278144Y-62574839D02*
X159430525Y-62536743D01*
X159430525Y-62536743D02*
X159544811Y-62536743D01*
X159544811Y-62536743D02*
X159697192Y-62574839D01*
X159697192Y-62574839D02*
X159773382Y-62612934D01*
X159773382Y-62612934D02*
X159849573Y-62689124D01*
X159849573Y-62689124D02*
X159887668Y-62803410D01*
X159887668Y-62803410D02*
X159887668Y-62879601D01*
X159887668Y-62879601D02*
X159849573Y-62993886D01*
X159849573Y-62993886D02*
X159811477Y-63031982D01*
X159811477Y-63031982D02*
X159544811Y-63031982D01*
X159544811Y-63031982D02*
X159544811Y-62879601D01*
X159887668Y-63374839D02*
X159087668Y-63374839D01*
X159087668Y-63374839D02*
X159087668Y-63679601D01*
X159087668Y-63679601D02*
X159125763Y-63755791D01*
X159125763Y-63755791D02*
X159163858Y-63793886D01*
X159163858Y-63793886D02*
X159240049Y-63831982D01*
X159240049Y-63831982D02*
X159354334Y-63831982D01*
X159354334Y-63831982D02*
X159430525Y-63793886D01*
X159430525Y-63793886D02*
X159468620Y-63755791D01*
X159468620Y-63755791D02*
X159506715Y-63679601D01*
X159506715Y-63679601D02*
X159506715Y-63374839D01*
X159163858Y-64136743D02*
X159125763Y-64174839D01*
X159125763Y-64174839D02*
X159087668Y-64251029D01*
X159087668Y-64251029D02*
X159087668Y-64441505D01*
X159087668Y-64441505D02*
X159125763Y-64517696D01*
X159125763Y-64517696D02*
X159163858Y-64555791D01*
X159163858Y-64555791D02*
X159240049Y-64593886D01*
X159240049Y-64593886D02*
X159316239Y-64593886D01*
X159316239Y-64593886D02*
X159430525Y-64555791D01*
X159430525Y-64555791D02*
X159887668Y-64098648D01*
X159887668Y-64098648D02*
X159887668Y-64593886D01*
X159887668Y-65355791D02*
X159887668Y-64898648D01*
X159887668Y-65127220D02*
X159087668Y-65127220D01*
X159087668Y-65127220D02*
X159201953Y-65051029D01*
X159201953Y-65051029D02*
X159278144Y-64974839D01*
X159278144Y-64974839D02*
X159316239Y-64898648D01*
X151495763Y-74954839D02*
X151457668Y-74878649D01*
X151457668Y-74878649D02*
X151457668Y-74764363D01*
X151457668Y-74764363D02*
X151495763Y-74650077D01*
X151495763Y-74650077D02*
X151571953Y-74573887D01*
X151571953Y-74573887D02*
X151648144Y-74535792D01*
X151648144Y-74535792D02*
X151800525Y-74497696D01*
X151800525Y-74497696D02*
X151914811Y-74497696D01*
X151914811Y-74497696D02*
X152067192Y-74535792D01*
X152067192Y-74535792D02*
X152143382Y-74573887D01*
X152143382Y-74573887D02*
X152219573Y-74650077D01*
X152219573Y-74650077D02*
X152257668Y-74764363D01*
X152257668Y-74764363D02*
X152257668Y-74840554D01*
X152257668Y-74840554D02*
X152219573Y-74954839D01*
X152219573Y-74954839D02*
X152181477Y-74992935D01*
X152181477Y-74992935D02*
X151914811Y-74992935D01*
X151914811Y-74992935D02*
X151914811Y-74840554D01*
X152257668Y-75335792D02*
X151457668Y-75335792D01*
X151457668Y-75335792D02*
X151457668Y-75640554D01*
X151457668Y-75640554D02*
X151495763Y-75716744D01*
X151495763Y-75716744D02*
X151533858Y-75754839D01*
X151533858Y-75754839D02*
X151610049Y-75792935D01*
X151610049Y-75792935D02*
X151724334Y-75792935D01*
X151724334Y-75792935D02*
X151800525Y-75754839D01*
X151800525Y-75754839D02*
X151838620Y-75716744D01*
X151838620Y-75716744D02*
X151876715Y-75640554D01*
X151876715Y-75640554D02*
X151876715Y-75335792D01*
X151800525Y-76250077D02*
X151762430Y-76173887D01*
X151762430Y-76173887D02*
X151724334Y-76135792D01*
X151724334Y-76135792D02*
X151648144Y-76097696D01*
X151648144Y-76097696D02*
X151610049Y-76097696D01*
X151610049Y-76097696D02*
X151533858Y-76135792D01*
X151533858Y-76135792D02*
X151495763Y-76173887D01*
X151495763Y-76173887D02*
X151457668Y-76250077D01*
X151457668Y-76250077D02*
X151457668Y-76402458D01*
X151457668Y-76402458D02*
X151495763Y-76478649D01*
X151495763Y-76478649D02*
X151533858Y-76516744D01*
X151533858Y-76516744D02*
X151610049Y-76554839D01*
X151610049Y-76554839D02*
X151648144Y-76554839D01*
X151648144Y-76554839D02*
X151724334Y-76516744D01*
X151724334Y-76516744D02*
X151762430Y-76478649D01*
X151762430Y-76478649D02*
X151800525Y-76402458D01*
X151800525Y-76402458D02*
X151800525Y-76250077D01*
X151800525Y-76250077D02*
X151838620Y-76173887D01*
X151838620Y-76173887D02*
X151876715Y-76135792D01*
X151876715Y-76135792D02*
X151952906Y-76097696D01*
X151952906Y-76097696D02*
X152105287Y-76097696D01*
X152105287Y-76097696D02*
X152181477Y-76135792D01*
X152181477Y-76135792D02*
X152219573Y-76173887D01*
X152219573Y-76173887D02*
X152257668Y-76250077D01*
X152257668Y-76250077D02*
X152257668Y-76402458D01*
X152257668Y-76402458D02*
X152219573Y-76478649D01*
X152219573Y-76478649D02*
X152181477Y-76516744D01*
X152181477Y-76516744D02*
X152105287Y-76554839D01*
X152105287Y-76554839D02*
X151952906Y-76554839D01*
X151952906Y-76554839D02*
X151876715Y-76516744D01*
X151876715Y-76516744D02*
X151838620Y-76478649D01*
X151838620Y-76478649D02*
X151800525Y-76402458D01*
X172684897Y-72350468D02*
X172570611Y-72388563D01*
X172570611Y-72388563D02*
X172380135Y-72388563D01*
X172380135Y-72388563D02*
X172303944Y-72350468D01*
X172303944Y-72350468D02*
X172265849Y-72312372D01*
X172265849Y-72312372D02*
X172227754Y-72236182D01*
X172227754Y-72236182D02*
X172227754Y-72159991D01*
X172227754Y-72159991D02*
X172265849Y-72083801D01*
X172265849Y-72083801D02*
X172303944Y-72045706D01*
X172303944Y-72045706D02*
X172380135Y-72007610D01*
X172380135Y-72007610D02*
X172532516Y-71969515D01*
X172532516Y-71969515D02*
X172608706Y-71931420D01*
X172608706Y-71931420D02*
X172646801Y-71893325D01*
X172646801Y-71893325D02*
X172684897Y-71817134D01*
X172684897Y-71817134D02*
X172684897Y-71740944D01*
X172684897Y-71740944D02*
X172646801Y-71664753D01*
X172646801Y-71664753D02*
X172608706Y-71626658D01*
X172608706Y-71626658D02*
X172532516Y-71588563D01*
X172532516Y-71588563D02*
X172342039Y-71588563D01*
X172342039Y-71588563D02*
X172227754Y-71626658D01*
X171961087Y-71588563D02*
X171770611Y-72388563D01*
X171770611Y-72388563D02*
X171618230Y-71817134D01*
X171618230Y-71817134D02*
X171465849Y-72388563D01*
X171465849Y-72388563D02*
X171275373Y-71588563D01*
X170513467Y-72312372D02*
X170551563Y-72350468D01*
X170551563Y-72350468D02*
X170665848Y-72388563D01*
X170665848Y-72388563D02*
X170742039Y-72388563D01*
X170742039Y-72388563D02*
X170856325Y-72350468D01*
X170856325Y-72350468D02*
X170932515Y-72274277D01*
X170932515Y-72274277D02*
X170970610Y-72198087D01*
X170970610Y-72198087D02*
X171008706Y-72045706D01*
X171008706Y-72045706D02*
X171008706Y-71931420D01*
X171008706Y-71931420D02*
X170970610Y-71779039D01*
X170970610Y-71779039D02*
X170932515Y-71702848D01*
X170932515Y-71702848D02*
X170856325Y-71626658D01*
X170856325Y-71626658D02*
X170742039Y-71588563D01*
X170742039Y-71588563D02*
X170665848Y-71588563D01*
X170665848Y-71588563D02*
X170551563Y-71626658D01*
X170551563Y-71626658D02*
X170513467Y-71664753D01*
X169789658Y-72388563D02*
X170170610Y-72388563D01*
X170170610Y-72388563D02*
X170170610Y-71588563D01*
X169522991Y-72388563D02*
X169522991Y-71588563D01*
X169065848Y-72388563D02*
X169408706Y-71931420D01*
X169065848Y-71588563D02*
X169522991Y-72045706D01*
X126057668Y-62229601D02*
X126857668Y-62496268D01*
X126857668Y-62496268D02*
X126057668Y-62762934D01*
X126438620Y-63296267D02*
X126476715Y-63410553D01*
X126476715Y-63410553D02*
X126514811Y-63448648D01*
X126514811Y-63448648D02*
X126591001Y-63486744D01*
X126591001Y-63486744D02*
X126705287Y-63486744D01*
X126705287Y-63486744D02*
X126781477Y-63448648D01*
X126781477Y-63448648D02*
X126819573Y-63410553D01*
X126819573Y-63410553D02*
X126857668Y-63334363D01*
X126857668Y-63334363D02*
X126857668Y-63029601D01*
X126857668Y-63029601D02*
X126057668Y-63029601D01*
X126057668Y-63029601D02*
X126057668Y-63296267D01*
X126057668Y-63296267D02*
X126095763Y-63372458D01*
X126095763Y-63372458D02*
X126133858Y-63410553D01*
X126133858Y-63410553D02*
X126210049Y-63448648D01*
X126210049Y-63448648D02*
X126286239Y-63448648D01*
X126286239Y-63448648D02*
X126362430Y-63410553D01*
X126362430Y-63410553D02*
X126400525Y-63372458D01*
X126400525Y-63372458D02*
X126438620Y-63296267D01*
X126438620Y-63296267D02*
X126438620Y-63029601D01*
X126057668Y-63829601D02*
X126705287Y-63829601D01*
X126705287Y-63829601D02*
X126781477Y-63867696D01*
X126781477Y-63867696D02*
X126819573Y-63905791D01*
X126819573Y-63905791D02*
X126857668Y-63981982D01*
X126857668Y-63981982D02*
X126857668Y-64134363D01*
X126857668Y-64134363D02*
X126819573Y-64210553D01*
X126819573Y-64210553D02*
X126781477Y-64248648D01*
X126781477Y-64248648D02*
X126705287Y-64286744D01*
X126705287Y-64286744D02*
X126057668Y-64286744D01*
X126819573Y-64629600D02*
X126857668Y-64743886D01*
X126857668Y-64743886D02*
X126857668Y-64934362D01*
X126857668Y-64934362D02*
X126819573Y-65010553D01*
X126819573Y-65010553D02*
X126781477Y-65048648D01*
X126781477Y-65048648D02*
X126705287Y-65086743D01*
X126705287Y-65086743D02*
X126629096Y-65086743D01*
X126629096Y-65086743D02*
X126552906Y-65048648D01*
X126552906Y-65048648D02*
X126514811Y-65010553D01*
X126514811Y-65010553D02*
X126476715Y-64934362D01*
X126476715Y-64934362D02*
X126438620Y-64781981D01*
X126438620Y-64781981D02*
X126400525Y-64705791D01*
X126400525Y-64705791D02*
X126362430Y-64667696D01*
X126362430Y-64667696D02*
X126286239Y-64629600D01*
X126286239Y-64629600D02*
X126210049Y-64629600D01*
X126210049Y-64629600D02*
X126133858Y-64667696D01*
X126133858Y-64667696D02*
X126095763Y-64705791D01*
X126095763Y-64705791D02*
X126057668Y-64781981D01*
X126057668Y-64781981D02*
X126057668Y-64972458D01*
X126057668Y-64972458D02*
X126095763Y-65086743D01*
X156575763Y-62986744D02*
X156537668Y-62910554D01*
X156537668Y-62910554D02*
X156537668Y-62796268D01*
X156537668Y-62796268D02*
X156575763Y-62681982D01*
X156575763Y-62681982D02*
X156651953Y-62605792D01*
X156651953Y-62605792D02*
X156728144Y-62567697D01*
X156728144Y-62567697D02*
X156880525Y-62529601D01*
X156880525Y-62529601D02*
X156994811Y-62529601D01*
X156994811Y-62529601D02*
X157147192Y-62567697D01*
X157147192Y-62567697D02*
X157223382Y-62605792D01*
X157223382Y-62605792D02*
X157299573Y-62681982D01*
X157299573Y-62681982D02*
X157337668Y-62796268D01*
X157337668Y-62796268D02*
X157337668Y-62872459D01*
X157337668Y-62872459D02*
X157299573Y-62986744D01*
X157299573Y-62986744D02*
X157261477Y-63024840D01*
X157261477Y-63024840D02*
X156994811Y-63024840D01*
X156994811Y-63024840D02*
X156994811Y-62872459D01*
X157337668Y-63367697D02*
X156537668Y-63367697D01*
X156537668Y-63367697D02*
X157337668Y-63824840D01*
X157337668Y-63824840D02*
X156537668Y-63824840D01*
X157337668Y-64205792D02*
X156537668Y-64205792D01*
X156537668Y-64205792D02*
X156537668Y-64396268D01*
X156537668Y-64396268D02*
X156575763Y-64510554D01*
X156575763Y-64510554D02*
X156651953Y-64586744D01*
X156651953Y-64586744D02*
X156728144Y-64624839D01*
X156728144Y-64624839D02*
X156880525Y-64662935D01*
X156880525Y-64662935D02*
X156994811Y-64662935D01*
X156994811Y-64662935D02*
X157147192Y-64624839D01*
X157147192Y-64624839D02*
X157223382Y-64586744D01*
X157223382Y-64586744D02*
X157299573Y-64510554D01*
X157299573Y-64510554D02*
X157337668Y-64396268D01*
X157337668Y-64396268D02*
X157337668Y-64205792D01*
X169275763Y-62986744D02*
X169237668Y-62910554D01*
X169237668Y-62910554D02*
X169237668Y-62796268D01*
X169237668Y-62796268D02*
X169275763Y-62681982D01*
X169275763Y-62681982D02*
X169351953Y-62605792D01*
X169351953Y-62605792D02*
X169428144Y-62567697D01*
X169428144Y-62567697D02*
X169580525Y-62529601D01*
X169580525Y-62529601D02*
X169694811Y-62529601D01*
X169694811Y-62529601D02*
X169847192Y-62567697D01*
X169847192Y-62567697D02*
X169923382Y-62605792D01*
X169923382Y-62605792D02*
X169999573Y-62681982D01*
X169999573Y-62681982D02*
X170037668Y-62796268D01*
X170037668Y-62796268D02*
X170037668Y-62872459D01*
X170037668Y-62872459D02*
X169999573Y-62986744D01*
X169999573Y-62986744D02*
X169961477Y-63024840D01*
X169961477Y-63024840D02*
X169694811Y-63024840D01*
X169694811Y-63024840D02*
X169694811Y-62872459D01*
X170037668Y-63367697D02*
X169237668Y-63367697D01*
X169237668Y-63367697D02*
X170037668Y-63824840D01*
X170037668Y-63824840D02*
X169237668Y-63824840D01*
X170037668Y-64205792D02*
X169237668Y-64205792D01*
X169237668Y-64205792D02*
X169237668Y-64396268D01*
X169237668Y-64396268D02*
X169275763Y-64510554D01*
X169275763Y-64510554D02*
X169351953Y-64586744D01*
X169351953Y-64586744D02*
X169428144Y-64624839D01*
X169428144Y-64624839D02*
X169580525Y-64662935D01*
X169580525Y-64662935D02*
X169694811Y-64662935D01*
X169694811Y-64662935D02*
X169847192Y-64624839D01*
X169847192Y-64624839D02*
X169923382Y-64586744D01*
X169923382Y-64586744D02*
X169999573Y-64510554D01*
X169999573Y-64510554D02*
X170037668Y-64396268D01*
X170037668Y-64396268D02*
X170037668Y-64205792D01*
X148925763Y-74954839D02*
X148887668Y-74878649D01*
X148887668Y-74878649D02*
X148887668Y-74764363D01*
X148887668Y-74764363D02*
X148925763Y-74650077D01*
X148925763Y-74650077D02*
X149001953Y-74573887D01*
X149001953Y-74573887D02*
X149078144Y-74535792D01*
X149078144Y-74535792D02*
X149230525Y-74497696D01*
X149230525Y-74497696D02*
X149344811Y-74497696D01*
X149344811Y-74497696D02*
X149497192Y-74535792D01*
X149497192Y-74535792D02*
X149573382Y-74573887D01*
X149573382Y-74573887D02*
X149649573Y-74650077D01*
X149649573Y-74650077D02*
X149687668Y-74764363D01*
X149687668Y-74764363D02*
X149687668Y-74840554D01*
X149687668Y-74840554D02*
X149649573Y-74954839D01*
X149649573Y-74954839D02*
X149611477Y-74992935D01*
X149611477Y-74992935D02*
X149344811Y-74992935D01*
X149344811Y-74992935D02*
X149344811Y-74840554D01*
X149687668Y-75335792D02*
X148887668Y-75335792D01*
X148887668Y-75335792D02*
X148887668Y-75640554D01*
X148887668Y-75640554D02*
X148925763Y-75716744D01*
X148925763Y-75716744D02*
X148963858Y-75754839D01*
X148963858Y-75754839D02*
X149040049Y-75792935D01*
X149040049Y-75792935D02*
X149154334Y-75792935D01*
X149154334Y-75792935D02*
X149230525Y-75754839D01*
X149230525Y-75754839D02*
X149268620Y-75716744D01*
X149268620Y-75716744D02*
X149306715Y-75640554D01*
X149306715Y-75640554D02*
X149306715Y-75335792D01*
X148887668Y-76059601D02*
X148887668Y-76592935D01*
X148887668Y-76592935D02*
X149687668Y-76250077D01*
X131175763Y-74916744D02*
X131137668Y-74840554D01*
X131137668Y-74840554D02*
X131137668Y-74726268D01*
X131137668Y-74726268D02*
X131175763Y-74611982D01*
X131175763Y-74611982D02*
X131251953Y-74535792D01*
X131251953Y-74535792D02*
X131328144Y-74497697D01*
X131328144Y-74497697D02*
X131480525Y-74459601D01*
X131480525Y-74459601D02*
X131594811Y-74459601D01*
X131594811Y-74459601D02*
X131747192Y-74497697D01*
X131747192Y-74497697D02*
X131823382Y-74535792D01*
X131823382Y-74535792D02*
X131899573Y-74611982D01*
X131899573Y-74611982D02*
X131937668Y-74726268D01*
X131937668Y-74726268D02*
X131937668Y-74802459D01*
X131937668Y-74802459D02*
X131899573Y-74916744D01*
X131899573Y-74916744D02*
X131861477Y-74954840D01*
X131861477Y-74954840D02*
X131594811Y-74954840D01*
X131594811Y-74954840D02*
X131594811Y-74802459D01*
X131937668Y-75297697D02*
X131137668Y-75297697D01*
X131137668Y-75297697D02*
X131937668Y-75754840D01*
X131937668Y-75754840D02*
X131137668Y-75754840D01*
X131937668Y-76135792D02*
X131137668Y-76135792D01*
X131137668Y-76135792D02*
X131137668Y-76326268D01*
X131137668Y-76326268D02*
X131175763Y-76440554D01*
X131175763Y-76440554D02*
X131251953Y-76516744D01*
X131251953Y-76516744D02*
X131328144Y-76554839D01*
X131328144Y-76554839D02*
X131480525Y-76592935D01*
X131480525Y-76592935D02*
X131594811Y-76592935D01*
X131594811Y-76592935D02*
X131747192Y-76554839D01*
X131747192Y-76554839D02*
X131823382Y-76516744D01*
X131823382Y-76516744D02*
X131899573Y-76440554D01*
X131899573Y-76440554D02*
X131937668Y-76326268D01*
X131937668Y-76326268D02*
X131937668Y-76135792D01*
X126095763Y-74954839D02*
X126057668Y-74878649D01*
X126057668Y-74878649D02*
X126057668Y-74764363D01*
X126057668Y-74764363D02*
X126095763Y-74650077D01*
X126095763Y-74650077D02*
X126171953Y-74573887D01*
X126171953Y-74573887D02*
X126248144Y-74535792D01*
X126248144Y-74535792D02*
X126400525Y-74497696D01*
X126400525Y-74497696D02*
X126514811Y-74497696D01*
X126514811Y-74497696D02*
X126667192Y-74535792D01*
X126667192Y-74535792D02*
X126743382Y-74573887D01*
X126743382Y-74573887D02*
X126819573Y-74650077D01*
X126819573Y-74650077D02*
X126857668Y-74764363D01*
X126857668Y-74764363D02*
X126857668Y-74840554D01*
X126857668Y-74840554D02*
X126819573Y-74954839D01*
X126819573Y-74954839D02*
X126781477Y-74992935D01*
X126781477Y-74992935D02*
X126514811Y-74992935D01*
X126514811Y-74992935D02*
X126514811Y-74840554D01*
X126857668Y-75335792D02*
X126057668Y-75335792D01*
X126057668Y-75335792D02*
X126057668Y-75640554D01*
X126057668Y-75640554D02*
X126095763Y-75716744D01*
X126095763Y-75716744D02*
X126133858Y-75754839D01*
X126133858Y-75754839D02*
X126210049Y-75792935D01*
X126210049Y-75792935D02*
X126324334Y-75792935D01*
X126324334Y-75792935D02*
X126400525Y-75754839D01*
X126400525Y-75754839D02*
X126438620Y-75716744D01*
X126438620Y-75716744D02*
X126476715Y-75640554D01*
X126476715Y-75640554D02*
X126476715Y-75335792D01*
X126057668Y-76288173D02*
X126057668Y-76364363D01*
X126057668Y-76364363D02*
X126095763Y-76440554D01*
X126095763Y-76440554D02*
X126133858Y-76478649D01*
X126133858Y-76478649D02*
X126210049Y-76516744D01*
X126210049Y-76516744D02*
X126362430Y-76554839D01*
X126362430Y-76554839D02*
X126552906Y-76554839D01*
X126552906Y-76554839D02*
X126705287Y-76516744D01*
X126705287Y-76516744D02*
X126781477Y-76478649D01*
X126781477Y-76478649D02*
X126819573Y-76440554D01*
X126819573Y-76440554D02*
X126857668Y-76364363D01*
X126857668Y-76364363D02*
X126857668Y-76288173D01*
X126857668Y-76288173D02*
X126819573Y-76211982D01*
X126819573Y-76211982D02*
X126781477Y-76173887D01*
X126781477Y-76173887D02*
X126705287Y-76135792D01*
X126705287Y-76135792D02*
X126552906Y-76097696D01*
X126552906Y-76097696D02*
X126362430Y-76097696D01*
X126362430Y-76097696D02*
X126210049Y-76135792D01*
X126210049Y-76135792D02*
X126133858Y-76173887D01*
X126133858Y-76173887D02*
X126095763Y-76211982D01*
X126095763Y-76211982D02*
X126057668Y-76288173D01*
X171815763Y-74223886D02*
X171777668Y-74147696D01*
X171777668Y-74147696D02*
X171777668Y-74033410D01*
X171777668Y-74033410D02*
X171815763Y-73919124D01*
X171815763Y-73919124D02*
X171891953Y-73842934D01*
X171891953Y-73842934D02*
X171968144Y-73804839D01*
X171968144Y-73804839D02*
X172120525Y-73766743D01*
X172120525Y-73766743D02*
X172234811Y-73766743D01*
X172234811Y-73766743D02*
X172387192Y-73804839D01*
X172387192Y-73804839D02*
X172463382Y-73842934D01*
X172463382Y-73842934D02*
X172539573Y-73919124D01*
X172539573Y-73919124D02*
X172577668Y-74033410D01*
X172577668Y-74033410D02*
X172577668Y-74109601D01*
X172577668Y-74109601D02*
X172539573Y-74223886D01*
X172539573Y-74223886D02*
X172501477Y-74261982D01*
X172501477Y-74261982D02*
X172234811Y-74261982D01*
X172234811Y-74261982D02*
X172234811Y-74109601D01*
X172577668Y-74604839D02*
X171777668Y-74604839D01*
X171777668Y-74604839D02*
X171777668Y-74909601D01*
X171777668Y-74909601D02*
X171815763Y-74985791D01*
X171815763Y-74985791D02*
X171853858Y-75023886D01*
X171853858Y-75023886D02*
X171930049Y-75061982D01*
X171930049Y-75061982D02*
X172044334Y-75061982D01*
X172044334Y-75061982D02*
X172120525Y-75023886D01*
X172120525Y-75023886D02*
X172158620Y-74985791D01*
X172158620Y-74985791D02*
X172196715Y-74909601D01*
X172196715Y-74909601D02*
X172196715Y-74604839D01*
X172577668Y-75823886D02*
X172577668Y-75366743D01*
X172577668Y-75595315D02*
X171777668Y-75595315D01*
X171777668Y-75595315D02*
X171891953Y-75519124D01*
X171891953Y-75519124D02*
X171968144Y-75442934D01*
X171968144Y-75442934D02*
X172006239Y-75366743D01*
X172044334Y-76509601D02*
X172577668Y-76509601D01*
X171739573Y-76319125D02*
X172311001Y-76128648D01*
X172311001Y-76128648D02*
X172311001Y-76623887D01*
X133715763Y-74954839D02*
X133677668Y-74878649D01*
X133677668Y-74878649D02*
X133677668Y-74764363D01*
X133677668Y-74764363D02*
X133715763Y-74650077D01*
X133715763Y-74650077D02*
X133791953Y-74573887D01*
X133791953Y-74573887D02*
X133868144Y-74535792D01*
X133868144Y-74535792D02*
X134020525Y-74497696D01*
X134020525Y-74497696D02*
X134134811Y-74497696D01*
X134134811Y-74497696D02*
X134287192Y-74535792D01*
X134287192Y-74535792D02*
X134363382Y-74573887D01*
X134363382Y-74573887D02*
X134439573Y-74650077D01*
X134439573Y-74650077D02*
X134477668Y-74764363D01*
X134477668Y-74764363D02*
X134477668Y-74840554D01*
X134477668Y-74840554D02*
X134439573Y-74954839D01*
X134439573Y-74954839D02*
X134401477Y-74992935D01*
X134401477Y-74992935D02*
X134134811Y-74992935D01*
X134134811Y-74992935D02*
X134134811Y-74840554D01*
X134477668Y-75335792D02*
X133677668Y-75335792D01*
X133677668Y-75335792D02*
X133677668Y-75640554D01*
X133677668Y-75640554D02*
X133715763Y-75716744D01*
X133715763Y-75716744D02*
X133753858Y-75754839D01*
X133753858Y-75754839D02*
X133830049Y-75792935D01*
X133830049Y-75792935D02*
X133944334Y-75792935D01*
X133944334Y-75792935D02*
X134020525Y-75754839D01*
X134020525Y-75754839D02*
X134058620Y-75716744D01*
X134058620Y-75716744D02*
X134096715Y-75640554D01*
X134096715Y-75640554D02*
X134096715Y-75335792D01*
X133753858Y-76097696D02*
X133715763Y-76135792D01*
X133715763Y-76135792D02*
X133677668Y-76211982D01*
X133677668Y-76211982D02*
X133677668Y-76402458D01*
X133677668Y-76402458D02*
X133715763Y-76478649D01*
X133715763Y-76478649D02*
X133753858Y-76516744D01*
X133753858Y-76516744D02*
X133830049Y-76554839D01*
X133830049Y-76554839D02*
X133906239Y-76554839D01*
X133906239Y-76554839D02*
X134020525Y-76516744D01*
X134020525Y-76516744D02*
X134477668Y-76059601D01*
X134477668Y-76059601D02*
X134477668Y-76554839D01*
X161655763Y-62993886D02*
X161617668Y-62917696D01*
X161617668Y-62917696D02*
X161617668Y-62803410D01*
X161617668Y-62803410D02*
X161655763Y-62689124D01*
X161655763Y-62689124D02*
X161731953Y-62612934D01*
X161731953Y-62612934D02*
X161808144Y-62574839D01*
X161808144Y-62574839D02*
X161960525Y-62536743D01*
X161960525Y-62536743D02*
X162074811Y-62536743D01*
X162074811Y-62536743D02*
X162227192Y-62574839D01*
X162227192Y-62574839D02*
X162303382Y-62612934D01*
X162303382Y-62612934D02*
X162379573Y-62689124D01*
X162379573Y-62689124D02*
X162417668Y-62803410D01*
X162417668Y-62803410D02*
X162417668Y-62879601D01*
X162417668Y-62879601D02*
X162379573Y-62993886D01*
X162379573Y-62993886D02*
X162341477Y-63031982D01*
X162341477Y-63031982D02*
X162074811Y-63031982D01*
X162074811Y-63031982D02*
X162074811Y-62879601D01*
X162417668Y-63374839D02*
X161617668Y-63374839D01*
X161617668Y-63374839D02*
X161617668Y-63679601D01*
X161617668Y-63679601D02*
X161655763Y-63755791D01*
X161655763Y-63755791D02*
X161693858Y-63793886D01*
X161693858Y-63793886D02*
X161770049Y-63831982D01*
X161770049Y-63831982D02*
X161884334Y-63831982D01*
X161884334Y-63831982D02*
X161960525Y-63793886D01*
X161960525Y-63793886D02*
X161998620Y-63755791D01*
X161998620Y-63755791D02*
X162036715Y-63679601D01*
X162036715Y-63679601D02*
X162036715Y-63374839D01*
X161693858Y-64136743D02*
X161655763Y-64174839D01*
X161655763Y-64174839D02*
X161617668Y-64251029D01*
X161617668Y-64251029D02*
X161617668Y-64441505D01*
X161617668Y-64441505D02*
X161655763Y-64517696D01*
X161655763Y-64517696D02*
X161693858Y-64555791D01*
X161693858Y-64555791D02*
X161770049Y-64593886D01*
X161770049Y-64593886D02*
X161846239Y-64593886D01*
X161846239Y-64593886D02*
X161960525Y-64555791D01*
X161960525Y-64555791D02*
X162417668Y-64098648D01*
X162417668Y-64098648D02*
X162417668Y-64593886D01*
X161617668Y-65089125D02*
X161617668Y-65165315D01*
X161617668Y-65165315D02*
X161655763Y-65241506D01*
X161655763Y-65241506D02*
X161693858Y-65279601D01*
X161693858Y-65279601D02*
X161770049Y-65317696D01*
X161770049Y-65317696D02*
X161922430Y-65355791D01*
X161922430Y-65355791D02*
X162112906Y-65355791D01*
X162112906Y-65355791D02*
X162265287Y-65317696D01*
X162265287Y-65317696D02*
X162341477Y-65279601D01*
X162341477Y-65279601D02*
X162379573Y-65241506D01*
X162379573Y-65241506D02*
X162417668Y-65165315D01*
X162417668Y-65165315D02*
X162417668Y-65089125D01*
X162417668Y-65089125D02*
X162379573Y-65012934D01*
X162379573Y-65012934D02*
X162341477Y-64974839D01*
X162341477Y-64974839D02*
X162265287Y-64936744D01*
X162265287Y-64936744D02*
X162112906Y-64898648D01*
X162112906Y-64898648D02*
X161922430Y-64898648D01*
X161922430Y-64898648D02*
X161770049Y-64936744D01*
X161770049Y-64936744D02*
X161693858Y-64974839D01*
X161693858Y-64974839D02*
X161655763Y-65012934D01*
X161655763Y-65012934D02*
X161617668Y-65089125D01*
X138795763Y-74954839D02*
X138757668Y-74878649D01*
X138757668Y-74878649D02*
X138757668Y-74764363D01*
X138757668Y-74764363D02*
X138795763Y-74650077D01*
X138795763Y-74650077D02*
X138871953Y-74573887D01*
X138871953Y-74573887D02*
X138948144Y-74535792D01*
X138948144Y-74535792D02*
X139100525Y-74497696D01*
X139100525Y-74497696D02*
X139214811Y-74497696D01*
X139214811Y-74497696D02*
X139367192Y-74535792D01*
X139367192Y-74535792D02*
X139443382Y-74573887D01*
X139443382Y-74573887D02*
X139519573Y-74650077D01*
X139519573Y-74650077D02*
X139557668Y-74764363D01*
X139557668Y-74764363D02*
X139557668Y-74840554D01*
X139557668Y-74840554D02*
X139519573Y-74954839D01*
X139519573Y-74954839D02*
X139481477Y-74992935D01*
X139481477Y-74992935D02*
X139214811Y-74992935D01*
X139214811Y-74992935D02*
X139214811Y-74840554D01*
X139557668Y-75335792D02*
X138757668Y-75335792D01*
X138757668Y-75335792D02*
X138757668Y-75640554D01*
X138757668Y-75640554D02*
X138795763Y-75716744D01*
X138795763Y-75716744D02*
X138833858Y-75754839D01*
X138833858Y-75754839D02*
X138910049Y-75792935D01*
X138910049Y-75792935D02*
X139024334Y-75792935D01*
X139024334Y-75792935D02*
X139100525Y-75754839D01*
X139100525Y-75754839D02*
X139138620Y-75716744D01*
X139138620Y-75716744D02*
X139176715Y-75640554D01*
X139176715Y-75640554D02*
X139176715Y-75335792D01*
X139024334Y-76478649D02*
X139557668Y-76478649D01*
X138719573Y-76288173D02*
X139291001Y-76097696D01*
X139291001Y-76097696D02*
X139291001Y-76592935D01*
X166735763Y-74223886D02*
X166697668Y-74147696D01*
X166697668Y-74147696D02*
X166697668Y-74033410D01*
X166697668Y-74033410D02*
X166735763Y-73919124D01*
X166735763Y-73919124D02*
X166811953Y-73842934D01*
X166811953Y-73842934D02*
X166888144Y-73804839D01*
X166888144Y-73804839D02*
X167040525Y-73766743D01*
X167040525Y-73766743D02*
X167154811Y-73766743D01*
X167154811Y-73766743D02*
X167307192Y-73804839D01*
X167307192Y-73804839D02*
X167383382Y-73842934D01*
X167383382Y-73842934D02*
X167459573Y-73919124D01*
X167459573Y-73919124D02*
X167497668Y-74033410D01*
X167497668Y-74033410D02*
X167497668Y-74109601D01*
X167497668Y-74109601D02*
X167459573Y-74223886D01*
X167459573Y-74223886D02*
X167421477Y-74261982D01*
X167421477Y-74261982D02*
X167154811Y-74261982D01*
X167154811Y-74261982D02*
X167154811Y-74109601D01*
X167497668Y-74604839D02*
X166697668Y-74604839D01*
X166697668Y-74604839D02*
X166697668Y-74909601D01*
X166697668Y-74909601D02*
X166735763Y-74985791D01*
X166735763Y-74985791D02*
X166773858Y-75023886D01*
X166773858Y-75023886D02*
X166850049Y-75061982D01*
X166850049Y-75061982D02*
X166964334Y-75061982D01*
X166964334Y-75061982D02*
X167040525Y-75023886D01*
X167040525Y-75023886D02*
X167078620Y-74985791D01*
X167078620Y-74985791D02*
X167116715Y-74909601D01*
X167116715Y-74909601D02*
X167116715Y-74604839D01*
X167497668Y-75823886D02*
X167497668Y-75366743D01*
X167497668Y-75595315D02*
X166697668Y-75595315D01*
X166697668Y-75595315D02*
X166811953Y-75519124D01*
X166811953Y-75519124D02*
X166888144Y-75442934D01*
X166888144Y-75442934D02*
X166926239Y-75366743D01*
X166697668Y-76090553D02*
X166697668Y-76585791D01*
X166697668Y-76585791D02*
X167002430Y-76319125D01*
X167002430Y-76319125D02*
X167002430Y-76433410D01*
X167002430Y-76433410D02*
X167040525Y-76509601D01*
X167040525Y-76509601D02*
X167078620Y-76547696D01*
X167078620Y-76547696D02*
X167154811Y-76585791D01*
X167154811Y-76585791D02*
X167345287Y-76585791D01*
X167345287Y-76585791D02*
X167421477Y-76547696D01*
X167421477Y-76547696D02*
X167459573Y-76509601D01*
X167459573Y-76509601D02*
X167497668Y-76433410D01*
X167497668Y-76433410D02*
X167497668Y-76204839D01*
X167497668Y-76204839D02*
X167459573Y-76128648D01*
X167459573Y-76128648D02*
X167421477Y-76090553D01*
X174355763Y-62993886D02*
X174317668Y-62917696D01*
X174317668Y-62917696D02*
X174317668Y-62803410D01*
X174317668Y-62803410D02*
X174355763Y-62689124D01*
X174355763Y-62689124D02*
X174431953Y-62612934D01*
X174431953Y-62612934D02*
X174508144Y-62574839D01*
X174508144Y-62574839D02*
X174660525Y-62536743D01*
X174660525Y-62536743D02*
X174774811Y-62536743D01*
X174774811Y-62536743D02*
X174927192Y-62574839D01*
X174927192Y-62574839D02*
X175003382Y-62612934D01*
X175003382Y-62612934D02*
X175079573Y-62689124D01*
X175079573Y-62689124D02*
X175117668Y-62803410D01*
X175117668Y-62803410D02*
X175117668Y-62879601D01*
X175117668Y-62879601D02*
X175079573Y-62993886D01*
X175079573Y-62993886D02*
X175041477Y-63031982D01*
X175041477Y-63031982D02*
X174774811Y-63031982D01*
X174774811Y-63031982D02*
X174774811Y-62879601D01*
X175117668Y-63374839D02*
X174317668Y-63374839D01*
X174317668Y-63374839D02*
X174317668Y-63679601D01*
X174317668Y-63679601D02*
X174355763Y-63755791D01*
X174355763Y-63755791D02*
X174393858Y-63793886D01*
X174393858Y-63793886D02*
X174470049Y-63831982D01*
X174470049Y-63831982D02*
X174584334Y-63831982D01*
X174584334Y-63831982D02*
X174660525Y-63793886D01*
X174660525Y-63793886D02*
X174698620Y-63755791D01*
X174698620Y-63755791D02*
X174736715Y-63679601D01*
X174736715Y-63679601D02*
X174736715Y-63374839D01*
X175117668Y-64593886D02*
X175117668Y-64136743D01*
X175117668Y-64365315D02*
X174317668Y-64365315D01*
X174317668Y-64365315D02*
X174431953Y-64289124D01*
X174431953Y-64289124D02*
X174508144Y-64212934D01*
X174508144Y-64212934D02*
X174546239Y-64136743D01*
X174317668Y-65279601D02*
X174317668Y-65127220D01*
X174317668Y-65127220D02*
X174355763Y-65051029D01*
X174355763Y-65051029D02*
X174393858Y-65012934D01*
X174393858Y-65012934D02*
X174508144Y-64936744D01*
X174508144Y-64936744D02*
X174660525Y-64898648D01*
X174660525Y-64898648D02*
X174965287Y-64898648D01*
X174965287Y-64898648D02*
X175041477Y-64936744D01*
X175041477Y-64936744D02*
X175079573Y-64974839D01*
X175079573Y-64974839D02*
X175117668Y-65051029D01*
X175117668Y-65051029D02*
X175117668Y-65203410D01*
X175117668Y-65203410D02*
X175079573Y-65279601D01*
X175079573Y-65279601D02*
X175041477Y-65317696D01*
X175041477Y-65317696D02*
X174965287Y-65355791D01*
X174965287Y-65355791D02*
X174774811Y-65355791D01*
X174774811Y-65355791D02*
X174698620Y-65317696D01*
X174698620Y-65317696D02*
X174660525Y-65279601D01*
X174660525Y-65279601D02*
X174622430Y-65203410D01*
X174622430Y-65203410D02*
X174622430Y-65051029D01*
X174622430Y-65051029D02*
X174660525Y-64974839D01*
X174660525Y-64974839D02*
X174698620Y-64936744D01*
X174698620Y-64936744D02*
X174774811Y-64898648D01*
X141335763Y-62993886D02*
X141297668Y-62917696D01*
X141297668Y-62917696D02*
X141297668Y-62803410D01*
X141297668Y-62803410D02*
X141335763Y-62689124D01*
X141335763Y-62689124D02*
X141411953Y-62612934D01*
X141411953Y-62612934D02*
X141488144Y-62574839D01*
X141488144Y-62574839D02*
X141640525Y-62536743D01*
X141640525Y-62536743D02*
X141754811Y-62536743D01*
X141754811Y-62536743D02*
X141907192Y-62574839D01*
X141907192Y-62574839D02*
X141983382Y-62612934D01*
X141983382Y-62612934D02*
X142059573Y-62689124D01*
X142059573Y-62689124D02*
X142097668Y-62803410D01*
X142097668Y-62803410D02*
X142097668Y-62879601D01*
X142097668Y-62879601D02*
X142059573Y-62993886D01*
X142059573Y-62993886D02*
X142021477Y-63031982D01*
X142021477Y-63031982D02*
X141754811Y-63031982D01*
X141754811Y-63031982D02*
X141754811Y-62879601D01*
X142097668Y-63374839D02*
X141297668Y-63374839D01*
X141297668Y-63374839D02*
X141297668Y-63679601D01*
X141297668Y-63679601D02*
X141335763Y-63755791D01*
X141335763Y-63755791D02*
X141373858Y-63793886D01*
X141373858Y-63793886D02*
X141450049Y-63831982D01*
X141450049Y-63831982D02*
X141564334Y-63831982D01*
X141564334Y-63831982D02*
X141640525Y-63793886D01*
X141640525Y-63793886D02*
X141678620Y-63755791D01*
X141678620Y-63755791D02*
X141716715Y-63679601D01*
X141716715Y-63679601D02*
X141716715Y-63374839D01*
X141373858Y-64136743D02*
X141335763Y-64174839D01*
X141335763Y-64174839D02*
X141297668Y-64251029D01*
X141297668Y-64251029D02*
X141297668Y-64441505D01*
X141297668Y-64441505D02*
X141335763Y-64517696D01*
X141335763Y-64517696D02*
X141373858Y-64555791D01*
X141373858Y-64555791D02*
X141450049Y-64593886D01*
X141450049Y-64593886D02*
X141526239Y-64593886D01*
X141526239Y-64593886D02*
X141640525Y-64555791D01*
X141640525Y-64555791D02*
X142097668Y-64098648D01*
X142097668Y-64098648D02*
X142097668Y-64593886D01*
X141640525Y-65051029D02*
X141602430Y-64974839D01*
X141602430Y-64974839D02*
X141564334Y-64936744D01*
X141564334Y-64936744D02*
X141488144Y-64898648D01*
X141488144Y-64898648D02*
X141450049Y-64898648D01*
X141450049Y-64898648D02*
X141373858Y-64936744D01*
X141373858Y-64936744D02*
X141335763Y-64974839D01*
X141335763Y-64974839D02*
X141297668Y-65051029D01*
X141297668Y-65051029D02*
X141297668Y-65203410D01*
X141297668Y-65203410D02*
X141335763Y-65279601D01*
X141335763Y-65279601D02*
X141373858Y-65317696D01*
X141373858Y-65317696D02*
X141450049Y-65355791D01*
X141450049Y-65355791D02*
X141488144Y-65355791D01*
X141488144Y-65355791D02*
X141564334Y-65317696D01*
X141564334Y-65317696D02*
X141602430Y-65279601D01*
X141602430Y-65279601D02*
X141640525Y-65203410D01*
X141640525Y-65203410D02*
X141640525Y-65051029D01*
X141640525Y-65051029D02*
X141678620Y-64974839D01*
X141678620Y-64974839D02*
X141716715Y-64936744D01*
X141716715Y-64936744D02*
X141792906Y-64898648D01*
X141792906Y-64898648D02*
X141945287Y-64898648D01*
X141945287Y-64898648D02*
X142021477Y-64936744D01*
X142021477Y-64936744D02*
X142059573Y-64974839D01*
X142059573Y-64974839D02*
X142097668Y-65051029D01*
X142097668Y-65051029D02*
X142097668Y-65203410D01*
X142097668Y-65203410D02*
X142059573Y-65279601D01*
X142059573Y-65279601D02*
X142021477Y-65317696D01*
X142021477Y-65317696D02*
X141945287Y-65355791D01*
X141945287Y-65355791D02*
X141792906Y-65355791D01*
X141792906Y-65355791D02*
X141716715Y-65317696D01*
X141716715Y-65317696D02*
X141678620Y-65279601D01*
X141678620Y-65279601D02*
X141640525Y-65203410D01*
X146425763Y-62993886D02*
X146387668Y-62917696D01*
X146387668Y-62917696D02*
X146387668Y-62803410D01*
X146387668Y-62803410D02*
X146425763Y-62689124D01*
X146425763Y-62689124D02*
X146501953Y-62612934D01*
X146501953Y-62612934D02*
X146578144Y-62574839D01*
X146578144Y-62574839D02*
X146730525Y-62536743D01*
X146730525Y-62536743D02*
X146844811Y-62536743D01*
X146844811Y-62536743D02*
X146997192Y-62574839D01*
X146997192Y-62574839D02*
X147073382Y-62612934D01*
X147073382Y-62612934D02*
X147149573Y-62689124D01*
X147149573Y-62689124D02*
X147187668Y-62803410D01*
X147187668Y-62803410D02*
X147187668Y-62879601D01*
X147187668Y-62879601D02*
X147149573Y-62993886D01*
X147149573Y-62993886D02*
X147111477Y-63031982D01*
X147111477Y-63031982D02*
X146844811Y-63031982D01*
X146844811Y-63031982D02*
X146844811Y-62879601D01*
X147187668Y-63374839D02*
X146387668Y-63374839D01*
X146387668Y-63374839D02*
X146387668Y-63679601D01*
X146387668Y-63679601D02*
X146425763Y-63755791D01*
X146425763Y-63755791D02*
X146463858Y-63793886D01*
X146463858Y-63793886D02*
X146540049Y-63831982D01*
X146540049Y-63831982D02*
X146654334Y-63831982D01*
X146654334Y-63831982D02*
X146730525Y-63793886D01*
X146730525Y-63793886D02*
X146768620Y-63755791D01*
X146768620Y-63755791D02*
X146806715Y-63679601D01*
X146806715Y-63679601D02*
X146806715Y-63374839D01*
X146463858Y-64136743D02*
X146425763Y-64174839D01*
X146425763Y-64174839D02*
X146387668Y-64251029D01*
X146387668Y-64251029D02*
X146387668Y-64441505D01*
X146387668Y-64441505D02*
X146425763Y-64517696D01*
X146425763Y-64517696D02*
X146463858Y-64555791D01*
X146463858Y-64555791D02*
X146540049Y-64593886D01*
X146540049Y-64593886D02*
X146616239Y-64593886D01*
X146616239Y-64593886D02*
X146730525Y-64555791D01*
X146730525Y-64555791D02*
X147187668Y-64098648D01*
X147187668Y-64098648D02*
X147187668Y-64593886D01*
X146387668Y-64860553D02*
X146387668Y-65393887D01*
X146387668Y-65393887D02*
X147187668Y-65051029D01*
X152257668Y-63005792D02*
X151876715Y-62739125D01*
X152257668Y-62548649D02*
X151457668Y-62548649D01*
X151457668Y-62548649D02*
X151457668Y-62853411D01*
X151457668Y-62853411D02*
X151495763Y-62929601D01*
X151495763Y-62929601D02*
X151533858Y-62967696D01*
X151533858Y-62967696D02*
X151610049Y-63005792D01*
X151610049Y-63005792D02*
X151724334Y-63005792D01*
X151724334Y-63005792D02*
X151800525Y-62967696D01*
X151800525Y-62967696D02*
X151838620Y-62929601D01*
X151838620Y-62929601D02*
X151876715Y-62853411D01*
X151876715Y-62853411D02*
X151876715Y-62548649D01*
X151457668Y-63348649D02*
X152105287Y-63348649D01*
X152105287Y-63348649D02*
X152181477Y-63386744D01*
X152181477Y-63386744D02*
X152219573Y-63424839D01*
X152219573Y-63424839D02*
X152257668Y-63501030D01*
X152257668Y-63501030D02*
X152257668Y-63653411D01*
X152257668Y-63653411D02*
X152219573Y-63729601D01*
X152219573Y-63729601D02*
X152181477Y-63767696D01*
X152181477Y-63767696D02*
X152105287Y-63805792D01*
X152105287Y-63805792D02*
X151457668Y-63805792D01*
X152257668Y-64186744D02*
X151457668Y-64186744D01*
X151457668Y-64186744D02*
X152257668Y-64643887D01*
X152257668Y-64643887D02*
X151457668Y-64643887D01*
X166735763Y-62993886D02*
X166697668Y-62917696D01*
X166697668Y-62917696D02*
X166697668Y-62803410D01*
X166697668Y-62803410D02*
X166735763Y-62689124D01*
X166735763Y-62689124D02*
X166811953Y-62612934D01*
X166811953Y-62612934D02*
X166888144Y-62574839D01*
X166888144Y-62574839D02*
X167040525Y-62536743D01*
X167040525Y-62536743D02*
X167154811Y-62536743D01*
X167154811Y-62536743D02*
X167307192Y-62574839D01*
X167307192Y-62574839D02*
X167383382Y-62612934D01*
X167383382Y-62612934D02*
X167459573Y-62689124D01*
X167459573Y-62689124D02*
X167497668Y-62803410D01*
X167497668Y-62803410D02*
X167497668Y-62879601D01*
X167497668Y-62879601D02*
X167459573Y-62993886D01*
X167459573Y-62993886D02*
X167421477Y-63031982D01*
X167421477Y-63031982D02*
X167154811Y-63031982D01*
X167154811Y-63031982D02*
X167154811Y-62879601D01*
X167497668Y-63374839D02*
X166697668Y-63374839D01*
X166697668Y-63374839D02*
X166697668Y-63679601D01*
X166697668Y-63679601D02*
X166735763Y-63755791D01*
X166735763Y-63755791D02*
X166773858Y-63793886D01*
X166773858Y-63793886D02*
X166850049Y-63831982D01*
X166850049Y-63831982D02*
X166964334Y-63831982D01*
X166964334Y-63831982D02*
X167040525Y-63793886D01*
X167040525Y-63793886D02*
X167078620Y-63755791D01*
X167078620Y-63755791D02*
X167116715Y-63679601D01*
X167116715Y-63679601D02*
X167116715Y-63374839D01*
X167497668Y-64593886D02*
X167497668Y-64136743D01*
X167497668Y-64365315D02*
X166697668Y-64365315D01*
X166697668Y-64365315D02*
X166811953Y-64289124D01*
X166811953Y-64289124D02*
X166888144Y-64212934D01*
X166888144Y-64212934D02*
X166926239Y-64136743D01*
X167040525Y-65051029D02*
X167002430Y-64974839D01*
X167002430Y-64974839D02*
X166964334Y-64936744D01*
X166964334Y-64936744D02*
X166888144Y-64898648D01*
X166888144Y-64898648D02*
X166850049Y-64898648D01*
X166850049Y-64898648D02*
X166773858Y-64936744D01*
X166773858Y-64936744D02*
X166735763Y-64974839D01*
X166735763Y-64974839D02*
X166697668Y-65051029D01*
X166697668Y-65051029D02*
X166697668Y-65203410D01*
X166697668Y-65203410D02*
X166735763Y-65279601D01*
X166735763Y-65279601D02*
X166773858Y-65317696D01*
X166773858Y-65317696D02*
X166850049Y-65355791D01*
X166850049Y-65355791D02*
X166888144Y-65355791D01*
X166888144Y-65355791D02*
X166964334Y-65317696D01*
X166964334Y-65317696D02*
X167002430Y-65279601D01*
X167002430Y-65279601D02*
X167040525Y-65203410D01*
X167040525Y-65203410D02*
X167040525Y-65051029D01*
X167040525Y-65051029D02*
X167078620Y-64974839D01*
X167078620Y-64974839D02*
X167116715Y-64936744D01*
X167116715Y-64936744D02*
X167192906Y-64898648D01*
X167192906Y-64898648D02*
X167345287Y-64898648D01*
X167345287Y-64898648D02*
X167421477Y-64936744D01*
X167421477Y-64936744D02*
X167459573Y-64974839D01*
X167459573Y-64974839D02*
X167497668Y-65051029D01*
X167497668Y-65051029D02*
X167497668Y-65203410D01*
X167497668Y-65203410D02*
X167459573Y-65279601D01*
X167459573Y-65279601D02*
X167421477Y-65317696D01*
X167421477Y-65317696D02*
X167345287Y-65355791D01*
X167345287Y-65355791D02*
X167192906Y-65355791D01*
X167192906Y-65355791D02*
X167116715Y-65317696D01*
X167116715Y-65317696D02*
X167078620Y-65279601D01*
X167078620Y-65279601D02*
X167040525Y-65203410D01*
X154035763Y-62993886D02*
X153997668Y-62917696D01*
X153997668Y-62917696D02*
X153997668Y-62803410D01*
X153997668Y-62803410D02*
X154035763Y-62689124D01*
X154035763Y-62689124D02*
X154111953Y-62612934D01*
X154111953Y-62612934D02*
X154188144Y-62574839D01*
X154188144Y-62574839D02*
X154340525Y-62536743D01*
X154340525Y-62536743D02*
X154454811Y-62536743D01*
X154454811Y-62536743D02*
X154607192Y-62574839D01*
X154607192Y-62574839D02*
X154683382Y-62612934D01*
X154683382Y-62612934D02*
X154759573Y-62689124D01*
X154759573Y-62689124D02*
X154797668Y-62803410D01*
X154797668Y-62803410D02*
X154797668Y-62879601D01*
X154797668Y-62879601D02*
X154759573Y-62993886D01*
X154759573Y-62993886D02*
X154721477Y-63031982D01*
X154721477Y-63031982D02*
X154454811Y-63031982D01*
X154454811Y-63031982D02*
X154454811Y-62879601D01*
X154797668Y-63374839D02*
X153997668Y-63374839D01*
X153997668Y-63374839D02*
X153997668Y-63679601D01*
X153997668Y-63679601D02*
X154035763Y-63755791D01*
X154035763Y-63755791D02*
X154073858Y-63793886D01*
X154073858Y-63793886D02*
X154150049Y-63831982D01*
X154150049Y-63831982D02*
X154264334Y-63831982D01*
X154264334Y-63831982D02*
X154340525Y-63793886D01*
X154340525Y-63793886D02*
X154378620Y-63755791D01*
X154378620Y-63755791D02*
X154416715Y-63679601D01*
X154416715Y-63679601D02*
X154416715Y-63374839D01*
X154073858Y-64136743D02*
X154035763Y-64174839D01*
X154035763Y-64174839D02*
X153997668Y-64251029D01*
X153997668Y-64251029D02*
X153997668Y-64441505D01*
X153997668Y-64441505D02*
X154035763Y-64517696D01*
X154035763Y-64517696D02*
X154073858Y-64555791D01*
X154073858Y-64555791D02*
X154150049Y-64593886D01*
X154150049Y-64593886D02*
X154226239Y-64593886D01*
X154226239Y-64593886D02*
X154340525Y-64555791D01*
X154340525Y-64555791D02*
X154797668Y-64098648D01*
X154797668Y-64098648D02*
X154797668Y-64593886D01*
X154073858Y-64898648D02*
X154035763Y-64936744D01*
X154035763Y-64936744D02*
X153997668Y-65012934D01*
X153997668Y-65012934D02*
X153997668Y-65203410D01*
X153997668Y-65203410D02*
X154035763Y-65279601D01*
X154035763Y-65279601D02*
X154073858Y-65317696D01*
X154073858Y-65317696D02*
X154150049Y-65355791D01*
X154150049Y-65355791D02*
X154226239Y-65355791D01*
X154226239Y-65355791D02*
X154340525Y-65317696D01*
X154340525Y-65317696D02*
X154797668Y-64860553D01*
X154797668Y-64860553D02*
X154797668Y-65355791D01*
X174355763Y-74223886D02*
X174317668Y-74147696D01*
X174317668Y-74147696D02*
X174317668Y-74033410D01*
X174317668Y-74033410D02*
X174355763Y-73919124D01*
X174355763Y-73919124D02*
X174431953Y-73842934D01*
X174431953Y-73842934D02*
X174508144Y-73804839D01*
X174508144Y-73804839D02*
X174660525Y-73766743D01*
X174660525Y-73766743D02*
X174774811Y-73766743D01*
X174774811Y-73766743D02*
X174927192Y-73804839D01*
X174927192Y-73804839D02*
X175003382Y-73842934D01*
X175003382Y-73842934D02*
X175079573Y-73919124D01*
X175079573Y-73919124D02*
X175117668Y-74033410D01*
X175117668Y-74033410D02*
X175117668Y-74109601D01*
X175117668Y-74109601D02*
X175079573Y-74223886D01*
X175079573Y-74223886D02*
X175041477Y-74261982D01*
X175041477Y-74261982D02*
X174774811Y-74261982D01*
X174774811Y-74261982D02*
X174774811Y-74109601D01*
X175117668Y-74604839D02*
X174317668Y-74604839D01*
X174317668Y-74604839D02*
X174317668Y-74909601D01*
X174317668Y-74909601D02*
X174355763Y-74985791D01*
X174355763Y-74985791D02*
X174393858Y-75023886D01*
X174393858Y-75023886D02*
X174470049Y-75061982D01*
X174470049Y-75061982D02*
X174584334Y-75061982D01*
X174584334Y-75061982D02*
X174660525Y-75023886D01*
X174660525Y-75023886D02*
X174698620Y-74985791D01*
X174698620Y-74985791D02*
X174736715Y-74909601D01*
X174736715Y-74909601D02*
X174736715Y-74604839D01*
X175117668Y-75823886D02*
X175117668Y-75366743D01*
X175117668Y-75595315D02*
X174317668Y-75595315D01*
X174317668Y-75595315D02*
X174431953Y-75519124D01*
X174431953Y-75519124D02*
X174508144Y-75442934D01*
X174508144Y-75442934D02*
X174546239Y-75366743D01*
X174317668Y-76547696D02*
X174317668Y-76166744D01*
X174317668Y-76166744D02*
X174698620Y-76128648D01*
X174698620Y-76128648D02*
X174660525Y-76166744D01*
X174660525Y-76166744D02*
X174622430Y-76242934D01*
X174622430Y-76242934D02*
X174622430Y-76433410D01*
X174622430Y-76433410D02*
X174660525Y-76509601D01*
X174660525Y-76509601D02*
X174698620Y-76547696D01*
X174698620Y-76547696D02*
X174774811Y-76585791D01*
X174774811Y-76585791D02*
X174965287Y-76585791D01*
X174965287Y-76585791D02*
X175041477Y-76547696D01*
X175041477Y-76547696D02*
X175079573Y-76509601D01*
X175079573Y-76509601D02*
X175117668Y-76433410D01*
X175117668Y-76433410D02*
X175117668Y-76242934D01*
X175117668Y-76242934D02*
X175079573Y-76166744D01*
X175079573Y-76166744D02*
X175041477Y-76128648D01*
X136217668Y-62455791D02*
X136217668Y-62951029D01*
X136217668Y-62951029D02*
X136522430Y-62684363D01*
X136522430Y-62684363D02*
X136522430Y-62798648D01*
X136522430Y-62798648D02*
X136560525Y-62874839D01*
X136560525Y-62874839D02*
X136598620Y-62912934D01*
X136598620Y-62912934D02*
X136674811Y-62951029D01*
X136674811Y-62951029D02*
X136865287Y-62951029D01*
X136865287Y-62951029D02*
X136941477Y-62912934D01*
X136941477Y-62912934D02*
X136979573Y-62874839D01*
X136979573Y-62874839D02*
X137017668Y-62798648D01*
X137017668Y-62798648D02*
X137017668Y-62570077D01*
X137017668Y-62570077D02*
X136979573Y-62493886D01*
X136979573Y-62493886D02*
X136941477Y-62455791D01*
X136217668Y-63179601D02*
X137017668Y-63446268D01*
X137017668Y-63446268D02*
X136217668Y-63712934D01*
X136217668Y-63903410D02*
X136217668Y-64398648D01*
X136217668Y-64398648D02*
X136522430Y-64131982D01*
X136522430Y-64131982D02*
X136522430Y-64246267D01*
X136522430Y-64246267D02*
X136560525Y-64322458D01*
X136560525Y-64322458D02*
X136598620Y-64360553D01*
X136598620Y-64360553D02*
X136674811Y-64398648D01*
X136674811Y-64398648D02*
X136865287Y-64398648D01*
X136865287Y-64398648D02*
X136941477Y-64360553D01*
X136941477Y-64360553D02*
X136979573Y-64322458D01*
X136979573Y-64322458D02*
X137017668Y-64246267D01*
X137017668Y-64246267D02*
X137017668Y-64017696D01*
X137017668Y-64017696D02*
X136979573Y-63941505D01*
X136979573Y-63941505D02*
X136941477Y-63903410D01*
X136255763Y-74954839D02*
X136217668Y-74878649D01*
X136217668Y-74878649D02*
X136217668Y-74764363D01*
X136217668Y-74764363D02*
X136255763Y-74650077D01*
X136255763Y-74650077D02*
X136331953Y-74573887D01*
X136331953Y-74573887D02*
X136408144Y-74535792D01*
X136408144Y-74535792D02*
X136560525Y-74497696D01*
X136560525Y-74497696D02*
X136674811Y-74497696D01*
X136674811Y-74497696D02*
X136827192Y-74535792D01*
X136827192Y-74535792D02*
X136903382Y-74573887D01*
X136903382Y-74573887D02*
X136979573Y-74650077D01*
X136979573Y-74650077D02*
X137017668Y-74764363D01*
X137017668Y-74764363D02*
X137017668Y-74840554D01*
X137017668Y-74840554D02*
X136979573Y-74954839D01*
X136979573Y-74954839D02*
X136941477Y-74992935D01*
X136941477Y-74992935D02*
X136674811Y-74992935D01*
X136674811Y-74992935D02*
X136674811Y-74840554D01*
X137017668Y-75335792D02*
X136217668Y-75335792D01*
X136217668Y-75335792D02*
X136217668Y-75640554D01*
X136217668Y-75640554D02*
X136255763Y-75716744D01*
X136255763Y-75716744D02*
X136293858Y-75754839D01*
X136293858Y-75754839D02*
X136370049Y-75792935D01*
X136370049Y-75792935D02*
X136484334Y-75792935D01*
X136484334Y-75792935D02*
X136560525Y-75754839D01*
X136560525Y-75754839D02*
X136598620Y-75716744D01*
X136598620Y-75716744D02*
X136636715Y-75640554D01*
X136636715Y-75640554D02*
X136636715Y-75335792D01*
X136217668Y-76059601D02*
X136217668Y-76554839D01*
X136217668Y-76554839D02*
X136522430Y-76288173D01*
X136522430Y-76288173D02*
X136522430Y-76402458D01*
X136522430Y-76402458D02*
X136560525Y-76478649D01*
X136560525Y-76478649D02*
X136598620Y-76516744D01*
X136598620Y-76516744D02*
X136674811Y-76554839D01*
X136674811Y-76554839D02*
X136865287Y-76554839D01*
X136865287Y-76554839D02*
X136941477Y-76516744D01*
X136941477Y-76516744D02*
X136979573Y-76478649D01*
X136979573Y-76478649D02*
X137017668Y-76402458D01*
X137017668Y-76402458D02*
X137017668Y-76173887D01*
X137017668Y-76173887D02*
X136979573Y-76097696D01*
X136979573Y-76097696D02*
X136941477Y-76059601D01*
X128597668Y-62324839D02*
X129397668Y-62591506D01*
X129397668Y-62591506D02*
X128597668Y-62858172D01*
X129359573Y-63086743D02*
X129397668Y-63201029D01*
X129397668Y-63201029D02*
X129397668Y-63391505D01*
X129397668Y-63391505D02*
X129359573Y-63467696D01*
X129359573Y-63467696D02*
X129321477Y-63505791D01*
X129321477Y-63505791D02*
X129245287Y-63543886D01*
X129245287Y-63543886D02*
X129169096Y-63543886D01*
X129169096Y-63543886D02*
X129092906Y-63505791D01*
X129092906Y-63505791D02*
X129054811Y-63467696D01*
X129054811Y-63467696D02*
X129016715Y-63391505D01*
X129016715Y-63391505D02*
X128978620Y-63239124D01*
X128978620Y-63239124D02*
X128940525Y-63162934D01*
X128940525Y-63162934D02*
X128902430Y-63124839D01*
X128902430Y-63124839D02*
X128826239Y-63086743D01*
X128826239Y-63086743D02*
X128750049Y-63086743D01*
X128750049Y-63086743D02*
X128673858Y-63124839D01*
X128673858Y-63124839D02*
X128635763Y-63162934D01*
X128635763Y-63162934D02*
X128597668Y-63239124D01*
X128597668Y-63239124D02*
X128597668Y-63429601D01*
X128597668Y-63429601D02*
X128635763Y-63543886D01*
X129016715Y-64039125D02*
X129397668Y-64039125D01*
X128597668Y-63772458D02*
X129016715Y-64039125D01*
X129016715Y-64039125D02*
X128597668Y-64305791D01*
X129359573Y-64534362D02*
X129397668Y-64648648D01*
X129397668Y-64648648D02*
X129397668Y-64839124D01*
X129397668Y-64839124D02*
X129359573Y-64915315D01*
X129359573Y-64915315D02*
X129321477Y-64953410D01*
X129321477Y-64953410D02*
X129245287Y-64991505D01*
X129245287Y-64991505D02*
X129169096Y-64991505D01*
X129169096Y-64991505D02*
X129092906Y-64953410D01*
X129092906Y-64953410D02*
X129054811Y-64915315D01*
X129054811Y-64915315D02*
X129016715Y-64839124D01*
X129016715Y-64839124D02*
X128978620Y-64686743D01*
X128978620Y-64686743D02*
X128940525Y-64610553D01*
X128940525Y-64610553D02*
X128902430Y-64572458D01*
X128902430Y-64572458D02*
X128826239Y-64534362D01*
X128826239Y-64534362D02*
X128750049Y-64534362D01*
X128750049Y-64534362D02*
X128673858Y-64572458D01*
X128673858Y-64572458D02*
X128635763Y-64610553D01*
X128635763Y-64610553D02*
X128597668Y-64686743D01*
X128597668Y-64686743D02*
X128597668Y-64877220D01*
X128597668Y-64877220D02*
X128635763Y-64991505D01*
X141335763Y-74954839D02*
X141297668Y-74878649D01*
X141297668Y-74878649D02*
X141297668Y-74764363D01*
X141297668Y-74764363D02*
X141335763Y-74650077D01*
X141335763Y-74650077D02*
X141411953Y-74573887D01*
X141411953Y-74573887D02*
X141488144Y-74535792D01*
X141488144Y-74535792D02*
X141640525Y-74497696D01*
X141640525Y-74497696D02*
X141754811Y-74497696D01*
X141754811Y-74497696D02*
X141907192Y-74535792D01*
X141907192Y-74535792D02*
X141983382Y-74573887D01*
X141983382Y-74573887D02*
X142059573Y-74650077D01*
X142059573Y-74650077D02*
X142097668Y-74764363D01*
X142097668Y-74764363D02*
X142097668Y-74840554D01*
X142097668Y-74840554D02*
X142059573Y-74954839D01*
X142059573Y-74954839D02*
X142021477Y-74992935D01*
X142021477Y-74992935D02*
X141754811Y-74992935D01*
X141754811Y-74992935D02*
X141754811Y-74840554D01*
X142097668Y-75335792D02*
X141297668Y-75335792D01*
X141297668Y-75335792D02*
X141297668Y-75640554D01*
X141297668Y-75640554D02*
X141335763Y-75716744D01*
X141335763Y-75716744D02*
X141373858Y-75754839D01*
X141373858Y-75754839D02*
X141450049Y-75792935D01*
X141450049Y-75792935D02*
X141564334Y-75792935D01*
X141564334Y-75792935D02*
X141640525Y-75754839D01*
X141640525Y-75754839D02*
X141678620Y-75716744D01*
X141678620Y-75716744D02*
X141716715Y-75640554D01*
X141716715Y-75640554D02*
X141716715Y-75335792D01*
X141297668Y-76516744D02*
X141297668Y-76135792D01*
X141297668Y-76135792D02*
X141678620Y-76097696D01*
X141678620Y-76097696D02*
X141640525Y-76135792D01*
X141640525Y-76135792D02*
X141602430Y-76211982D01*
X141602430Y-76211982D02*
X141602430Y-76402458D01*
X141602430Y-76402458D02*
X141640525Y-76478649D01*
X141640525Y-76478649D02*
X141678620Y-76516744D01*
X141678620Y-76516744D02*
X141754811Y-76554839D01*
X141754811Y-76554839D02*
X141945287Y-76554839D01*
X141945287Y-76554839D02*
X142021477Y-76516744D01*
X142021477Y-76516744D02*
X142059573Y-76478649D01*
X142059573Y-76478649D02*
X142097668Y-76402458D01*
X142097668Y-76402458D02*
X142097668Y-76211982D01*
X142097668Y-76211982D02*
X142059573Y-76135792D01*
X142059573Y-76135792D02*
X142021477Y-76097696D01*
X161655763Y-74223886D02*
X161617668Y-74147696D01*
X161617668Y-74147696D02*
X161617668Y-74033410D01*
X161617668Y-74033410D02*
X161655763Y-73919124D01*
X161655763Y-73919124D02*
X161731953Y-73842934D01*
X161731953Y-73842934D02*
X161808144Y-73804839D01*
X161808144Y-73804839D02*
X161960525Y-73766743D01*
X161960525Y-73766743D02*
X162074811Y-73766743D01*
X162074811Y-73766743D02*
X162227192Y-73804839D01*
X162227192Y-73804839D02*
X162303382Y-73842934D01*
X162303382Y-73842934D02*
X162379573Y-73919124D01*
X162379573Y-73919124D02*
X162417668Y-74033410D01*
X162417668Y-74033410D02*
X162417668Y-74109601D01*
X162417668Y-74109601D02*
X162379573Y-74223886D01*
X162379573Y-74223886D02*
X162341477Y-74261982D01*
X162341477Y-74261982D02*
X162074811Y-74261982D01*
X162074811Y-74261982D02*
X162074811Y-74109601D01*
X162417668Y-74604839D02*
X161617668Y-74604839D01*
X161617668Y-74604839D02*
X161617668Y-74909601D01*
X161617668Y-74909601D02*
X161655763Y-74985791D01*
X161655763Y-74985791D02*
X161693858Y-75023886D01*
X161693858Y-75023886D02*
X161770049Y-75061982D01*
X161770049Y-75061982D02*
X161884334Y-75061982D01*
X161884334Y-75061982D02*
X161960525Y-75023886D01*
X161960525Y-75023886D02*
X161998620Y-74985791D01*
X161998620Y-74985791D02*
X162036715Y-74909601D01*
X162036715Y-74909601D02*
X162036715Y-74604839D01*
X162417668Y-75823886D02*
X162417668Y-75366743D01*
X162417668Y-75595315D02*
X161617668Y-75595315D01*
X161617668Y-75595315D02*
X161731953Y-75519124D01*
X161731953Y-75519124D02*
X161808144Y-75442934D01*
X161808144Y-75442934D02*
X161846239Y-75366743D01*
X162417668Y-76585791D02*
X162417668Y-76128648D01*
X162417668Y-76357220D02*
X161617668Y-76357220D01*
X161617668Y-76357220D02*
X161731953Y-76281029D01*
X161731953Y-76281029D02*
X161808144Y-76204839D01*
X161808144Y-76204839D02*
X161846239Y-76128648D01*
X172234896Y-69086658D02*
X172311086Y-69048563D01*
X172311086Y-69048563D02*
X172425372Y-69048563D01*
X172425372Y-69048563D02*
X172539658Y-69086658D01*
X172539658Y-69086658D02*
X172615848Y-69162848D01*
X172615848Y-69162848D02*
X172653943Y-69239039D01*
X172653943Y-69239039D02*
X172692039Y-69391420D01*
X172692039Y-69391420D02*
X172692039Y-69505706D01*
X172692039Y-69505706D02*
X172653943Y-69658087D01*
X172653943Y-69658087D02*
X172615848Y-69734277D01*
X172615848Y-69734277D02*
X172539658Y-69810468D01*
X172539658Y-69810468D02*
X172425372Y-69848563D01*
X172425372Y-69848563D02*
X172349181Y-69848563D01*
X172349181Y-69848563D02*
X172234896Y-69810468D01*
X172234896Y-69810468D02*
X172196800Y-69772372D01*
X172196800Y-69772372D02*
X172196800Y-69505706D01*
X172196800Y-69505706D02*
X172349181Y-69505706D01*
X171853943Y-69848563D02*
X171853943Y-69048563D01*
X171853943Y-69048563D02*
X171396800Y-69848563D01*
X171396800Y-69848563D02*
X171396800Y-69048563D01*
X171015848Y-69848563D02*
X171015848Y-69048563D01*
X171015848Y-69048563D02*
X170825372Y-69048563D01*
X170825372Y-69048563D02*
X170711086Y-69086658D01*
X170711086Y-69086658D02*
X170634896Y-69162848D01*
X170634896Y-69162848D02*
X170596801Y-69239039D01*
X170596801Y-69239039D02*
X170558705Y-69391420D01*
X170558705Y-69391420D02*
X170558705Y-69505706D01*
X170558705Y-69505706D02*
X170596801Y-69658087D01*
X170596801Y-69658087D02*
X170634896Y-69734277D01*
X170634896Y-69734277D02*
X170711086Y-69810468D01*
X170711086Y-69810468D02*
X170825372Y-69848563D01*
X170825372Y-69848563D02*
X171015848Y-69848563D01*
X164195763Y-74223886D02*
X164157668Y-74147696D01*
X164157668Y-74147696D02*
X164157668Y-74033410D01*
X164157668Y-74033410D02*
X164195763Y-73919124D01*
X164195763Y-73919124D02*
X164271953Y-73842934D01*
X164271953Y-73842934D02*
X164348144Y-73804839D01*
X164348144Y-73804839D02*
X164500525Y-73766743D01*
X164500525Y-73766743D02*
X164614811Y-73766743D01*
X164614811Y-73766743D02*
X164767192Y-73804839D01*
X164767192Y-73804839D02*
X164843382Y-73842934D01*
X164843382Y-73842934D02*
X164919573Y-73919124D01*
X164919573Y-73919124D02*
X164957668Y-74033410D01*
X164957668Y-74033410D02*
X164957668Y-74109601D01*
X164957668Y-74109601D02*
X164919573Y-74223886D01*
X164919573Y-74223886D02*
X164881477Y-74261982D01*
X164881477Y-74261982D02*
X164614811Y-74261982D01*
X164614811Y-74261982D02*
X164614811Y-74109601D01*
X164957668Y-74604839D02*
X164157668Y-74604839D01*
X164157668Y-74604839D02*
X164157668Y-74909601D01*
X164157668Y-74909601D02*
X164195763Y-74985791D01*
X164195763Y-74985791D02*
X164233858Y-75023886D01*
X164233858Y-75023886D02*
X164310049Y-75061982D01*
X164310049Y-75061982D02*
X164424334Y-75061982D01*
X164424334Y-75061982D02*
X164500525Y-75023886D01*
X164500525Y-75023886D02*
X164538620Y-74985791D01*
X164538620Y-74985791D02*
X164576715Y-74909601D01*
X164576715Y-74909601D02*
X164576715Y-74604839D01*
X164957668Y-75823886D02*
X164957668Y-75366743D01*
X164957668Y-75595315D02*
X164157668Y-75595315D01*
X164157668Y-75595315D02*
X164271953Y-75519124D01*
X164271953Y-75519124D02*
X164348144Y-75442934D01*
X164348144Y-75442934D02*
X164386239Y-75366743D01*
X164233858Y-76128648D02*
X164195763Y-76166744D01*
X164195763Y-76166744D02*
X164157668Y-76242934D01*
X164157668Y-76242934D02*
X164157668Y-76433410D01*
X164157668Y-76433410D02*
X164195763Y-76509601D01*
X164195763Y-76509601D02*
X164233858Y-76547696D01*
X164233858Y-76547696D02*
X164310049Y-76585791D01*
X164310049Y-76585791D02*
X164386239Y-76585791D01*
X164386239Y-76585791D02*
X164500525Y-76547696D01*
X164500525Y-76547696D02*
X164957668Y-76090553D01*
X164957668Y-76090553D02*
X164957668Y-76585791D01*
X172570611Y-67270468D02*
X172456325Y-67308563D01*
X172456325Y-67308563D02*
X172265849Y-67308563D01*
X172265849Y-67308563D02*
X172189658Y-67270468D01*
X172189658Y-67270468D02*
X172151563Y-67232372D01*
X172151563Y-67232372D02*
X172113468Y-67156182D01*
X172113468Y-67156182D02*
X172113468Y-67079991D01*
X172113468Y-67079991D02*
X172151563Y-67003801D01*
X172151563Y-67003801D02*
X172189658Y-66965706D01*
X172189658Y-66965706D02*
X172265849Y-66927610D01*
X172265849Y-66927610D02*
X172418230Y-66889515D01*
X172418230Y-66889515D02*
X172494420Y-66851420D01*
X172494420Y-66851420D02*
X172532515Y-66813325D01*
X172532515Y-66813325D02*
X172570611Y-66737134D01*
X172570611Y-66737134D02*
X172570611Y-66660944D01*
X172570611Y-66660944D02*
X172532515Y-66584753D01*
X172532515Y-66584753D02*
X172494420Y-66546658D01*
X172494420Y-66546658D02*
X172418230Y-66508563D01*
X172418230Y-66508563D02*
X172227753Y-66508563D01*
X172227753Y-66508563D02*
X172113468Y-66546658D01*
X171846801Y-66508563D02*
X171656325Y-67308563D01*
X171656325Y-67308563D02*
X171503944Y-66737134D01*
X171503944Y-66737134D02*
X171351563Y-67308563D01*
X171351563Y-67308563D02*
X171161087Y-66508563D01*
X170856324Y-67308563D02*
X170856324Y-66508563D01*
X170856324Y-66508563D02*
X170665848Y-66508563D01*
X170665848Y-66508563D02*
X170551562Y-66546658D01*
X170551562Y-66546658D02*
X170475372Y-66622848D01*
X170475372Y-66622848D02*
X170437277Y-66699039D01*
X170437277Y-66699039D02*
X170399181Y-66851420D01*
X170399181Y-66851420D02*
X170399181Y-66965706D01*
X170399181Y-66965706D02*
X170437277Y-67118087D01*
X170437277Y-67118087D02*
X170475372Y-67194277D01*
X170475372Y-67194277D02*
X170551562Y-67270468D01*
X170551562Y-67270468D02*
X170665848Y-67308563D01*
X170665848Y-67308563D02*
X170856324Y-67308563D01*
X170056324Y-67308563D02*
X170056324Y-66508563D01*
X169522991Y-66508563D02*
X169370610Y-66508563D01*
X169370610Y-66508563D02*
X169294420Y-66546658D01*
X169294420Y-66546658D02*
X169218229Y-66622848D01*
X169218229Y-66622848D02*
X169180134Y-66775229D01*
X169180134Y-66775229D02*
X169180134Y-67041896D01*
X169180134Y-67041896D02*
X169218229Y-67194277D01*
X169218229Y-67194277D02*
X169294420Y-67270468D01*
X169294420Y-67270468D02*
X169370610Y-67308563D01*
X169370610Y-67308563D02*
X169522991Y-67308563D01*
X169522991Y-67308563D02*
X169599182Y-67270468D01*
X169599182Y-67270468D02*
X169675372Y-67194277D01*
X169675372Y-67194277D02*
X169713468Y-67041896D01*
X169713468Y-67041896D02*
X169713468Y-66775229D01*
X169713468Y-66775229D02*
X169675372Y-66622848D01*
X169675372Y-66622848D02*
X169599182Y-66546658D01*
X169599182Y-66546658D02*
X169522991Y-66508563D01*
X171815763Y-62993886D02*
X171777668Y-62917696D01*
X171777668Y-62917696D02*
X171777668Y-62803410D01*
X171777668Y-62803410D02*
X171815763Y-62689124D01*
X171815763Y-62689124D02*
X171891953Y-62612934D01*
X171891953Y-62612934D02*
X171968144Y-62574839D01*
X171968144Y-62574839D02*
X172120525Y-62536743D01*
X172120525Y-62536743D02*
X172234811Y-62536743D01*
X172234811Y-62536743D02*
X172387192Y-62574839D01*
X172387192Y-62574839D02*
X172463382Y-62612934D01*
X172463382Y-62612934D02*
X172539573Y-62689124D01*
X172539573Y-62689124D02*
X172577668Y-62803410D01*
X172577668Y-62803410D02*
X172577668Y-62879601D01*
X172577668Y-62879601D02*
X172539573Y-62993886D01*
X172539573Y-62993886D02*
X172501477Y-63031982D01*
X172501477Y-63031982D02*
X172234811Y-63031982D01*
X172234811Y-63031982D02*
X172234811Y-62879601D01*
X172577668Y-63374839D02*
X171777668Y-63374839D01*
X171777668Y-63374839D02*
X171777668Y-63679601D01*
X171777668Y-63679601D02*
X171815763Y-63755791D01*
X171815763Y-63755791D02*
X171853858Y-63793886D01*
X171853858Y-63793886D02*
X171930049Y-63831982D01*
X171930049Y-63831982D02*
X172044334Y-63831982D01*
X172044334Y-63831982D02*
X172120525Y-63793886D01*
X172120525Y-63793886D02*
X172158620Y-63755791D01*
X172158620Y-63755791D02*
X172196715Y-63679601D01*
X172196715Y-63679601D02*
X172196715Y-63374839D01*
X172577668Y-64593886D02*
X172577668Y-64136743D01*
X172577668Y-64365315D02*
X171777668Y-64365315D01*
X171777668Y-64365315D02*
X171891953Y-64289124D01*
X171891953Y-64289124D02*
X171968144Y-64212934D01*
X171968144Y-64212934D02*
X172006239Y-64136743D01*
X171777668Y-64860553D02*
X171777668Y-65393887D01*
X171777668Y-65393887D02*
X172577668Y-65051029D01*
X146415763Y-74954839D02*
X146377668Y-74878649D01*
X146377668Y-74878649D02*
X146377668Y-74764363D01*
X146377668Y-74764363D02*
X146415763Y-74650077D01*
X146415763Y-74650077D02*
X146491953Y-74573887D01*
X146491953Y-74573887D02*
X146568144Y-74535792D01*
X146568144Y-74535792D02*
X146720525Y-74497696D01*
X146720525Y-74497696D02*
X146834811Y-74497696D01*
X146834811Y-74497696D02*
X146987192Y-74535792D01*
X146987192Y-74535792D02*
X147063382Y-74573887D01*
X147063382Y-74573887D02*
X147139573Y-74650077D01*
X147139573Y-74650077D02*
X147177668Y-74764363D01*
X147177668Y-74764363D02*
X147177668Y-74840554D01*
X147177668Y-74840554D02*
X147139573Y-74954839D01*
X147139573Y-74954839D02*
X147101477Y-74992935D01*
X147101477Y-74992935D02*
X146834811Y-74992935D01*
X146834811Y-74992935D02*
X146834811Y-74840554D01*
X147177668Y-75335792D02*
X146377668Y-75335792D01*
X146377668Y-75335792D02*
X146377668Y-75640554D01*
X146377668Y-75640554D02*
X146415763Y-75716744D01*
X146415763Y-75716744D02*
X146453858Y-75754839D01*
X146453858Y-75754839D02*
X146530049Y-75792935D01*
X146530049Y-75792935D02*
X146644334Y-75792935D01*
X146644334Y-75792935D02*
X146720525Y-75754839D01*
X146720525Y-75754839D02*
X146758620Y-75716744D01*
X146758620Y-75716744D02*
X146796715Y-75640554D01*
X146796715Y-75640554D02*
X146796715Y-75335792D01*
X146377668Y-76478649D02*
X146377668Y-76326268D01*
X146377668Y-76326268D02*
X146415763Y-76250077D01*
X146415763Y-76250077D02*
X146453858Y-76211982D01*
X146453858Y-76211982D02*
X146568144Y-76135792D01*
X146568144Y-76135792D02*
X146720525Y-76097696D01*
X146720525Y-76097696D02*
X147025287Y-76097696D01*
X147025287Y-76097696D02*
X147101477Y-76135792D01*
X147101477Y-76135792D02*
X147139573Y-76173887D01*
X147139573Y-76173887D02*
X147177668Y-76250077D01*
X147177668Y-76250077D02*
X147177668Y-76402458D01*
X147177668Y-76402458D02*
X147139573Y-76478649D01*
X147139573Y-76478649D02*
X147101477Y-76516744D01*
X147101477Y-76516744D02*
X147025287Y-76554839D01*
X147025287Y-76554839D02*
X146834811Y-76554839D01*
X146834811Y-76554839D02*
X146758620Y-76516744D01*
X146758620Y-76516744D02*
X146720525Y-76478649D01*
X146720525Y-76478649D02*
X146682430Y-76402458D01*
X146682430Y-76402458D02*
X146682430Y-76250077D01*
X146682430Y-76250077D02*
X146720525Y-76173887D01*
X146720525Y-76173887D02*
X146758620Y-76135792D01*
X146758620Y-76135792D02*
X146834811Y-76097696D01*
X154035763Y-74954839D02*
X153997668Y-74878649D01*
X153997668Y-74878649D02*
X153997668Y-74764363D01*
X153997668Y-74764363D02*
X154035763Y-74650077D01*
X154035763Y-74650077D02*
X154111953Y-74573887D01*
X154111953Y-74573887D02*
X154188144Y-74535792D01*
X154188144Y-74535792D02*
X154340525Y-74497696D01*
X154340525Y-74497696D02*
X154454811Y-74497696D01*
X154454811Y-74497696D02*
X154607192Y-74535792D01*
X154607192Y-74535792D02*
X154683382Y-74573887D01*
X154683382Y-74573887D02*
X154759573Y-74650077D01*
X154759573Y-74650077D02*
X154797668Y-74764363D01*
X154797668Y-74764363D02*
X154797668Y-74840554D01*
X154797668Y-74840554D02*
X154759573Y-74954839D01*
X154759573Y-74954839D02*
X154721477Y-74992935D01*
X154721477Y-74992935D02*
X154454811Y-74992935D01*
X154454811Y-74992935D02*
X154454811Y-74840554D01*
X154797668Y-75335792D02*
X153997668Y-75335792D01*
X153997668Y-75335792D02*
X153997668Y-75640554D01*
X153997668Y-75640554D02*
X154035763Y-75716744D01*
X154035763Y-75716744D02*
X154073858Y-75754839D01*
X154073858Y-75754839D02*
X154150049Y-75792935D01*
X154150049Y-75792935D02*
X154264334Y-75792935D01*
X154264334Y-75792935D02*
X154340525Y-75754839D01*
X154340525Y-75754839D02*
X154378620Y-75716744D01*
X154378620Y-75716744D02*
X154416715Y-75640554D01*
X154416715Y-75640554D02*
X154416715Y-75335792D01*
X154797668Y-76173887D02*
X154797668Y-76326268D01*
X154797668Y-76326268D02*
X154759573Y-76402458D01*
X154759573Y-76402458D02*
X154721477Y-76440554D01*
X154721477Y-76440554D02*
X154607192Y-76516744D01*
X154607192Y-76516744D02*
X154454811Y-76554839D01*
X154454811Y-76554839D02*
X154150049Y-76554839D01*
X154150049Y-76554839D02*
X154073858Y-76516744D01*
X154073858Y-76516744D02*
X154035763Y-76478649D01*
X154035763Y-76478649D02*
X153997668Y-76402458D01*
X153997668Y-76402458D02*
X153997668Y-76250077D01*
X153997668Y-76250077D02*
X154035763Y-76173887D01*
X154035763Y-76173887D02*
X154073858Y-76135792D01*
X154073858Y-76135792D02*
X154150049Y-76097696D01*
X154150049Y-76097696D02*
X154340525Y-76097696D01*
X154340525Y-76097696D02*
X154416715Y-76135792D01*
X154416715Y-76135792D02*
X154454811Y-76173887D01*
X154454811Y-76173887D02*
X154492906Y-76250077D01*
X154492906Y-76250077D02*
X154492906Y-76402458D01*
X154492906Y-76402458D02*
X154454811Y-76478649D01*
X154454811Y-76478649D02*
X154416715Y-76516744D01*
X154416715Y-76516744D02*
X154340525Y-76554839D01*
X159115763Y-74223886D02*
X159077668Y-74147696D01*
X159077668Y-74147696D02*
X159077668Y-74033410D01*
X159077668Y-74033410D02*
X159115763Y-73919124D01*
X159115763Y-73919124D02*
X159191953Y-73842934D01*
X159191953Y-73842934D02*
X159268144Y-73804839D01*
X159268144Y-73804839D02*
X159420525Y-73766743D01*
X159420525Y-73766743D02*
X159534811Y-73766743D01*
X159534811Y-73766743D02*
X159687192Y-73804839D01*
X159687192Y-73804839D02*
X159763382Y-73842934D01*
X159763382Y-73842934D02*
X159839573Y-73919124D01*
X159839573Y-73919124D02*
X159877668Y-74033410D01*
X159877668Y-74033410D02*
X159877668Y-74109601D01*
X159877668Y-74109601D02*
X159839573Y-74223886D01*
X159839573Y-74223886D02*
X159801477Y-74261982D01*
X159801477Y-74261982D02*
X159534811Y-74261982D01*
X159534811Y-74261982D02*
X159534811Y-74109601D01*
X159877668Y-74604839D02*
X159077668Y-74604839D01*
X159077668Y-74604839D02*
X159077668Y-74909601D01*
X159077668Y-74909601D02*
X159115763Y-74985791D01*
X159115763Y-74985791D02*
X159153858Y-75023886D01*
X159153858Y-75023886D02*
X159230049Y-75061982D01*
X159230049Y-75061982D02*
X159344334Y-75061982D01*
X159344334Y-75061982D02*
X159420525Y-75023886D01*
X159420525Y-75023886D02*
X159458620Y-74985791D01*
X159458620Y-74985791D02*
X159496715Y-74909601D01*
X159496715Y-74909601D02*
X159496715Y-74604839D01*
X159877668Y-75823886D02*
X159877668Y-75366743D01*
X159877668Y-75595315D02*
X159077668Y-75595315D01*
X159077668Y-75595315D02*
X159191953Y-75519124D01*
X159191953Y-75519124D02*
X159268144Y-75442934D01*
X159268144Y-75442934D02*
X159306239Y-75366743D01*
X159077668Y-76319125D02*
X159077668Y-76395315D01*
X159077668Y-76395315D02*
X159115763Y-76471506D01*
X159115763Y-76471506D02*
X159153858Y-76509601D01*
X159153858Y-76509601D02*
X159230049Y-76547696D01*
X159230049Y-76547696D02*
X159382430Y-76585791D01*
X159382430Y-76585791D02*
X159572906Y-76585791D01*
X159572906Y-76585791D02*
X159725287Y-76547696D01*
X159725287Y-76547696D02*
X159801477Y-76509601D01*
X159801477Y-76509601D02*
X159839573Y-76471506D01*
X159839573Y-76471506D02*
X159877668Y-76395315D01*
X159877668Y-76395315D02*
X159877668Y-76319125D01*
X159877668Y-76319125D02*
X159839573Y-76242934D01*
X159839573Y-76242934D02*
X159801477Y-76204839D01*
X159801477Y-76204839D02*
X159725287Y-76166744D01*
X159725287Y-76166744D02*
X159572906Y-76128648D01*
X159572906Y-76128648D02*
X159382430Y-76128648D01*
X159382430Y-76128648D02*
X159230049Y-76166744D01*
X159230049Y-76166744D02*
X159153858Y-76204839D01*
X159153858Y-76204839D02*
X159115763Y-76242934D01*
X159115763Y-76242934D02*
X159077668Y-76319125D01*
X133677668Y-62370077D02*
X133677668Y-62865315D01*
X133677668Y-62865315D02*
X133982430Y-62598649D01*
X133982430Y-62598649D02*
X133982430Y-62712934D01*
X133982430Y-62712934D02*
X134020525Y-62789125D01*
X134020525Y-62789125D02*
X134058620Y-62827220D01*
X134058620Y-62827220D02*
X134134811Y-62865315D01*
X134134811Y-62865315D02*
X134325287Y-62865315D01*
X134325287Y-62865315D02*
X134401477Y-62827220D01*
X134401477Y-62827220D02*
X134439573Y-62789125D01*
X134439573Y-62789125D02*
X134477668Y-62712934D01*
X134477668Y-62712934D02*
X134477668Y-62484363D01*
X134477668Y-62484363D02*
X134439573Y-62408172D01*
X134439573Y-62408172D02*
X134401477Y-62370077D01*
X133677668Y-63093887D02*
X134477668Y-63360554D01*
X134477668Y-63360554D02*
X133677668Y-63627220D01*
X133677668Y-63817696D02*
X133677668Y-64312934D01*
X133677668Y-64312934D02*
X133982430Y-64046268D01*
X133982430Y-64046268D02*
X133982430Y-64160553D01*
X133982430Y-64160553D02*
X134020525Y-64236744D01*
X134020525Y-64236744D02*
X134058620Y-64274839D01*
X134058620Y-64274839D02*
X134134811Y-64312934D01*
X134134811Y-64312934D02*
X134325287Y-64312934D01*
X134325287Y-64312934D02*
X134401477Y-64274839D01*
X134401477Y-64274839D02*
X134439573Y-64236744D01*
X134439573Y-64236744D02*
X134477668Y-64160553D01*
X134477668Y-64160553D02*
X134477668Y-63931982D01*
X134477668Y-63931982D02*
X134439573Y-63855791D01*
X134439573Y-63855791D02*
X134401477Y-63817696D01*
X134553858Y-64465316D02*
X134553858Y-65074839D01*
X134058620Y-65265316D02*
X134058620Y-65531982D01*
X134477668Y-65646268D02*
X134477668Y-65265316D01*
X134477668Y-65265316D02*
X133677668Y-65265316D01*
X133677668Y-65265316D02*
X133677668Y-65646268D01*
X134477668Y-65989126D02*
X133677668Y-65989126D01*
X133677668Y-65989126D02*
X134477668Y-66446269D01*
X134477668Y-66446269D02*
X133677668Y-66446269D01*
X169275763Y-74916744D02*
X169237668Y-74840554D01*
X169237668Y-74840554D02*
X169237668Y-74726268D01*
X169237668Y-74726268D02*
X169275763Y-74611982D01*
X169275763Y-74611982D02*
X169351953Y-74535792D01*
X169351953Y-74535792D02*
X169428144Y-74497697D01*
X169428144Y-74497697D02*
X169580525Y-74459601D01*
X169580525Y-74459601D02*
X169694811Y-74459601D01*
X169694811Y-74459601D02*
X169847192Y-74497697D01*
X169847192Y-74497697D02*
X169923382Y-74535792D01*
X169923382Y-74535792D02*
X169999573Y-74611982D01*
X169999573Y-74611982D02*
X170037668Y-74726268D01*
X170037668Y-74726268D02*
X170037668Y-74802459D01*
X170037668Y-74802459D02*
X169999573Y-74916744D01*
X169999573Y-74916744D02*
X169961477Y-74954840D01*
X169961477Y-74954840D02*
X169694811Y-74954840D01*
X169694811Y-74954840D02*
X169694811Y-74802459D01*
X170037668Y-75297697D02*
X169237668Y-75297697D01*
X169237668Y-75297697D02*
X170037668Y-75754840D01*
X170037668Y-75754840D02*
X169237668Y-75754840D01*
X170037668Y-76135792D02*
X169237668Y-76135792D01*
X169237668Y-76135792D02*
X169237668Y-76326268D01*
X169237668Y-76326268D02*
X169275763Y-76440554D01*
X169275763Y-76440554D02*
X169351953Y-76516744D01*
X169351953Y-76516744D02*
X169428144Y-76554839D01*
X169428144Y-76554839D02*
X169580525Y-76592935D01*
X169580525Y-76592935D02*
X169694811Y-76592935D01*
X169694811Y-76592935D02*
X169847192Y-76554839D01*
X169847192Y-76554839D02*
X169923382Y-76516744D01*
X169923382Y-76516744D02*
X169999573Y-76440554D01*
X169999573Y-76440554D02*
X170037668Y-76326268D01*
X170037668Y-76326268D02*
X170037668Y-76135792D01*
X131175763Y-62836744D02*
X131137668Y-62760554D01*
X131137668Y-62760554D02*
X131137668Y-62646268D01*
X131137668Y-62646268D02*
X131175763Y-62531982D01*
X131175763Y-62531982D02*
X131251953Y-62455792D01*
X131251953Y-62455792D02*
X131328144Y-62417697D01*
X131328144Y-62417697D02*
X131480525Y-62379601D01*
X131480525Y-62379601D02*
X131594811Y-62379601D01*
X131594811Y-62379601D02*
X131747192Y-62417697D01*
X131747192Y-62417697D02*
X131823382Y-62455792D01*
X131823382Y-62455792D02*
X131899573Y-62531982D01*
X131899573Y-62531982D02*
X131937668Y-62646268D01*
X131937668Y-62646268D02*
X131937668Y-62722459D01*
X131937668Y-62722459D02*
X131899573Y-62836744D01*
X131899573Y-62836744D02*
X131861477Y-62874840D01*
X131861477Y-62874840D02*
X131594811Y-62874840D01*
X131594811Y-62874840D02*
X131594811Y-62722459D01*
X131937668Y-63217697D02*
X131137668Y-63217697D01*
X131137668Y-63217697D02*
X131937668Y-63674840D01*
X131937668Y-63674840D02*
X131137668Y-63674840D01*
X131937668Y-64055792D02*
X131137668Y-64055792D01*
X131137668Y-64055792D02*
X131137668Y-64246268D01*
X131137668Y-64246268D02*
X131175763Y-64360554D01*
X131175763Y-64360554D02*
X131251953Y-64436744D01*
X131251953Y-64436744D02*
X131328144Y-64474839D01*
X131328144Y-64474839D02*
X131480525Y-64512935D01*
X131480525Y-64512935D02*
X131594811Y-64512935D01*
X131594811Y-64512935D02*
X131747192Y-64474839D01*
X131747192Y-64474839D02*
X131823382Y-64436744D01*
X131823382Y-64436744D02*
X131899573Y-64360554D01*
X131899573Y-64360554D02*
X131937668Y-64246268D01*
X131937668Y-64246268D02*
X131937668Y-64055792D01*
%TO.C,U1*%
X125125373Y-79986268D02*
X176125373Y-79986268D01*
X176125373Y-79986268D02*
X176125373Y-58986268D01*
X127792373Y-61993268D02*
X125125373Y-61993268D01*
X125125373Y-58986268D02*
X125125373Y-79986268D01*
X125125373Y-58986268D02*
X176125373Y-58986268D01*
X127792373Y-58986268D02*
X127792373Y-61993268D01*
%TD*%
%LPC*%
D11*
%TO.C,SW1*%
X193487873Y-66986268D03*
D12*
X193487873Y-71986268D03*
X193487873Y-69486268D03*
D13*
X200987873Y-63886268D03*
X200987873Y-75086268D03*
D12*
X207987873Y-71986268D03*
X207987873Y-66986268D03*
%TD*%
D14*
%TO.C,D2*%
X151577889Y-93298788D03*
D15*
X159197889Y-93298788D03*
%TD*%
D14*
%TO.C,D1*%
X132527873Y-93298788D03*
D15*
X140147873Y-93298788D03*
%TD*%
D14*
%TO.C,D4*%
X196821677Y-83773780D03*
D15*
X204441677Y-83773780D03*
%TD*%
D16*
%TO.C,S2*%
X150307873Y-107586268D03*
D17*
X155387873Y-107586268D03*
D16*
X160467873Y-107586268D03*
D18*
X151577873Y-105046268D03*
X157927873Y-102506268D03*
%TD*%
D16*
%TO.C,S3*%
X169357873Y-107586268D03*
D17*
X174437873Y-107586268D03*
D16*
X179517873Y-107586268D03*
D18*
X170627873Y-105046268D03*
X176977873Y-102506268D03*
%TD*%
D19*
%TO.C,U1*%
X126495373Y-78376268D03*
X129035373Y-78376268D03*
D20*
X131575373Y-78376268D03*
D19*
X134115373Y-78376268D03*
X136655373Y-78376268D03*
X139195373Y-78376268D03*
X141735373Y-78376268D03*
D20*
X144275373Y-78376268D03*
D19*
X146815373Y-78376268D03*
X149355373Y-78376268D03*
X151895373Y-78376268D03*
X154435373Y-78376268D03*
D20*
X156975373Y-78376268D03*
D19*
X159515373Y-78376268D03*
X162055373Y-78376268D03*
X164595373Y-78376268D03*
X167135373Y-78376268D03*
D20*
X169675373Y-78376268D03*
D19*
X172215373Y-78376268D03*
X174755373Y-78376268D03*
X174755373Y-60596268D03*
X172215373Y-60596268D03*
D20*
X169675373Y-60596268D03*
D19*
X167135373Y-60596268D03*
X164595373Y-60596268D03*
X162055373Y-60596268D03*
X159515373Y-60596268D03*
D20*
X156975373Y-60596268D03*
D19*
X154435373Y-60596268D03*
X151895373Y-60596268D03*
X149355373Y-60596268D03*
X146815373Y-60596268D03*
D20*
X144275373Y-60596268D03*
D19*
X141735373Y-60596268D03*
X139195373Y-60596268D03*
X136655373Y-60596268D03*
X134115373Y-60596268D03*
D20*
X131575373Y-60596268D03*
D19*
X129035373Y-60596268D03*
X126495373Y-60596268D03*
X174525373Y-72026268D03*
D20*
X174525373Y-69486268D03*
D19*
X174525373Y-66946268D03*
%TD*%
D16*
%TO.C,S1*%
X131257873Y-107586268D03*
D17*
X136337873Y-107586268D03*
D16*
X141417873Y-107586268D03*
D18*
X132527873Y-105046268D03*
X138877873Y-102506268D03*
%TD*%
D14*
%TO.C,D3*%
X170627905Y-93298788D03*
D15*
X178247905Y-93298788D03*
%TD*%
%LPD*%
M02*
